<?xml version="1.0" encoding="UTF-8" standalone="no"?>
<svg
   sodipodi:docname="1F47A.svg"
   inkscape:version="1.2 (dc2aedaf03, 2022-05-15)"
   id="svg8"
   version="1.1"
   viewBox="0 0 67.733331 67.733331"
   height="256"
   width="256"
   xmlns:inkscape="http://www.inkscape.org/namespaces/inkscape"
   xmlns:sodipodi="http://sodipodi.sourceforge.net/DTD/sodipodi-0.dtd"
   xmlns="http://www.w3.org/2000/svg"
   xmlns:svg="http://www.w3.org/2000/svg"
   xmlns:rdf="http://www.w3.org/1999/02/22-rdf-syntax-ns#"
   xmlns:cc="http://creativecommons.org/ns#"
   xmlns:dc="http://purl.org/dc/elements/1.1/">
  <defs
     id="defs2" />
  <sodipodi:namedview
     inkscape:snap-object-midpoints="false"
     units="px"
     inkscape:window-maximized="0"
     inkscape:window-y="64"
     inkscape:window-x="450"
     inkscape:window-height="981"
     inkscape:window-width="1470"
     showgrid="false"
     inkscape:document-rotation="0"
     inkscape:current-layer="g6413"
     inkscape:document-units="px"
     inkscape:cy="223.24371"
     inkscape:cx="184.85791"
     inkscape:zoom="0.49497475"
     inkscape:pageshadow="2"
     inkscape:pageopacity="0.0"
     borderopacity="1.0"
     bordercolor="#666666"
     pagecolor="#ffffff"
     id="base"
     inkscape:pagecheckerboard="0"
     inkscape:showpageshadow="2"
     inkscape:deskcolor="#d1d1d1"
     showguides="true">
    <sodipodi:guide
       position="46.772165,85.10585"
       orientation="0,-1"
       id="guide1383"
       inkscape:locked="false" />
  </sodipodi:namedview>
  <metadata
     id="metadata5">
    <rdf:RDF>
      <cc:Work
         rdf:about="">
        <dc:format>image/svg+xml</dc:format>
        <dc:type
           rdf:resource="http://purl.org/dc/dcmitype/StillImage" />
        <cc:license
           rdf:resource="http://creativecommons.org/publicdomain/zero/1.0/" />
        <dc:creator>
          <cc:Agent>
            <dc:title>Dexterux</dc:title>
          </cc:Agent>
        </dc:creator>
        <dc:publisher>
          <cc:Agent>
            <dc:title>Dexterux</dc:title>
          </cc:Agent>
        </dc:publisher>
      </cc:Work>
      <cc:License
         rdf:about="http://creativecommons.org/publicdomain/zero/1.0/">
        <cc:permits
           rdf:resource="http://creativecommons.org/ns#Reproduction" />
        <cc:permits
           rdf:resource="http://creativecommons.org/ns#Distribution" />
        <cc:permits
           rdf:resource="http://creativecommons.org/ns#DerivativeWorks" />
      </cc:License>
    </rdf:RDF>
  </metadata>
  <g
     id="layer1"
     inkscape:groupmode="layer"
     inkscape:label="Layer 1">
    <g
       id="g2774"
       transform="matrix(1.063506,0,0,1.089075,-58.793491,-2.9192855)"
       style="stroke-width:0.929183" />
    <g
       id="g6413"
       transform="translate(-64.586638,0.21510933)">
      <g
         id="g6436"
         transform="translate(0.92493069)">
        <path
           style="font-variation-settings:normal;fill:#e23636;fill-opacity:1;stroke:#861313;stroke-width:2.64583;stroke-linecap:butt;stroke-linejoin:miter;stroke-miterlimit:4;stroke-dasharray:none;stroke-dashoffset:0;stroke-opacity:1;stop-color:#000000"
           d="m 97.546884,9.9509059 c -9.993252,0 -7.522015,-1.2196337 -12.333579,-1.2196337 -4.811582,0 -10.341804,3.3897248 -10.362689,18.2644738 -0.02088,14.874747 1.089484,18.363823 3.495269,21.593114 2.405791,3.229294 5.671415,7.630673 9.742748,8.92239 4.071331,1.291719 13.862537,2.039239 18.504957,-1.635161 2.5234,-1.997218 5.8093,-8.692577 7.59747,-15.872975 0.43709,-1.755095 0.58765,-3.431039 0.55848,-5.059256 -0.0902,-5.033101 -1.18911,-9.562912 -1.56042,-14.612132 -0.49142,-6.682651 -2.59569,-11.8406851 -7.25838,-11.1833369 -3.82928,0.5398553 -4.60585,0.8025168 -8.383856,0.8025168 z"
           id="path1492"
           sodipodi:nodetypes="sssssssssss" />
        <g
           id="g6421"
           transform="matrix(1,0,0,0.92995623,0,2.08578)"
           style="stroke-width:1.03698">
          <path
             style="font-variation-settings:normal;fill:#eaeae1;fill-opacity:1;stroke:none;stroke-width:0.274365px;stroke-linecap:butt;stroke-linejoin:miter;stroke-miterlimit:4;stroke-dasharray:none;stroke-dashoffset:0;stroke-opacity:1;stop-color:#000000"
             d="m 84.874575,14.775126 c -1.771611,7.872586 -1.771611,6.540753 -1.771611,8.83187 0,2.291119 0.08263,5.154323 1.348075,5.563797 1.265439,0.409475 7.086444,1.964162 8.520606,1.555035 1.434162,-0.409131 1.900942,-10.933763 1.900942,-10.933763"
             id="path2076" />
          <path
             style="fill:none;stroke:#262626;stroke-width:4.1155;stroke-linecap:round;stroke-linejoin:miter;stroke-dasharray:none;stroke-opacity:1"
             d="m 83.487239,14.558201 c 4.381797,1.172513 11.385348,5.793671 11.385348,5.793671"
             id="path4839-8-3"
             sodipodi:nodetypes="cc" />
          <path
             style="font-variation-settings:normal;fill:#eaeae1;fill-opacity:1;stroke:none;stroke-width:0.274365px;stroke-linecap:butt;stroke-linejoin:miter;stroke-miterlimit:4;stroke-dasharray:none;stroke-dashoffset:0;stroke-opacity:1;stop-color:#000000"
             d="m 101.43037,20.351872 c 0.11581,5.57058 0.21187,10.348636 1.12453,10.435511 0.91265,0.08687 4.45653,-0.722779 5.4104,-1.608443 0.81961,-0.760994 1.05735,-6.366522 1.05735,-7.452444 1e-5,-1.281388 -1.03986,-5.490469 -1.03986,-5.490469"
             id="path2116"
             sodipodi:nodetypes="csssc" />
          <path
             style="fill:none;stroke:#262626;stroke-width:4.1155;stroke-linecap:round;stroke-linejoin:miter;stroke-dasharray:none;stroke-opacity:1"
             d="m 107.51712,14.558201 c -2.34256,1.172513 -6.08675,5.793671 -6.08675,5.793671"
             id="path4839-8-3-5"
             sodipodi:nodetypes="cc" />
          <ellipse
             style="fill:#262626;fill-opacity:1;stroke:none;stroke-width:4.11549;stroke-linecap:round;stroke-linejoin:round;stroke-dasharray:none;stroke-opacity:1;stop-color:#000000"
             id="path4934-5-1"
             cx="91.27446"
             cy="25.885937"
             rx="1.5543598"
             ry="3.2209384" />
          <ellipse
             style="fill:#262626;fill-opacity:1;stroke:none;stroke-width:4.11549;stroke-linecap:round;stroke-linejoin:round;stroke-dasharray:none;stroke-opacity:1;stop-color:#000000"
             id="path4934-5-1-2"
             cx="104.47374"
             cy="25.885937"
             rx="1.5543598"
             ry="3.2209384" />
        </g>
        <path
           style="fill:#e1d451;fill-opacity:1;stroke:#861313;stroke-width:2.11666;stroke-linecap:butt;stroke-linejoin:miter;stroke-dasharray:none;stroke-opacity:1"
           d="m 90.133954,42.298383 c -2.616067,2.438253 -3.652069,4.814832 -3.378888,6.654216 0.273182,1.839383 2.172056,1.772094 2.875858,1.772094 2.168456,0 5.739603,-3.629107 8.82238,-3.629107 3.082776,0 5.061086,2.677486 7.477726,2.677486 0.95199,0 2.40786,-1.549874 1.3357,-4.624318 -0.47369,-1.358315 -2.42904,-2.569836 -2.42904,-2.569836"
           id="path6330"
           sodipodi:nodetypes="csssssc" />
        <path
           style="font-variation-settings:normal;opacity:1;fill:#262626;fill-opacity:1;stroke:none;stroke-width:3.96875;stroke-linecap:round;stroke-linejoin:miter;stroke-miterlimit:4;stroke-dasharray:none;stroke-dashoffset:0;stroke-opacity:1;stop-color:#000000;stop-opacity:1"
           d="m 99.05573,42.830743 c -3.596991,0.05463 -10.137032,2.950216 -11.035253,2.950216 -0.898216,0 -4.170296,-1.420472 -5.389307,-6.118967 -1.219009,-4.698493 -1.975144,-6.009701 -0.705743,-5.791166 1.269401,0.218531 6.699773,5.135563 9.422212,5.681897 2.722437,0.546337 4.434487,-0.760085 7.708091,-0.707844 3.27361,0.05224 3.93301,1.073079 6.35606,0.817113 2.50983,-0.265132 5.38351,-6.0856 6.28315,-6.009701 1.2952,0.109266 -1.3919,11.680619 -3.82991,11.680619 -2.43803,0 -5.21231,-2.556807 -8.8093,-2.502167 z"
           id="path6305"
           sodipodi:nodetypes="zssssssssz" />
        <g
           id="g6328"
           transform="matrix(0.91830602,0,0,0.92888439,8.1486705,2.8607554)"
           style="stroke-width:1.08274">
          <path
             style="font-variation-settings:normal;fill:#9e2e2e;fill-opacity:1;stroke:none;stroke-width:2.29181;stroke-linecap:butt;stroke-linejoin:miter;stroke-miterlimit:4;stroke-dasharray:none;stroke-dashoffset:0;stroke-opacity:1;stop-color:#000000"
             d="m 98.444992,27.940623 c 1.552238,0 2.498708,4.01913 3.375798,4.67322 0.87707,0.65409 10.0475,1.680358 12.10226,1.107615 4.25336,-1.185593 6.40968,-1.30481 7.87117,1.154186 1.46149,2.458998 -0.22366,6.426101 -4.11688,6.257787 -3.39483,-0.82371 -13.69296,-0.284703 -20.467936,-0.980133 -3.229457,-0.331493 -5.658389,-0.943473 -6.157517,-2.117234 -0.694659,-1.960369 0.763073,-3.227191 1.879315,-3.981147 2.075422,-1.401823 2.294414,-0.893253 3.195896,-2.004911 1.259726,-1.463783 0.07062,-3.641739 2.317894,-4.109383 z"
             id="path2788"
             sodipodi:nodetypes="cssscscscc" />
          <path
             style="font-variation-settings:normal;fill:none;fill-opacity:1;stroke:#762323;stroke-width:2.29181;stroke-linecap:round;stroke-linejoin:miter;stroke-miterlimit:4;stroke-dasharray:none;stroke-dashoffset:0;stroke-opacity:1;stop-color:#000000"
             d="m 98.444992,27.940623 c 1.552238,0 2.498708,4.01913 3.375798,4.67322 0.87707,0.65409 10.0475,1.680358 12.10226,1.107615 4.25336,-1.185593 6.40968,-1.30481 7.87117,1.154186 1.46149,2.458998 -0.22366,6.426101 -4.11688,6.257787 -3.39483,-0.82371 -13.69296,-0.284703 -20.467936,-0.980133 -3.229457,-0.331493 -5.658389,-0.943473 -6.157517,-2.117234"
             id="path2788-8"
             sodipodi:nodetypes="cssscsc" />
        </g>
      </g>
    </g>
  </g>
</svg>
