<?xml version="1.0" encoding="UTF-8" standalone="no"?>
<svg
   width="256"
   height="256"
   viewBox="0 0 67.733331 67.733331"
   version="1.1"
   id="svg8"
   inkscape:version="1.2 (dc2aedaf03, 2022-05-15)"
   sodipodi:docname="1F479_plain.svg"
   xmlns:inkscape="http://www.inkscape.org/namespaces/inkscape"
   xmlns:sodipodi="http://sodipodi.sourceforge.net/DTD/sodipodi-0.dtd"
   xmlns="http://www.w3.org/2000/svg"
   xmlns:svg="http://www.w3.org/2000/svg"
   xmlns:rdf="http://www.w3.org/1999/02/22-rdf-syntax-ns#"
   xmlns:cc="http://creativecommons.org/ns#"
   xmlns:dc="http://purl.org/dc/elements/1.1/">
  <defs
     id="defs2" />
  <sodipodi:namedview
     id="base"
     pagecolor="#ffffff"
     bordercolor="#666666"
     borderopacity="1.0"
     inkscape:pageopacity="0.0"
     inkscape:pageshadow="2"
     inkscape:zoom="2.8660764"
     inkscape:cx="124.38608"
     inkscape:cy="135.55117"
     inkscape:document-units="px"
     inkscape:current-layer="layer1"
     inkscape:document-rotation="0"
     showgrid="false"
     inkscape:window-width="1920"
     inkscape:window-height="991"
     inkscape:window-x="-9"
     inkscape:window-y="-9"
     inkscape:window-maximized="1"
     units="px"
     inkscape:snap-object-midpoints="false"
     inkscape:showpageshadow="2"
     inkscape:pagecheckerboard="0"
     inkscape:deskcolor="#d1d1d1" />
  <metadata
     id="metadata5">
    <rdf:RDF>
      <cc:Work
         rdf:about="">
        <dc:format>image/svg+xml</dc:format>
        <dc:type
           rdf:resource="http://purl.org/dc/dcmitype/StillImage" />
        <cc:license
           rdf:resource="http://creativecommons.org/publicdomain/zero/1.0/" />
        <dc:creator>
          <cc:Agent>
            <dc:title>Dexterux</dc:title>
          </cc:Agent>
        </dc:creator>
        <dc:publisher>
          <cc:Agent>
            <dc:title>Dexterux</dc:title>
          </cc:Agent>
        </dc:publisher>
      </cc:Work>
      <cc:License
         rdf:about="http://creativecommons.org/publicdomain/zero/1.0/">
        <cc:permits
           rdf:resource="http://creativecommons.org/ns#Reproduction" />
        <cc:permits
           rdf:resource="http://creativecommons.org/ns#Distribution" />
        <cc:permits
           rdf:resource="http://creativecommons.org/ns#DerivativeWorks" />
      </cc:License>
    </rdf:RDF>
  </metadata>
  <g
     inkscape:groupmode="layer"
     id="layer2"
     inkscape:label="Layer 2"
     sodipodi:insensitive="true"
     style="display:none">
    <path
       style="fill:none;stroke:#000000;stroke-width:0.264583px;stroke-linecap:butt;stroke-linejoin:miter;stroke-opacity:1"
       d="M 114.81026,9.8378651 C 114.58978,9.708378 114.3926,9.5264997 114.1488,9.4494044 c -0.18019,-0.056982 -0.37943,0.023442 -0.56696,0 -0.31874,-0.039842 -0.62923,-0.1297914 -0.94494,-0.1889882 -0.13896,-0.026053 -0.75804,-0.1088885 -0.94494,-0.1889882 -0.10439,-0.044736 -0.17804,-0.1468101 -0.28348,-0.1889879 -0.0585,-0.023397 -0.13265,0.028173 -0.18899,0 -0.0797,-0.039842 -0.11486,-0.13957 -0.18899,-0.1889881 -0.0262,-0.017473 -0.0683,0.017473 -0.0945,0 -0.0741,-0.049418 -0.11942,-0.1333341 -0.18899,-0.1889882 -0.17736,-0.1418902 -0.37798,-0.2519841 -0.56697,-0.377976 -0.37573,-0.2504898 -0.76584,-0.4930325 -1.13392,-0.7559524 -0.51231,-0.3659293 -1.00284,-0.7636981 -1.51191,-1.1339285 -0.0918,-0.066797 -0.1948,-0.118043 -0.28348,-0.1889881 -0.0696,-0.055654 -0.11942,-0.1333341 -0.18899,-0.1889882 -0.0887,-0.070945 -0.1861,-0.1305578 -0.28348,-0.1889881 -0.0604,-0.036237 -0.13399,-0.050496 -0.18899,-0.094494 -0.10435,-0.083481 -0.17229,-0.2093549 -0.28348,-0.2834822 -0.16576,-0.1105024 -0.39282,-0.092243 -0.56697,-0.1889882 -0.18898,-0.1259919 -0.37797,-0.2519841 -0.56696,-0.377976 -0.063,-0.062996 -0.11486,-0.1395701 -0.18899,-0.1889882 -0.37608,-0.2507178 -0.30868,-0.1322916 -0.66146,-0.283482 -0.88075,-0.3774654 0.11513,-0.034603 -0.75595,-0.2834822 -0.0958,-0.027364 -0.18523,-0.078119 -0.28348,-0.094494 -0.002,-2.646e-4 -0.41673,0.018579 -0.47247,0 -0.36751,-0.1225034 -0.006,-0.1328584 -0.56697,-0.1889881 -0.18805,-0.018804 -0.37797,0 -0.56696,0 -0.53547,0 -1.07093,0 -1.6064,0 -0.125989,0 -0.251984,0 -0.377976,0 -0.0315,0 -0.07222,-0.022273 -0.09449,0 -0.02228,0.022273 0,0.062996 0,0.094494 0,0.031498 0,0.062996 0,0.094494 0,0.031498 -0.02228,0.072222 0,0.094494 0.02228,0.022273 0.06632,-0.014086 0.09449,0 0.07968,0.039842 0.114861,0.1395698 0.188989,0.1889882 0.0586,0.039068 0.132647,0.052235 0.188987,0.094494 0.0713,0.053454 0.11486,0.1395699 0.18899,0.1889879 0.0524,0.034944 0.13264,-0.028173 0.18899,0 0.0722,0.036092 0.21949,0.2621534 0.28348,0.2834823 0.0598,0.01992 0.13264,-0.028173 0.18899,0 0.0282,0.014086 -0.0252,0.075595 0,0.094494 0.91397,0.4569835 -0.0102,-0.054914 0.56696,0.377976 0.23238,0.1742821 0.1851,-0.00584 0.37798,0.2834823 0.0781,0.1172053 0.11085,0.2607706 0.18899,0.377976 0.0494,0.074127 0.14914,0.1093039 0.18898,0.1889882 0.18899,0.377976 -0.0945,0.047247 0,0.283482 0.20308,0.5076861 0.18899,0.2144085 0.18899,0.4724704 0,0.031498 -0.0141,0.066321 0,0.094494 0.0788,0.1575351 0.18899,0.042696 0.18899,0.283482 0,0.031498 0.0223,0.072222 0,0.094494 -0.0223,0.022273 -0.063,0 -0.0945,0 -0.0635,0 -0.7222,0.013504 -0.75596,0 -0.0827,-0.033087 -0.12599,-0.1259919 -0.18898,-0.1889882 -0.0315,-0.031498 -0.063,-0.062996 -0.0945,-0.094494 -0.62596,-0.6259674 -0.01,-0.069461 -0.47247,-0.3779761 -0.0371,-0.024709 -0.0574,-0.069785 -0.0945,-0.094494 -0.0586,-0.039068 -0.13919,-0.044691 -0.18899,-0.094494 -0.0498,-0.049803 -0.0554,-0.1303853 -0.0945,-0.1889879 -0.0247,-0.037064 -0.063,-0.062996 -0.0945,-0.094494 -0.0315,-0.031498 -0.0574,-0.069785 -0.0945,-0.094494 -0.0586,-0.039069 -0.13265,-0.052235 -0.18899,-0.094494 -0.0713,-0.053454 -0.12599,-0.1259919 -0.18899,-0.1889882 -0.063,-0.062996 -0.125989,-0.1259919 -0.188987,-0.1889879 -0.0315,-0.031498 -0.05465,-0.074573 -0.09449,-0.094494 -0.08909,-0.044545 -0.194392,-0.049949 -0.283482,-0.094494 -0.03984,-0.01992 -0.05971,-0.066667 -0.09449,-0.094494 -0.160012,-0.1280081 -0.46963,-0.3573732 -0.661458,-0.4724701 -0.300273,-0.1801633 -0.06942,-0.043068 -0.377979,-0.094494 -0.24,0.080666 -0.3737,-0.1406724 -0.566962,-0.1889882 -0.06112,-0.01528 -0.132643,0.028173 -0.188989,0 -0.233251,-0.1166257 -0.113684,-0.2457259 -0.377976,-0.283482 -0.155908,-0.022273 -0.314981,0 -0.472469,0 -0.283482,0 -0.566965,0 -0.850448,0 -0.220485,0 -0.440973,0 -0.661458,0 -0.063,0 -0.126378,-0.00696 -0.188989,0 -0.221361,0.024596 -0.442325,0.054652 -0.661458,0.094494 -0.127773,0.023233 -0.258607,0.043336 -0.377976,0.094494 -0.104384,0.044737 -0.179097,0.1442517 -0.283483,0.1889882 -0.119366,0.051158 -0.257394,0.046262 -0.377975,0.094494 -0.04136,0.016544 -0.0563,0.071576 -0.09449,0.094494 -1.031615,0.5158073 -0.08427,-0.00767 -0.472469,0.2834819 -0.228057,0.1710426 -0.252621,0.173558 -0.472472,0.2834823 -0.125991,0.062996 -0.258524,0.1143307 -0.377975,0.1889881 -0.133551,0.083469 -0.241237,0.205345 -0.377976,0.283482 -0.08648,0.049418 -0.194392,0.049949 -0.283483,0.094494 -0.03984,0.01992 -0.063,0.062996 -0.09449,0.094494 -0.0945,0.062996 -0.181904,0.138199 -0.283482,0.1889881 -0.544931,0.2724653 -0.02535,-0.1227283 -0.566965,0.283482 -0.03564,0.026727 -0.063,0.062996 -0.09449,0.094494 -0.063,0.062996 -0.133334,0.1194207 -0.188989,0.1889882 -0.07095,0.088681 -0.108683,0.2031775 -0.188986,0.2834819 -0.0498,0.049803 -0.125992,0.062996 -0.18899,0.094494 -0.188986,0.094494 -0.385781,0.1747719 -0.566965,0.2834823 -0.214011,0.128407 -0.430688,0.3570853 -0.661458,0.4724701 -0.08909,0.044545 -0.185809,0.07496 -0.28348,0.094494 -0.06177,0.012353 -0.134972,-0.032411 -0.188989,0 -0.114591,0.068754 -0.176575,0.2033013 -0.283483,0.283482 -0.02519,0.018899 -0.06299,0 -0.09449,0 -0.063,0 -0.129225,-0.01992 -0.188989,0 -0.04226,0.014086 -0.05743,0.069785 -0.09449,0.094494 -0.0586,0.039069 -0.122172,0.072222 -0.18899,0.094494 -0.0521,0.017365 -0.357772,-0.020204 -0.377975,0 -0.02228,0.022273 0,0.062996 0,0.094494 0,0.1649256 -0.02817,0.080408 0.188989,0.1889882 0.125992,0.062996 0.251984,0.1259919 0.377976,0.1889879 0,0.031498 -0.02228,0.072222 0,0.094494 0.02228,0.022273 0.06394,-0.00764 0.09449,0 0.09663,0.024159 0.191003,0.057502 0.283482,0.094494 0.06539,0.026157 0.122172,0.072222 0.18899,0.094494 0.123203,0.041068 0.253103,0.058816 0.377975,0.094494 0.09577,0.027364 0.185812,0.07496 0.283483,0.094494 0.06177,0.012353 0.129225,-0.019921 0.188986,0 1.34859,0.4495294 0.185976,0.092987 0.944941,0.4724701 0.02817,0.014086 0.06632,-0.014086 0.09449,0 0.101578,0.050789 0.178038,0.1468104 0.283482,0.1889884 0.05849,0.0234 0.134969,-0.03241 0.188989,0 0.114591,0.06875 0.167455,0.21718 0.283483,0.283482 0.285543,0.07139 0.349001,0.05821 0.566962,0.188988 0.09738,0.05843 0.181907,0.138199 0.283483,0.188988 0.02817,0.01409 0.06632,-0.01409 0.0945,0 0.03984,0.01992 0.05743,0.06978 0.09449,0.09449 0.117205,0.07814 0.260771,0.110851 0.377976,0.188988 0.08602,0.05735 0.199728,0.241605 0.283482,0.283482 0.02817,0.01409 0.06632,-0.01409 0.09449,0 0.393261,0.196631 -0.101017,-0.0065 0.09449,0.188988 0.04454,0.04454 0.132643,-0.02817 0.188989,0 0.208931,0.104466 0.02932,0.05865 0.09449,0.188988 0.08864,0.177285 0.121222,0.04041 0.283483,0.09449 0.161311,0.05377 0.09449,0.278078 0.09449,0.377977 0,0.063 0,0.125992 0,0.188988 0,0.0315 0,0.063 0,0.09449 0,0.0315 0.02228,0.07222 0,0.09449 -0.02228,0.02227 -0.063,0 -0.09449,0 -0.063,0 -0.125992,0 -0.188987,0 -0.15749,0 -0.314981,0 -0.472472,0 -0.06299,0 -0.130497,-0.0234 -0.188986,0 -0.130789,0.05232 -0.251987,0.125992 -0.377979,0.188988 -0.06299,0.0315 -0.130384,0.05542 -0.188986,0.09449 -0.03706,0.02471 -0.05886,0.06777 -0.09449,0.09449 -0.09086,0.06814 -0.19263,0.120847 -0.283483,0.188988 -0.03564,0.02673 -0.05465,0.07457 -0.0945,0.09449 -0.02817,0.01409 -0.06828,-0.01747 -0.09449,0 -0.07413,0.04942 -0.125992,0.125992 -0.188987,0.188988 -0.0945,0.09449 -0.18202,0.196514 -0.283482,0.283482 -0.119576,0.102493 -0.258403,0.180989 -0.377976,0.283482 -0.101465,0.08697 -0.188989,0.188989 -0.283482,0.283482 -0.157491,0.157491 -0.329886,0.301369 -0.472472,0.472471 -0.173461,0.208154 -0.299008,0.453304 -0.472469,0.661458 -0.142584,0.171102 -0.338836,0.294291 -0.472472,0.47247 -0.367744,0.490328 -0.346707,0.638353 -0.566962,1.133929 -0.05721,0.128722 -0.125992,0.251984 -0.18899,0.377976 -0.0315,0.063 -0.07741,0.120659 -0.09449,0.188988 -0.01527,0.06112 0.0089,0.126625 0,0.188988 -0.05981,0.418687 -0.106606,0.555812 -0.283482,0.944941 -0.08743,0.192355 -0.174771,0.38578 -0.283483,0.566964 -0.162055,0.270093 -0.410689,0.482473 -0.566965,0.755952 -0.04942,0.08648 -0.05328,0.192805 -0.09449,0.283482 -0.116578,0.256475 -0.259916,0.500156 -0.377976,0.755953 -0.07108,0.15401 -0.125992,0.31498 -0.188989,0.47247 -0.09985,0.249624 -0.209415,0.496719 -0.28348,0.755952 -0.03568,0.124873 -0.05882,0.253104 -0.0945,0.377976 -0.05473,0.191546 -0.125992,0.377976 -0.188987,0.566965 -0.0315,0.09449 -0.05526,0.19193 -0.0945,0.283482 -0.108071,0.252172 -0.329104,0.635401 -0.472469,0.850446 -0.08736,0.13104 -0.202453,0.24293 -0.283482,0.377976 -0.108709,0.181184 -0.182303,0.381469 -0.283483,0.566965 -0.08795,0.161237 -0.194286,0.311919 -0.283482,0.47247 -0.102613,0.184705 -0.174771,0.38578 -0.28348,0.566964 -0.05843,0.09738 -0.125992,0.188987 -0.188989,0.283483 -0.125992,0.188987 -0.245957,0.382135 -0.377976,0.566963 -0.0259,0.03625 -0.06979,0.05743 -0.09449,0.0945 -0.232127,0.03369 -0.03924,0.200604 -0.0945,0.283479 -0.04942,0.07413 -0.125992,0.125992 -0.188987,0.18899 -0.063,0.063 -0.125992,0.125992 -0.188989,0.188989 -0.063,0.06299 -0.112593,0.14315 -0.188987,0.188986 -0.12437,0.07462 -0.303106,0.03925 -0.377978,0.18899 -0.01408,0.02817 0.02228,0.07222 0,0.09449 -0.02228,0.02228 -0.07222,-0.02228 -0.09449,0 -0.02228,0.02228 0,0.063 0,0.09449 0,0.0315 -0.01408,0.06632 0,0.0945 0.01992,0.03984 0.063,0.06299 0.09449,0.09449 0.0315,0.0315 0.05465,0.07457 0.0945,0.09449 0.02817,0.01408 0.063,0 0.09449,0 0.0315,0 0.063,0 0.09449,0 0.157491,0 0.314982,0 0.472472,0 0.0315,0 0.06361,-0.0062 0.09449,0 0.127346,0.02548 0.249872,0.07314 0.377975,0.09449 0.06214,0.01037 0.125992,0 0.18899,0 0.09449,0 0.188986,0 0.283482,0 0.188987,0 0.377976,0 0.566962,0 0.125992,0 0.253699,-0.02072 0.377976,0 0.128103,0.02135 0.249875,0.07314 0.377979,0.0945 0.118184,0.01969 0.55454,0 0.661458,0 0.207595,0 0.666332,0.02045 0.850445,0 0.159626,-0.01773 0.316656,-0.05554 0.472472,-0.0945 0.204943,-0.05123 0.412993,-0.129511 0.566962,-0.28348 0.02228,-0.02228 -0.01408,-0.06632 0,-0.0945 0.01992,-0.03984 0.063,-0.06299 0.0945,-0.09449 0.0315,-0.0315 0.05886,-0.06777 0.09449,-0.09449 0.09085,-0.06814 0.192627,-0.120849 0.283483,-0.18899 0.03563,-0.02672 0.05465,-0.07457 0.09449,-0.09449 0.02817,-0.01408 0.06461,0.0099 0.09449,0 0.06682,-0.02228 0.122172,-0.07222 0.188989,-0.09449 0.02988,-0.0099 0.07222,0.02228 0.09449,0 0.02228,-0.02228 0.0315,-0.0945 0,-0.0945 -0.0315,0 0,0.063 0,0.0945 0,0.0315 0,0.06299 0,0.09449 0,0.769697 0,0.364231 0,1.133927 0,0.125992 0,0.251984 0,0.377976 0,0.063 0.01527,0.127873 0,0.18899 -0.01709,0.06833 -0.063,0.125991 -0.09449,0.188989 -0.063,0.125992 -0.154823,0.241318 -0.188989,0.377976 -0.351562,1.406255 0.472869,-0.851639 -0.09449,0.850444 -0.07586,0.227574 -0.207624,0.433888 -0.283483,0.661459 -0.08214,0.246411 -0.130582,0.502864 -0.188986,0.755954 -0.03612,0.156496 -0.0381,0.322085 -0.0945,0.472469 -0.03987,0.106336 -0.138197,0.181904 -0.188987,0.283483 -0.04454,0.08909 -0.05952,0.190219 -0.0945,0.283482 -0.05956,0.158821 -0.118798,0.31805 -0.188986,0.472469 -0.08743,0.192357 -0.211275,0.36839 -0.283483,0.566965 -0.05489,0.15094 -0.04834,0.318635 -0.09449,0.472469 -0.04079,0.135975 -0.457745,1.107422 -0.472472,1.13393 -0.112138,0.201851 -0.249272,0.138507 -0.283482,0.377976 -0.02228,0.155906 0,0.314979 0,0.472469 0,0.125992 0.02471,0.254431 0,0.377976 -0.03907,0.195344 -0.13657,0.374774 -0.188987,0.566965 -0.04226,0.15495 -0.03961,0.321532 -0.09449,0.472472 -0.07221,0.198572 -0.20501,0.370781 -0.283483,0.566962 -0.09646,0.241162 -0.106852,0.509542 -0.188989,0.755954 -0.05364,0.160917 -0.140247,0.310002 -0.188986,0.472469 -0.04615,0.153837 -0.03961,0.321533 -0.0945,0.472469 -0.07221,0.198575 -0.188987,0.377979 -0.283483,0.566965 -0.0315,0.063 -0.07222,0.122172 -0.09449,0.18899 -0.0099,0.02988 0.01408,0.06632 0,0.09449 -0.05079,0.101579 -0.130559,0.186097 -0.188987,0.283482 -0.03624,0.06039 -0.05543,0.130384 -0.0945,0.188987 -0.02471,0.03706 -0.07457,0.05465 -0.09449,0.0945 -0.04454,0.08909 -0.0575,0.191 -0.09449,0.283482 -0.02617,0.06539 -0.07222,0.122169 -0.0945,0.188987 -0.138502,0.415507 -0.02574,0.369334 -0.28348,0.755952 -0.09884,0.148256 -0.279141,0.229721 -0.377978,0.377978 -0.01746,0.02622 0.01407,0.06632 0,0.09449 -0.144082,0.288166 -0.07491,-0.172826 -0.188987,0.283483 0,0.430162 0.04454,0.0054 -0.09449,0.283482 -0.01408,0.02817 0.01408,0.06632 0,0.09449 -0.01992,0.03984 -0.07457,0.05465 -0.0945,0.09449 -0.03292,0.06584 -0.134813,0.351507 -0.09449,0.472472 0.209986,0.629959 -0.0525,-0.220488 0.283482,0.283479 0.03494,0.05242 -0.02817,0.132644 0,0.18899 0.01408,0.02817 0.07222,-0.02228 0.09449,0 0.0498,0.0498 0.04469,0.139184 0.09449,0.188989 0.02228,0.02228 0.063,0 0.0945,0 0.06299,0.063 0.13957,0.114861 0.188986,0.188986 0.01746,0.02622 -0.02228,0.07222 0,0.09449 0.04454,0.04454 0.144444,-0.04454 0.188989,0 0.0498,0.0498 0.04469,0.139186 0.09449,0.188989 0.02228,0.02228 0.063,0 0.09449,0 0.0315,0 0.063,0 0.0945,0 0.05424,0 0.347009,0.01857 0.377976,0 0.680741,-0.408445 0.197342,-0.105632 0.472469,-0.472469 0.196318,-0.261758 0.36522,-0.260871 0.661458,-0.472472 0.0725,-0.05178 0.109305,-0.149145 0.188989,-0.188986 0.116158,-0.05808 0.261816,-0.03641 0.377976,-0.0945 0.913966,-0.685475 -0.06003,-0.01723 0.661458,-0.377976 0.101579,-0.05079 0.174284,-0.15779 0.283483,-0.188987 0.121145,-0.03461 0.252957,0.01564 0.377976,0 0.91114,-0.113892 -0.168254,-0.05243 0.755951,-0.283482 0.122232,-0.03056 0.251984,0 0.377976,0 0.283482,0 0.566965,0 0.850448,0 0.125991,0 0.251983,0 0.377975,0 0.0315,0 0.09449,0.0315 0.09449,0 0,-0.0315 -0.063,0 -0.09449,0 -0.0315,0 -0.07222,-0.02228 -0.09449,0 -0.0803,0.0803 -0.130559,0.186097 -0.188989,0.283482 -0.130654,0.217755 -0.286814,0.42444 -0.377976,0.661459 -0.07829,0.203549 -0.188185,1.492633 -0.188987,1.511903 -0.01836,0.440589 0.02201,0.882494 0,1.322916 -0.0474,0.948103 -0.08971,0.199771 -0.283482,1.039434 -0.0571,0.247444 -0.063,0.503968 -0.0945,0.755955 -0.0315,0.251984 -0.06645,0.50356 -0.09449,0.755951 -0.0035,0.03131 0.01408,0.06632 0,0.09449 -0.05079,0.101578 -0.125992,0.188989 -0.188987,0.283482 -0.176776,0.265163 -0.572601,0.808109 -0.661458,1.133927 -0.04144,0.151943 0.03416,0.318731 0,0.472472 -0.09621,0.432933 -0.173263,0.29401 -0.377979,0.566965 -0.07668,0.102238 -0.112307,0.275736 -0.188986,0.377976 -0.05345,0.07127 -0.135536,0.117716 -0.188989,0.188987 -0.04226,0.05635 -0.05223,0.132643 -0.09449,0.188989 -0.05345,0.07127 -0.13957,0.114861 -0.188989,0.188986 -0.685136,1.370275 0.199213,-0.298815 -0.377976,0.566965 -0.01746,0.02622 0,0.063 0,0.09449 -0.0315,0.063 -0.0505,0.13399 -0.09449,0.188989 -0.08348,0.104352 -0.203301,0.176575 -0.283483,0.283482 -0.01889,0.02519 0.01746,0.06829 0,0.09449 -0.04942,0.07413 -0.125991,0.125992 -0.188986,0.188989 -0.0315,0.0315 -0.05743,0.06978 -0.0945,0.09449 -0.0586,0.03907 -0.149918,0.03589 -0.188987,0.09449 -0.03494,0.05242 0.03494,0.136573 0,0.18899 -0.03907,0.0586 -0.14673,0.03815 -0.188989,0.09449 -0.536252,0.715002 0.511921,-0.195805 -0.377976,0.566965 -0.119575,0.102492 -0.254997,0.185097 -0.377975,0.283483 -0.03478,0.02783 -0.06979,0.05743 -0.09449,0.09449 -0.03907,0.0586 -0.04469,0.139184 -0.0945,0.188989 -0.281966,0.281966 -0.269975,0.05398 -0.377975,0.377976 -0.0099,0.02988 0,0.06299 0,0.09449 0,0.063 0,0.125992 0,0.188989 0,0.125992 -0.04963,0.262171 0,0.377976 0.06204,0.144756 0.185099,0.254998 0.283482,0.377976 0.0315,0.0315 0.063,0.063 0.09449,0.09449 0.0315,0 0.07222,-0.02228 0.0945,0 0.125992,0.125992 -0.200453,0.09067 0.09449,0.188989 0.05976,0.01992 0.125992,0 0.188986,0 0.063,0 0.125992,0 0.188989,0 0.399902,0 0.775629,-0.104333 1.133928,-0.283482 0.164274,-0.08214 0.301945,-0.215273 0.472472,-0.283483 0.149121,-0.05965 0.322087,-0.0381 0.472469,-0.09449 0.0049,-0.0019 0.552317,-0.369607 0.566965,-0.377976 0.122303,-0.06989 0.254838,-0.120581 0.377975,-0.188989 0.160552,-0.08919 0.311232,-0.195535 0.472472,-0.283482 1.20628,-0.657971 0.107553,-0.134904 0.850445,-0.283483 0.138128,-0.02763 0.244343,-0.144441 0.377976,-0.188986 0.123206,-0.04107 0.261818,-0.03641 0.377976,-0.0945 0.140864,-0.07043 0.237114,-0.213051 0.377978,-0.28348 0.178178,-0.08909 0.384921,-0.108083 0.566962,-0.18899 1.051642,-0.467394 -0.207354,0.06102 0.377976,-0.377975 0.07968,-0.05976 0.198073,-0.04325 0.283483,-0.09449 0.0764,-0.04584 0.125992,-0.125992 0.188989,-0.188989 0.063,-0.063 0.13957,-0.114861 0.188986,-0.188989 0.01746,-0.02622 -0.02228,-0.07222 0,-0.09449 0.02228,-0.02228 0.063,0 0.0945,0 0.220486,0 0.440971,0 0.661459,0 0.06299,0 0.129225,-0.01992 0.188986,0 0.175064,0.05836 0.05649,0.263967 0.0945,0.377975 0.01408,0.04226 0.08819,0.0504 0.09449,0.0945 0.02672,0.187087 -0.01881,0.378913 0,0.566963 0.02585,0.25845 0.152254,0.498824 0.188986,0.755954 0.01336,0.09354 0,0.188987 0,0.28348 0,0.376298 0,0.190669 0,0.566965 0,0.106593 0.01614,0.629195 0,0.661458 -0.19663,0.393261 0.0065,-0.101018 -0.188986,0.09449 -0.02228,0.02228 0,0.063 0,0.0945 0,0.0315 0,0.063 0,0.09449 0,0.0315 -0.02228,0.07222 0,0.09449 0.02228,0.02228 0.06299,0 0.09449,0 0.05436,0 0.539139,0.01855 0.566965,0 1.614037,-1.076026 -0.506934,0.114599 0.661458,-0.566962 0.280117,-0.163402 0.564917,-0.318725 0.850445,-0.472472 0.124026,-0.06678 0.267981,-0.100992 0.377978,-0.188987 0.055,-0.044 0.063,-0.125992 0.09449,-0.188989 0.15749,-0.125992 0.311121,-0.256966 0.472469,-0.377976 0.321566,-0.241175 0.688924,-0.435932 0.944941,-0.755951 0.07094,-0.08868 0.125992,-0.18899 0.188989,-0.283483 0.06299,-0.0945 0.130556,-0.1861 0.188986,-0.283482 0.03624,-0.06039 0.05224,-0.132644 0.0945,-0.18899 0.05345,-0.07127 0.139568,-0.11486 0.188987,-0.188986 0.03494,-0.05242 -0.02817,-0.132644 0,-0.188989 0.063,-0.09449 0.125992,-0.188987 0.188989,-0.283483 0,-0.0315 -0.01408,-0.06632 0,-0.09449 0.0567,-0.113393 0.226785,-0.17009 0.283483,-0.283483 0.0378,-0.07559 -0.0378,-0.207885 0,-0.283482 0.01992,-0.03984 0.055,-0.07388 0.09449,-0.09449 0.383196,-0.199996 0.778378,-0.376129 1.167569,-0.564195"
       id="path2449" />
  </g>
  <g
     inkscape:label="Layer 1"
     inkscape:groupmode="layer"
     id="layer1">
    <path
       id="path13732"
       style="color:#000000;fill:#4d4d4d;stroke-width:2.64583"
       d="M 21.218859 7.4305539 C 20.492312 7.4418268 19.742198 7.5428335 19.07222 7.6796343 C 18.625573 7.7708357 18.23586 7.8686112 17.85369 8.0331011 C 17.662604 8.1153465 17.470052 8.1856584 17.199466 8.4511634 C 17.064179 8.5839161 16.887022 8.7878384 16.796907 9.140527 C 16.772311 9.2367851 16.762338 9.3424659 16.762801 9.4505856 C 16.758138 9.4489315 16.753511 9.4470716 16.748848 9.445418 C 16.454491 9.3410515 16.15892 9.2383942 15.862597 9.1374264 C 15.858784 9.1361271 15.855041 9.1345909 15.851228 9.1332923 C 15.849514 9.1327073 15.847775 9.1323269 15.846061 9.131742 C 15.543388 9.0286874 15.241263 8.9272398 14.943273 8.8299517 C 14.457564 8.6713765 13.983366 8.522416 13.535091 8.3881182 C 13.086816 8.2538204 12.664461 8.1341846 12.28142 8.0351682 C 11.6111 7.8618894 11.176739 7.7163216 10.626741 7.7209755 C 10.548171 7.7216403 10.467148 7.7251853 10.382828 7.7323443 C 10.052746 7.7603643 9.7268225 7.9431652 9.535335 8.1462725 C 9.3438472 8.3493797 9.2501807 8.5534587 9.1854855 8.7421017 C 9.153138 8.8364233 9.1276098 8.9290367 9.1074541 9.0211545 C 9.0872984 9.1132722 9.0724766 9.2049946 9.0619789 9.2971066 C 9.0409833 9.4813305 9.0368081 9.6676416 9.0392412 9.8650306 C 9.0489712 10.654586 9.2106923 11.60866 9.5193153 12.677779 C 9.5858841 12.908384 9.660502 13.14477 9.7410072 13.384196 C 9.7494173 13.409167 9.7572464 13.433558 9.7658118 13.45861 C 9.7964607 13.548405 9.8292825 13.639166 9.86193 13.729911 C 9.8738016 13.762844 9.8849321 13.795567 9.89707 13.828613 C 9.9388833 13.942679 9.9828054 14.057537 10.027811 14.172778 C 10.033691 14.187804 10.039447 14.202693 10.045381 14.217736 C 10.086138 14.321251 10.128621 14.425114 10.171989 14.529345 C 10.18822 14.568288 10.204483 14.607109 10.221081 14.646134 C 10.267142 14.754609 10.31478 14.863252 10.363708 14.972212 C 10.369749 14.985647 10.375711 14.99908 10.381795 15.01252 C 10.437212 15.13509 10.494261 15.257592 10.553361 15.380456 C 10.558666 15.391478 10.564045 15.402506 10.56938 15.413529 C 10.628734 15.536241 10.689745 15.65879 10.752832 15.781465 C 10.754782 15.785257 10.756563 15.789042 10.758516 15.792834 C 10.642509 15.845817 10.524206 15.904526 10.398331 15.978352 C 10.254473 16.062722 10.094484 16.157839 9.9022376 16.37316 C 9.7099923 16.588481 9.4555264 17.04015 9.5213823 17.556551 L 9.5234494 17.556551 C 9.5743478 17.955594 9.8008334 18.26756 9.980269 18.431432 C 10.159705 18.595309 10.305213 18.664759 10.427787 18.718753 C 10.672936 18.82674 10.849578 18.860187 11.031368 18.894453 C 11.313549 18.947643 11.607836 18.972594 11.904183 18.999873 C 11.735435 19.220302 11.552471 19.398228 11.408089 19.660298 C 11.011982 20.37928 9.7702797 22.491667 9.3260454 25.26564 C 9.0769302 26.821223 8.5942484 27.978425 8.1622922 28.951203 C 7.946314 29.437595 7.7392153 29.872287 7.5798988 30.339749 C 7.420583 30.807217 7.2710705 31.358415 7.4470904 32.0213 C 7.5700774 32.484506 8.2037763 32.968933 8.5762204 33.021239 C 8.9486645 33.073549 9.1155653 32.9998 9.2459469 32.95716 C 9.5067111 32.87188 9.6259434 32.790551 9.7658118 32.704979 C 10.045551 32.53384 10.317199 32.330582 10.595735 32.113284 C 10.618125 32.095814 10.635974 32.080201 10.658264 32.062641 C 10.174043 33.742591 9.2467987 36.008779 9.267651 39.052912 C 9.279462 40.777272 8.9916151 41.974336 8.7265988 42.839761 C 8.5940913 43.27247 8.4657215 43.611979 8.3612465 43.96269 C 8.3090085 44.138045 8.2585238 44.316061 8.2361895 44.572472 C 8.2138555 44.828877 8.2179581 45.245722 8.5095578 45.662328 C 8.7738691 46.039943 9.2628626 46.267593 9.6071652 46.304666 C 9.9514677 46.341736 10.188817 46.277829 10.386963 46.214749 C 10.783248 46.088586 11.060205 45.915155 11.334192 45.728473 C 11.335792 45.727373 11.336209 45.725956 11.337809 45.724856 C 11.320409 45.832422 11.324186 46.011536 11.304736 46.09951 C 10.904398 47.909553 11.150799 49.549891 11.062373 51.129177 C 10.987919 52.459082 10.761337 53.109742 10.585917 53.52748 C 10.498207 53.736352 10.416092 53.869884 10.308414 54.162067 C 10.254574 54.308159 10.181379 54.514291 10.189559 54.830243 C 10.197759 55.146195 10.351238 55.542376 10.545092 55.777472 C 10.907007 56.216372 11.342272 56.301067 11.617378 56.328343 C 11.892489 56.355623 12.098343 56.327625 12.296923 56.291136 C 12.694095 56.218156 13.061129 56.087479 13.445174 55.920099 C 14.213257 55.585339 14.996002 55.147033 15.619201 54.450938 C 15.883859 54.155322 16.123169 53.762258 16.376778 53.398289 C 16.450928 53.800407 16.450079 54.116602 16.584 54.542922 C 16.822631 55.302564 16.830064 55.724698 16.845483 56.136623 C 16.853183 56.342588 16.806526 56.544457 16.984492 57.007888 C 17.073482 57.239604 17.277726 57.552531 17.568436 57.746344 C 17.859146 57.940157 18.159479 57.996235 18.375105 58.009894 C 18.724751 58.032044 19.385309 58.036877 20.097481 57.72464 C 20.412756 57.586411 20.728665 57.381189 21.029207 57.115892 C 21.09837 57.181701 21.168344 57.246433 21.240046 57.308645 C 23.565803 59.326448 27.598927 60.304844 30.892687 60.304844 L 33.867182 60.304844 L 36.839611 60.304844 C 40.133375 60.304844 44.168566 59.32645 46.494318 57.308645 C 46.566024 57.246433 46.636007 57.181701 46.705158 57.115892 C 47.0057 57.381189 47.321604 57.58641 47.636884 57.72464 C 48.349049 58.036882 49.009611 58.032042 49.359259 58.009894 C 49.574887 57.996234 49.873159 57.940156 50.163861 57.746344 C 50.45457 57.552531 50.660885 57.2396 50.749872 57.007888 C 50.927846 56.544466 50.88117 56.34259 50.888882 56.136623 C 50.904302 55.724694 50.909678 55.30257 51.148297 54.542922 C 51.281984 54.117356 51.281418 53.801834 51.35552 53.400356 C 51.608835 53.763844 51.848768 54.155684 52.113096 54.450938 C 52.736301 55.147027 53.519043 55.585339 54.287124 55.920099 C 54.671162 56.087479 55.040276 56.218158 55.437441 56.291136 C 55.636026 56.327626 55.840325 56.355623 56.115436 56.328343 C 56.390548 56.301063 56.825808 56.216375 57.187722 55.777472 C 57.381582 55.54238 57.534556 55.146196 57.542739 54.830243 C 57.550939 54.51429 57.477724 54.308161 57.423883 54.162067 C 57.316206 53.86988 57.234092 53.736353 57.146381 53.52748 C 56.970961 53.10974 56.744389 52.458566 56.669924 51.12866 C 56.581484 49.549389 56.829962 47.909563 56.429629 46.09951 C 56.410269 46.012 56.413876 45.833317 56.396556 45.726406 C 56.397377 45.726966 56.397723 45.727873 56.398623 45.728473 C 56.672605 45.915155 56.94956 46.088586 57.345852 46.214749 C 57.543998 46.277829 57.780835 46.341742 58.125132 46.304666 C 58.469435 46.267596 58.960492 46.039938 59.224807 45.662328 C 59.516397 45.245724 59.520508 44.828874 59.498175 44.572472 C 59.475845 44.316063 59.423284 44.138045 59.371051 43.96269 C 59.266578 43.611979 59.138207 43.272472 59.005699 42.839761 C 58.740685 41.974332 58.454916 40.777277 58.466713 39.052912 C 58.487513 36.00883 57.560314 33.742597 57.076101 32.062641 C 57.098361 32.080171 57.116269 32.095844 57.138629 32.113284 C 57.417171 32.330583 57.688807 32.533838 57.968553 32.704979 C 58.108426 32.790549 58.22765 32.871883 58.488418 32.95716 C 58.618797 32.9998 58.783661 33.074057 59.156077 33.021756 C 59.528493 32.969456 60.162169 32.484499 60.285207 32.0213 C 60.461232 31.358415 60.311715 30.807218 60.152399 30.339749 C 59.993082 29.872286 59.786503 29.437595 59.570522 28.951203 C 59.138512 27.978384 58.655373 26.821223 58.406252 25.26564 C 57.96202 22.49167 56.72239 20.379296 56.326276 19.660298 C 56.181894 19.398224 55.998931 19.220303 55.830182 18.999873 C 56.126531 18.972593 56.420809 18.947642 56.702997 18.894453 C 56.884788 18.860183 57.059355 18.826744 57.304511 18.718753 C 57.427084 18.664753 57.57465 18.595331 57.754096 18.431432 C 57.933222 18.267825 58.15953 17.956671 58.210915 17.558618 L 58.210915 17.556551 C 58.275815 17.041104 58.024101 16.588199 57.832127 16.37316 C 57.639866 16.157799 57.479897 16.062729 57.336033 15.978352 C 57.209741 15.90428 57.090999 15.845427 56.974298 15.792317 C 57.042707 15.659419 57.109221 15.526829 57.173252 15.393892 C 57.17332 15.393752 57.173185 15.393515 57.173252 15.393375 C 57.173321 15.393233 57.173184 15.393 57.173252 15.392858 C 57.234598 15.265478 57.294147 15.138555 57.351536 15.011486 C 57.354044 15.005933 57.356787 15.000502 57.359288 14.99495 C 57.362258 14.988367 57.365113 14.981894 57.368073 14.975313 C 57.42162 14.856018 57.472985 14.736931 57.523102 14.618229 C 57.531378 14.598674 57.539723 14.579368 57.547907 14.559834 C 57.592323 14.453555 57.635908 14.347577 57.677614 14.242024 C 57.693564 14.201765 57.708564 14.161751 57.724123 14.121618 C 57.761896 14.023923 57.799232 13.926482 57.834711 13.829646 C 57.836694 13.824234 57.838936 13.819036 57.840912 13.813627 C 57.851189 13.785568 57.860282 13.757888 57.870367 13.729911 C 57.902993 13.639166 57.935854 13.548405 57.966486 13.45861 C 57.97505 13.433562 57.982881 13.409162 57.99129 13.384196 C 58.071753 13.14477 58.146413 12.908384 58.212982 12.677779 C 58.483028 11.7423 58.64093 10.895061 58.682721 10.168888 C 58.688691 10.065149 58.692357 9.9637248 58.693573 9.8650306 C 58.696023 9.6676412 58.691964 9.4813303 58.671352 9.2971066 C 58.661046 9.2049948 58.646924 9.1132722 58.62691 9.0211545 C 58.606897 8.9290367 58.581227 8.8364237 58.548879 8.7421017 C 58.484183 8.5534579 58.390517 8.3493787 58.19903 8.1462725 C 58.00754 7.9431663 57.681617 7.7603639 57.351536 7.7323443 C 57.267216 7.7251862 57.186248 7.7216404 57.107623 7.7209755 C 56.557251 7.7163255 56.121714 7.8618894 55.451394 8.0351682 C 55.068354 8.1341846 54.646128 8.2538204 54.19824 8.3881182 C 53.750353 8.522416 53.276801 8.6713765 52.791091 8.8299517 C 52.499036 8.9253023 52.203008 9.02463 51.906391 9.1255409 C 51.882065 9.1338336 51.85786 9.1420229 51.833527 9.1503456 C 51.551076 9.2467516 51.269688 9.3449279 50.989134 9.4443844 C 50.982782 9.4466363 50.976363 9.4488496 50.970014 9.4511024 C 50.97029 9.3428028 50.960024 9.2369377 50.93539 9.140527 C 50.845282 8.7878378 50.668641 8.5839168 50.533348 8.4511634 C 50.262762 8.1856571 50.071755 8.1153463 49.880675 8.0331011 C 49.498505 7.8686108 49.108797 7.7708352 48.662144 7.6796343 C 47.768845 7.4972325 46.733603 7.3783611 45.80082 7.4512245 C 43.964602 7.5946633 42.966814 7.5532339 40.023395 8.5839719 C 38.354879 9.1682526 37.415684 10.053515 36.691299 10.568347 C 35.966914 11.083174 35.462487 11.386901 33.867182 11.386901 C 32.271884 11.386901 31.765389 11.083174 31.040998 10.568347 C 30.316612 10.053515 29.377414 9.1682529 27.708902 8.5839719 C 24.765485 7.5532431 23.769772 7.5946636 21.933544 7.4512245 C 21.700348 7.4330085 21.461043 7.4267963 21.218859 7.4305539 z M 11.179679 9.9689002 C 11.409498 10.005659 11.415262 9.9987092 11.751737 10.085689 C 12.10145 10.17609 12.499199 10.288435 12.927376 10.416418 C 13.355552 10.544401 13.814161 10.688022 14.284916 10.841715 C 14.710897 10.980791 15.146191 11.129435 15.580961 11.280965 C 15.758779 11.342874 15.929099 11.404594 16.105476 11.467517 C 16.280566 11.530018 16.458331 11.591188 16.630509 11.654069 C 16.631873 11.654567 16.63328 11.65512 16.634643 11.655619 C 16.633783 11.656287 16.632919 11.657017 16.632059 11.657686 C 17.448829 11.956318 18.223642 12.255504 18.860347 12.522749 C 18.86876 12.526281 18.878855 12.530081 18.887219 12.533601 C 18.88989 12.534731 18.892821 12.536091 18.895487 12.537219 C 19.105827 12.625825 19.301004 12.710776 19.47633 12.79095 C 19.602576 12.848681 19.722317 12.907007 19.839615 12.9651 C 19.873463 12.981861 19.906745 12.998438 19.939867 13.015226 C 20.034162 13.063027 20.125737 13.110892 20.214269 13.158886 C 20.234674 13.169944 20.256176 13.180892 20.276281 13.191959 C 20.383676 13.251097 20.486776 13.310368 20.585823 13.369726 C 20.605633 13.381595 20.624732 13.393507 20.644217 13.405383 C 20.723813 13.453912 20.80041 13.502483 20.874694 13.55111 C 20.897938 13.566317 20.92172 13.581371 20.944457 13.596586 C 21.035244 13.657371 21.123011 13.718661 21.20594 13.77952 C 21.288413 13.840045 21.365995 13.900376 21.441068 13.960904 C 21.454421 13.971661 21.467732 13.982705 21.480859 13.993461 C 21.631874 14.117319 21.768513 14.240596 21.891169 14.363981 C 21.898944 14.371791 21.906756 14.379428 21.914424 14.387235 C 22.233597 14.712641 22.460089 15.035573 22.623425 15.349967 C 22.624053 15.351176 22.624865 15.352375 22.625492 15.353584 C 22.628148 15.358704 22.630103 15.363972 22.632726 15.369087 C 22.695405 15.49152 22.749662 15.612789 22.79499 15.732373 C 22.818608 15.794681 22.839966 15.856488 22.859586 15.917891 C 22.984727 16.309528 23.035892 16.682347 23.070426 17.02325 C 23.046966 16.791702 23.057849 17.084621 22.980509 17.357596 C 22.903159 17.630568 22.776356 17.985091 22.622908 18.333764 C 22.316011 19.03111 21.777362 19.697111 21.714953 19.734195 C 20.832491 20.258565 19.678261 20.631199 18.804536 20.435444 C 18.613074 20.392548 18.46272 20.364591 18.318778 20.334675 C 18.193803 20.308702 18.075341 20.280569 17.945157 20.237007 C 17.888559 20.218068 17.828291 20.194646 17.76584 20.168794 C 17.751283 20.162722 17.737417 20.157228 17.722432 20.150707 C 17.653724 20.121015 17.581454 20.087593 17.501773 20.046838 C 16.961893 19.770696 16.125013 19.181611 14.820284 17.874877 C 14.713727 17.768158 14.609661 17.658417 14.507641 17.546215 C 14.500101 17.537922 14.492936 17.529215 14.48542 17.520894 C 14.393944 17.419613 14.30398 17.316546 14.216186 17.211352 C 14.189364 17.179242 14.163601 17.14613 14.137121 17.113683 C 14.067779 17.028636 13.998942 16.943015 13.931966 16.855818 C 13.907971 16.824614 13.884861 16.792709 13.861169 16.76125 C 13.793238 16.670943 13.725575 16.580632 13.660148 16.488399 C 13.642588 16.463677 13.625851 16.438316 13.608471 16.413468 C 13.533826 16.3066 13.460153 16.198945 13.388846 16.089973 C 13.385965 16.08557 13.383454 16.080944 13.380578 16.076538 C 13.302428 15.956798 13.225765 15.836046 13.151652 15.714286 C 13.142436 15.699163 13.133416 15.68396 13.124263 15.66881 C 13.05103 15.547462 12.979549 15.425197 12.910323 15.302425 C 12.835996 15.170606 12.764008 15.0384 12.694315 14.90555 C 12.693959 14.904871 12.693638 14.904162 12.693282 14.903483 C 12.692924 14.9028 12.692588 14.902107 12.692248 14.901416 C 12.692069 14.901074 12.69191 14.900723 12.691731 14.900382 C 12.632119 14.786641 12.574283 14.672846 12.518099 14.558801 C 12.515964 14.554467 12.51351 14.550216 12.511381 14.545882 C 12.510291 14.543666 12.509368 14.541379 12.50828 14.539164 C 12.506845 14.536239 12.505579 14.533304 12.504146 14.530379 C 12.447312 14.414368 12.392028 14.298507 12.338781 14.182596 C 12.283695 14.06268 12.230331 13.94279 12.179101 13.823445 C 12.12777 13.703865 12.07823 13.584905 12.03079 13.466361 C 11.984931 13.351767 11.940703 13.237979 11.898498 13.12478 C 11.88723 13.094632 11.876949 13.064893 11.865942 13.034863 C 11.83379 12.946928 11.801295 12.85914 11.771374 12.772347 C 11.771322 12.772195 11.771426 12.771981 11.771374 12.77183 C 11.761815 12.744157 11.753315 12.717208 11.743986 12.689664 C 11.741752 12.683058 11.739498 12.676633 11.737268 12.670027 C 11.709384 12.587428 11.68184 12.504748 11.656136 12.423531 C 11.620452 12.310935 11.586521 12.199416 11.55485 12.089701 C 11.491729 11.871042 11.438135 11.660681 11.392586 11.460282 C 11.347037 11.259883 11.309364 11.069187 11.279414 10.890291 C 11.249466 10.711395 11.227007 10.544212 11.210685 10.390063 C 11.194363 10.235915 11.184345 10.095058 11.179679 9.9689002 z M 56.554686 9.9689002 C 56.550021 10.095058 56.540002 10.235915 56.52368 10.390063 C 56.507358 10.544211 56.4849 10.711395 56.45495 10.890291 C 56.425 11.069187 56.387328 11.259883 56.341779 11.460282 C 56.296229 11.660681 56.242635 11.871042 56.179515 12.089701 C 56.147843 12.199416 56.113912 12.310935 56.078229 12.423531 C 56.052524 12.504748 56.02498 12.587428 55.997097 12.670027 C 55.994867 12.676633 55.992612 12.683058 55.990379 12.689664 C 55.981855 12.71483 55.97429 12.739321 55.965574 12.764595 C 55.964731 12.767045 55.963835 12.769379 55.96299 12.77183 C 55.962937 12.771986 55.963044 12.77219 55.96299 12.772347 C 55.933069 12.85914 55.900574 12.946928 55.868423 13.034863 C 55.858854 13.060968 55.850283 13.0867 55.840517 13.112894 C 55.839214 13.1164 55.83769 13.119723 55.836383 13.12323 C 55.836187 13.123739 55.836058 13.124266 55.835866 13.12478 C 55.793662 13.237979 55.749434 13.351767 55.703575 13.466361 C 55.656135 13.584905 55.606594 13.703865 55.555263 13.823445 C 55.504033 13.94279 55.45067 14.06268 55.395583 14.182596 C 55.342338 14.298507 55.287053 14.414368 55.230219 14.530379 C 55.228786 14.533304 55.22752 14.536239 55.226085 14.539164 C 55.225402 14.540554 55.224701 14.541907 55.224017 14.543298 C 55.223609 14.54413 55.223393 14.545049 55.222984 14.545882 C 55.220839 14.550248 55.218416 14.554435 55.216266 14.558801 C 55.160081 14.672846 55.102247 14.786641 55.042633 14.900382 C 55.042097 14.901406 55.04162 14.902459 55.041083 14.903483 C 55.040725 14.904165 55.040407 14.904867 55.040049 14.90555 C 54.970356 15.0384 54.898369 15.170606 54.824042 15.302425 C 54.754816 15.425197 54.683335 15.547462 54.610101 15.66881 C 54.600949 15.68396 54.591929 15.699163 54.582713 15.714286 C 54.508599 15.836046 54.431936 15.956798 54.353786 16.076538 C 54.351589 16.079905 54.349786 16.083508 54.347585 16.086873 C 54.346904 16.087913 54.346199 16.088934 54.345518 16.089973 C 54.274211 16.198945 54.200538 16.3066 54.125893 16.413468 C 54.108514 16.438316 54.091777 16.463677 54.074217 16.488399 C 54.00879 16.580632 53.941127 16.670943 53.873196 16.76125 C 53.849503 16.792709 53.826394 16.824614 53.802399 16.855818 C 53.735423 16.943015 53.666585 17.028636 53.597243 17.113683 C 53.570763 17.14613 53.545001 17.179242 53.518178 17.211352 C 53.430385 17.316546 53.340421 17.419613 53.248944 17.520894 C 53.24192 17.528671 53.23532 17.536912 53.228274 17.544665 C 53.227784 17.545203 53.227213 17.545677 53.226723 17.546215 C 53.124704 17.658417 53.020637 17.768158 52.914081 17.874877 C 51.609352 19.181611 50.772473 19.770696 50.232591 20.046838 C 50.151447 20.088341 50.077594 20.122185 50.007799 20.152258 C 49.995723 20.157492 49.984455 20.161786 49.972659 20.166727 C 49.91112 20.192336 49.852752 20.215554 49.796959 20.234423 C 49.794342 20.235308 49.791298 20.236651 49.788691 20.237524 C 49.786487 20.238268 49.78417 20.238856 49.781973 20.239591 C 49.656097 20.281316 49.540364 20.308914 49.419204 20.334159 C 49.417472 20.334519 49.415771 20.334832 49.414036 20.335192 C 49.270552 20.364974 49.120589 20.392705 48.929828 20.435444 C 48.056097 20.6312 46.901888 20.258569 46.019412 19.734195 C 45.957002 19.697115 45.416288 19.031111 45.10939 18.333764 C 44.95594 17.98509 44.831203 17.630566 44.753856 17.357596 C 44.676506 17.084628 44.687399 16.791682 44.663939 17.02325 C 44.698475 16.682345 44.749361 16.309528 44.874262 15.917891 C 44.893845 15.856488 44.915279 15.794681 44.938858 15.732373 C 44.980706 15.621782 45.030597 15.509523 45.087169 15.396476 C 45.096439 15.377979 45.105366 15.359736 45.115074 15.341182 C 45.213028 15.153673 45.332629 14.963353 45.481977 14.771191 C 45.581973 14.642529 45.695381 14.512475 45.823041 14.382584 C 45.827469 14.378079 45.832014 14.373654 45.836477 14.369148 C 45.961207 14.243222 46.100268 14.117299 46.254539 13.990877 C 46.26489 13.982402 46.275571 13.97403 46.286062 13.965555 C 46.362777 13.903531 46.442389 13.841541 46.526874 13.77952 C 46.611712 13.71724 46.701482 13.654654 46.794558 13.592452 C 46.813305 13.57993 46.832829 13.567244 46.851919 13.554728 C 46.926256 13.505963 47.003237 13.457667 47.082913 13.409 C 47.104718 13.395686 47.125811 13.381998 47.148025 13.368693 C 47.244465 13.310913 47.344947 13.253148 47.449298 13.195577 C 47.476405 13.180626 47.505361 13.166068 47.533014 13.151135 C 47.617007 13.105764 47.703278 13.060423 47.79243 13.015226 C 47.82555 12.998438 47.858836 12.981861 47.892682 12.9651 C 48.009975 12.907007 48.129721 12.848681 48.255968 12.79095 C 48.433861 12.709601 48.63169 12.623566 48.845596 12.533601 C 49.487311 12.263707 50.273833 11.960388 51.101789 11.657686 C 51.100743 11.656869 51.099734 11.655918 51.098688 11.655102 C 51.103584 11.653313 51.10877 11.651722 51.113674 11.649934 C 51.294745 11.583935 51.480984 11.519149 51.665062 11.453564 C 51.822695 11.397429 51.974495 11.341967 52.13325 11.286649 C 52.574004 11.132944 53.015501 10.982716 53.447382 10.841715 C 53.918136 10.688022 54.376745 10.544401 54.804922 10.416418 C 55.233098 10.288435 55.630847 10.17609 55.98056 10.085689 C 56.317605 9.998562 56.324806 10.005659 56.554686 9.9689002 z M 24.938012 15.639872 C 25.559634 15.695702 26.289045 15.818454 27.124958 16.000056 C 28.993582 16.40602 31.288908 16.994311 33.867182 16.994311 C 36.445465 16.994311 38.738719 16.40602 40.607339 16.000056 C 41.442653 15.818583 42.172676 15.696901 42.794286 15.640905 C 42.665986 16.066913 42.591569 16.46491 42.556574 16.810343 C 42.505314 17.316295 42.608334 17.552642 42.716771 17.935339 C 42.82521 18.318034 42.978907 18.746545 43.17204 19.185392 C 43.558309 20.063083 43.980076 20.985952 44.937307 21.554756 C 46.094145 22.242157 47.690852 22.881126 49.392332 22.499918 C 49.54187 22.466415 49.770192 22.430865 50.054307 22.359358 C 51.580202 27.850766 52.057079 31.244378 51.966852 32.984549 C 51.955502 33.203395 51.748569 34.227099 51.420115 35.423676 C 51.091665 36.620257 50.652551 38.079395 50.201068 39.570193 C 49.298106 42.551795 48.351347 45.550789 48.093704 47.304604 C 47.896741 48.645404 47.432856 50.37937 46.814195 51.912075 C 46.345753 53.072631 45.758246 54.119328 45.235997 54.789419 C 45.161459 54.885075 45.088769 54.97215 45.017406 55.051935 C 45.008739 55.06159 44.999661 55.072504 44.991051 55.081907 L 44.990534 55.082424 C 44.910855 55.169727 44.833505 55.246146 44.75954 55.310317 C 44.675631 55.383116 44.581556 55.455744 44.478421 55.528392 C 44.375283 55.601039 44.263009 55.673524 44.142524 55.745433 C 42.455737 56.752157 39.161158 57.657977 36.839611 57.657977 L 33.867182 57.657977 L 30.892687 57.657977 C 28.571147 57.657977 25.276564 56.752158 23.589774 55.745433 C 23.469288 55.673524 23.357015 55.601039 23.253877 55.528392 C 23.150739 55.455744 23.056667 55.383116 22.972757 55.310317 C 22.898969 55.246299 22.82182 55.169982 22.74228 55.082941 L 22.741764 55.082424 C 22.733428 55.073318 22.72483 55.062827 22.716442 55.053485 C 22.644926 54.97368 22.571914 54.886715 22.497334 54.790969 C 22.497435 54.790647 22.497233 54.790258 22.497334 54.789935 C 21.97554 54.119874 21.388762 53.072994 20.920169 51.912075 C 20.301511 50.379369 19.835562 48.645406 19.638594 47.304604 C 19.380952 45.550785 18.436257 42.551795 17.533296 39.570193 C 17.081818 38.079395 16.642704 36.620258 16.314249 35.423676 C 15.985795 34.227099 15.778862 33.203397 15.767512 32.984549 C 15.677296 31.244326 16.152063 27.850535 17.67799 22.358841 C 17.963174 22.43056 18.192276 22.466365 18.342032 22.499918 C 20.043512 22.881126 21.638155 22.242161 22.79499 21.554756 C 23.75223 20.985953 24.174508 20.063084 24.560774 19.185392 C 24.753907 18.746545 24.90709 18.318032 25.015526 17.935339 C 25.123964 17.552643 25.226974 17.316275 25.175723 16.810343 C 25.140705 16.464652 25.066338 16.066241 24.938012 15.639872 z " />
    <path
       style="fill:none;fill-opacity:1;stroke:#4d4d4d;stroke-width:1.58749995;stroke-linecap:butt;stroke-linejoin:miter;stroke-opacity:1;stroke-dasharray:none"
       d="m 45.138243,25.191086 c 1.40516,3.611101 1.13493,4.498039 1.13493,5.448328 0,0.95029 -0.87431,4.504064 -1.35439,5.156602 -0.9002,1.223575 -5.89786,1.384254 -7.31645,0.15393 -0.56648,-0.491297 -0.96005,-9.915988 -0.96005,-9.915988"
       id="path4869"
       sodipodi:nodetypes="csssc" />
    <path
       style="fill:none;stroke:#4d4d4d;stroke-width:3.96875;stroke-linecap:round;stroke-linejoin:miter;stroke-dasharray:none;stroke-opacity:1"
       d="m 46.835293,23.85755 c -4.07719,1.172513 -10.193,2.051898 -10.193,2.051898"
       id="path4839" />
    <ellipse
       style="fill:#4d4d4d;fill-opacity:1;stroke:none;stroke-width:3.96875;stroke-linecap:round;stroke-linejoin:round;stroke-dasharray:none;stroke-opacity:1;stop-color:#000000"
       id="path4934"
       cx="-40.613235"
       cy="32.025345"
       rx="1.528883"
       ry="2.9280863"
       transform="scale(-1,1)" />
    <path
       style="fill:none;fill-opacity:1;stroke:#4d4d4d;stroke-width:1.58749995;stroke-linecap:butt;stroke-linejoin:miter;stroke-opacity:1;stroke-dasharray:none"
       d="m 22.595106,25.191086 c -1.405152,3.611101 -1.134928,4.498039 -1.134928,5.448328 0,0.95029 0.874301,4.504064 1.354393,5.156602 0.900201,1.223575 5.897862,1.384254 7.316442,0.15393 0.56648,-0.491297 0.96006,-9.915988 0.96006,-9.915988"
       id="path4869-7"
       sodipodi:nodetypes="csssc" />
    <path
       style="fill:none;stroke:#4d4d4d;stroke-width:3.96875;stroke-linecap:round;stroke-linejoin:miter;stroke-dasharray:none;stroke-opacity:1"
       d="m 20.898053,23.85755 c 4.077192,1.172513 10.193,2.051898 10.193,2.051898"
       id="path4839-8" />
    <ellipse
       style="fill:#4d4d4d;fill-opacity:1;stroke:none;stroke-width:3.96875;stroke-linecap:round;stroke-linejoin:round;stroke-dasharray:none;stroke-opacity:1;stop-color:#000000"
       id="path4934-5"
       cx="27.12011"
       cy="32.025345"
       rx="1.528883"
       ry="2.9280863" />
    <path
       style="fill:#4d4d4d;fill-opacity:1;stroke:none;stroke-width:0.264583px;stroke-linecap:butt;stroke-linejoin:miter;stroke-opacity:1"
       d="m 31.400203,43.143714 c -0.45142,-0.260775 -1.45845,0.111758 -2.39599,0.111758 -0.93757,0 -1.94459,-0.409789 -2.15295,-1.154858 -0.20834,-0.745071 0,-1.192112 0.59033,-2.533239 0.59032,-1.341123 3.35106,-1.788165 3.81972,-1.788165 0.46866,0 0.93756,-1.825422 1.07646,-3.258836 0.1389,-1.433413 0.20834,-2.49503 1.52885,-2.49503 1.3205,0 1.38994,1.061617 1.52885,2.49503 0.13889,1.433414 0.60779,3.258836 1.07646,3.258836 0.46865,0 3.22939,0.447042 3.81971,1.788165 0.59033,1.341127 0.79868,1.788168 0.59033,2.533239 -0.20836,0.745069 -1.21538,1.154858 -2.15293,1.154858 -0.93756,0 -1.94458,-0.372535 -2.39601,-0.111758 -0.45142,0.260774 -1.35627,0.633311 -2.46641,0.633311 -1.11014,0 -2.015,-0.372537 -2.46642,-0.633311 z"
       id="path7524"
       sodipodi:nodetypes="sssssscsssssscs" />
    <path
       id="path13954"
       style="color:#000000;fill:#4d4d4d;stroke-width:2.11665;stroke-linecap:round;stroke-linejoin:round"
       d="M 26.402522 44.786929 C 25.277821 44.786929 24.491117 44.886019 23.822318 45.275271 C 23.153516 45.664518 22.812342 46.460731 22.775353 47.027102 C 22.756353 47.318017 22.638888 48.43185 22.585701 49.482249 C 22.559111 50.00745 22.545742 50.526186 22.575882 50.990168 C 22.590962 51.222156 22.61483 51.438472 22.672 51.669713 C 22.72917 51.90095 22.764172 52.188726 23.169644 52.513589 C 23.921843 53.116244 24.800988 53.354952 25.731245 53.399839 C 25.8242 53.614929 25.917555 53.805432 26.029418 53.978615 C 26.16647 54.190798 26.273283 54.504591 26.861409 54.568244 C 27.324957 54.618414 27.549438 54.360835 27.666011 54.226662 C 27.78258 54.09249 27.848585 53.974321 27.916125 53.84374 C 28.014834 53.652892 28.105722 53.437168 28.197244 53.193134 C 28.428102 53.154021 28.658324 53.112424 28.886608 53.070144 C 30.886089 52.699819 32.922609 52.162189 33.867182 52.162189 C 34.81175 52.162189 36.848277 52.699819 38.847757 53.070144 C 39.075514 53.112327 39.305295 53.153581 39.53557 53.192617 C 39.627002 53.436843 39.7174 53.652771 39.816173 53.84374 C 39.883713 53.974321 39.949715 54.09249 40.066287 54.226662 C 40.18286 54.360835 40.409405 54.618411 40.872956 54.568244 C 41.461072 54.504594 41.565829 54.190799 41.702879 53.978615 C 41.814817 53.805316 41.909599 53.614589 42.003119 53.399323 C 42.932498 53.354305 43.81074 53.116017 44.562653 52.513589 C 44.613227 52.473069 44.65818 52.433027 44.698045 52.393699 C 44.718108 52.373907 44.736735 52.354264 44.754373 52.334788 C 44.807056 52.276613 44.849618 52.219956 44.88408 52.164773 C 44.953007 52.054406 44.99063 51.95054 45.017406 51.853681 C 45.035256 51.789108 45.048072 51.727522 45.062364 51.669713 C 45.090949 51.554093 45.111057 51.442181 45.125926 51.330198 C 45.140795 51.218217 45.150426 51.106162 45.157966 50.990168 C 45.188126 50.526186 45.174747 50.007452 45.148147 49.482249 C 45.134852 49.219649 45.11747 48.952922 45.098538 48.696251 C 45.060674 48.182908 45.016758 47.709234 44.987433 47.385736 C 44.972771 47.223989 44.9617 47.099857 44.956944 47.027102 C 44.954631 46.991706 44.951304 46.955619 44.946609 46.918582 C 44.927827 46.770434 44.889753 46.610284 44.832404 46.448326 C 44.818067 46.407837 44.802672 46.366945 44.785895 46.32637 C 44.718789 46.164069 44.632038 46.002695 44.525446 45.851463 C 44.498798 45.813655 44.470875 45.776181 44.44173 45.739842 C 44.383362 45.667065 44.320012 45.598148 44.251561 45.533136 C 44.217389 45.500669 44.182327 45.469151 44.145624 45.439085 C 44.10881 45.408929 44.070791 45.380212 44.031419 45.352786 C 43.992174 45.325434 43.951779 45.299599 43.90998 45.275271 C 43.826243 45.226535 43.740957 45.182476 43.653148 45.142463 C 43.609319 45.122482 43.565347 45.103566 43.520339 45.085619 C 43.340166 45.013772 43.150185 44.958083 42.946731 44.915086 C 42.896077 44.904375 42.844587 44.894268 42.792219 44.885114 L 42.791702 44.885114 C 42.739158 44.875935 42.685884 44.867497 42.631505 44.859793 C 42.250852 44.805859 41.823898 44.786929 41.331843 44.786929 C 41.258894 44.786929 41.187225 44.787576 41.116352 44.788996 C 38.990153 44.831587 37.74529 45.492612 34.22685 45.535204 C 34.109569 45.536623 33.989633 45.537271 33.867182 45.537271 C 33.744547 45.537271 33.624964 45.536627 33.507514 45.535204 C 33.390233 45.533784 33.275695 45.53175 33.163349 45.529002 C 33.05082 45.52625 32.940949 45.52266 32.833137 45.518667 C 32.725493 45.514683 32.62057 45.51036 32.517394 45.505231 C 32.310853 45.494963 32.113155 45.482329 31.923115 45.468024 C 31.828175 45.46088 31.735235 45.453301 31.644062 45.445287 C 31.552706 45.437256 31.46367 45.428777 31.375862 45.419965 C 31.200583 45.402379 31.032497 45.383272 30.869949 45.363121 C 30.707216 45.342947 30.550508 45.322085 30.39866 45.300076 C 30.246975 45.278093 30.100553 45.254945 29.95786 45.231863 C 29.529593 45.162587 29.137861 45.090095 28.7569 45.024124 C 28.629966 45.002141 28.504566 44.981229 28.379145 44.961078 C 28.253557 44.940901 28.128371 44.92184 28.002424 44.904234 C 27.876647 44.886648 27.750605 44.870464 27.622602 44.856175 C 27.430439 44.834724 27.234908 44.817486 27.032458 44.805532 C 26.965204 44.801558 26.897189 44.797941 26.828336 44.795197 L 26.827819 44.795197 C 26.758957 44.792456 26.689223 44.790415 26.618529 44.788996 L 26.618013 44.788996 C 26.547139 44.787576 26.475471 44.786929 26.402522 44.786929 z M 26.402522 46.904112 C 27.019857 46.904112 27.597139 46.991004 28.250471 47.104617 C 28.07961 47.817107 27.825344 48.851338 27.545088 49.89256 C 27.337549 50.663608 27.123002 51.367882 26.92187 51.982355 C 26.789741 51.596627 26.65909 51.248673 26.525512 50.746255 C 26.215438 49.57999 25.932124 48.183597 25.774653 46.9284 C 25.954744 46.913548 26.163825 46.904112 26.402522 46.904112 z M 41.331843 46.904112 C 41.570537 46.904112 41.77962 46.913548 41.959711 46.9284 C 41.802239 48.183597 41.518922 49.57999 41.208853 50.746255 C 41.075255 51.248754 40.942574 51.596589 40.810427 51.982355 C 40.609305 51.367895 40.396807 50.663577 40.189277 49.89256 C 39.909026 48.851368 39.654264 47.817106 39.48286 47.104617 C 40.136605 46.990918 40.714191 46.904112 41.331843 46.904112 z M 29.820401 47.368683 C 30.843975 47.521787 32.114759 47.654454 33.867182 47.654454 C 35.619687 47.654454 36.890364 47.521796 37.913964 47.368683 C 38.009222 47.767083 38.135798 48.285792 38.278799 48.853347 C 34.406838 49.167444 33.866665 49.088475 33.866666 49.088475 C 33.866666 49.088475 33.326636 49.167348 29.455565 48.853347 C 29.598567 48.285792 29.725141 47.767083 29.820401 47.368683 z " />
  </g>
</svg>
