<?xml version="1.0" encoding="UTF-8" standalone="no"?>
<svg
   sodipodi:docname="1F47A_plain.svg"
   inkscape:version="1.2 (dc2aedaf03, 2022-05-15)"
   id="svg8"
   version="1.1"
   viewBox="0 0 67.733331 67.733331"
   height="256"
   width="256"
   xmlns:inkscape="http://www.inkscape.org/namespaces/inkscape"
   xmlns:sodipodi="http://sodipodi.sourceforge.net/DTD/sodipodi-0.dtd"
   xmlns="http://www.w3.org/2000/svg"
   xmlns:svg="http://www.w3.org/2000/svg"
   xmlns:rdf="http://www.w3.org/1999/02/22-rdf-syntax-ns#"
   xmlns:cc="http://creativecommons.org/ns#"
   xmlns:dc="http://purl.org/dc/elements/1.1/">
  <defs
     id="defs2" />
  <sodipodi:namedview
     inkscape:snap-object-midpoints="false"
     units="px"
     inkscape:window-maximized="0"
     inkscape:window-y="64"
     inkscape:window-x="450"
     inkscape:window-height="981"
     inkscape:window-width="1470"
     showgrid="false"
     inkscape:document-rotation="0"
     inkscape:current-layer="g6413"
     inkscape:document-units="px"
     inkscape:cy="128.92857"
     inkscape:cx="-43.928571"
     inkscape:zoom="1.4"
     inkscape:pageshadow="2"
     inkscape:pageopacity="0.0"
     borderopacity="1.0"
     bordercolor="#666666"
     pagecolor="#ffffff"
     id="base"
     inkscape:pagecheckerboard="0"
     inkscape:showpageshadow="2"
     inkscape:deskcolor="#d1d1d1"
     showguides="true">
    <sodipodi:guide
       position="46.772165,85.10585"
       orientation="0,-1"
       id="guide1383"
       inkscape:locked="false" />
  </sodipodi:namedview>
  <metadata
     id="metadata5">
    <rdf:RDF>
      <cc:Work
         rdf:about="">
        <dc:format>image/svg+xml</dc:format>
        <dc:type
           rdf:resource="http://purl.org/dc/dcmitype/StillImage" />
        <cc:license
           rdf:resource="http://creativecommons.org/publicdomain/zero/1.0/" />
        <dc:creator>
          <cc:Agent>
            <dc:title>Dexterux</dc:title>
          </cc:Agent>
        </dc:creator>
        <dc:publisher>
          <cc:Agent>
            <dc:title>Dexterux</dc:title>
          </cc:Agent>
        </dc:publisher>
      </cc:Work>
      <cc:License
         rdf:about="http://creativecommons.org/publicdomain/zero/1.0/">
        <cc:permits
           rdf:resource="http://creativecommons.org/ns#Reproduction" />
        <cc:permits
           rdf:resource="http://creativecommons.org/ns#Distribution" />
        <cc:permits
           rdf:resource="http://creativecommons.org/ns#DerivativeWorks" />
      </cc:License>
    </rdf:RDF>
  </metadata>
  <g
     id="layer1"
     inkscape:groupmode="layer"
     inkscape:label="Layer 1">
    <g
       id="g2774"
       transform="matrix(1.063506,0,0,1.089075,-58.793491,-2.9192855)"
       style="stroke-width:0.929183" />
    <g
       id="g6413"
       transform="translate(-64.586638,0.21510933)">
      <path
         id="path1492"
         style="color:#000000;fill:#4d4d4d;fill-opacity:1"
         d="M 86.13881 7.4081977 C 83.422363 7.4081977 80.326446 8.4600404 78.093823 11.502005 C 75.861201 14.543968 74.463891 19.392916 74.453219 26.994082 C 74.442729 34.464502 74.708852 39.110315 75.312598 42.398309 C 75.916344 45.686304 76.928057 47.659265 78.209062 49.378761 C 80.613446 52.606168 83.910439 57.279458 88.613078 58.771469 C 90.870004 59.487528 94.402623 59.994681 98.093636 59.878895 C 101.78465 59.763109 105.62972 59.059392 108.34004 56.914218 C 109.94671 55.642574 111.38028 53.370663 112.78524 50.457248 C 114.11572 47.698298 115.34595 44.376839 116.25118 40.90641 C 115.51858 40.803325 114.60503 40.735029 113.57021 40.686785 C 112.72048 43.828068 111.59211 46.841528 110.40244 49.308481 C 109.08658 52.037137 107.61396 54.112289 106.69724 54.837859 C 104.76515 56.367078 101.39293 57.128488 98.00992 57.234612 C 94.626906 57.340736 91.228459 56.825833 89.414062 56.250176 C 85.974052 55.158759 82.739117 51.030181 80.33193 47.799013 C 79.207155 46.289225 78.461649 44.902326 77.913989 41.919785 C 77.366331 38.937244 77.087109 34.402511 77.097502 26.998216 C 77.107712 19.724661 78.485913 15.439892 80.22651 13.068317 C 81.967107 10.696743 84.043684 10.054547 86.13881 10.054548 C 88.43281 10.054548 88.7074 10.294217 90.045031 10.625055 C 91.382662 10.955894 93.42199 11.273595 98.472424 11.273595 C 102.31173 11.273595 103.24587 10.9942 107.04089 10.459174 C 108.87136 10.201113 109.89948 10.897226 110.90061 12.64457 C 111.90173 14.391916 112.55766 17.201215 112.79506 20.429625 C 113.15102 25.270005 114.12394 29.515782 114.32159 34.011224 C 115.32486 33.743339 116.19048 33.556084 116.94623 33.473789 C 116.70324 28.852789 115.7614 24.690882 115.43366 20.234288 C 115.17965 16.78006 114.53663 13.667912 113.19711 11.329922 C 111.85757 8.9919323 109.50413 7.4388596 106.67192 7.8381456 C 102.8084 8.382829 102.1891 8.628795 98.472424 8.628795 C 93.529627 8.628795 91.807568 8.3357142 90.679618 8.0567369 C 89.551669 7.7777596 88.656365 7.4081977 86.13881 7.4081977 z " />
      <path
         style="font-variation-settings:normal;fill:none;fill-opacity:1;stroke:#4d4d4d;stroke-width:1.58749995;stroke-linecap:butt;stroke-linejoin:miter;stroke-miterlimit:4;stroke-dasharray:none;stroke-dashoffset:0;stroke-opacity:1;stop-color:#000000"
         d="m 85.799506,15.826 c -1.771611,7.321161 -1.771611,6.082614 -1.771611,8.213253 0,2.13064 0.08263,4.793295 1.348075,5.174088 1.265439,0.380794 7.086444,1.826584 8.520606,1.446114 1.434162,-0.380474 1.900942,-10.167921 1.900942,-10.167921"
         id="path2076" />
      <path
         style="fill:none;stroke:#4d4d4d;stroke-width:3.96875;stroke-linecap:round;stroke-linejoin:miter;stroke-dasharray:none;stroke-opacity:1"
         d="m 84.41217,15.62427 c 4.381797,1.090385 11.385348,5.38786 11.385348,5.38786"
         id="path4839-8-3"
         sodipodi:nodetypes="cc" />
      <path
         style="font-variation-settings:normal;fill:none;fill-opacity:1;stroke:#4d4d4d;stroke-width:1.58749995;stroke-linecap:butt;stroke-linejoin:miter;stroke-miterlimit:4;stroke-dasharray:none;stroke-dashoffset:0;stroke-opacity:1;stop-color:#000000"
         d="m 102.3553,21.01213 c 0.11581,5.180396 0.21187,9.623779 1.12453,9.704569 0.91265,0.08079 4.45653,-0.672153 5.4104,-1.495782 0.81961,-0.707691 1.05735,-5.920587 1.05735,-6.930447 1e-5,-1.191634 -1.03986,-5.105896 -1.03986,-5.105896"
         id="path2116"
         sodipodi:nodetypes="csssc" />
      <path
         style="fill:none;stroke:#4d4d4d;stroke-width:3.96875;stroke-linecap:round;stroke-linejoin:miter;stroke-dasharray:none;stroke-opacity:1"
         d="m 108.44205,15.62427 c -2.34256,1.090385 -6.08675,5.38786 -6.08675,5.38786"
         id="path4839-8-3-5"
         sodipodi:nodetypes="cc" />
      <ellipse
         style="fill:#4d4d4d;fill-opacity:1;stroke:none;stroke-width:3.96874;stroke-linecap:round;stroke-linejoin:round;stroke-dasharray:none;stroke-opacity:1;stop-color:#000000"
         id="path4934-5-1"
         cx="91.670227"
         cy="25.6294"
         rx="1.5543598"
         ry="2.9953318" />
      <ellipse
         style="fill:#4d4d4d;fill-opacity:1;stroke:none;stroke-width:3.96874;stroke-linecap:round;stroke-linejoin:round;stroke-dasharray:none;stroke-opacity:1;stop-color:#000000"
         id="path4934-5-1-2"
         cx="105.92783"
         cy="25.6294"
         rx="1.5543598"
         ry="2.9953318" />
      <path
         style="fill:none;fill-opacity:1;stroke:#4d4d4d;stroke-width:2.11666;stroke-linecap:butt;stroke-linejoin:miter;stroke-dasharray:none;stroke-opacity:1"
         d="m 91.058885,42.298383 c -2.616067,2.438253 -3.652069,4.814832 -3.378888,6.654216 0.273182,1.839383 2.172056,1.772094 2.875858,1.772094 2.168456,0 5.739603,-3.629107 8.82238,-3.629107 3.082775,0 5.061085,2.677486 7.477725,2.677486 0.95199,0 2.40786,-1.549874 1.3357,-4.624318 -0.47369,-1.358315 -2.42904,-2.569836 -2.42904,-2.569836"
         id="path6330"
         sodipodi:nodetypes="csssssc" />
      <path
         id="path6305"
         style="font-variation-settings:normal;fill:#4d4d4d;fill-opacity:1;stroke:none;stroke-width:3.96875;stroke-linecap:round;stroke-linejoin:miter;stroke-miterlimit:4;stroke-dasharray:none;stroke-dashoffset:0;stroke-opacity:1;stop-color:#000000"
         d="M 112.61988 33.652073 C 112.42159 33.635344 112.1271 33.905833 111.76205 34.339369 C 112.20453 34.340662 112.6035 34.328065 112.94027 34.300095 C 112.90268 33.904487 112.79975 33.667247 112.61988 33.652073 z M 82.635665 33.848443 C 81.677247 33.829636 82.413202 35.257209 83.556022 39.662042 C 84.775032 44.360532 88.047142 45.781048 88.945357 45.781048 C 89.843577 45.781048 96.383871 42.88547 99.980859 42.830841 C 103.57784 42.776201 106.35211 45.333013 108.79014 45.333013 C 109.85572 45.333013 110.96855 43.122077 111.776 40.624257 C 107.64954 40.516693 102.3332 40.573089 98.341682 40.158652 C 97.029242 40.022383 95.861511 39.834645 94.926904 39.573675 C 94.092899 39.705789 93.247862 39.748162 92.272802 39.552488 C 89.550366 39.006154 84.119522 34.089195 82.850122 33.870664 C 82.770785 33.857006 82.699559 33.849697 82.635665 33.848443 z " />
      <path
         style="font-variation-settings:normal;fill:none;fill-opacity:1;stroke:#4d4d4d;stroke-width:2.11667;stroke-linecap:round;stroke-linejoin:miter;stroke-miterlimit:4;stroke-dasharray:none;stroke-dashoffset:0;stroke-opacity:1;stop-color:#000000"
         d="m 99.47623,28.814364 c 1.42543,0 2.29458,3.733307 3.10002,4.340881 0.80541,0.607574 9.22668,1.560858 11.11357,1.028846 3.90589,-1.101278 5.88605,-1.212017 7.22815,1.072106 1.34209,2.284125 -0.20539,5.969105 -3.78056,5.81276 -3.11749,-0.765131 -12.57433,-0.264456 -18.795828,-0.91043 -2.96563,-0.307919 -5.196133,-0.876377 -5.654485,-1.966665"
         id="path2788-8"
         sodipodi:nodetypes="cssscsc" />
    </g>
  </g>
</svg>
