<?xml version="1.0" encoding="UTF-8" standalone="no"?>
<svg
   sodipodi:docname="1F480.svg"
   inkscape:version="1.2 (dc2aedaf03, 2022-05-15)"
   id="svg8"
   version="1.1"
   viewBox="0 0 67.733331 67.733331"
   height="256"
   width="256"
   xmlns:inkscape="http://www.inkscape.org/namespaces/inkscape"
   xmlns:sodipodi="http://sodipodi.sourceforge.net/DTD/sodipodi-0.dtd"
   xmlns="http://www.w3.org/2000/svg"
   xmlns:svg="http://www.w3.org/2000/svg"
   xmlns:rdf="http://www.w3.org/1999/02/22-rdf-syntax-ns#"
   xmlns:cc="http://creativecommons.org/ns#"
   xmlns:dc="http://purl.org/dc/elements/1.1/">
  <defs
     id="defs2" />
  <sodipodi:namedview
     inkscape:snap-object-midpoints="false"
     units="px"
     inkscape:window-maximized="0"
     inkscape:window-y="0"
     inkscape:window-x="83"
     inkscape:window-height="981"
     inkscape:window-width="1470"
     showgrid="false"
     inkscape:document-rotation="0"
     inkscape:current-layer="layer1"
     inkscape:document-units="px"
     inkscape:cy="-266.42858"
     inkscape:cx="-185.71429"
     inkscape:zoom="0.69999999"
     inkscape:pageshadow="2"
     inkscape:pageopacity="0.0"
     borderopacity="1.0"
     bordercolor="#666666"
     pagecolor="#ffffff"
     id="base"
     inkscape:pagecheckerboard="0"
     inkscape:showpageshadow="2"
     inkscape:deskcolor="#d1d1d1" />
  <metadata
     id="metadata5">
    <rdf:RDF>
      <cc:Work
         rdf:about="">
        <dc:format>image/svg+xml</dc:format>
        <dc:type
           rdf:resource="http://purl.org/dc/dcmitype/StillImage" />
        <cc:license
           rdf:resource="http://creativecommons.org/publicdomain/zero/1.0/" />
        <dc:creator>
          <cc:Agent>
            <dc:title>Dexterux</dc:title>
          </cc:Agent>
        </dc:creator>
        <dc:publisher>
          <cc:Agent>
            <dc:title>Dexterux</dc:title>
          </cc:Agent>
        </dc:publisher>
      </cc:Work>
      <cc:License
         rdf:about="http://creativecommons.org/publicdomain/zero/1.0/">
        <cc:permits
           rdf:resource="http://creativecommons.org/ns#Reproduction" />
        <cc:permits
           rdf:resource="http://creativecommons.org/ns#Distribution" />
        <cc:permits
           rdf:resource="http://creativecommons.org/ns#DerivativeWorks" />
      </cc:License>
    </rdf:RDF>
  </metadata>
  <g
     id="layer1"
     inkscape:groupmode="layer"
     inkscape:label="Layer 1">
    <g
       id="g11573"
       transform="matrix(1.0134444,0,0,1.0133333,-0.45531685,-0.11641565)"
       style="stroke-width:0.986788">
      <path
         style="font-variation-settings:normal;fill:#e0e0e0;fill-opacity:1;stroke:#a6a6a6;stroke-width:2.61087;stroke-linecap:butt;stroke-linejoin:miter;stroke-miterlimit:4;stroke-dasharray:none;stroke-dashoffset:0;stroke-opacity:1;stop-color:#000000"
         d="m 46.903611,44.364981 c -1.530198,6.565909 -0.269042,8.031825 -1.681534,9.979948 -1.412497,1.948127 -5.479376,3.995697 -8.608012,3.995697 h -2.747399 -2.747399 c -3.128636,0 -7.195515,-2.04757 -8.608013,-3.995697 -1.412492,-1.948123 -0.151336,-3.414039 -1.681534,-9.979948"
         id="path2721-9"
         sodipodi:nodetypes="cscccsc" />
      <path
         style="font-variation-settings:normal;fill:#ffffff;fill-opacity:1;stroke:#798486;stroke-width:1.56653;stroke-linecap:butt;stroke-linejoin:miter;stroke-miterlimit:4;stroke-dasharray:none;stroke-dashoffset:0;stroke-opacity:1;stop-color:#000000"
         d="m 25.773925,46.953705 c 0.130365,3.540291 0.349572,6.140894 1.406702,6.461409 1.057126,0.320513 3.573249,0.560544 5.085486,0.560544 h 1.600552 1.600554 c 1.512236,0 4.02836,-0.240031 5.085484,-0.560544 1.057131,-0.320515 1.276337,-2.921118 1.406703,-6.461409"
         id="path5120"
         sodipodi:nodetypes="csscssc" />
      <g
         id="g5284"
         transform="matrix(0.89607633,0,0,1,3.3840699,-0.6681738)"
         style="fill:#ffffff;fill-opacity:1;stroke-width:1.65487;stroke-dasharray:none">
        <path
           style="font-variation-settings:normal;opacity:1;fill:#ffffff;fill-opacity:1;stroke:#798486;stroke-width:1.65487;stroke-linecap:butt;stroke-linejoin:miter;stroke-miterlimit:4;stroke-dasharray:none;stroke-dashoffset:0;stroke-opacity:1;stop-color:#000000;stop-opacity:1"
           d="m 34.017856,48.947914 v 5.669642"
           id="path5216" />
        <path
           style="font-variation-settings:normal;fill:#ffffff;fill-opacity:1;stroke:#798486;stroke-width:1.65487;stroke-linecap:butt;stroke-linejoin:miter;stroke-miterlimit:4;stroke-dasharray:none;stroke-dashoffset:0;stroke-opacity:1;stop-color:#000000"
           d="m 38.317335,48.947914 v 5.669642"
           id="path5216-6" />
        <path
           style="font-variation-settings:normal;fill:#ffffff;fill-opacity:1;stroke:#798486;stroke-width:1.65487;stroke-linecap:butt;stroke-linejoin:miter;stroke-miterlimit:4;stroke-dasharray:none;stroke-dashoffset:0;stroke-opacity:1;stop-color:#000000"
           d="m 29.718377,48.947914 v 5.669642"
           id="path5216-6-8" />
      </g>
      <path
         style="fill:#ffffff;fill-opacity:1;stroke:#8c8c8c;stroke-width:2.61087;stroke-linecap:butt;stroke-linejoin:miter;stroke-dasharray:none;stroke-opacity:1"
         d="m 38.942316,47.798829 c 4.121437,0 4.138367,-1.26525 5.562446,-2.120378 1.42408,-0.855135 4.272246,-1.175805 4.841877,-2.672285 0.569632,-1.496478 1.750975,-2.030441 2.51048,-6.94744 0.759516,-4.917005 4.061193,-1.139107 3.111814,-13.431609 -0.481541,-6.234864 -7.47661,-13.8958701 -21.102266,-13.8958701 -13.625655,0 -20.620728,7.6610061 -21.102267,13.8958701 -0.949387,12.292502 2.352297,8.514604 3.111808,13.431609 0.759511,4.916999 1.940851,5.450962 2.510484,6.94744 0.569634,1.49648 3.417798,1.81715 4.841878,2.672285 1.424081,0.855128 1.441015,2.120378 5.562454,2.120378 h 5.075642 z"
         id="path1586-3"
         sodipodi:nodetypes="ssssszssssscs" />
      <g
         id="g2774"
         transform="matrix(1.0493975,0,0,1.0747451,-57.564257,-2.7659901)"
         style="stroke-width:0.929183" />
      <path
         style="fill:#262626;fill-opacity:1;stroke:none;stroke-width:0.261088px;stroke-linecap:butt;stroke-linejoin:miter;stroke-opacity:1"
         d="m 28.113517,25.343595 c -2.848712,0.157755 -6.575914,-0.686588 -8.000932,3.744307 -0.629677,1.957892 -0.983571,5.352076 -0.471909,6.461518 0.889017,1.927655 0.86877,1.881991 3.11033,2.383857 2.241553,0.501862 5.251689,-0.39662 7.02134,-2.905949 1.769648,-2.509321 2.609797,-5.543347 2.13789,-7.174406 -0.471907,-1.631062 -0.948005,-2.667083 -3.796719,-2.509327 z"
         id="path2770"
         sodipodi:nodetypes="zsssssz" />
      <path
         style="fill:#262626;fill-opacity:1;stroke:none;stroke-width:0.261088px;stroke-linecap:butt;stroke-linejoin:miter;stroke-opacity:1"
         d="m 39.619804,25.343595 c 2.848714,0.157755 6.575915,-0.686588 8.000933,3.744307 0.629678,1.957892 0.983571,5.352076 0.471908,6.461518 -0.889015,1.927655 -0.868769,1.881991 -3.110329,2.383857 -2.241552,0.501862 -5.25169,-0.39662 -7.021339,-2.905949 -1.769647,-2.509321 -2.609797,-5.543347 -2.137891,-7.174406 0.471908,-1.631062 0.948004,-2.667083 3.796718,-2.509327 z"
         id="path2770-5-1"
         sodipodi:nodetypes="zsssssz" />
      <path
         style="fill:#333333;fill-opacity:1;stroke:none;stroke-width:0.261087px;stroke-linecap:butt;stroke-linejoin:miter;stroke-opacity:1"
         d="m 33.460284,45.030198 c -1.779606,0 -2.335414,-1.380088 -2.098917,-3.32933 0.236494,-1.949242 1.537217,-4.613202 2.505294,-4.613202 0.968077,0 2.2688,2.66396 2.505293,4.613202 0.236497,1.949242 -0.31931,3.32933 -2.098916,3.32933 z"
         id="path2855"
         sodipodi:nodetypes="cscscc" />
    </g>
  </g>
</svg>
