<?xml version="1.0" encoding="UTF-8" standalone="no"?>
<svg
   sodipodi:docname="1F480_plain.svg"
   inkscape:version="1.2 (dc2aedaf03, 2022-05-15)"
   id="svg8"
   version="1.1"
   viewBox="0 0 67.733331 67.733331"
   height="256"
   width="256"
   xmlns:inkscape="http://www.inkscape.org/namespaces/inkscape"
   xmlns:sodipodi="http://sodipodi.sourceforge.net/DTD/sodipodi-0.dtd"
   xmlns="http://www.w3.org/2000/svg"
   xmlns:svg="http://www.w3.org/2000/svg"
   xmlns:rdf="http://www.w3.org/1999/02/22-rdf-syntax-ns#"
   xmlns:cc="http://creativecommons.org/ns#"
   xmlns:dc="http://purl.org/dc/elements/1.1/">
  <defs
     id="defs2" />
  <sodipodi:namedview
     inkscape:snap-object-midpoints="false"
     units="px"
     inkscape:window-maximized="0"
     inkscape:window-y="37"
     inkscape:window-x="429"
     inkscape:window-height="981"
     inkscape:window-width="1470"
     showgrid="false"
     inkscape:document-rotation="0"
     inkscape:current-layer="layer1"
     inkscape:document-units="px"
     inkscape:cy="123.93987"
     inkscape:cx="129.97023"
     inkscape:zoom="3.1507215"
     inkscape:pageshadow="2"
     inkscape:pageopacity="0.0"
     borderopacity="1.0"
     bordercolor="#666666"
     pagecolor="#ffffff"
     id="base"
     inkscape:pagecheckerboard="0"
     inkscape:showpageshadow="2"
     inkscape:deskcolor="#d1d1d1" />
  <metadata
     id="metadata5">
    <rdf:RDF>
      <cc:Work
         rdf:about="">
        <dc:format>image/svg+xml</dc:format>
        <dc:type
           rdf:resource="http://purl.org/dc/dcmitype/StillImage" />
        <cc:license
           rdf:resource="http://creativecommons.org/publicdomain/zero/1.0/" />
        <dc:creator>
          <cc:Agent>
            <dc:title>Dexterux</dc:title>
          </cc:Agent>
        </dc:creator>
        <dc:publisher>
          <cc:Agent>
            <dc:title>Dexterux</dc:title>
          </cc:Agent>
        </dc:publisher>
      </cc:Work>
      <cc:License
         rdf:about="http://creativecommons.org/publicdomain/zero/1.0/">
        <cc:permits
           rdf:resource="http://creativecommons.org/ns#Reproduction" />
        <cc:permits
           rdf:resource="http://creativecommons.org/ns#Distribution" />
        <cc:permits
           rdf:resource="http://creativecommons.org/ns#DerivativeWorks" />
      </cc:License>
    </rdf:RDF>
  </metadata>
  <g
     id="layer1"
     inkscape:groupmode="layer"
     inkscape:label="Layer 1">
    <g
       id="g2774"
       transform="matrix(1.0493975,0,0,1.0747451,-57.564257,-2.7659901)"
       style="stroke-width:0.941624" />
    <path
       style="font-variation-settings:normal;fill:none;fill-opacity:1;stroke:#4d4d4d;stroke-width:2.64583;stroke-linecap:butt;stroke-linejoin:miter;stroke-miterlimit:4;stroke-dasharray:none;stroke-dashoffset:0;stroke-opacity:1;stop-color:#000000"
       d="m 47.078885,44.840097 c -1.550771,6.653454 -0.272659,8.138916 -1.704141,10.113014 -1.431487,1.974102 -5.553043,4.048972 -8.723742,4.048972 H 33.866666 31.08233 c -3.170699,0 -7.292254,-2.07487 -8.723743,-4.048972 -1.431482,-1.974098 -0.15337,-3.45956 -1.704141,-10.113014"
       id="path2721-9"
       sodipodi:nodetypes="cscccsc" />
    <path
       style="font-variation-settings:normal;fill:none;fill-opacity:1;stroke:#4d4d4d;stroke-width:1.5875;stroke-linecap:butt;stroke-linejoin:miter;stroke-miterlimit:4;stroke-dasharray:none;stroke-dashoffset:0;stroke-opacity:1;stop-color:#000000"
       d="m 25.665123,47.463337 c 0.132118,3.587495 0.354272,6.222773 1.425614,6.547561 1.071339,0.324787 3.62129,0.568018 5.153858,0.568018 h 1.62207 1.622073 c 1.532567,0 4.082519,-0.243231 5.153855,-0.568018 1.071343,-0.324788 1.293496,-2.960066 1.425615,-6.547561"
       id="path5120"
       sodipodi:nodetypes="csscssc" />
    <path
       style="font-variation-settings:normal;fill:#ffffff;fill-opacity:1;stroke:#4d4d4d;stroke-width:1.5875;stroke-linecap:butt;stroke-linejoin:miter;stroke-miterlimit:4;stroke-dasharray:none;stroke-dashoffset:0;stroke-opacity:1;stop-color:#000000"
       d="M 33.866666,48.807053 V 54.55229"
       id="path5216" />
    <path
       style="font-variation-settings:normal;fill:#ffffff;fill-opacity:1;stroke:#4d4d4d;stroke-width:1.5875;stroke-linecap:butt;stroke-linejoin:miter;stroke-miterlimit:4;stroke-dasharray:none;stroke-dashoffset:0;stroke-opacity:1;stop-color:#000000"
       d="M 37.771124,48.807053 V 54.55229"
       id="path5216-6" />
    <path
       style="font-variation-settings:normal;fill:#ffffff;fill-opacity:1;stroke:#4d4d4d;stroke-width:1.5875;stroke-linecap:butt;stroke-linejoin:miter;stroke-miterlimit:4;stroke-dasharray:none;stroke-dashoffset:0;stroke-opacity:1;stop-color:#000000"
       d="M 29.962208,48.807053 V 54.55229"
       id="path5216-6-8" />
    <path
       style="fill:none;fill-opacity:1;stroke:#4d4d4d;stroke-width:2.64583;stroke-linecap:butt;stroke-linejoin:miter;stroke-dasharray:none;stroke-opacity:1"
       d="m 39.010555,48.319729 c 4.176847,0 4.194005,-1.282119 5.63723,-2.148649 1.443226,-0.866537 4.329684,-1.191483 4.906973,-2.707916 0.57729,-1.516431 1.774516,-2.057513 2.544232,-7.040072 0.769727,-4.982565 4.115793,-1.154295 3.15365,-13.610697 C 54.764625,16.4944 47.675512,8.7312476 33.866667,8.7312476 c -13.808844,0 -20.897961,7.7631524 -21.385974,14.0811474 -0.962151,12.456402 2.383922,8.628132 3.153644,13.610697 0.769722,4.982559 1.966945,5.523641 2.544236,7.040072 0.577293,1.516433 3.463748,1.841379 4.906974,2.707916 1.443227,0.86653 1.460389,2.148649 5.637238,2.148649 h 5.143881 z"
       id="path1586-3"
       sodipodi:nodetypes="ssssszssssscs" />
    <path
       style="fill:#4d4d4d;fill-opacity:1;stroke:none;stroke-width:0.264584px;stroke-linecap:butt;stroke-linejoin:miter;stroke-opacity:1"
       d="m 28.03617,25.565093 c -2.887012,0.159858 -6.664324,-0.695742 -8.1085,3.794231 -0.638143,1.983997 -0.996795,5.423437 -0.478254,6.547671 0.90097,1.953357 0.88045,1.907085 3.152147,2.415642 2.271689,0.508554 5.322295,-0.401908 7.115737,-2.944695 1.79344,-2.542778 2.644885,-5.617258 2.166633,-7.270064 -0.478251,-1.65281 -0.96075,-2.702644 -3.847763,-2.542785 z"
       id="path2770"
       sodipodi:nodetypes="zsssssz" />
    <path
       style="fill:#4d4d4d;fill-opacity:1;stroke:none;stroke-width:0.264584px;stroke-linecap:butt;stroke-linejoin:miter;stroke-opacity:1"
       d="m 39.697152,25.565093 c 2.887013,0.159858 6.664324,-0.695742 8.1085,3.794231 0.638144,1.983997 0.996795,5.423437 0.478253,6.547671 -0.900967,1.953357 -0.880449,1.907085 -3.152146,2.415642 -2.271688,0.508554 -5.322295,-0.401908 -7.115736,-2.944695 -1.793439,-2.542778 -2.644884,-5.617258 -2.166634,-7.270064 0.478253,-1.65281 0.960749,-2.702644 3.847763,-2.542785 z"
       id="path2770-5-1"
       sodipodi:nodetypes="zsssssz" />
    <path
       style="fill:#4d4d4d;fill-opacity:1;stroke:none;stroke-width:0.264583px;stroke-linecap:butt;stroke-linejoin:miter;stroke-opacity:1"
       d="m 33.454821,45.514183 c -1.803532,0 -2.366813,-1.398489 -2.127136,-3.37372 0.239673,-1.975232 1.557884,-4.674712 2.538976,-4.674712 0.981092,0 2.299303,2.69948 2.538975,4.674712 0.239677,1.975231 -0.323603,3.37372 -2.127134,3.37372 z"
       id="path2855"
       sodipodi:nodetypes="cscscc" />
  </g>
</svg>
