<?xml version="1.0" encoding="UTF-8" standalone="no"?>
<svg
   sodipodi:docname="1F4A9.svg"
   inkscape:version="1.2 (dc2aedaf03, 2022-05-15)"
   id="svg8"
   version="1.1"
   viewBox="0 0 67.733331 67.733331"
   height="256"
   width="256"
   xmlns:inkscape="http://www.inkscape.org/namespaces/inkscape"
   xmlns:sodipodi="http://sodipodi.sourceforge.net/DTD/sodipodi-0.dtd"
   xmlns="http://www.w3.org/2000/svg"
   xmlns:svg="http://www.w3.org/2000/svg"
   xmlns:rdf="http://www.w3.org/1999/02/22-rdf-syntax-ns#"
   xmlns:cc="http://creativecommons.org/ns#"
   xmlns:dc="http://purl.org/dc/elements/1.1/">
  <defs
     id="defs2" />
  <sodipodi:namedview
     inkscape:snap-object-midpoints="false"
     units="px"
     inkscape:window-maximized="0"
     inkscape:window-y="120"
     inkscape:window-x="342"
     inkscape:window-height="981"
     inkscape:window-width="1470"
     showgrid="false"
     inkscape:document-rotation="0"
     inkscape:current-layer="layer1"
     inkscape:document-units="px"
     inkscape:cy="121.97592"
     inkscape:cx="40.65864"
     inkscape:zoom="1.979899"
     inkscape:pageshadow="2"
     inkscape:pageopacity="0.0"
     borderopacity="1.0"
     bordercolor="#666666"
     pagecolor="#ffffff"
     id="base"
     inkscape:pagecheckerboard="0"
     inkscape:showpageshadow="2"
     inkscape:deskcolor="#d1d1d1"
     showguides="false" />
  <metadata
     id="metadata5">
    <rdf:RDF>
      <cc:Work
         rdf:about="">
        <dc:format>image/svg+xml</dc:format>
        <dc:type
           rdf:resource="http://purl.org/dc/dcmitype/StillImage" />
        <cc:license
           rdf:resource="http://creativecommons.org/publicdomain/zero/1.0/" />
        <dc:creator>
          <cc:Agent>
            <dc:title>Dexterux</dc:title>
          </cc:Agent>
        </dc:creator>
        <dc:publisher>
          <cc:Agent>
            <dc:title>Dexterux</dc:title>
          </cc:Agent>
        </dc:publisher>
      </cc:Work>
      <cc:License
         rdf:about="http://creativecommons.org/publicdomain/zero/1.0/">
        <cc:permits
           rdf:resource="http://creativecommons.org/ns#Reproduction" />
        <cc:permits
           rdf:resource="http://creativecommons.org/ns#Distribution" />
        <cc:permits
           rdf:resource="http://creativecommons.org/ns#DerivativeWorks" />
      </cc:License>
    </rdf:RDF>
  </metadata>
  <g
     id="layer1"
     inkscape:groupmode="layer"
     inkscape:label="Layer 1">
    <g
       id="g2774"
       transform="matrix(1.063506,0,0,1.089075,-58.793491,-2.9192855)"
       style="stroke-width:0.929183" />
    <path
       id="path2132-6-2"
       style="fill:#a16b45;stroke:#563c29;stroke-width:2.64584;stroke-linecap:round;stroke-linejoin:round;stop-color:#000000"
       d="m 17.090642,41.373281 c -2.979254,4e-6 -5.732211,1.680017 -7.22185,4.407194 -1.48964,2.727183 -1.48964,6.087208 0,8.81439 1.489639,2.72718 4.242596,4.407193 7.22185,4.407198 h 33.552039 c 2.97925,0 5.73225,-1.680012 7.22188,-4.407198 1.48961,-2.727182 1.48961,-6.087207 0,-8.81439 -1.48963,-2.727183 -4.24263,-4.407195 -7.22188,-4.407194"
       sodipodi:nodetypes="cssccssc" />
    <path
       id="path2132-0-1"
       style="fill:#a16b45;stroke:#563c29;stroke-width:2.64585;stroke-linecap:round;stroke-linejoin:round;stop-color:#000000"
       d="m 47.672931,31.963112 c 2.74552,-4e-6 5.28249,1.606829 6.65526,4.215217 1.37276,2.608386 1.37276,4.89156 0,7.499946 -1.37277,2.608387 -3.79693,2.753024 -10.40742,2.753017 -6.610484,-7e-6 -16.772637,0.07997 -21.758316,-0.909383 -4.985679,-0.989359 -7.390178,-2.084401 -8.762947,-4.692788 -1.372757,-2.608386 -1.372757,-5.822052 0,-8.430438 1.372769,-2.608386 3.909722,-4.21522 6.655261,-4.215217"
       sodipodi:nodetypes="csszzssc" />
    <path
       id="path2132-6"
       style="fill:#a16b45;stroke:#563c29;stroke-width:2.64585;stroke-linecap:round;stroke-linejoin:round;stop-color:#000000"
       d="m 49.639051,22.817947 c 1.07574,2.273902 1.07574,4.411452 0,6.685358 -1.07574,2.273906 -3.08652,3.692418 -6.5245,3.692418 -9.643488,0.02109 -13.523323,0.131379 -16.531841,-0.634541 -3.008506,-0.76592 -5.121487,-1.261997 -6.391523,-3.946609 -1.075728,-2.273907 -1.333992,-4.892941 0,-7.019002 1.751029,-2.790701 4.791657,-3.548438 12.428318,-4.560331 5.582263,-0.739678 10.770686,-5.554058 13.719516,-8.3042126 -1.98787,9.7968516 2.2243,11.8130116 3.30003,14.0869196 z"
       sodipodi:nodetypes="ssczcsscs" />
    <ellipse
       style="fill:#f7f1ed;fill-opacity:1;stroke:none;stroke-width:1.25996;stroke-linecap:round;stroke-linejoin:round;stroke-miterlimit:4;stroke-dasharray:none;stroke-opacity:1"
       id="path835"
       cx="26.650389"
       cy="32.198898"
       rx="4.5492597"
       ry="6.7162623" />
    <ellipse
       ry="3.6695786"
       rx="2.2357841"
       cy="33.273834"
       cx="27.45433"
       id="path835-7"
       style="fill:#4d4d4d;fill-opacity:1;stroke:none;stroke-width:0.477706;stroke-linecap:round;stroke-linejoin:round;stroke-miterlimit:4;stroke-dasharray:none;stroke-opacity:1" />
    <ellipse
       style="fill:#f7f1ed;fill-opacity:1;stroke:none;stroke-width:1.25996;stroke-linecap:round;stroke-linejoin:round;stroke-miterlimit:4;stroke-dasharray:none;stroke-opacity:1"
       id="path835-9"
       cx="-41.082943"
       cy="32.198898"
       rx="4.5492597"
       ry="6.7162623"
       transform="scale(-1,1)" />
    <ellipse
       ry="3.6695786"
       rx="2.2357841"
       cy="33.273834"
       cx="-40.278999"
       id="path835-7-3"
       style="fill:#4d4d4d;fill-opacity:1;stroke:none;stroke-width:0.477706;stroke-linecap:round;stroke-linejoin:round;stroke-miterlimit:4;stroke-dasharray:none;stroke-opacity:1"
       transform="scale(-1,1)" />
    <g
       style="stroke-width:2.50309;stroke-miterlimit:4;stroke-dasharray:none"
       transform="matrix(0.84539198,0,0,0.84585633,4.7842591,8.2466342)"
       id="g1009">
      <path
         id="path902-3"
         style="fill:#ffffff;fill-opacity:1;stroke:#563c29;stroke-width:2.50309;stroke-linecap:round;stroke-linejoin:round;stroke-miterlimit:4;stroke-dasharray:none;stroke-opacity:1"
         d="m 21.052915,40.792427 c 0,0 1.752868,10.502154 13.348288,10.502154 11.595421,0 13.348291,-10.502154 13.348291,-10.502154 0,0 -7.5784,1.09058 -13.348291,1.09058 -5.769897,0 -13.348288,-1.09058 -13.348288,-1.09058 z"
         sodipodi:nodetypes="czczc" />
    </g>
  </g>
</svg>
