<?xml version="1.0" encoding="UTF-8" standalone="no"?>
<svg
   sodipodi:docname="1F4A9_plain.svg"
   inkscape:version="1.2 (dc2aedaf03, 2022-05-15)"
   id="svg8"
   version="1.1"
   viewBox="0 0 67.733331 67.733331"
   height="256"
   width="256"
   xmlns:inkscape="http://www.inkscape.org/namespaces/inkscape"
   xmlns:sodipodi="http://sodipodi.sourceforge.net/DTD/sodipodi-0.dtd"
   xmlns="http://www.w3.org/2000/svg"
   xmlns:svg="http://www.w3.org/2000/svg"
   xmlns:rdf="http://www.w3.org/1999/02/22-rdf-syntax-ns#"
   xmlns:cc="http://creativecommons.org/ns#"
   xmlns:dc="http://purl.org/dc/elements/1.1/">
  <defs
     id="defs2">
    <inkscape:path-effect
       effect="fillet_chamfer"
       id="path-effect17630"
       is_visible="true"
       lpeversion="1"
       nodesatellites_param="F,0,0,1,0,2,0,1 @ F,0,0,1,0,2,0,1 @ F,0,0,1,0,2,0,1 @ F,0,0,1,0,2,0,1"
       unit="px"
       method="auto"
       mode="F"
       radius="2"
       chamfer_steps="1"
       flexible="false"
       use_knot_distance="true"
       apply_no_radius="true"
       apply_with_radius="true"
       only_selected="false"
       hide_knots="false" />
  </defs>
  <sodipodi:namedview
     inkscape:snap-object-midpoints="false"
     units="px"
     inkscape:window-maximized="1"
     inkscape:window-y="-9"
     inkscape:window-x="-9"
     inkscape:window-height="991"
     inkscape:window-width="1920"
     showgrid="false"
     inkscape:document-rotation="0"
     inkscape:current-layer="layer1"
     inkscape:document-units="px"
     inkscape:cy="156.06857"
     inkscape:cx="161.62441"
     inkscape:zoom="0.98994949"
     inkscape:pageshadow="2"
     inkscape:pageopacity="0.0"
     borderopacity="1.0"
     bordercolor="#666666"
     pagecolor="#ffffff"
     id="base"
     inkscape:pagecheckerboard="0"
     inkscape:showpageshadow="2"
     inkscape:deskcolor="#d1d1d1"
     showguides="false" />
  <metadata
     id="metadata5">
    <rdf:RDF>
      <cc:Work
         rdf:about="">
        <dc:format>image/svg+xml</dc:format>
        <dc:type
           rdf:resource="http://purl.org/dc/dcmitype/StillImage" />
        <cc:license
           rdf:resource="http://creativecommons.org/publicdomain/zero/1.0/" />
        <dc:creator>
          <cc:Agent>
            <dc:title>Dexterux</dc:title>
          </cc:Agent>
        </dc:creator>
        <dc:publisher>
          <cc:Agent>
            <dc:title>Dexterux</dc:title>
          </cc:Agent>
        </dc:publisher>
      </cc:Work>
      <cc:License
         rdf:about="http://creativecommons.org/publicdomain/zero/1.0/">
        <cc:permits
           rdf:resource="http://creativecommons.org/ns#Reproduction" />
        <cc:permits
           rdf:resource="http://creativecommons.org/ns#Distribution" />
        <cc:permits
           rdf:resource="http://creativecommons.org/ns#DerivativeWorks" />
      </cc:License>
    </rdf:RDF>
  </metadata>
  <g
     id="layer1"
     inkscape:groupmode="layer"
     inkscape:label="Layer 1">
    <path
       id="path2132-6-2"
       style="fill:none;fill-opacity:1;stroke:#4d4d4d;stroke-width:2.64584;stroke-linecap:round;stroke-linejoin:round;stroke-opacity:1;stop-color:#000000"
       d="m 14.126786,41.948859 c -1.76664,0.710339 -3.283134,2.046805 -4.2581381,3.831808 -1.4896385,2.72718 -1.4896385,6.087269 0,8.814448 1.4896371,2.727178 4.2425301,4.406961 7.2217811,4.406966 h 33.552473 c 2.979247,0 5.732153,-1.679782 7.221781,-4.406966 1.489609,-2.727179 1.489609,-6.087268 0,-8.814448 -0.740554,-1.35579 -1.793736,-2.452818 -3.031339,-3.213241 -0.140976,0.365049 -0.307176,0.734405 -0.505396,1.111043"
       sodipodi:nodetypes="csscssscc" />
    <path
       id="path2132-0-1"
       style="fill:none;fill-opacity:1;stroke:#4d4d4d;stroke-width:2.64585;stroke-linecap:round;stroke-linejoin:round;stroke-opacity:1;stop-color:#000000"
       d="m 51.088531,46.033017 c 1.603874,-0.362154 2.553034,-1.050357 3.239417,-2.354548 1.372763,-2.608377 1.372758,-4.891935 0,-7.500317 -1.372766,-2.608382 -3.909375,-4.21525 -6.654891,-4.215246 0.741496,-0.670801 1.567975,-1.636393 1.965772,-2.459798 1.075739,-2.273904 1.075739,-4.41148 0,-6.68538 C 48.5631,20.543822 44.350904,18.528092 46.338772,8.7312497 43.389945,11.481402 38.201971,16.295458 32.619713,17.035135 24.98306,18.047027 21.942042,18.804882 20.191015,21.59558 c -1.250616,1.993181 -1.10158,4.419584 -0.19172,6.588745 -2.72423,0.02145 -5.236066,1.623382 -6.599597,4.214213 -1.372753,2.608382 -1.372753,5.822113 0,8.430493 0.686383,1.30419 1.630659,2.230035 3.026548,2.953502"
       sodipodi:nodetypes="cssccccsccccc" />
    <g
       id="g2774"
       transform="matrix(1.063506,0,0,1.089075,-58.793491,-2.9192855)"
       style="stroke-width:0.929183" />
    <path
       id="path835"
       style="fill:#4d4d4d;fill-opacity:1;stroke:none;stroke-width:1.25996;stroke-linecap:round;stroke-linejoin:round;stroke-miterlimit:4;stroke-dasharray:none;stroke-opacity:1"
       d="M 26.650569 25.482681 A 4.5492597 6.7162623 0 0 0 22.100976 32.199067 A 4.5492597 6.7162623 0 0 0 26.650569 38.914936 A 4.5492597 6.7162623 0 0 0 31.199645 32.199067 A 4.5492597 6.7162623 0 0 0 26.650569 25.482681 z M 27.532169 30.140278 C 27.590797 30.141287 27.649411 30.150998 27.707869 30.174901 C 28.916521 30.741076 29.187673 32.302666 29.144473 33.510615 C 29.081914 34.598797 28.738384 36.058003 27.553356 36.387959 C 26.47625 36.377652 26.007076 35.112828 25.841833 34.20928 C 25.619585 32.810015 25.806739 30.981417 27.144595 30.197122 C 27.274126 30.17735 27.403185 30.138059 27.532169 30.140278 z " />
    <path
       id="path835-9"
       style="fill:#4d4d4d;fill-opacity:1;stroke:none;stroke-width:1.25996;stroke-linecap:round;stroke-linejoin:round;stroke-miterlimit:4;stroke-dasharray:none;stroke-opacity:1"
       d="M -41.082762 25.482681 A 4.5492597 6.7162623 0 0 1 -36.533686 32.199067 A 4.5492597 6.7162623 0 0 1 -41.082762 38.914936 A 4.5492597 6.7162623 0 0 1 -45.632355 32.199067 A 4.5492597 6.7162623 0 0 1 -41.082762 25.482681 z M -40.258523 30.142862 C -40.368678 30.147532 -40.479982 30.171937 -40.589769 30.197122 C -41.901373 30.958248 -42.09497 32.734494 -41.914753 34.107478 C -41.748795 35.04024 -41.300683 36.368795 -40.181009 36.388475 C -38.993033 36.062464 -38.655198 34.601821 -38.589374 33.514749 C -38.539755 32.321878 -38.809044 30.844601 -39.933478 30.206941 C -40.039321 30.153276 -40.148368 30.138192 -40.258523 30.142862 z "
       transform="scale(-1,1)" />
    <path
       id="path17625"
       style="fill:#4d4d4d;fill-opacity:1;stroke:none;stroke-width:2.11667;stroke-linecap:round;stroke-linejoin:round;stroke-miterlimit:4;stroke-dasharray:none;stroke-opacity:1"
       d="m 23.062062,44.631988 c 0.947575,2.364098 3.307337,6.17002 8.810551,6.920169 1.093538,0.149061 2.89463,0.149064 3.98824,-1.9e-5 5.503217,-0.750205 7.862934,-4.556206 8.810469,-6.920276 0.410305,-1.0237 -0.306846,-1.785961 -1.40355,-1.654474 -1.83702,0.220247 -4.687075,0.519311 -7.402363,0.630358 -1.103219,0.04512 -2.894553,0.04512 -3.998124,-2.6e-5 -2.715409,-0.11108 -5.565504,-0.410171 -7.402358,-0.630407 -1.096353,-0.131452 -1.81321,0.63091 -1.402865,1.654675 z" />
  </g>
</svg>
