<?xml version="1.0" encoding="UTF-8" standalone="no"?>
<svg
   xmlns:dc="http://purl.org/dc/elements/1.1/"
   xmlns:cc="http://creativecommons.org/ns#"
   xmlns:rdf="http://www.w3.org/1999/02/22-rdf-syntax-ns#"
   xmlns:svg="http://www.w3.org/2000/svg"
   xmlns="http://www.w3.org/2000/svg"
   xmlns:sodipodi="http://sodipodi.sourceforge.net/DTD/sodipodi-0.dtd"
   xmlns:inkscape="http://www.inkscape.org/namespaces/inkscape"
   width="256"
   height="256"
   viewBox="0 0 67.733331 67.733331"
   version="1.1"
   id="svg8"
   inkscape:version="1.0 (4035a4fb49, 2020-05-01)"
   sodipodi:docname="1F607.svg">
  <defs
     id="defs2" />
  <sodipodi:namedview
     id="base"
     pagecolor="#ffffff"
     bordercolor="#666666"
     borderopacity="1.0"
     inkscape:pageopacity="0.0"
     inkscape:pageshadow="2"
     inkscape:zoom="2.8284271"
     inkscape:cx="117.1782"
     inkscape:cy="108.57396"
     inkscape:document-units="px"
     inkscape:current-layer="layer1"
     inkscape:document-rotation="0"
     showgrid="false"
     inkscape:window-width="1920"
     inkscape:window-height="1001"
     inkscape:window-x="-9"
     inkscape:window-y="-9"
     inkscape:window-maximized="1"
     units="px"
     inkscape:snap-object-midpoints="false" />
  <metadata
     id="metadata5">
    <rdf:RDF>
      <cc:Work
         rdf:about="">
        <dc:format>image/svg+xml</dc:format>
        <dc:type
           rdf:resource="http://purl.org/dc/dcmitype/StillImage" />
        <dc:title></dc:title>
        <cc:license
           rdf:resource="http://creativecommons.org/publicdomain/zero/1.0/" />
        <dc:creator>
          <cc:Agent>
            <dc:title>Dexterux</dc:title>
          </cc:Agent>
        </dc:creator>
        <dc:publisher>
          <cc:Agent>
            <dc:title>Dexterux</dc:title>
          </cc:Agent>
        </dc:publisher>
      </cc:Work>
      <cc:License
         rdf:about="http://creativecommons.org/publicdomain/zero/1.0/">
        <cc:permits
           rdf:resource="http://creativecommons.org/ns#Reproduction" />
        <cc:permits
           rdf:resource="http://creativecommons.org/ns#Distribution" />
        <cc:permits
           rdf:resource="http://creativecommons.org/ns#DerivativeWorks" />
      </cc:License>
    </rdf:RDF>
  </metadata>
  <g
     inkscape:label="Layer 1"
     inkscape:groupmode="layer"
     id="layer1">
    <ellipse
       style="fill:#ffe666;fill-opacity:1;stroke:#4d4d4d;stroke-width:2.64583;stroke-linecap:round;stroke-linejoin:round;stroke-miterlimit:4;stroke-dasharray:none;stroke-opacity:1"
       id="path833"
       cx="33.866665"
       cy="33.866665"
       rx="25.135416"
       ry="25.135418" />
    <g
       id="g900"
       transform="matrix(1,0,0,1.6929647,-2.186794,-18.427754)">
      <path
         sodipodi:nodetypes="cc"
         id="path1442"
         d="m 19.763142,28.363568 c 5.61979,-3.731832 10.888345,-1.636769 12.878685,1.178473"
         style="font-variation-settings:normal;vector-effect:none;fill:none;fill-opacity:1;stroke:#4d4d4d;stroke-width:1.99882;stroke-linecap:round;stroke-linejoin:miter;stroke-miterlimit:4;stroke-dasharray:none;stroke-dashoffset:0;stroke-opacity:1;stop-color:#000000" />
      <path
         style="font-variation-settings:normal;vector-effect:none;fill:none;fill-opacity:1;stroke:#4d4d4d;stroke-width:1.99882;stroke-linecap:round;stroke-linejoin:miter;stroke-miterlimit:4;stroke-dasharray:none;stroke-dashoffset:0;stroke-opacity:1;stop-color:#000000"
         d="M 52.343777,28.363568 C 46.723987,24.631736 41.455434,26.726799 39.465092,29.542041"
         id="path1442-4"
         sodipodi:nodetypes="cc" />
    </g>
    <path
       d="m 43.740665,41.488693 c 0,0 -3.678076,5.343092 -9.873809,5.343092 -6.195734,0 -9.874199,-5.343092 -9.874199,-5.343092"
       style="fill:none;fill-opacity:1;stroke:#4d4d4d;stroke-width:2.64583;stroke-linecap:round;stroke-linejoin:round;stroke-miterlimit:4;stroke-dasharray:none;stroke-opacity:1"
       id="path902-3-0-1"
       sodipodi:nodetypes="czc" />
    <path
       transform="scale(0.26458332)"
       d="M 128 28 C 102.87588 28 80.045975 30.117035 62.089844 34.019531 C 53.111772 35.970777 45.260901 38.363697 39.050781 41.554688 C 32.840667 44.745675 28.207031 49.049993 28.207031 53.820312 C 28.207035 58.590632 32.840667 62.892993 39.050781 66.083984 C 45.260901 69.274972 53.111772 71.667895 62.089844 73.619141 C 80.045975 77.521639 102.87588 79.642582 128 79.642578 C 153.12413 79.642578 175.95402 77.521639 193.91016 73.619141 C 202.88822 71.667895 210.7391 69.274972 216.94922 66.083984 C 223.15933 62.892993 227.79296 58.590632 227.79297 53.820312 C 227.79297 49.049993 223.15933 44.745675 216.94922 41.554688 C 210.7391 38.363697 202.88822 35.970777 193.91016 34.019531 C 175.95826 30.117956 153.1347 28.000999 128.01758 28 C 152.19464 28.003722 174.34994 36.642528 191.62891 50.96875 C 192.43999 51.291382 193.13294 51.599759 193.69141 51.886719 C 195.97391 53.059555 196.04297 53.554464 196.04297 53.820312 C 196.04297 54.086202 195.97392 54.583015 193.69141 55.755859 C 191.4089 56.928692 186.96727 58.465347 180.75977 59.814453 C 168.34477 62.512666 149.22066 64.474609 128 64.474609 C 106.77934 64.474609 87.655227 62.512666 75.240234 59.814453 C 69.032727 58.465347 64.591103 56.928692 62.308594 55.755859 C 60.026084 54.583015 59.957031 54.086161 59.957031 53.820312 C 59.957031 53.554423 60.026084 53.059555 62.308594 51.886719 C 62.843484 51.611872 63.508531 51.315699 64.275391 51.007812 C 81.588668 36.655511 103.79029 28.000466 128 28 z "
       style="color:#000000;font-style:normal;font-variant:normal;font-weight:normal;font-stretch:normal;font-size:medium;line-height:normal;font-family:sans-serif;font-variant-ligatures:normal;font-variant-position:normal;font-variant-caps:normal;font-variant-numeric:normal;font-variant-alternates:normal;font-variant-east-asian:normal;font-feature-settings:normal;font-variation-settings:normal;text-indent:0;text-align:start;text-decoration:none;text-decoration-line:none;text-decoration-style:solid;text-decoration-color:#000000;letter-spacing:normal;word-spacing:normal;text-transform:none;writing-mode:lr-tb;direction:ltr;text-orientation:mixed;dominant-baseline:auto;baseline-shift:baseline;text-anchor:start;white-space:normal;shape-padding:0;shape-margin:0;inline-size:0;clip-rule:nonzero;display:inline;overflow:visible;visibility:visible;opacity:1;isolation:auto;mix-blend-mode:normal;color-interpolation:sRGB;color-interpolation-filters:linearRGB;solid-color:#000000;solid-opacity:1;vector-effect:none;fill:#1e8cfb;fill-opacity:1;fill-rule:nonzero;stroke:none;stroke-width:30.0002;stroke-linecap:round;stroke-linejoin:round;stroke-miterlimit:4;stroke-dasharray:none;stroke-dashoffset:0;stroke-opacity:1;color-rendering:auto;image-rendering:auto;shape-rendering:auto;text-rendering:auto;enable-background:accumulate;stop-color:#000000;stop-opacity:1"
       id="path1097" />
  </g>
</svg>
