<?xml version="1.0" encoding="UTF-8" standalone="no"?>
<svg
   xmlns:dc="http://purl.org/dc/elements/1.1/"
   xmlns:cc="http://creativecommons.org/ns#"
   xmlns:rdf="http://www.w3.org/1999/02/22-rdf-syntax-ns#"
   xmlns:svg="http://www.w3.org/2000/svg"
   xmlns="http://www.w3.org/2000/svg"
   xmlns:sodipodi="http://sodipodi.sourceforge.net/DTD/sodipodi-0.dtd"
   xmlns:inkscape="http://www.inkscape.org/namespaces/inkscape"
   width="256"
   height="256"
   viewBox="0 0 67.733331 67.733331"
   version="1.1"
   id="svg8"
   inkscape:version="1.0 (4035a4fb49, 2020-05-01)"
   sodipodi:docname="1F603_plain.svg">
  <defs
     id="defs2" />
  <sodipodi:namedview
     id="base"
     pagecolor="#ffffff"
     bordercolor="#666666"
     borderopacity="1.0"
     inkscape:pageopacity="0.0"
     inkscape:pageshadow="2"
     inkscape:zoom="1.979899"
     inkscape:cx="116.93722"
     inkscape:cy="92.077553"
     inkscape:document-units="px"
     inkscape:current-layer="layer1"
     inkscape:document-rotation="0"
     showgrid="false"
     inkscape:window-width="1920"
     inkscape:window-height="1001"
     inkscape:window-x="-9"
     inkscape:window-y="-9"
     inkscape:window-maximized="1"
     units="px"
     inkscape:snap-object-midpoints="false" />
  <metadata
     id="metadata5">
    <rdf:RDF>
      <cc:Work
         rdf:about="">
        <dc:format>image/svg+xml</dc:format>
        <dc:type
           rdf:resource="http://purl.org/dc/dcmitype/StillImage" />
        <dc:title />
        <cc:license
           rdf:resource="http://creativecommons.org/publicdomain/zero/1.0/" />
        <dc:creator>
          <cc:Agent>
            <dc:title>Dexterux</dc:title>
          </cc:Agent>
        </dc:creator>
        <dc:publisher>
          <cc:Agent>
            <dc:title>Dexterux</dc:title>
          </cc:Agent>
        </dc:publisher>
      </cc:Work>
      <cc:License
         rdf:about="http://creativecommons.org/publicdomain/zero/1.0/">
        <cc:permits
           rdf:resource="http://creativecommons.org/ns#Reproduction" />
        <cc:permits
           rdf:resource="http://creativecommons.org/ns#Distribution" />
        <cc:permits
           rdf:resource="http://creativecommons.org/ns#DerivativeWorks" />
      </cc:License>
    </rdf:RDF>
  </metadata>
  <g
     inkscape:label="Layer 1"
     inkscape:groupmode="layer"
     id="layer1">
    <ellipse
       style="fill:none;fill-opacity:1;stroke:#4d4d4d;stroke-width:2.64583;stroke-linecap:round;stroke-linejoin:round;stroke-miterlimit:4;stroke-dasharray:none;stroke-opacity:1"
       id="path833"
       cx="33.866665"
       cy="33.866665"
       rx="25.135416"
       ry="25.135418" />
    <g
       id="g1009"
       transform="translate(-0.53443607,-1.5874999)"
       style="stroke-width:2.11666659;stroke-miterlimit:4;stroke-dasharray:none">
      <path
         sodipodi:nodetypes="czczc"
         d="m 21.052824,40.792598 c 0,0 1.752868,10.502154 13.348288,10.502154 11.595421,0 13.348291,-10.502154 13.348291,-10.502154 0,0 -7.5784,1.09058 -13.348291,1.09058 -5.769897,0 -13.348288,-1.09058 -13.348288,-1.09058 z"
         style="fill:none;fill-opacity:1;stroke:#4d4d4d;stroke-width:2.11666659;stroke-linecap:round;stroke-linejoin:round;stroke-miterlimit:4;stroke-dasharray:none;stroke-opacity:1"
         id="path902-3" />
      <path
         d="m 21.052824,40.792598 c 0,0 0.352462,2.091853 1.769401,4.408 2.506934,0.315259 7.605857,0.885735 11.789462,0.885735 3.953622,0 8.701772,-0.507553 11.333672,-0.829924 1.44565,-2.338263 1.80402,-4.463811 1.80402,-4.463811 0,0 -7.57813,1.090374 -13.348015,1.090374 -5.769895,0 -13.34854,-1.090374 -13.34854,-1.090374 z"
         style="fill:#ffffff;fill-opacity:1;stroke:#4d4d4d;stroke-width:2.11666659;stroke-linecap:round;stroke-linejoin:round;stroke-miterlimit:4;stroke-dasharray:none;stroke-opacity:1"
         id="path902-3-0" />
    </g>
    <path
       id="path835"
       style="fill:#4d4d4d;fill-opacity:1;stroke:none;stroke-width:4.76205;stroke-linecap:round;stroke-linejoin:round;stroke-miterlimit:4;stroke-dasharray:none;stroke-opacity:1"
       d="M 93.785156 74.496094 A 17.857142 27.37437 0 0 0 75.927734 101.86914 A 17.857142 27.37437 0 0 0 93.785156 129.24414 A 17.857142 27.37437 0 0 0 111.64258 101.86914 A 17.857142 27.37437 0 0 0 93.785156 74.496094 z M 93.785156 86.169922 A 7.1428557 9.8377077 0 0 1 100.92773 96.007812 A 7.1428557 9.8377077 0 0 1 93.785156 105.8457 A 7.1428557 9.8377077 0 0 1 86.642578 96.007812 A 7.1428557 9.8377077 0 0 1 93.785156 86.169922 z "
       transform="scale(0.26458332)" />
    <path
       id="path835-3"
       style="fill:#4d4d4d;fill-opacity:1;stroke:none;stroke-width:4.76205;stroke-linecap:round;stroke-linejoin:round;stroke-miterlimit:4;stroke-dasharray:none;stroke-opacity:1"
       d="M 162.21484 74.496094 A 17.857142 27.37437 0 0 0 144.35742 101.86914 A 17.857142 27.37437 0 0 0 162.21484 129.24414 A 17.857142 27.37437 0 0 0 180.07227 101.86914 A 17.857142 27.37437 0 0 0 162.21484 74.496094 z M 162.21484 86.169922 A 7.1428557 9.8377084 0 0 1 169.35742 96.007812 A 7.1428557 9.8377084 0 0 1 162.21484 105.8457 A 7.1428557 9.8377084 0 0 1 155.07227 96.007812 A 7.1428557 9.8377084 0 0 1 162.21484 86.169922 z "
       transform="scale(0.26458332)" />
  </g>
</svg>
