<?xml version="1.0" encoding="UTF-8" standalone="no"?>
<svg
   xmlns:dc="http://purl.org/dc/elements/1.1/"
   xmlns:cc="http://creativecommons.org/ns#"
   xmlns:rdf="http://www.w3.org/1999/02/22-rdf-syntax-ns#"
   xmlns:svg="http://www.w3.org/2000/svg"
   xmlns="http://www.w3.org/2000/svg"
   xmlns:sodipodi="http://sodipodi.sourceforge.net/DTD/sodipodi-0.dtd"
   xmlns:inkscape="http://www.inkscape.org/namespaces/inkscape"
   width="256"
   height="256"
   viewBox="0 0 67.733331 67.733331"
   version="1.1"
   id="svg8"
   inkscape:version="1.0 (4035a4fb49, 2020-05-01)"
   sodipodi:docname="1F61B_plain.svg">
  <defs
     id="defs2" />
  <sodipodi:namedview
     id="base"
     pagecolor="#ffffff"
     bordercolor="#666666"
     borderopacity="1.0"
     inkscape:pageopacity="0.0"
     inkscape:pageshadow="2"
     inkscape:zoom="0.35"
     inkscape:cx="-279.66819"
     inkscape:cy="116.69106"
     inkscape:document-units="px"
     inkscape:current-layer="layer1"
     inkscape:document-rotation="0"
     showgrid="false"
     inkscape:window-width="1920"
     inkscape:window-height="1001"
     inkscape:window-x="-9"
     inkscape:window-y="-9"
     inkscape:window-maximized="1"
     units="px"
     inkscape:snap-object-midpoints="false" />
  <metadata
     id="metadata5">
    <rdf:RDF>
      <cc:Work
         rdf:about="">
        <dc:format>image/svg+xml</dc:format>
        <dc:type
           rdf:resource="http://purl.org/dc/dcmitype/StillImage" />
        <dc:title></dc:title>
        <cc:license
           rdf:resource="http://creativecommons.org/publicdomain/zero/1.0/" />
        <dc:creator>
          <cc:Agent>
            <dc:title>Dexterux</dc:title>
          </cc:Agent>
        </dc:creator>
        <dc:publisher>
          <cc:Agent>
            <dc:title>Dexterux</dc:title>
          </cc:Agent>
        </dc:publisher>
      </cc:Work>
      <cc:License
         rdf:about="http://creativecommons.org/publicdomain/zero/1.0/">
        <cc:permits
           rdf:resource="http://creativecommons.org/ns#Reproduction" />
        <cc:permits
           rdf:resource="http://creativecommons.org/ns#Distribution" />
        <cc:permits
           rdf:resource="http://creativecommons.org/ns#DerivativeWorks" />
      </cc:License>
    </rdf:RDF>
  </metadata>
  <g
     inkscape:label="Layer 1"
     inkscape:groupmode="layer"
     id="layer1">
    <path
       transform="scale(0.26458332)"
       d="M 128.00195 28 C 72.832701 28 28 72.832698 28 128.00195 C 28 180.1497 68.071006 223.00156 119.05078 227.54492 C 118.90106 227.48383 118.73204 227.46051 118.58398 227.39648 C 117.15287 226.77761 115.80006 226.02226 114.53906 225.15039 C 113.27806 224.27852 112.10844 223.29036 111.04492 222.20312 C 109.9814 221.11589 109.02423 219.92904 108.18555 218.66406 C 107.47956 217.59923 106.90967 216.45138 106.38086 215.28516 C 67.10552 205.6072 38.00195 170.29679 38.001953 128.00195 C 38.001949 78.237093 78.237097 38.001949 128.00195 38.001953 C 177.76681 38.001953 218.00195 78.237093 218.00195 128.00195 C 218.00195 170.29828 188.89658 205.61063 149.61914 215.28711 C 149.09048 216.45277 148.52012 217.59971 147.81445 218.66406 C 146.97577 219.92904 146.0186 221.11589 144.95508 222.20312 C 143.89156 223.29036 142.72194 224.27852 141.46094 225.15039 C 140.19994 226.02226 138.84713 226.77761 137.41602 227.39648 C 137.26497 227.4618 137.09223 227.48461 136.93945 227.54688 C 187.58408 223.03688 227.37852 180.68328 227.89453 128.99023 A 4.9999939 4.9999939 0 0 0 227.99609 128.00195 A 4.9999939 4.9999939 0 0 0 227.89453 127.00586 C 227.34449 72.306433 182.82983 28 128.00195 28 z "
       style="color:#000000;font-style:normal;font-variant:normal;font-weight:normal;font-stretch:normal;font-size:medium;line-height:normal;font-family:sans-serif;font-variant-ligatures:normal;font-variant-position:normal;font-variant-caps:normal;font-variant-numeric:normal;font-variant-alternates:normal;font-variant-east-asian:normal;font-feature-settings:normal;font-variation-settings:normal;text-indent:0;text-align:start;text-decoration:none;text-decoration-line:none;text-decoration-style:solid;text-decoration-color:#000000;letter-spacing:normal;word-spacing:normal;text-transform:none;writing-mode:lr-tb;direction:ltr;text-orientation:mixed;dominant-baseline:auto;baseline-shift:baseline;text-anchor:start;white-space:normal;shape-padding:0;shape-margin:0;inline-size:0;clip-rule:nonzero;display:inline;overflow:visible;visibility:visible;opacity:1;isolation:auto;mix-blend-mode:normal;color-interpolation:sRGB;color-interpolation-filters:linearRGB;solid-color:#000000;solid-opacity:1;vector-effect:none;fill:#4d4d4d;fill-opacity:1;fill-rule:nonzero;stroke:none;stroke-width:9.99999;stroke-linecap:round;stroke-linejoin:round;stroke-miterlimit:4;stroke-dasharray:none;stroke-dashoffset:0;stroke-opacity:1;color-rendering:auto;image-rendering:auto;shape-rendering:auto;text-rendering:auto;enable-background:accumulate;stop-color:#000000;stop-opacity:1"
       id="path1776" />
    <path
       id="path835"
       style="fill:#4d4d4d;fill-opacity:1;stroke:none;stroke-width:3.84616;stroke-linecap:round;stroke-linejoin:round;stroke-miterlimit:4;stroke-dasharray:none;stroke-opacity:1"
       d="M 93.785156 89.142578 A 17.857142 17.857142 0 0 0 75.927734 107 A 17.857142 17.857142 0 0 0 93.785156 124.85742 A 17.857142 17.857142 0 0 0 111.64258 107 A 17.857142 17.857142 0 0 0 93.785156 89.142578 z M 93.785156 94.857422 A 7.1428557 7.1428557 0 0 1 100.92773 102 A 7.1428557 7.1428557 0 0 1 93.785156 109.14258 A 7.1428557 7.1428557 0 0 1 86.642578 102 A 7.1428557 7.1428557 0 0 1 93.785156 94.857422 z "
       transform="scale(0.26458332)" />
    <path
       id="path835-3"
       style="fill:#4d4d4d;fill-opacity:1;stroke:none;stroke-width:3.84616;stroke-linecap:round;stroke-linejoin:round;stroke-miterlimit:4;stroke-dasharray:none;stroke-opacity:1"
       d="M 162.21484 89.142578 A 17.857142 17.857142 0 0 0 144.35742 107 A 17.857142 17.857142 0 0 0 162.21484 124.85742 A 17.857142 17.857142 0 0 0 180.07227 107 A 17.857142 17.857142 0 0 0 162.21484 89.142578 z M 162.21484 94.857422 A 7.1428557 7.1428557 0 0 1 169.35742 102 A 7.1428557 7.1428557 0 0 1 162.21484 109.14258 A 7.1428557 7.1428557 0 0 1 155.07227 102 A 7.1428557 7.1428557 0 0 1 162.21484 94.857422 z "
       transform="scale(0.26458332)" />
    <path
       transform="scale(0.26458332)"
       sodipodi:nodetypes="ccsssccsc"
       d="m 77.550781,148.17578 c 0,0 4.039728,24.2009 26.675779,34.8086 v 22.6582 c 0,12.57944 10.25924,23.68556 23.77344,23.68554 13.5142,0 23.77344,-11.1061 23.77344,-23.68554 v -22.6582 c 22.63606,-10.6077 26.67773,-34.8086 26.67773,-34.8086 0,0 -28.64371,4.12305 -50.45117,4.12305 -21.80749,0 -50.449219,-4.12305 -50.449219,-4.12305 z"
       style="fill:none;fill-opacity:1;stroke:#4d4d4d;stroke-width:8.00001;stroke-linecap:round;stroke-linejoin:round;stroke-miterlimit:4;stroke-dasharray:none;stroke-opacity:1"
       id="path902-3" />
    <path
       sodipodi:nodetypes="cc"
       id="path1736"
       d="M 27.576609,48.414615 V 40.391106"
       style="fill:none;stroke:#4d4d4d;stroke-width:2.11666659;stroke-linecap:butt;stroke-linejoin:miter;stroke-opacity:1;stroke-miterlimit:4;stroke-dasharray:none" />
    <path
       style="fill:none;stroke:#4d4d4d;stroke-width:2.11667;stroke-linecap:butt;stroke-linejoin:miter;stroke-miterlimit:4;stroke-dasharray:none;stroke-opacity:1"
       d="m 40.156721,48.414615 v -8.02351"
       id="path1736-4"
       sodipodi:nodetypes="cc" />
  </g>
</svg>
