<?xml version="1.0" encoding="UTF-8" standalone="no"?>
<svg
   xmlns:dc="http://purl.org/dc/elements/1.1/"
   xmlns:cc="http://creativecommons.org/ns#"
   xmlns:rdf="http://www.w3.org/1999/02/22-rdf-syntax-ns#"
   xmlns:svg="http://www.w3.org/2000/svg"
   xmlns="http://www.w3.org/2000/svg"
   xmlns:sodipodi="http://sodipodi.sourceforge.net/DTD/sodipodi-0.dtd"
   xmlns:inkscape="http://www.inkscape.org/namespaces/inkscape"
   sodipodi:docname="1F62E_200D_1F4A8_plain.svg"
   inkscape:version="1.0.2 (e86c870879, 2021-01-15, custom)"
   id="svg8"
   version="1.1"
   viewBox="0 0 67.733331 67.733331"
   height="256"
   width="256">
  <defs
     id="defs2" />
  <sodipodi:namedview
     inkscape:snap-object-midpoints="false"
     units="px"
     inkscape:window-maximized="1"
     inkscape:window-y="-9"
     inkscape:window-x="-9"
     inkscape:window-height="1001"
     inkscape:window-width="1920"
     showgrid="false"
     inkscape:document-rotation="0"
     inkscape:current-layer="g1009"
     inkscape:document-units="px"
     inkscape:cy="122.23077"
     inkscape:cx="323.01419"
     inkscape:zoom="1.4"
     inkscape:pageshadow="2"
     inkscape:pageopacity="0.0"
     borderopacity="1.0"
     bordercolor="#666666"
     pagecolor="#ffffff"
     id="base" />
  <metadata
     id="metadata5">
    <rdf:RDF>
      <cc:Work
         rdf:about="">
        <dc:format>image/svg+xml</dc:format>
        <dc:type
           rdf:resource="http://purl.org/dc/dcmitype/StillImage" />
        <dc:title />
        <cc:license
           rdf:resource="http://creativecommons.org/publicdomain/zero/1.0/" />
        <dc:creator>
          <cc:Agent>
            <dc:title>Dexterux</dc:title>
          </cc:Agent>
        </dc:creator>
        <dc:publisher>
          <cc:Agent>
            <dc:title>Dexterux</dc:title>
          </cc:Agent>
        </dc:publisher>
      </cc:Work>
      <cc:License
         rdf:about="http://creativecommons.org/publicdomain/zero/1.0/">
        <cc:permits
           rdf:resource="http://creativecommons.org/ns#Reproduction" />
        <cc:permits
           rdf:resource="http://creativecommons.org/ns#Distribution" />
        <cc:permits
           rdf:resource="http://creativecommons.org/ns#DerivativeWorks" />
      </cc:License>
    </rdf:RDF>
  </metadata>
  <g
     id="layer1"
     inkscape:groupmode="layer"
     inkscape:label="Layer 1">
    <g
       style="stroke-width:2.11666659;stroke-miterlimit:4;stroke-dasharray:none"
       transform="translate(-0.53443607,-1.5874999)"
       id="g1009">
      <path
         id="path833"
         style="color:#000000;font-style:normal;font-variant:normal;font-weight:normal;font-stretch:normal;font-size:medium;line-height:normal;font-family:sans-serif;font-variant-ligatures:normal;font-variant-position:normal;font-variant-caps:normal;font-variant-numeric:normal;font-variant-alternates:normal;font-variant-east-asian:normal;font-feature-settings:normal;font-variation-settings:normal;text-indent:0;text-align:start;text-decoration:none;text-decoration-line:none;text-decoration-style:solid;text-decoration-color:#000000;letter-spacing:normal;word-spacing:normal;text-transform:none;writing-mode:lr-tb;direction:ltr;text-orientation:mixed;dominant-baseline:auto;baseline-shift:baseline;text-anchor:start;white-space:normal;shape-padding:0;shape-margin:0;inline-size:0;clip-rule:nonzero;display:inline;overflow:visible;visibility:visible;isolation:auto;mix-blend-mode:normal;color-interpolation:sRGB;color-interpolation-filters:linearRGB;solid-color:#000000;solid-opacity:1;vector-effect:none;fill:#4d4d4d;fill-opacity:1;fill-rule:nonzero;stroke:none;stroke-width:2.11667;stroke-linecap:round;stroke-linejoin:round;stroke-miterlimit:4;stroke-dasharray:none;stroke-dashoffset:0;stroke-opacity:1;color-rendering:auto;image-rendering:auto;shape-rendering:auto;text-rendering:auto;enable-background:accumulate;stop-color:#000000"
         d="m 34.400585,8.9963496 c -14.596865,0 -26.4572992,11.8619854 -26.4572992,26.4588494 0,14.596864 11.8604342,26.456782 26.4572992,26.456782 4.433117,0 8.612597,-1.095428 12.285553,-3.027722 -1.145005,-0.112451 -2.332066,-0.507765 -3.51038,-1.282094 -2.71477,1.074459 -5.674725,1.665533 -8.775173,1.665533 -13.166952,0 -23.8125,-10.645547 -23.8125,-23.812499 0,-13.166952 10.645548,-23.812499 23.8125,-23.812499 13.166949,0 23.812499,10.645547 23.812499,23.812499 0,3.429913 -0.723535,6.687852 -2.024684,9.631968 0.47507,1.658652 0.573545,3.33937 0.419097,4.741831 2.688344,-4.140428 4.251936,-9.076417 4.251936,-14.373799 0,-14.596864 -11.861987,-26.4588494 -26.458848,-26.4588494 z" />
      <path
         id="path835"
         style="fill:#4d4d4d;fill-opacity:1;stroke:none;stroke-width:1.01763;stroke-linecap:round;stroke-linejoin:round;stroke-miterlimit:4;stroke-dasharray:none;stroke-opacity:1"
         d="m 25.348424,25.173139 a 4.7247019,4.7247019 0 0 0 -4.724776,4.724776 4.7247019,4.7247019 0 0 0 4.724776,4.724776 4.7247019,4.7247019 0 0 0 4.724777,-4.724776 4.7247019,4.7247019 0 0 0 -4.724777,-4.724776 z m 0,1.512053 a 1.8898805,1.8898805 0 0 1 1.889806,1.889807 1.8898805,1.8898805 0 0 1 -1.889806,1.889807 1.8898805,1.8898805 0 0 1 -1.889807,-1.889807 1.8898805,1.8898805 0 0 1 1.889807,-1.889807 z" />
      <path
         sodipodi:nodetypes="cc"
         id="path1442-3"
         d="m 17.944648,24.275254 c 5.717279,-0.860853 10.576556,-5.225217 10.576556,-5.225217"
         style="font-variation-settings:normal;vector-effect:none;fill:none;fill-opacity:1;stroke:#4d4d4d;stroke-width:1.66663;stroke-linecap:round;stroke-linejoin:miter;stroke-miterlimit:4;stroke-dasharray:none;stroke-dashoffset:0;stroke-opacity:1;stop-color:#000000" />
      <path
         id="path835-3"
         style="fill:#4d4d4d;fill-opacity:1;stroke:none;stroke-width:1.01763;stroke-linecap:round;stroke-linejoin:round;stroke-miterlimit:4;stroke-dasharray:none;stroke-opacity:1"
         d="m 43.453777,25.173139 a 4.7247019,4.7247019 0 0 0 -4.724775,4.724776 4.7247019,4.7247019 0 0 0 4.724775,4.724776 4.7247019,4.7247019 0 0 0 4.724778,-4.724776 4.7247019,4.7247019 0 0 0 -4.724778,-4.724776 z m 0,1.512053 a 1.8898805,1.8898805 0 0 1 1.889808,1.889807 1.8898805,1.8898805 0 0 1 -1.889808,1.889807 1.8898805,1.8898805 0 0 1 -1.889805,-1.889807 1.8898805,1.8898805 0 0 1 1.889805,-1.889807 z" />
      <path
         sodipodi:nodetypes="cc"
         id="path1442-3-7"
         d="M 50.857552,24.275254 C 45.140273,23.414401 40.280996,19.050037 40.280996,19.050037"
         style="font-variation-settings:normal;vector-effect:none;fill:none;fill-opacity:1;stroke:#4d4d4d;stroke-width:1.66663;stroke-linecap:round;stroke-linejoin:miter;stroke-miterlimit:4;stroke-dasharray:none;stroke-dashoffset:0;stroke-opacity:1;stop-color:#000000" />
      <path
         id="path915-7"
         style="fill:none;fill-opacity:1;stroke:#4d4d4d;stroke-width:2.64583;stroke-linecap:round;stroke-linejoin:round;stroke-miterlimit:4;stroke-dasharray:none;stroke-opacity:1;stop-color:#000000"
         d="m 39.205345,42.632739 c 0,0 6.896722,2.703114 6.485103,1.638059 -0.411623,-1.065057 0.781073,-4.458694 3.148259,-4.701718 8.207097,-0.842579 9.558373,7.30071 8.408156,11.347265 -1.105173,4.124561 -6.639711,10.461948 -13.300355,5.863961 -1.921143,-1.326206 -1.154122,-4.827362 -0.23273,-5.555719 0.921384,-0.728351 -6.485103,-1.638056 -6.485103,-1.638056"
         sodipodi:nodetypes="csscssc" />
      <path
         id="path858"
         style="color:#000000;font-style:normal;font-variant:normal;font-weight:normal;font-stretch:normal;font-size:medium;line-height:normal;font-family:sans-serif;font-variant-ligatures:normal;font-variant-position:normal;font-variant-caps:normal;font-variant-numeric:normal;font-variant-alternates:normal;font-variant-east-asian:normal;font-feature-settings:normal;font-variation-settings:normal;text-indent:0;text-align:start;text-decoration:none;text-decoration-line:none;text-decoration-style:solid;text-decoration-color:#000000;letter-spacing:normal;word-spacing:normal;text-transform:none;writing-mode:lr-tb;direction:ltr;text-orientation:mixed;dominant-baseline:auto;baseline-shift:baseline;text-anchor:start;white-space:normal;shape-padding:0;shape-margin:0;inline-size:0;clip-rule:nonzero;display:inline;overflow:visible;visibility:visible;isolation:auto;mix-blend-mode:normal;color-interpolation:sRGB;color-interpolation-filters:linearRGB;solid-color:#000000;solid-opacity:1;vector-effect:none;fill:#4d4d4d;fill-opacity:1;fill-rule:nonzero;stroke:none;stroke-width:8.00001;stroke-linecap:round;stroke-linejoin:round;stroke-miterlimit:4;stroke-dasharray:none;stroke-dashoffset:0;stroke-opacity:1;color-rendering:auto;image-rendering:auto;shape-rendering:auto;text-rendering:auto;enable-background:accumulate;stop-color:#000000"
         d="M 134.58203 143.12109 C 123.7873 143.35671 115.06617 145.49627 108.64844 149.05664 C 102.23071 152.61701 97.932068 157.87175 97.384766 163.98242 C 96.837467 170.09309 100.20437 176.14395 106.36133 180.87305 C 112.51829 185.60215 121.58198 189.38543 133.90234 191.79688 A 4.0004062 4.0004062 0 0 0 134.63281 191.87109 C 144.08037 191.96764 151.71942 189.16257 156.88086 184.41602 C 149.53105 182.74603 138.6875 181.41406 138.6875 181.41406 L 146.1582 155.13086 C 146.1582 155.13086 156.48759 159.17874 163.75391 161.17383 C 163.46632 159.79361 163.08821 158.41497 162.5957 157.05078 C 159.61306 148.78926 149.64406 143.12109 134.66992 143.12109 A 4.0004062 4.0004062 0 0 0 134.58203 143.12109 z "
         transform="matrix(0.26458332,0,0,0.26458332,0.53443607,1.5874999)" />
    </g>
  </g>
</svg>
