<?xml version="1.0" encoding="UTF-8" standalone="no"?>
<svg
   xmlns:dc="http://purl.org/dc/elements/1.1/"
   xmlns:cc="http://creativecommons.org/ns#"
   xmlns:rdf="http://www.w3.org/1999/02/22-rdf-syntax-ns#"
   xmlns:svg="http://www.w3.org/2000/svg"
   xmlns="http://www.w3.org/2000/svg"
   xmlns:sodipodi="http://sodipodi.sourceforge.net/DTD/sodipodi-0.dtd"
   xmlns:inkscape="http://www.inkscape.org/namespaces/inkscape"
   width="256"
   height="256"
   viewBox="0 0 67.733331 67.733331"
   version="1.1"
   id="svg8"
   inkscape:version="1.0.2 (e86c870879, 2021-01-15, custom)"
   sodipodi:docname="1F62A_plain.svg">
  <defs
     id="defs2" />
  <sodipodi:namedview
     id="base"
     pagecolor="#ffffff"
     bordercolor="#666666"
     borderopacity="1.0"
     inkscape:pageopacity="0.0"
     inkscape:pageshadow="2"
     inkscape:zoom="2.8"
     inkscape:cx="44.494656"
     inkscape:cy="134.48166"
     inkscape:document-units="px"
     inkscape:current-layer="layer1"
     inkscape:document-rotation="0"
     showgrid="false"
     inkscape:window-width="1920"
     inkscape:window-height="1001"
     inkscape:window-x="-9"
     inkscape:window-y="-9"
     inkscape:window-maximized="1"
     units="px"
     inkscape:snap-object-midpoints="false" />
  <metadata
     id="metadata5">
    <rdf:RDF>
      <cc:Work
         rdf:about="">
        <dc:format>image/svg+xml</dc:format>
        <dc:type
           rdf:resource="http://purl.org/dc/dcmitype/StillImage" />
        <dc:title />
        <cc:license
           rdf:resource="http://creativecommons.org/publicdomain/zero/1.0/" />
        <dc:creator>
          <cc:Agent>
            <dc:title>Dexterux</dc:title>
          </cc:Agent>
        </dc:creator>
        <dc:publisher>
          <cc:Agent>
            <dc:title>Dexterux</dc:title>
          </cc:Agent>
        </dc:publisher>
      </cc:Work>
      <cc:License
         rdf:about="http://creativecommons.org/publicdomain/zero/1.0/">
        <cc:permits
           rdf:resource="http://creativecommons.org/ns#Reproduction" />
        <cc:permits
           rdf:resource="http://creativecommons.org/ns#Distribution" />
        <cc:permits
           rdf:resource="http://creativecommons.org/ns#DerivativeWorks" />
      </cc:License>
    </rdf:RDF>
  </metadata>
  <g
     inkscape:label="Layer 1"
     inkscape:groupmode="layer"
     id="layer1">
    <path
       id="path833"
       style="color:#000000;font-style:normal;font-variant:normal;font-weight:normal;font-stretch:normal;font-size:medium;line-height:normal;font-family:sans-serif;font-variant-ligatures:normal;font-variant-position:normal;font-variant-caps:normal;font-variant-numeric:normal;font-variant-alternates:normal;font-variant-east-asian:normal;font-feature-settings:normal;font-variation-settings:normal;text-indent:0;text-align:start;text-decoration:none;text-decoration-line:none;text-decoration-style:solid;text-decoration-color:#000000;letter-spacing:normal;word-spacing:normal;text-transform:none;writing-mode:lr-tb;direction:ltr;text-orientation:mixed;dominant-baseline:auto;baseline-shift:baseline;text-anchor:start;white-space:normal;shape-padding:0;shape-margin:0;inline-size:0;clip-rule:nonzero;display:inline;overflow:visible;visibility:visible;opacity:1;isolation:auto;mix-blend-mode:normal;color-interpolation:sRGB;color-interpolation-filters:linearRGB;solid-color:#000000;solid-opacity:1;vector-effect:none;fill:#4d4d4d;fill-opacity:1;fill-rule:nonzero;stroke:none;stroke-width:3.77953;stroke-linecap:round;stroke-linejoin:round;stroke-miterlimit:4;stroke-dasharray:none;stroke-dashoffset:0;stroke-opacity:1;color-rendering:auto;image-rendering:auto;shape-rendering:auto;text-rendering:auto;enable-background:accumulate;stop-color:#000000;stop-opacity:1"
       d="M 128.00195 28 C 72.832701 28 28 72.832698 28 128.00195 C 28 183.1712 72.832701 227.99609 128.00195 227.99609 C 143.32636 227.99609 157.85058 224.53367 170.83984 218.35547 C 168.12087 216.40694 165.44567 213.93019 163.02734 210.95117 C 152.26549 215.49242 140.43108 218.00195 128.00195 218.00195 C 78.237097 218.00195 38.001953 177.76681 38.001953 128.00195 C 38.001953 78.237093 78.237097 38.001953 128.00195 38.001953 C 177.76681 38.001953 218.00195 78.237093 218.00195 128.00195 C 218.00195 142.50673 214.57978 156.19888 208.50391 168.32422 C 209.68285 169.4021 210.84173 170.56033 211.97852 171.81445 C 213.30735 173.28045 214.47855 174.803 215.51172 176.36523 C 223.46248 162.02649 227.99609 145.5383 227.99609 128.00195 C 227.99609 72.832698 183.1712 28 128.00195 28 z "
       transform="scale(0.26458332)" />
    <path
       sodipodi:nodetypes="csc"
       id="path1442-3-3"
       d="M 48.989076,24.250856 C 47.20405,22.307183 45.171688,21.254944 43.256679,20.824122 40.971926,20.31012 38.85422,20.680662 37.522899,21.477195"
       style="font-variation-settings:normal;vector-effect:none;fill:none;fill-opacity:1;stroke:#4d4d4d;stroke-width:1.66663;stroke-linecap:round;stroke-linejoin:miter;stroke-miterlimit:4;stroke-dasharray:none;stroke-dashoffset:0;stroke-opacity:1;stop-color:#000000" />
    <path
       style="font-variation-settings:normal;vector-effect:none;fill:none;fill-opacity:1;stroke:#4d4d4d;stroke-width:1.66663;stroke-linecap:round;stroke-linejoin:miter;stroke-miterlimit:4;stroke-dasharray:none;stroke-dashoffset:0;stroke-opacity:1;stop-color:#000000"
       d="m 18.744252,24.250857 c 1.785027,-1.943673 3.817389,-2.995912 5.732398,-3.426734 2.284752,-0.514001 4.40246,-0.143461 5.733781,0.653072"
       id="path1442-3-3-0"
       sodipodi:nodetypes="csc" />
    <path
       sodipodi:nodetypes="cc"
       id="path1442"
       d="m 17.576348,31.988521 c 5.61979,4.128571 10.888345,1.810777 12.878685,-1.303759"
       style="font-variation-settings:normal;vector-effect:none;fill:none;fill-opacity:1;stroke:#4d4d4d;stroke-width:2.60074;stroke-linecap:round;stroke-linejoin:miter;stroke-miterlimit:4;stroke-dasharray:none;stroke-dashoffset:0;stroke-opacity:1;stop-color:#000000" />
    <path
       style="font-variation-settings:normal;vector-effect:none;fill:none;fill-opacity:1;stroke:#4d4d4d;stroke-width:2.60074;stroke-linecap:round;stroke-linejoin:miter;stroke-miterlimit:4;stroke-dasharray:none;stroke-dashoffset:0;stroke-opacity:1;stop-color:#000000"
       d="M 50.156984,31.988521 C 44.537192,36.117092 39.26864,33.799298 37.278298,30.684762"
       id="path1442-4"
       sodipodi:nodetypes="cc" />
    <path
       id="path902-3"
       style="fill:#4d4d4d;fill-opacity:1;stroke:#4d4d4d;stroke-width:8.00001;stroke-linecap:round;stroke-linejoin:round;stroke-miterlimit:4;stroke-dasharray:none;stroke-opacity:1"
       d="M 128.35352 155.58789 C 95.963254 156.27427 99.846351 176.38318 106.91797 179.36133 C 117.4386 183.792 123.94897 175.9883 136.79883 176.22656 C 138.93941 176.26625 141.10512 176.22998 143.15234 176.05078 C 138.51372 170.15226 134.66797 166.61719 134.66797 166.61719 A 3.1498142 3.1498142 0 0 1 136.32227 161.16797 C 140.30091 160.57303 144.0629 160.01051 147.64453 159.49805 C 142.62967 156.80817 135.28669 155.58789 128.35352 155.58789 z "
       transform="scale(0.26458332)" />
    <path
       style="fill:none;fill-opacity:1;stroke:#4d4d4d;stroke-width:2.64583324;stroke-linecap:round;stroke-linejoin:round;stroke-miterlimit:4;stroke-dasharray:none;stroke-opacity:1;stop-color:#000000"
       d="m 36.191218,43.467258 c 10.110864,-1.511903 14.964067,-2.206547 19.276784,2.55134 3.242956,3.577704 2.675839,8.527828 0.4606,10.873531 -2.43192,2.575145 -6.024896,1.833731 -7.968823,1.328649 -1.839154,-0.477859 -4.676573,-2.578126 -5.905876,-5.991281 -1.840878,-5.111188 -5.862685,-8.762239 -5.862685,-8.762239 z"
       id="path879"
       sodipodi:nodetypes="cssssc" />
  </g>
</svg>
