<?xml version="1.0" encoding="UTF-8" standalone="no"?>
<svg
   width="256"
   height="256"
   viewBox="0 0 67.733331 67.733331"
   version="1.1"
   id="svg8"
   inkscape:version="1.1 (c68e22c387, 2021-05-23)"
   sodipodi:docname="1F62B_plain.svg"
   xmlns:inkscape="http://www.inkscape.org/namespaces/inkscape"
   xmlns:sodipodi="http://sodipodi.sourceforge.net/DTD/sodipodi-0.dtd"
   xmlns="http://www.w3.org/2000/svg"
   xmlns:svg="http://www.w3.org/2000/svg"
   xmlns:rdf="http://www.w3.org/1999/02/22-rdf-syntax-ns#"
   xmlns:cc="http://creativecommons.org/ns#"
   xmlns:dc="http://purl.org/dc/elements/1.1/">
  <defs
     id="defs2">
    <inkscape:path-effect
       effect="fillet_chamfer"
       id="path-effect1262"
       is_visible="true"
       lpeversion="1"
       satellites_param="F,0,0,1,0,3,0,8 @ F,0,0,1,0,3,0,8 @ F,0,0,1,0,3,0,8 @ F,0,0,1,0,3,0,8"
       unit="px"
       method="auto"
       mode="F"
       radius="3"
       chamfer_steps="8"
       flexible="false"
       use_knot_distance="true"
       apply_no_radius="true"
       apply_with_radius="true"
       only_selected="false"
       hide_knots="false" />
  </defs>
  <sodipodi:namedview
     id="base"
     pagecolor="#ffffff"
     bordercolor="#666666"
     borderopacity="1.0"
     inkscape:pageopacity="0.0"
     inkscape:pageshadow="2"
     inkscape:zoom="1.979899"
     inkscape:cx="26.011428"
     inkscape:cy="74.246212"
     inkscape:document-units="px"
     inkscape:current-layer="layer1"
     inkscape:document-rotation="0"
     showgrid="false"
     inkscape:window-width="1920"
     inkscape:window-height="991"
     inkscape:window-x="-9"
     inkscape:window-y="-9"
     inkscape:window-maximized="1"
     units="px"
     inkscape:snap-object-midpoints="false"
     inkscape:pagecheckerboard="0" />
  <metadata
     id="metadata5">
    <rdf:RDF>
      <cc:Work
         rdf:about="">
        <dc:format>image/svg+xml</dc:format>
        <dc:type
           rdf:resource="http://purl.org/dc/dcmitype/StillImage" />
        <cc:license
           rdf:resource="http://creativecommons.org/publicdomain/zero/1.0/" />
        <dc:creator>
          <cc:Agent>
            <dc:title>Dexterux</dc:title>
          </cc:Agent>
        </dc:creator>
        <dc:publisher>
          <cc:Agent>
            <dc:title>Dexterux</dc:title>
          </cc:Agent>
        </dc:publisher>
      </cc:Work>
      <cc:License
         rdf:about="http://creativecommons.org/publicdomain/zero/1.0/">
        <cc:permits
           rdf:resource="http://creativecommons.org/ns#Reproduction" />
        <cc:permits
           rdf:resource="http://creativecommons.org/ns#Distribution" />
        <cc:permits
           rdf:resource="http://creativecommons.org/ns#DerivativeWorks" />
      </cc:License>
    </rdf:RDF>
  </metadata>
  <g
     inkscape:label="Layer 1"
     inkscape:groupmode="layer"
     id="layer1">
    <ellipse
       style="fill:none;fill-opacity:1;stroke:#4d4d4d;stroke-width:2.64583;stroke-linecap:round;stroke-linejoin:round;stroke-miterlimit:4;stroke-dasharray:none;stroke-opacity:1"
       id="path833"
       cx="33.866665"
       cy="33.866665"
       rx="25.135416"
       ry="25.135418" />
    <path
       sodipodi:nodetypes="cc"
       id="path1442-3-3"
       d="m 37.522899,15.370964 c 2.758984,2.764075 7.38447,4.200126 10.931638,4.57773"
       style="font-variation-settings:normal;vector-effect:none;fill:none;fill-opacity:1;stroke:#4d4d4d;stroke-width:1.66663;stroke-linecap:round;stroke-linejoin:miter;stroke-miterlimit:4;stroke-dasharray:none;stroke-dashoffset:0;stroke-opacity:1;stop-color:#000000" />
    <path
       sodipodi:nodetypes="cc"
       id="path1442-3-3-6"
       d="m 30.210431,15.370964 c -2.758984,2.764075 -7.38447,4.200126 -10.931638,4.57773"
       style="font-variation-settings:normal;vector-effect:none;fill:none;fill-opacity:1;stroke:#4d4d4d;stroke-width:1.66663;stroke-linecap:round;stroke-linejoin:miter;stroke-miterlimit:4;stroke-dasharray:none;stroke-dashoffset:0;stroke-opacity:1;stop-color:#000000" />
    <path
       id="path1268"
       style="color:#000000;fill:#4d4d4d;stroke-width:3.77953;stroke-linecap:round;stroke-linejoin:round;-inkscape-stroke:none"
       d="M 128.00195 128.99805 C 124.70589 128.99805 121.58945 129.2821 118.64258 129.79883 C 118.64132 129.79905 118.63993 129.79861 118.63867 129.79883 C 118.63658 129.79916 118.6349 129.80045 118.63281 129.80078 C 117.99911 129.91203 117.37166 130.0312 116.75391 130.16406 C 116.46051 130.22451 116.14309 130.27019 115.85938 130.33594 C 107.06373 132.37434 100.06143 136.53911 94.488281 141.66797 C 94.052742 142.06879 93.625178 142.4746 93.207031 142.88672 C 92.9931 143.09673 92.781394 143.30686 92.572266 143.51953 C 92.425928 143.66874 92.276979 143.81631 92.132812 143.9668 C 92.125504 143.97441 92.118631 143.98261 92.111328 143.99023 A 4.0004063 4.0004063 0 0 0 92.105469 143.99805 C 83.583973 152.9069 78.846018 163.99796 76.328125 172.08203 C 75.062165 176.1466 75.879577 180.46372 78.542969 183.22852 C 81.20636 185.99331 85.236314 187.03369 89.328125 186.42383 C 96.74772 185.31798 106.97149 184.00013 116.92969 183.36133 C 122.9014 182.97825 133.1034 182.97835 139.07422 183.36133 C 149.03221 184.00005 159.24811 185.31798 166.66797 186.42383 C 170.75966 187.03365 174.79669 185.99979 177.46094 183.23633 C 180.12519 180.47287 180.94131 176.15181 179.67578 172.08789 C 175.41049 158.39097 164.78388 136.04692 140.15234 130.33594 C 139.87243 130.27104 139.55894 130.22574 139.26953 130.16602 C 139.24436 130.16059 139.21856 130.15578 139.19336 130.15039 C 138.62296 130.02837 138.04298 129.92002 137.45898 129.81641 C 137.41653 129.8096 137.37658 129.80163 137.33398 129.79492 C 134.39551 129.28113 131.28819 128.99805 128.00195 128.99805 z M 128.00195 137.24219 C 130.59167 137.2421 133.14496 137.38744 135.3418 137.65039 C 141.03319 138.69826 145.67916 140.91722 149.86719 143.58594 C 142.76691 144.15049 135.62113 144.86133 128.79883 144.86133 C 121.50172 144.86133 113.86689 144.08558 106.32227 143.45898 C 110.47476 140.84707 115.07518 138.67737 120.69336 137.64648 C 122.88345 137.38608 125.42456 137.24227 128.00195 137.24219 z M 96.585938 150.94141 C 106.26684 151.92432 118.18494 152.86328 128.79883 152.86328 C 138.89985 152.86328 150.14183 152.0137 159.53516 151.08594 C 166.05255 158.52176 169.87161 167.51716 172.03516 174.46484 C 172.62898 176.37177 172.24418 177.10842 171.69531 177.67773 C 171.14644 178.24705 169.95142 178.82497 167.84961 178.51172 C 163.55744 177.87202 158.33736 177.16339 152.75195 176.54688 A 41.858193 41.858193 0 0 0 128 168.43945 A 41.858193 41.858193 0 0 0 103.30078 176.54102 C 97.693884 177.15897 92.453017 177.86986 88.146484 178.51172 C 86.045672 178.82481 84.849546 178.2474 84.300781 177.67773 C 83.75202 177.10808 83.37431 176.36752 83.96875 174.45898 C 86.146315 167.46758 89.99446 158.40211 96.585938 150.94141 z M 127.99805 175.05859 C 130.07899 175.0586 132.16048 175.08636 134.12891 175.13867 C 130.19208 175.03404 125.80618 175.03405 121.86914 175.13867 C 123.8371 175.0864 125.91778 175.05859 127.99805 175.05859 z "
       transform="scale(0.26458332)" />
    <path
       style="fill:none;stroke:#4d4d4d;stroke-width:2.2763;stroke-linecap:round;stroke-linejoin:round;stroke-miterlimit:4;stroke-dasharray:none;stroke-opacity:1"
       d="m 21.21747,22.970796 c 5.475996,1.949528 9.185828,7.033422 9.185828,7.033422 0,0 -5.890961,0.83487 -10.484706,2.563842"
       id="path2999"
       sodipodi:nodetypes="ccc" />
    <path
       sodipodi:nodetypes="ccc"
       id="path2999-4"
       d="m 46.515861,22.970796 c -5.475997,1.949528 -9.185828,7.033422 -9.185828,7.033422 0,0 5.890961,0.83487 10.484706,2.563842"
       style="fill:none;stroke:#4d4d4d;stroke-width:2.2763;stroke-linecap:round;stroke-linejoin:round;stroke-miterlimit:4;stroke-dasharray:none;stroke-opacity:1" />
  </g>
</svg>
