<?xml version="1.0" encoding="UTF-8" standalone="no"?>
<svg
   width="256"
   height="256"
   viewBox="0 0 67.733331 67.733331"
   version="1.1"
   id="svg8"
   inkscape:version="1.3.2 (091e20e, 2023-11-25, custom)"
   sodipodi:docname="1F63D_plain.svg"
   xmlns:inkscape="http://www.inkscape.org/namespaces/inkscape"
   xmlns:sodipodi="http://sodipodi.sourceforge.net/DTD/sodipodi-0.dtd"
   xmlns="http://www.w3.org/2000/svg"
   xmlns:svg="http://www.w3.org/2000/svg"
   xmlns:rdf="http://www.w3.org/1999/02/22-rdf-syntax-ns#"
   xmlns:cc="http://creativecommons.org/ns#"
   xmlns:dc="http://purl.org/dc/elements/1.1/">
  <defs
     id="defs2" />
  <sodipodi:namedview
     id="base"
     pagecolor="#ffffff"
     bordercolor="#666666"
     borderopacity="1.0"
     inkscape:pageopacity="0.0"
     inkscape:pageshadow="2"
     inkscape:zoom="2.113034"
     inkscape:cx="93.467497"
     inkscape:cy="101.74943"
     inkscape:document-units="px"
     inkscape:current-layer="g21896"
     inkscape:document-rotation="0"
     showgrid="false"
     inkscape:window-width="1450"
     inkscape:window-height="1020"
     inkscape:window-x="14"
     inkscape:window-y="30"
     inkscape:window-maximized="0"
     units="px"
     inkscape:snap-object-midpoints="false"
     inkscape:showpageshadow="2"
     inkscape:pagecheckerboard="0"
     inkscape:deskcolor="#d1d1d1" />
  <metadata
     id="metadata5">
    <rdf:RDF>
      <cc:Work
         rdf:about="">
        <dc:format>image/svg+xml</dc:format>
        <dc:type
           rdf:resource="http://purl.org/dc/dcmitype/StillImage" />
        <cc:license
           rdf:resource="http://creativecommons.org/publicdomain/zero/1.0/" />
        <dc:creator>
          <cc:Agent>
            <dc:title>Dexterux</dc:title>
          </cc:Agent>
        </dc:creator>
        <dc:publisher>
          <cc:Agent>
            <dc:title>Dexterux</dc:title>
          </cc:Agent>
        </dc:publisher>
      </cc:Work>
      <cc:License
         rdf:about="http://creativecommons.org/publicdomain/zero/1.0/">
        <cc:permits
           rdf:resource="http://creativecommons.org/ns#Reproduction" />
        <cc:permits
           rdf:resource="http://creativecommons.org/ns#Distribution" />
        <cc:permits
           rdf:resource="http://creativecommons.org/ns#DerivativeWorks" />
      </cc:License>
    </rdf:RDF>
  </metadata>
  <g
     inkscape:groupmode="layer"
     id="layer2"
     inkscape:label="Layer 2"
     sodipodi:insensitive="true"
     style="display:none">
    <path
       style="fill:none;stroke:#000000;stroke-width:0.264583px;stroke-linecap:butt;stroke-linejoin:miter;stroke-opacity:1"
       d="M 114.81026,9.8378651 C 114.58978,9.708378 114.3926,9.5264997 114.1488,9.4494044 c -0.18019,-0.056982 -0.37943,0.023442 -0.56696,0 -0.31874,-0.039842 -0.62923,-0.1297914 -0.94494,-0.1889882 -0.13896,-0.026053 -0.75804,-0.1088885 -0.94494,-0.1889882 -0.10439,-0.044736 -0.17804,-0.1468101 -0.28348,-0.1889879 -0.0585,-0.023397 -0.13265,0.028173 -0.18899,0 -0.0797,-0.039842 -0.11486,-0.13957 -0.18899,-0.1889881 -0.0262,-0.017473 -0.0683,0.017473 -0.0945,0 -0.0741,-0.049418 -0.11942,-0.1333341 -0.18899,-0.1889882 -0.17736,-0.1418902 -0.37798,-0.2519841 -0.56697,-0.377976 -0.37573,-0.2504898 -0.76584,-0.4930325 -1.13392,-0.7559524 -0.51231,-0.3659293 -1.00284,-0.7636981 -1.51191,-1.1339285 -0.0918,-0.066797 -0.1948,-0.118043 -0.28348,-0.1889881 -0.0696,-0.055654 -0.11942,-0.1333341 -0.18899,-0.1889882 -0.0887,-0.070945 -0.1861,-0.1305578 -0.28348,-0.1889881 -0.0604,-0.036237 -0.13399,-0.050496 -0.18899,-0.094494 -0.10435,-0.083481 -0.17229,-0.2093549 -0.28348,-0.2834822 -0.16576,-0.1105024 -0.39282,-0.092243 -0.56697,-0.1889882 -0.18898,-0.1259919 -0.37797,-0.2519841 -0.56696,-0.377976 -0.063,-0.062996 -0.11486,-0.1395701 -0.18899,-0.1889882 -0.37608,-0.2507178 -0.30868,-0.1322916 -0.66146,-0.283482 -0.88075,-0.3774654 0.11513,-0.034603 -0.75595,-0.2834822 -0.0958,-0.027364 -0.18523,-0.078119 -0.28348,-0.094494 -0.002,-2.646e-4 -0.41673,0.018579 -0.47247,0 -0.36751,-0.1225034 -0.006,-0.1328584 -0.56697,-0.1889881 -0.18805,-0.018804 -0.37797,0 -0.56696,0 -0.53547,0 -1.07093,0 -1.6064,0 -0.125989,0 -0.251984,0 -0.377976,0 -0.0315,0 -0.07222,-0.022273 -0.09449,0 -0.02228,0.022273 0,0.062996 0,0.094494 0,0.031498 0,0.062996 0,0.094494 0,0.031498 -0.02228,0.072222 0,0.094494 0.02228,0.022273 0.06632,-0.014086 0.09449,0 0.07968,0.039842 0.114861,0.1395698 0.188989,0.1889882 0.0586,0.039068 0.132647,0.052235 0.188987,0.094494 0.0713,0.053454 0.11486,0.1395699 0.18899,0.1889879 0.0524,0.034944 0.13264,-0.028173 0.18899,0 0.0722,0.036092 0.21949,0.2621534 0.28348,0.2834823 0.0598,0.01992 0.13264,-0.028173 0.18899,0 0.0282,0.014086 -0.0252,0.075595 0,0.094494 0.91397,0.4569835 -0.0102,-0.054914 0.56696,0.377976 0.23238,0.1742821 0.1851,-0.00584 0.37798,0.2834823 0.0781,0.1172053 0.11085,0.2607706 0.18899,0.377976 0.0494,0.074127 0.14914,0.1093039 0.18898,0.1889882 0.18899,0.377976 -0.0945,0.047247 0,0.283482 0.20308,0.5076861 0.18899,0.2144085 0.18899,0.4724704 0,0.031498 -0.0141,0.066321 0,0.094494 0.0788,0.1575351 0.18899,0.042696 0.18899,0.283482 0,0.031498 0.0223,0.072222 0,0.094494 -0.0223,0.022273 -0.063,0 -0.0945,0 -0.0635,0 -0.7222,0.013504 -0.75596,0 -0.0827,-0.033087 -0.12599,-0.1259919 -0.18898,-0.1889882 -0.0315,-0.031498 -0.063,-0.062996 -0.0945,-0.094494 -0.62596,-0.6259674 -0.01,-0.069461 -0.47247,-0.3779761 -0.0371,-0.024709 -0.0574,-0.069785 -0.0945,-0.094494 -0.0586,-0.039068 -0.13919,-0.044691 -0.18899,-0.094494 -0.0498,-0.049803 -0.0554,-0.1303853 -0.0945,-0.1889879 -0.0247,-0.037064 -0.063,-0.062996 -0.0945,-0.094494 -0.0315,-0.031498 -0.0574,-0.069785 -0.0945,-0.094494 -0.0586,-0.039069 -0.13265,-0.052235 -0.18899,-0.094494 -0.0713,-0.053454 -0.12599,-0.1259919 -0.18899,-0.1889882 -0.063,-0.062996 -0.125989,-0.1259919 -0.188987,-0.1889879 -0.0315,-0.031498 -0.05465,-0.074573 -0.09449,-0.094494 -0.08909,-0.044545 -0.194392,-0.049949 -0.283482,-0.094494 -0.03984,-0.01992 -0.05971,-0.066667 -0.09449,-0.094494 -0.160012,-0.1280081 -0.46963,-0.3573732 -0.661458,-0.4724701 -0.300273,-0.1801633 -0.06942,-0.043068 -0.377979,-0.094494 -0.24,0.080666 -0.3737,-0.1406724 -0.566962,-0.1889882 -0.06112,-0.01528 -0.132643,0.028173 -0.188989,0 -0.233251,-0.1166257 -0.113684,-0.2457259 -0.377976,-0.283482 -0.155908,-0.022273 -0.314981,0 -0.472469,0 -0.283482,0 -0.566965,0 -0.850448,0 -0.220485,0 -0.440973,0 -0.661458,0 -0.063,0 -0.126378,-0.00696 -0.188989,0 -0.221361,0.024596 -0.442325,0.054652 -0.661458,0.094494 -0.127773,0.023233 -0.258607,0.043336 -0.377976,0.094494 -0.104384,0.044737 -0.179097,0.1442517 -0.283483,0.1889882 -0.119366,0.051158 -0.257394,0.046262 -0.377975,0.094494 -0.04136,0.016544 -0.0563,0.071576 -0.09449,0.094494 -1.031615,0.5158073 -0.08427,-0.00767 -0.472469,0.2834819 -0.228057,0.1710426 -0.252621,0.173558 -0.472472,0.2834823 -0.125991,0.062996 -0.258524,0.1143307 -0.377975,0.1889881 -0.133551,0.083469 -0.241237,0.205345 -0.377976,0.283482 -0.08648,0.049418 -0.194392,0.049949 -0.283483,0.094494 -0.03984,0.01992 -0.063,0.062996 -0.09449,0.094494 -0.0945,0.062996 -0.181904,0.138199 -0.283482,0.1889881 -0.544931,0.2724653 -0.02535,-0.1227283 -0.566965,0.283482 -0.03564,0.026727 -0.063,0.062996 -0.09449,0.094494 -0.063,0.062996 -0.133334,0.1194207 -0.188989,0.1889882 -0.07095,0.088681 -0.108683,0.2031775 -0.188986,0.2834819 -0.0498,0.049803 -0.125992,0.062996 -0.18899,0.094494 -0.188986,0.094494 -0.385781,0.1747719 -0.566965,0.2834823 -0.214011,0.128407 -0.430688,0.3570853 -0.661458,0.4724701 -0.08909,0.044545 -0.185809,0.07496 -0.28348,0.094494 -0.06177,0.012353 -0.134972,-0.032411 -0.188989,0 -0.114591,0.068754 -0.176575,0.2033013 -0.283483,0.283482 -0.02519,0.018899 -0.06299,0 -0.09449,0 -0.063,0 -0.129225,-0.01992 -0.188989,0 -0.04226,0.014086 -0.05743,0.069785 -0.09449,0.094494 -0.0586,0.039069 -0.122172,0.072222 -0.18899,0.094494 -0.0521,0.017365 -0.357772,-0.020204 -0.377975,0 -0.02228,0.022273 0,0.062996 0,0.094494 0,0.1649256 -0.02817,0.080408 0.188989,0.1889882 0.125992,0.062996 0.251984,0.1259919 0.377976,0.1889879 0,0.031498 -0.02228,0.072222 0,0.094494 0.02228,0.022273 0.06394,-0.00764 0.09449,0 0.09663,0.024159 0.191003,0.057502 0.283482,0.094494 0.06539,0.026157 0.122172,0.072222 0.18899,0.094494 0.123203,0.041068 0.253103,0.058816 0.377975,0.094494 0.09577,0.027364 0.185812,0.07496 0.283483,0.094494 0.06177,0.012353 0.129225,-0.019921 0.188986,0 1.34859,0.4495294 0.185976,0.092987 0.944941,0.4724701 0.02817,0.014086 0.06632,-0.014086 0.09449,0 0.101578,0.050789 0.178038,0.1468104 0.283482,0.1889884 0.05849,0.0234 0.134969,-0.03241 0.188989,0 0.114591,0.06875 0.167455,0.21718 0.283483,0.283482 0.285543,0.07139 0.349001,0.05821 0.566962,0.188988 0.09738,0.05843 0.181907,0.138199 0.283483,0.188988 0.02817,0.01409 0.06632,-0.01409 0.0945,0 0.03984,0.01992 0.05743,0.06978 0.09449,0.09449 0.117205,0.07814 0.260771,0.110851 0.377976,0.188988 0.08602,0.05735 0.199728,0.241605 0.283482,0.283482 0.02817,0.01409 0.06632,-0.01409 0.09449,0 0.393261,0.196631 -0.101017,-0.0065 0.09449,0.188988 0.04454,0.04454 0.132643,-0.02817 0.188989,0 0.208931,0.104466 0.02932,0.05865 0.09449,0.188988 0.08864,0.177285 0.121222,0.04041 0.283483,0.09449 0.161311,0.05377 0.09449,0.278078 0.09449,0.377977 0,0.063 0,0.125992 0,0.188988 0,0.0315 0,0.063 0,0.09449 0,0.0315 0.02228,0.07222 0,0.09449 -0.02228,0.02227 -0.063,0 -0.09449,0 -0.063,0 -0.125992,0 -0.188987,0 -0.15749,0 -0.314981,0 -0.472472,0 -0.06299,0 -0.130497,-0.0234 -0.188986,0 -0.130789,0.05232 -0.251987,0.125992 -0.377979,0.188988 -0.06299,0.0315 -0.130384,0.05542 -0.188986,0.09449 -0.03706,0.02471 -0.05886,0.06777 -0.09449,0.09449 -0.09086,0.06814 -0.19263,0.120847 -0.283483,0.188988 -0.03564,0.02673 -0.05465,0.07457 -0.0945,0.09449 -0.02817,0.01409 -0.06828,-0.01747 -0.09449,0 -0.07413,0.04942 -0.125992,0.125992 -0.188987,0.188988 -0.0945,0.09449 -0.18202,0.196514 -0.283482,0.283482 -0.119576,0.102493 -0.258403,0.180989 -0.377976,0.283482 -0.101465,0.08697 -0.188989,0.188989 -0.283482,0.283482 -0.157491,0.157491 -0.329886,0.301369 -0.472472,0.472471 -0.173461,0.208154 -0.299008,0.453304 -0.472469,0.661458 -0.142584,0.171102 -0.338836,0.294291 -0.472472,0.47247 -0.367744,0.490328 -0.346707,0.638353 -0.566962,1.133929 -0.05721,0.128722 -0.125992,0.251984 -0.18899,0.377976 -0.0315,0.063 -0.07741,0.120659 -0.09449,0.188988 -0.01527,0.06112 0.0089,0.126625 0,0.188988 -0.05981,0.418687 -0.106606,0.555812 -0.283482,0.944941 -0.08743,0.192355 -0.174771,0.38578 -0.283483,0.566964 -0.162055,0.270093 -0.410689,0.482473 -0.566965,0.755952 -0.04942,0.08648 -0.05328,0.192805 -0.09449,0.283482 -0.116578,0.256475 -0.259916,0.500156 -0.377976,0.755953 -0.07108,0.15401 -0.125992,0.31498 -0.188989,0.47247 -0.09985,0.249624 -0.209415,0.496719 -0.28348,0.755952 -0.03568,0.124873 -0.05882,0.253104 -0.0945,0.377976 -0.05473,0.191546 -0.125992,0.377976 -0.188987,0.566965 -0.0315,0.09449 -0.05526,0.19193 -0.0945,0.283482 -0.108071,0.252172 -0.329104,0.635401 -0.472469,0.850446 -0.08736,0.13104 -0.202453,0.24293 -0.283482,0.377976 -0.108709,0.181184 -0.182303,0.381469 -0.283483,0.566965 -0.08795,0.161237 -0.194286,0.311919 -0.283482,0.47247 -0.102613,0.184705 -0.174771,0.38578 -0.28348,0.566964 -0.05843,0.09738 -0.125992,0.188987 -0.188989,0.283483 -0.125992,0.188987 -0.245957,0.382135 -0.377976,0.566963 -0.0259,0.03625 -0.06979,0.05743 -0.09449,0.0945 -0.232127,0.03369 -0.03924,0.200604 -0.0945,0.283479 -0.04942,0.07413 -0.125992,0.125992 -0.188987,0.18899 -0.063,0.063 -0.125992,0.125992 -0.188989,0.188989 -0.063,0.06299 -0.112593,0.14315 -0.188987,0.188986 -0.12437,0.07462 -0.303106,0.03925 -0.377978,0.18899 -0.01408,0.02817 0.02228,0.07222 0,0.09449 -0.02228,0.02228 -0.07222,-0.02228 -0.09449,0 -0.02228,0.02228 0,0.063 0,0.09449 0,0.0315 -0.01408,0.06632 0,0.0945 0.01992,0.03984 0.063,0.06299 0.09449,0.09449 0.0315,0.0315 0.05465,0.07457 0.0945,0.09449 0.02817,0.01408 0.063,0 0.09449,0 0.0315,0 0.063,0 0.09449,0 0.157491,0 0.314982,0 0.472472,0 0.0315,0 0.06361,-0.0062 0.09449,0 0.127346,0.02548 0.249872,0.07314 0.377975,0.09449 0.06214,0.01037 0.125992,0 0.18899,0 0.09449,0 0.188986,0 0.283482,0 0.188987,0 0.377976,0 0.566962,0 0.125992,0 0.253699,-0.02072 0.377976,0 0.128103,0.02135 0.249875,0.07314 0.377979,0.0945 0.118184,0.01969 0.55454,0 0.661458,0 0.207595,0 0.666332,0.02045 0.850445,0 0.159626,-0.01773 0.316656,-0.05554 0.472472,-0.0945 0.204943,-0.05123 0.412993,-0.129511 0.566962,-0.28348 0.02228,-0.02228 -0.01408,-0.06632 0,-0.0945 0.01992,-0.03984 0.063,-0.06299 0.0945,-0.09449 0.0315,-0.0315 0.05886,-0.06777 0.09449,-0.09449 0.09085,-0.06814 0.192627,-0.120849 0.283483,-0.18899 0.03563,-0.02672 0.05465,-0.07457 0.09449,-0.09449 0.02817,-0.01408 0.06461,0.0099 0.09449,0 0.06682,-0.02228 0.122172,-0.07222 0.188989,-0.09449 0.02988,-0.0099 0.07222,0.02228 0.09449,0 0.02228,-0.02228 0.0315,-0.0945 0,-0.0945 -0.0315,0 0,0.063 0,0.0945 0,0.0315 0,0.06299 0,0.09449 0,0.769697 0,0.364231 0,1.133927 0,0.125992 0,0.251984 0,0.377976 0,0.063 0.01527,0.127873 0,0.18899 -0.01709,0.06833 -0.063,0.125991 -0.09449,0.188989 -0.063,0.125992 -0.154823,0.241318 -0.188989,0.377976 -0.351562,1.406255 0.472869,-0.851639 -0.09449,0.850444 -0.07586,0.227574 -0.207624,0.433888 -0.283483,0.661459 -0.08214,0.246411 -0.130582,0.502864 -0.188986,0.755954 -0.03612,0.156496 -0.0381,0.322085 -0.0945,0.472469 -0.03987,0.106336 -0.138197,0.181904 -0.188987,0.283483 -0.04454,0.08909 -0.05952,0.190219 -0.0945,0.283482 -0.05956,0.158821 -0.118798,0.31805 -0.188986,0.472469 -0.08743,0.192357 -0.211275,0.36839 -0.283483,0.566965 -0.05489,0.15094 -0.04834,0.318635 -0.09449,0.472469 -0.04079,0.135975 -0.457745,1.107422 -0.472472,1.13393 -0.112138,0.201851 -0.249272,0.138507 -0.283482,0.377976 -0.02228,0.155906 0,0.314979 0,0.472469 0,0.125992 0.02471,0.254431 0,0.377976 -0.03907,0.195344 -0.13657,0.374774 -0.188987,0.566965 -0.04226,0.15495 -0.03961,0.321532 -0.09449,0.472472 -0.07221,0.198572 -0.20501,0.370781 -0.283483,0.566962 -0.09646,0.241162 -0.106852,0.509542 -0.188989,0.755954 -0.05364,0.160917 -0.140247,0.310002 -0.188986,0.472469 -0.04615,0.153837 -0.03961,0.321533 -0.0945,0.472469 -0.07221,0.198575 -0.188987,0.377979 -0.283483,0.566965 -0.0315,0.063 -0.07222,0.122172 -0.09449,0.18899 -0.0099,0.02988 0.01408,0.06632 0,0.09449 -0.05079,0.101579 -0.130559,0.186097 -0.188987,0.283482 -0.03624,0.06039 -0.05543,0.130384 -0.0945,0.188987 -0.02471,0.03706 -0.07457,0.05465 -0.09449,0.0945 -0.04454,0.08909 -0.0575,0.191 -0.09449,0.283482 -0.02617,0.06539 -0.07222,0.122169 -0.0945,0.188987 -0.138502,0.415507 -0.02574,0.369334 -0.28348,0.755952 -0.09884,0.148256 -0.279141,0.229721 -0.377978,0.377978 -0.01746,0.02622 0.01407,0.06632 0,0.09449 -0.144082,0.288166 -0.07491,-0.172826 -0.188987,0.283483 0,0.430162 0.04454,0.0054 -0.09449,0.283482 -0.01408,0.02817 0.01408,0.06632 0,0.09449 -0.01992,0.03984 -0.07457,0.05465 -0.0945,0.09449 -0.03292,0.06584 -0.134813,0.351507 -0.09449,0.472472 0.209986,0.629959 -0.0525,-0.220488 0.283482,0.283479 0.03494,0.05242 -0.02817,0.132644 0,0.18899 0.01408,0.02817 0.07222,-0.02228 0.09449,0 0.0498,0.0498 0.04469,0.139184 0.09449,0.188989 0.02228,0.02228 0.063,0 0.0945,0 0.06299,0.063 0.13957,0.114861 0.188986,0.188986 0.01746,0.02622 -0.02228,0.07222 0,0.09449 0.04454,0.04454 0.144444,-0.04454 0.188989,0 0.0498,0.0498 0.04469,0.139186 0.09449,0.188989 0.02228,0.02228 0.063,0 0.09449,0 0.0315,0 0.063,0 0.0945,0 0.05424,0 0.347009,0.01857 0.377976,0 0.680741,-0.408445 0.197342,-0.105632 0.472469,-0.472469 0.196318,-0.261758 0.36522,-0.260871 0.661458,-0.472472 0.0725,-0.05178 0.109305,-0.149145 0.188989,-0.188986 0.116158,-0.05808 0.261816,-0.03641 0.377976,-0.0945 0.913966,-0.685475 -0.06003,-0.01723 0.661458,-0.377976 0.101579,-0.05079 0.174284,-0.15779 0.283483,-0.188987 0.121145,-0.03461 0.252957,0.01564 0.377976,0 0.91114,-0.113892 -0.168254,-0.05243 0.755951,-0.283482 0.122232,-0.03056 0.251984,0 0.377976,0 0.283482,0 0.566965,0 0.850448,0 0.125991,0 0.251983,0 0.377975,0 0.0315,0 0.09449,0.0315 0.09449,0 0,-0.0315 -0.063,0 -0.09449,0 -0.0315,0 -0.07222,-0.02228 -0.09449,0 -0.0803,0.0803 -0.130559,0.186097 -0.188989,0.283482 -0.130654,0.217755 -0.286814,0.42444 -0.377976,0.661459 -0.07829,0.203549 -0.188185,1.492633 -0.188987,1.511903 -0.01836,0.440589 0.02201,0.882494 0,1.322916 -0.0474,0.948103 -0.08971,0.199771 -0.283482,1.039434 -0.0571,0.247444 -0.063,0.503968 -0.0945,0.755955 -0.0315,0.251984 -0.06645,0.50356 -0.09449,0.755951 -0.0035,0.03131 0.01408,0.06632 0,0.09449 -0.05079,0.101578 -0.125992,0.188989 -0.188987,0.283482 -0.176776,0.265163 -0.572601,0.808109 -0.661458,1.133927 -0.04144,0.151943 0.03416,0.318731 0,0.472472 -0.09621,0.432933 -0.173263,0.29401 -0.377979,0.566965 -0.07668,0.102238 -0.112307,0.275736 -0.188986,0.377976 -0.05345,0.07127 -0.135536,0.117716 -0.188989,0.188987 -0.04226,0.05635 -0.05223,0.132643 -0.09449,0.188989 -0.05345,0.07127 -0.13957,0.114861 -0.188989,0.188986 -0.685136,1.370275 0.199213,-0.298815 -0.377976,0.566965 -0.01746,0.02622 0,0.063 0,0.09449 -0.0315,0.063 -0.0505,0.13399 -0.09449,0.188989 -0.08348,0.104352 -0.203301,0.176575 -0.283483,0.283482 -0.01889,0.02519 0.01746,0.06829 0,0.09449 -0.04942,0.07413 -0.125991,0.125992 -0.188986,0.188989 -0.0315,0.0315 -0.05743,0.06978 -0.0945,0.09449 -0.0586,0.03907 -0.149918,0.03589 -0.188987,0.09449 -0.03494,0.05242 0.03494,0.136573 0,0.18899 -0.03907,0.0586 -0.14673,0.03815 -0.188989,0.09449 -0.536252,0.715002 0.511921,-0.195805 -0.377976,0.566965 -0.119575,0.102492 -0.254997,0.185097 -0.377975,0.283483 -0.03478,0.02783 -0.06979,0.05743 -0.09449,0.09449 -0.03907,0.0586 -0.04469,0.139184 -0.0945,0.188989 -0.281966,0.281966 -0.269975,0.05398 -0.377975,0.377976 -0.0099,0.02988 0,0.06299 0,0.09449 0,0.063 0,0.125992 0,0.188989 0,0.125992 -0.04963,0.262171 0,0.377976 0.06204,0.144756 0.185099,0.254998 0.283482,0.377976 0.0315,0.0315 0.063,0.063 0.09449,0.09449 0.0315,0 0.07222,-0.02228 0.0945,0 0.125992,0.125992 -0.200453,0.09067 0.09449,0.188989 0.05976,0.01992 0.125992,0 0.188986,0 0.063,0 0.125992,0 0.188989,0 0.399902,0 0.775629,-0.104333 1.133928,-0.283482 0.164274,-0.08214 0.301945,-0.215273 0.472472,-0.283483 0.149121,-0.05965 0.322087,-0.0381 0.472469,-0.09449 0.0049,-0.0019 0.552317,-0.369607 0.566965,-0.377976 0.122303,-0.06989 0.254838,-0.120581 0.377975,-0.188989 0.160552,-0.08919 0.311232,-0.195535 0.472472,-0.283482 1.20628,-0.657971 0.107553,-0.134904 0.850445,-0.283483 0.138128,-0.02763 0.244343,-0.144441 0.377976,-0.188986 0.123206,-0.04107 0.261818,-0.03641 0.377976,-0.0945 0.140864,-0.07043 0.237114,-0.213051 0.377978,-0.28348 0.178178,-0.08909 0.384921,-0.108083 0.566962,-0.18899 1.051642,-0.467394 -0.207354,0.06102 0.377976,-0.377975 0.07968,-0.05976 0.198073,-0.04325 0.283483,-0.09449 0.0764,-0.04584 0.125992,-0.125992 0.188989,-0.188989 0.063,-0.063 0.13957,-0.114861 0.188986,-0.188989 0.01746,-0.02622 -0.02228,-0.07222 0,-0.09449 0.02228,-0.02228 0.063,0 0.0945,0 0.220486,0 0.440971,0 0.661459,0 0.06299,0 0.129225,-0.01992 0.188986,0 0.175064,0.05836 0.05649,0.263967 0.0945,0.377975 0.01408,0.04226 0.08819,0.0504 0.09449,0.0945 0.02672,0.187087 -0.01881,0.378913 0,0.566963 0.02585,0.25845 0.152254,0.498824 0.188986,0.755954 0.01336,0.09354 0,0.188987 0,0.28348 0,0.376298 0,0.190669 0,0.566965 0,0.106593 0.01614,0.629195 0,0.661458 -0.19663,0.393261 0.0065,-0.101018 -0.188986,0.09449 -0.02228,0.02228 0,0.063 0,0.0945 0,0.0315 0,0.063 0,0.09449 0,0.0315 -0.02228,0.07222 0,0.09449 0.02228,0.02228 0.06299,0 0.09449,0 0.05436,0 0.539139,0.01855 0.566965,0 1.614037,-1.076026 -0.506934,0.114599 0.661458,-0.566962 0.280117,-0.163402 0.564917,-0.318725 0.850445,-0.472472 0.124026,-0.06678 0.267981,-0.100992 0.377978,-0.188987 0.055,-0.044 0.063,-0.125992 0.09449,-0.188989 0.15749,-0.125992 0.311121,-0.256966 0.472469,-0.377976 0.321566,-0.241175 0.688924,-0.435932 0.944941,-0.755951 0.07094,-0.08868 0.125992,-0.18899 0.188989,-0.283483 0.06299,-0.0945 0.130556,-0.1861 0.188986,-0.283482 0.03624,-0.06039 0.05224,-0.132644 0.0945,-0.18899 0.05345,-0.07127 0.139568,-0.11486 0.188987,-0.188986 0.03494,-0.05242 -0.02817,-0.132644 0,-0.188989 0.063,-0.09449 0.125992,-0.188987 0.188989,-0.283483 0,-0.0315 -0.01408,-0.06632 0,-0.09449 0.0567,-0.113393 0.226785,-0.17009 0.283483,-0.283483 0.0378,-0.07559 -0.0378,-0.207885 0,-0.283482 0.01992,-0.03984 0.055,-0.07388 0.09449,-0.09449 0.383196,-0.199996 0.778378,-0.376129 1.167569,-0.564195"
       id="path2449" />
  </g>
  <g
     inkscape:label="Layer 1"
     inkscape:groupmode="layer"
     id="layer1">
    <g
       id="g21896"
       transform="matrix(1.0443201,0,0,1.0016724,-1.5011301,-0.0568618)"
       style="stroke-width:0.977733">
      <path
         style="fill:none;stroke:#4d4d4d;stroke-width:2.06953;stroke-linecap:round;stroke-linejoin:miter;stroke-dasharray:none;stroke-opacity:1"
         d="m 27.720923,16.459647 c 1.427305,3.29901 1.596231,7.617745 1.596231,7.617745"
         id="path1409" />
      <path
         style="fill:none;stroke:#4d4d4d;stroke-width:2.06953;stroke-linecap:round;stroke-linejoin:miter;stroke-dasharray:none;stroke-opacity:1"
         d="m 40.012709,16.459647 c -1.427306,3.29901 -1.596231,7.617745 -1.596231,7.617745"
         id="path1409-2" />
      <path
         style="font-variation-settings:normal;fill:none;fill-opacity:1;stroke:#4d4d4d;stroke-width:2.06953;stroke-linecap:round;stroke-linejoin:miter;stroke-miterlimit:4;stroke-dasharray:none;stroke-dashoffset:0;stroke-opacity:1;stop-color:#000000"
         d="m 33.866816,16.18743 v 8.965879"
         id="path1460" />
      <path
         style="fill:#4d4d4d;fill-opacity:1;stroke:none;stroke-width:0.258691px;stroke-linecap:butt;stroke-linejoin:miter;stroke-opacity:1"
         d="M 37.444064,37.245638 C 37.406304,36.6549 36.348748,36.37922 33.866816,36.37922 c -2.481933,0 -3.539471,0.27568 -3.577239,0.866418 -0.03785,0.590737 2.055603,3.032452 3.577239,3.032452 1.521644,0 3.615053,-2.441715 3.577248,-3.032452 z"
         id="path5324-0-2"
         sodipodi:nodetypes="scscs" />
      <path
         style="font-variation-settings:normal;fill:none;fill-opacity:1;stroke:#666666;stroke-width:2.06954;stroke-linecap:round;stroke-linejoin:miter;stroke-miterlimit:4;stroke-dasharray:none;stroke-dashoffset:0;stroke-opacity:1;stop-color:#000000"
         d="m 24.327854,37.4775 c -7.432778,0 -14.4150823,-3.603487 -14.4150823,-3.603487"
         id="path2518-9"
         sodipodi:nodetypes="cc" />
      <path
         style="font-variation-settings:normal;fill:none;fill-opacity:1;stroke:#666666;stroke-width:2.06954;stroke-linecap:round;stroke-linejoin:miter;stroke-miterlimit:4;stroke-dasharray:none;stroke-dashoffset:0;stroke-opacity:1;stop-color:#000000"
         d="m 24.327854,40.415856 c -5.451196,-0.207584 -14.4913885,4.2843 -14.4913885,4.2843"
         id="path2520-4"
         sodipodi:nodetypes="cc" />
      <path
         id="path2518-8"
         style="color:#000000;fill:#4d4d4d;stroke-linecap:round;-inkscape-stroke:none;fill-opacity:1"
         d="M 33.86731 14.959098 C 29.10231 14.959098 25.648672 15.131457 22.788983 16.095629 C 19.929295 17.059801 17.767154 18.892611 15.902389 21.775189 C 12.174462 27.537858 10.470055 35.508007 11.253925 42.085715 C 11.48993 44.066156 12.633233 46.007719 14.216987 47.945325 C 15.800738 49.882932 17.866419 51.798366 20.124801 53.515513 C 24.641562 56.949809 29.794373 59.666091 33.86731 59.666091 C 37.940248 59.666091 43.092562 56.949809 47.609324 53.515513 C 48.649869 52.724341 49.641835 51.888033 50.572385 51.0299 C 49.342673 51.011519 48.143075 50.835669 47.091233 50.617694 C 46.745043 50.899954 46.401757 51.184422 46.043177 51.457066 C 41.796401 54.68608 36.656824 57.078329 33.86731 57.078329 C 31.077797 57.078329 25.936239 54.68608 21.689464 51.457066 C 19.566076 49.84256 17.631363 48.036797 16.218587 46.308369 C 14.805813 44.579941 13.957048 42.911615 13.82211 41.77927 C 13.122167 35.905826 14.754216 28.311555 18.074212 23.179473 C 19.733404 20.614673 21.281831 19.333447 23.615355 18.546677 C 25.948878 17.759907 29.173252 17.544796 33.86731 17.544796 C 38.561368 17.544796 41.785741 17.759907 44.119265 18.546677 C 46.452789 19.333447 47.999234 20.614672 49.658428 23.179473 C 51.699075 26.333931 53.099363 30.418781 53.715566 34.462239 C 52.579865 34.866562 51.227771 35.283535 49.757395 35.633335 C 50.372745 35.8207 50.954464 36.196228 51.474466 36.780184 C 51.61147 36.934037 51.731972 37.089323 51.839158 37.245527 C 52.595984 37.031322 53.310437 36.806166 53.963478 36.581562 C 54.114695 38.386504 54.106193 40.149867 53.912015 41.77927 C 53.91091 41.788541 53.907773 41.799333 53.906572 41.808676 C 54.686875 41.768212 55.572629 41.917168 56.407954 42.499468 C 56.433116 42.361573 56.464218 42.223977 56.480694 42.085715 C 56.725883 40.028262 56.72675 37.835028 56.499003 35.615279 C 57.630679 35.137842 58.294753 34.792932 58.294753 34.792932 A 1.03477 1.03477 0 0 0 58.740103 33.400513 A 1.03477 1.03477 0 0 0 58.134922 32.888739 A 1.03477 1.03477 0 0 0 57.345663 32.95529 C 57.345663 32.95529 56.930325 33.166574 56.205072 33.483058 C 55.505109 29.305371 54.019507 25.15937 51.830251 21.775189 C 49.965483 18.892611 47.80483 17.059801 44.945142 16.095629 C 42.085455 15.131457 38.63231 14.959098 33.86731 14.959098 z M 46.456857 36.240551 C 45.458478 36.366135 44.436462 36.4433 43.40621 36.4433 A 1.03477 1.03477 0 0 0 42.371019 37.476651 A 1.03477 1.03477 0 0 0 43.40621 38.51155 C 43.697288 38.51155 43.984808 38.495805 44.273653 38.485755 C 44.58665 37.944373 44.967469 37.446131 45.437006 37.017499 C 45.769861 36.71364 46.111525 36.456967 46.456857 36.240551 z " />
      <path
         style="color:#000000;fill:#4d4d4d;stroke-linecap:round;stroke-linejoin:round;-inkscape-stroke:none;fill-opacity:1"
         d="m 34.378906,42.306641 c -1.576926,-0.104498 -3.403233,0.10314 -5.34375,0.71289 a 1.034765,1.034765 0 0 0 -0.675781,1.296875 1.034765,1.034765 0 0 0 1.296875,0.677735 c 3.380238,-1.062141 6.459687,-0.457883 7.414062,0.1875 0.188117,0.12721 0.218593,0.194266 0.246094,0.234375 -0.10581,0.130237 -0.844588,0.677226 -2.52539,1.007812 a 1.0348685,1.0348685 0 0 0 0,2.03125 c 1.681914,0.330805 2.422371,0.876107 2.527343,1.005859 -0.02676,0.03924 -0.0584,0.108084 -0.248047,0.236329 -0.954375,0.645382 -4.033824,1.249639 -7.414062,0.1875 a 1.034765,1.034765 0 0 0 -1.296875,0.675781 1.034765,1.034765 0 0 0 0.675781,1.298828 c 3.881033,1.2195 7.303197,0.830297 9.195313,-0.449219 0.473029,-0.319879 0.880672,-0.719841 1.091797,-1.285156 0.211124,-0.565315 0.11457,-1.285197 -0.230469,-1.796875 -0.257322,-0.381598 -0.678463,-0.632158 -1.09961,-0.888672 0.421147,-0.256514 0.842288,-0.507074 1.09961,-0.888672 0.345039,-0.511678 0.441593,-1.23156 0.230469,-1.796875 -0.211125,-0.565314 -0.618768,-0.96723 -1.091797,-1.287109 -0.946058,-0.639758 -2.274637,-1.055659 -3.851563,-1.160156 z"
         id="path846-0" />
      <path
         style="color:#000000;fill:#4d4d4d;stroke-width:1.24384;stroke-linecap:round;-inkscape-stroke:none;fill-opacity:1"
         d="m 27.462777,27.178221 c -2.009136,-0.53935 -4.37365,0.03687 -6.739708,2.447337 a 1.0264805,1.5748 0 0 0 -0.286475,2.183637 1.0264805,1.5748 0 0 0 1.421822,0.439503 c 3.944555,-4.0186 7.354819,-1.57061 8.536965,0.994665 a 1.0264805,1.5748 0 0 0 1.430868,0.374734 1.0264805,1.5748 0 0 0 0.245766,-2.192888 C 31.126595,29.37363 29.471914,27.71757 27.462777,27.178221 Z"
         id="path1442" />
      <path
         style="color:#000000;fill:#4d4d4d;stroke-width:1.24384;stroke-linecap:round;-inkscape-stroke:none;fill-opacity:1"
         d="m 40.27124,27.178221 c -2.009136,0.539349 -3.663816,2.195411 -4.609237,4.246988 a 1.0264805,1.5748 0 0 0 0.245766,2.192888 1.0264805,1.5748 0 0 0 1.430868,-0.374734 c 1.182147,-2.565276 4.590901,-5.013265 8.535457,-0.994665 a 1.0264805,1.5748 0 0 0 1.42333,-0.439503 1.0264805,1.5748 0 0 0 -0.286475,-2.183637 C 44.64489,27.215087 42.280377,26.638871 40.27124,27.178221 Z"
         id="path1442-4" />
      <path
         id="path1035"
         style="fill:none;fill-opacity:1;stroke:#4d4d4d;stroke-width:2.58692;stroke-linecap:butt;stroke-linejoin:miter;stroke-dasharray:none;stroke-opacity:1"
         d="m 13.305009,8.1404276 c -0.17676,-0.00919 -0.321038,0.01816 -0.425556,0.088219 -1.05072,0.7043081 -0.623741,11.5855214 2.363818,17.4514004 0.517394,-1.129851 1.100647,-2.205476 1.745772,-3.202716 1.760629,-2.721602 3.61371,-4.277494 6.207188,-5.153341 0.264441,-1.227705 -1.50606,-2.702021 -2.512763,-4.196342 -0.938176,-1.392606 -5.669773,-4.898346 -7.378459,-4.9872204 z" />
      <path
         id="path1035-8"
         style="fill:none;fill-opacity:1;stroke:#4d4d4d;stroke-width:2.58692;stroke-linecap:butt;stroke-linejoin:miter;stroke-dasharray:none;stroke-opacity:1"
         d="m 54.428621,8.1404276 c -1.708686,0.088875 -6.440282,3.5946144 -7.378459,4.9872204 -1.006702,1.494321 -2.777205,2.968637 -2.512763,4.196342 2.593477,0.875847 4.446557,2.431739 6.207188,5.153341 0.645124,0.99724 1.228378,2.072865 1.745772,3.202716 2.987559,-5.865879 3.414538,-16.7470921 2.363818,-17.4514002 -0.104518,-0.07006 -0.248795,-0.097413 -0.425556,-0.088219 z" />
      <path
         style="color:#000000;fill:#4d4d4d;stroke-linecap:round;stroke-linejoin:round;-inkscape-stroke:none;fill-opacity:1"
         d="m 48.519531,34.464844 c -1.350657,0.08392 -2.641298,0.750198 -3.779297,1.789062 -2.43207,2.2202 -2.826141,5.702113 -2.734375,8.529297 0.09177,2.827184 0.72461,5.150391 0.72461,5.150391 a 1.0348735,1.0348735 0 0 0 0.61914,0.691406 c 0,0 2.219351,0.878804 4.992188,1.263672 2.772836,0.384868 6.251526,0.343248 8.683594,-1.876953 1.138001,-1.038865 1.92057,-2.266659 2.140625,-3.607422 0.220054,-1.340763 -0.192336,-2.758707 -1.208985,-3.900391 -1.393254,-1.564606 -3.205038,-1.849697 -4.523437,-1.6875 0.298439,-1.304323 0.213826,-3.153132 -1.185547,-4.724609 -1.01665,-1.141685 -2.377859,-1.710876 -3.728516,-1.626953 z m 0.126953,2.066406 c 0.741566,-0.04608 1.387539,0.1883 2.054688,0.9375 0.924084,1.037733 0.919047,2.016417 0.716797,2.892578 -0.202251,0.876162 -0.63086,1.488281 -0.63086,1.488281 a 1.0348735,1.0348735 0 0 0 1.363282,1.494141 c 0,0 0.641658,-0.364277 1.515625,-0.476563 0.873966,-0.112285 1.820057,-0.02601 2.74414,1.011719 0.667148,0.749198 0.838413,1.436562 0.714844,2.189453 -0.123569,0.752892 -0.611746,1.606755 -1.496094,2.414063 -1.683546,1.536886 -4.504393,1.704082 -7.001953,1.357422 -2.198563,-0.30516 -3.571966,-0.852529 -3.978516,-1.003907 -0.106481,-0.423656 -0.501125,-1.869202 -0.574218,-4.121093 -0.08297,-2.556099 0.376999,-5.396709 2.060547,-6.933594 0.884347,-0.807308 1.770152,-1.203923 2.511718,-1.25 z"
         id="path2" />
    </g>
  </g>
</svg>
