<?xml version="1.0" encoding="UTF-8" standalone="no"?>
<svg
   xmlns:dc="http://purl.org/dc/elements/1.1/"
   xmlns:cc="http://creativecommons.org/ns#"
   xmlns:rdf="http://www.w3.org/1999/02/22-rdf-syntax-ns#"
   xmlns:svg="http://www.w3.org/2000/svg"
   xmlns="http://www.w3.org/2000/svg"
   xmlns:sodipodi="http://sodipodi.sourceforge.net/DTD/sodipodi-0.dtd"
   xmlns:inkscape="http://www.inkscape.org/namespaces/inkscape"
   width="256"
   height="256"
   viewBox="0 0 67.733331 67.733331"
   version="1.1"
   id="svg8"
   inkscape:version="1.0.2 (e86c870879, 2021-01-15, custom)"
   sodipodi:docname="1F634_plain.svg">
  <defs
     id="defs2" />
  <sodipodi:namedview
     id="base"
     pagecolor="#ffffff"
     bordercolor="#666666"
     borderopacity="1.0"
     inkscape:pageopacity="0.0"
     inkscape:pageshadow="2"
     inkscape:zoom="2.8"
     inkscape:cx="126.50673"
     inkscape:cy="67.435681"
     inkscape:document-units="px"
     inkscape:current-layer="layer1"
     inkscape:document-rotation="0"
     showgrid="false"
     inkscape:window-width="1920"
     inkscape:window-height="1001"
     inkscape:window-x="-9"
     inkscape:window-y="-9"
     inkscape:window-maximized="1"
     units="px"
     inkscape:snap-object-midpoints="false" />
  <metadata
     id="metadata5">
    <rdf:RDF>
      <cc:Work
         rdf:about="">
        <dc:format>image/svg+xml</dc:format>
        <dc:type
           rdf:resource="http://purl.org/dc/dcmitype/StillImage" />
        <dc:title></dc:title>
        <cc:license
           rdf:resource="http://creativecommons.org/publicdomain/zero/1.0/" />
        <dc:creator>
          <cc:Agent>
            <dc:title>Dexterux</dc:title>
          </cc:Agent>
        </dc:creator>
        <dc:publisher>
          <cc:Agent>
            <dc:title>Dexterux</dc:title>
          </cc:Agent>
        </dc:publisher>
      </cc:Work>
      <cc:License
         rdf:about="http://creativecommons.org/publicdomain/zero/1.0/">
        <cc:permits
           rdf:resource="http://creativecommons.org/ns#Reproduction" />
        <cc:permits
           rdf:resource="http://creativecommons.org/ns#Distribution" />
        <cc:permits
           rdf:resource="http://creativecommons.org/ns#DerivativeWorks" />
      </cc:License>
    </rdf:RDF>
  </metadata>
  <g
     inkscape:label="Layer 1"
     inkscape:groupmode="layer"
     id="layer1">
    <path
       id="path833"
       style="color:#000000;font-style:normal;font-variant:normal;font-weight:normal;font-stretch:normal;font-size:medium;line-height:normal;font-family:sans-serif;font-variant-ligatures:normal;font-variant-position:normal;font-variant-caps:normal;font-variant-numeric:normal;font-variant-alternates:normal;font-variant-east-asian:normal;font-feature-settings:normal;font-variation-settings:normal;text-indent:0;text-align:start;text-decoration:none;text-decoration-line:none;text-decoration-style:solid;text-decoration-color:#000000;letter-spacing:normal;word-spacing:normal;text-transform:none;writing-mode:lr-tb;direction:ltr;text-orientation:mixed;dominant-baseline:auto;baseline-shift:baseline;text-anchor:start;white-space:normal;shape-padding:0;shape-margin:0;inline-size:0;clip-rule:nonzero;display:inline;overflow:visible;visibility:visible;opacity:1;isolation:auto;mix-blend-mode:normal;color-interpolation:sRGB;color-interpolation-filters:linearRGB;solid-color:#000000;solid-opacity:1;vector-effect:none;fill:#4d4d4d;fill-opacity:1;fill-rule:nonzero;stroke:none;stroke-width:3.77953;stroke-linecap:round;stroke-linejoin:round;stroke-miterlimit:4;stroke-dasharray:none;stroke-dashoffset:0;stroke-opacity:1;color-rendering:auto;image-rendering:auto;shape-rendering:auto;text-rendering:auto;enable-background:accumulate;stop-color:#000000;stop-opacity:1"
       d="M 128.00195 28 C 72.832701 28 28 72.832698 28 128.00195 C 28 183.1712 72.832701 227.99609 128.00195 227.99609 C 183.1712 227.99609 227.99609 183.1712 227.99609 128.00195 C 227.99609 116.9312 226.18888 106.27793 222.85742 96.318359 C 221.13466 99.577854 217.82152 101.71297 214.19336 102 C 216.66696 110.23048 218.00195 118.95762 218.00195 128.00195 C 218.00195 177.76681 177.76681 218.00195 128.00195 218.00195 C 78.237097 218.00195 38.001953 177.76681 38.001953 128.00195 C 38.001953 78.237093 78.237097 38.001953 128.00195 38.001953 C 146.25507 38.001953 163.22265 43.419727 177.39648 52.730469 C 176.47677 50.591989 176.23068 48.148497 176.87695 45.746094 C 177.26424 44.311135 177.93929 43.012906 178.82422 41.898438 C 163.9248 33.074127 146.55008 28 128.00195 28 z M 186.24414 59.355469 C 187.67083 60.566627 189.06027 61.818629 190.4082 63.115234 L 193.66406 61.357422 L 186.24414 59.355469 z M 212.94336 75.271484 L 206.92969 78.521484 L 216.18555 81.015625 C 216.2169 81.024099 216.24613 81.03618 216.27734 81.044922 C 215.22875 79.079983 214.11655 77.155705 212.94336 75.271484 z "
       transform="scale(0.26458332)" />
    <path
       sodipodi:nodetypes="cc"
       id="path1442"
       d="m 17.576348,31.988521 c 5.61979,4.128571 10.888345,1.810777 12.878685,-1.303759"
       style="font-variation-settings:normal;vector-effect:none;fill:none;fill-opacity:1;stroke:#4d4d4d;stroke-width:2.60074;stroke-linecap:round;stroke-linejoin:miter;stroke-miterlimit:4;stroke-dasharray:none;stroke-dashoffset:0;stroke-opacity:1;stop-color:#000000" />
    <path
       style="font-variation-settings:normal;vector-effect:none;fill:none;fill-opacity:1;stroke:#4d4d4d;stroke-width:2.60074;stroke-linecap:round;stroke-linejoin:miter;stroke-miterlimit:4;stroke-dasharray:none;stroke-dashoffset:0;stroke-opacity:1;stop-color:#000000"
       d="M 50.156984,31.988521 C 44.537192,36.117092 39.26864,33.799298 37.278298,30.684762"
       id="path1442-4"
       sodipodi:nodetypes="cc" />
    <path
       id="path902-3-2"
       style="fill:#4d4d4d;fill-opacity:1;stroke:#4d4d4d;stroke-width:2.11667;stroke-linecap:round;stroke-linejoin:round;stroke-miterlimit:4;stroke-dasharray:none;stroke-opacity:1"
       d="m 39.983089,47.456016 c 1.871032,-0.787969 2.898435,-6.108451 -5.847189,-6.108451 -8.745624,0 -7.718221,5.320482 -5.847189,6.108451 2.44343,1.029028 3.34719,-0.147512 5.847189,-0.147512 2.499999,0 3.403759,1.17654 5.847189,0.147512 z"
       sodipodi:nodetypes="scszs" />
    <path
       style="fill:none;fill-opacity:1;stroke:#4d4d4d;stroke-width:2.11667;stroke-linecap:round;stroke-linejoin:round;stroke-miterlimit:4;stroke-dasharray:none;stroke-opacity:1;stop-color:#000000"
       d="m 22.050762,18.552953 5.428655,-1.441729 -4.060185,6.564914 5.428654,-1.441728"
       id="path892-4-4"
       sodipodi:nodetypes="cccc"
       inkscape:transform-center-x="7.6028677"
       inkscape:transform-center-y="-0.0066418827" />
    <path
       style="fill:none;fill-opacity:1;stroke:#4d4d4d;stroke-width:2.11667;stroke-linecap:round;stroke-linejoin:round;stroke-miterlimit:4;stroke-dasharray:none;stroke-opacity:1;stop-color:#000000"
       d="m 32.825818,13.395704 8.72115,0.02115 -8.725953,8.263809 8.721147,0.02115"
       id="path892-4-4-3"
       sodipodi:nodetypes="cccc"
       inkscape:transform-center-x="11.400533"
       inkscape:transform-center-y="-3.0866819" />
    <path
       style="color:#000000;font-style:normal;font-variant:normal;font-weight:normal;font-stretch:normal;font-size:medium;line-height:normal;font-family:sans-serif;font-variant-ligatures:normal;font-variant-position:normal;font-variant-caps:normal;font-variant-numeric:normal;font-variant-alternates:normal;font-variant-east-asian:normal;font-feature-settings:normal;font-variation-settings:normal;text-indent:0;text-align:start;text-decoration:none;text-decoration-line:none;text-decoration-style:solid;text-decoration-color:#000000;letter-spacing:normal;word-spacing:normal;text-transform:none;writing-mode:lr-tb;direction:ltr;text-orientation:mixed;dominant-baseline:auto;baseline-shift:baseline;text-anchor:start;white-space:normal;shape-padding:0;shape-margin:0;inline-size:0;clip-rule:nonzero;display:inline;overflow:visible;visibility:visible;isolation:auto;mix-blend-mode:normal;color-interpolation:sRGB;color-interpolation-filters:linearRGB;solid-color:#000000;solid-opacity:1;vector-effect:none;fill:none;fill-opacity:1;fill-rule:nonzero;stroke:#4d4d4d;stroke-width:2.11666659;stroke-linecap:round;stroke-linejoin:round;stroke-miterlimit:4;stroke-dasharray:none;stroke-dashoffset:0;stroke-opacity:1;color-rendering:auto;image-rendering:auto;shape-rendering:auto;text-rendering:auto;enable-background:accumulate;stop-color:#000000"
       d="m 49.564649,10.804035 a 2.0371926,2.0376088 0 0 0 -2.000098,1.506288 2.0371926,2.0376088 0 0 0 1.437235,2.496874 l 4.367559,1.179675 -7.177579,3.876386 a 2.0373963,2.0378126 0 0 0 0.436111,3.76035 l 9.300134,2.511915 a 2.0371926,2.0376088 0 0 0 2.498513,-1.43538 2.0371926,2.0376088 0 0 0 -1.435088,-2.499022 l -4.369709,-1.179676 7.17758,-3.876383 a 2.0373963,2.0378126 0 0 0 -0.43611,-3.760352 l -9.300135,-2.511915 a 2.0371926,2.0376088 0 0 0 -0.498413,-0.06876 z"
       id="path892-4-0-1" />
  </g>
</svg>
