<?xml version="1.0" encoding="UTF-8" standalone="no"?>
<svg
   xmlns:dc="http://purl.org/dc/elements/1.1/"
   xmlns:cc="http://creativecommons.org/ns#"
   xmlns:rdf="http://www.w3.org/1999/02/22-rdf-syntax-ns#"
   xmlns:svg="http://www.w3.org/2000/svg"
   xmlns="http://www.w3.org/2000/svg"
   xmlns:sodipodi="http://sodipodi.sourceforge.net/DTD/sodipodi-0.dtd"
   xmlns:inkscape="http://www.inkscape.org/namespaces/inkscape"
   width="256"
   height="256"
   viewBox="0 0 67.733331 67.733331"
   version="1.1"
   id="svg8"
   inkscape:version="1.0.2 (e86c870879, 2021-01-15, custom)"
   sodipodi:docname="1F642_plain.svg">
  <defs
     id="defs2" />
  <sodipodi:namedview
     id="base"
     pagecolor="#ffffff"
     bordercolor="#666666"
     borderopacity="1.0"
     inkscape:pageopacity="0.0"
     inkscape:pageshadow="2"
     inkscape:zoom="1.979899"
     inkscape:cx="116.93722"
     inkscape:cy="92.077552"
     inkscape:document-units="px"
     inkscape:current-layer="layer1"
     inkscape:document-rotation="0"
     showgrid="false"
     inkscape:window-width="1920"
     inkscape:window-height="1001"
     inkscape:window-x="-9"
     inkscape:window-y="-9"
     inkscape:window-maximized="1"
     units="px"
     inkscape:snap-object-midpoints="false" />
  <metadata
     id="metadata5">
    <rdf:RDF>
      <cc:Work
         rdf:about="">
        <dc:format>image/svg+xml</dc:format>
        <dc:type
           rdf:resource="http://purl.org/dc/dcmitype/StillImage" />
        <dc:title />
        <cc:license
           rdf:resource="http://creativecommons.org/publicdomain/zero/1.0/" />
        <dc:creator>
          <cc:Agent>
            <dc:title>Dexterux</dc:title>
          </cc:Agent>
        </dc:creator>
        <dc:publisher>
          <cc:Agent>
            <dc:title>Dexterux</dc:title>
          </cc:Agent>
        </dc:publisher>
      </cc:Work>
      <cc:License
         rdf:about="http://creativecommons.org/publicdomain/zero/1.0/">
        <cc:permits
           rdf:resource="http://creativecommons.org/ns#Reproduction" />
        <cc:permits
           rdf:resource="http://creativecommons.org/ns#Distribution" />
        <cc:permits
           rdf:resource="http://creativecommons.org/ns#DerivativeWorks" />
      </cc:License>
    </rdf:RDF>
  </metadata>
  <g
     inkscape:label="Layer 1"
     inkscape:groupmode="layer"
     id="layer1">
    <path
       id="path835-77"
       style="fill:#4d4d4d;fill-opacity:1;stroke:none;stroke-width:1.01763;stroke-linecap:round;stroke-linejoin:round;stroke-miterlimit:4;stroke-dasharray:none;stroke-opacity:1"
       d="m 24.81421,23.585714 a 4.7247019,4.7247019 0 0 0 -4.724776,4.724776 4.7247019,4.7247019 0 0 0 4.724776,4.724777 4.7247019,4.7247019 0 0 0 4.724776,-4.724777 4.7247019,4.7247019 0 0 0 -4.724776,-4.724776 z m 18.105353,0 a 4.7247019,4.7247019 0 0 0 -4.724776,4.724776 4.7247019,4.7247019 0 0 0 4.724776,4.724777 4.7247019,4.7247019 0 0 0 4.724778,-4.724777 4.7247019,4.7247019 0 0 0 -4.724778,-4.724776 z M 24.81421,25.097767 a 1.8898805,1.8898805 0 0 1 1.889806,1.889807 1.8898805,1.8898805 0 0 1 -1.889806,1.889807 1.8898805,1.8898805 0 0 1 -1.889807,-1.889807 1.8898805,1.8898805 0 0 1 1.889807,-1.889807 z m 18.105353,0 a 1.8898805,1.8898805 0 0 1 1.889807,1.889807 1.8898805,1.8898805 0 0 1 -1.889807,1.889807 1.8898805,1.8898805 0 0 1 -1.889805,-1.889807 1.8898805,1.8898805 0 0 1 1.889805,-1.889807 z" />
    <ellipse
       style="fill:none;fill-opacity:1;stroke:#4d4d4d;stroke-width:2.64583;stroke-linecap:round;stroke-linejoin:round;stroke-miterlimit:4;stroke-dasharray:none;stroke-opacity:1"
       id="path833"
       cx="33.866665"
       cy="33.866665"
       rx="25.135416"
       ry="25.135418" />
    <g
       id="g1009"
       transform="translate(-0.53443607,-1.5874999)"
       style="stroke-width:1.32291662;stroke-miterlimit:4;stroke-dasharray:none">
      <path
         d="m 43.206027,44.777078 c 0,0 -3.279843,3.010384 -8.804752,3.010384 -5.524909,0 -8.805099,-3.010384 -8.805099,-3.010384"
         style="fill:none;fill-opacity:1;stroke:#4d4d4d;stroke-width:2.64583;stroke-linecap:round;stroke-linejoin:round;stroke-miterlimit:4;stroke-dasharray:none;stroke-opacity:1"
         id="path902-3-0"
         sodipodi:nodetypes="czc" />
    </g>
  </g>
</svg>
