<?xml version="1.0" encoding="UTF-8" standalone="no"?>
<svg
   width="256"
   height="256"
   viewBox="0 0 67.733331 67.733331"
   version="1.1"
   id="svg8"
   inkscape:version="1.3.2 (091e20e, 2023-11-25, custom)"
   sodipodi:docname="1F64A_plain.svg"
   xmlns:inkscape="http://www.inkscape.org/namespaces/inkscape"
   xmlns:sodipodi="http://sodipodi.sourceforge.net/DTD/sodipodi-0.dtd"
   xmlns="http://www.w3.org/2000/svg"
   xmlns:svg="http://www.w3.org/2000/svg"
   xmlns:rdf="http://www.w3.org/1999/02/22-rdf-syntax-ns#"
   xmlns:cc="http://creativecommons.org/ns#"
   xmlns:dc="http://purl.org/dc/elements/1.1/">
  <defs
     id="defs2">
    <inkscape:path-effect
       effect="fillet_chamfer"
       id="path-effect2"
       is_visible="true"
       lpeversion="1"
       nodesatellites_param="F,0,0,1,0,0,0,1 @ F,0,0,1,0,0,0,1 @ F,0,0,1,0,0,0,1 @ F,0,0,1,0,0,0,1 @ F,0,0,1,0,0,0,1 @ F,0,0,1,0,0,0,1 @ F,0,0,1,0,0,0,1 @ F,0,0,1,0,0,0,1 @ F,0,0,1,0,0,0,1 @ F,0,0,1,0,0,0,1 @ F,0,0,1,0,0,0,1 @ F,0,0,1,0,0,0,1 @ F,0,0,1,0,0,0,1 @ F,0,0,1,0,0,0,1 @ F,0,0,1,0,0,0,1 @ F,0,0,1,0,0,0,1 @ F,0,0,1,0,0,0,1"
       radius="0"
       unit="px"
       method="auto"
       mode="F"
       chamfer_steps="1"
       flexible="false"
       use_knot_distance="true"
       apply_no_radius="true"
       apply_with_radius="true"
       only_selected="false"
       hide_knots="false" />
    <inkscape:path-effect
       effect="fillet_chamfer"
       id="path-effect1"
       is_visible="true"
       lpeversion="1"
       nodesatellites_param="F,0,0,1,0,0,0,1 @ F,0,0,1,0,0,0,1 @ F,0,0,1,0,0,0,1 @ F,0,0,1,0,0,0,1 @ F,0,0,1,0,0,0,1 @ F,0,0,1,0,0,0,1 @ F,0,0,1,0,0,0,1 @ F,0,0,1,0,0,0,1 @ F,0,0,1,0,0,0,1 @ F,0,0,1,0,0,0,1 @ F,0,0,1,0,0,0,1 @ F,0,0,1,0,0,0,1 @ F,0,0,1,0,0,0,1 @ F,0,0,1,0,0,0,1 @ F,0,0,1,0,0,0,1 @ F,0,0,1,0,0,0,1 @ F,0,0,1,0,0,0,1"
       radius="0"
       unit="px"
       method="auto"
       mode="F"
       chamfer_steps="1"
       flexible="false"
       use_knot_distance="true"
       apply_no_radius="true"
       apply_with_radius="true"
       only_selected="false"
       hide_knots="false" />
  </defs>
  <sodipodi:namedview
     id="base"
     pagecolor="#ffffff"
     bordercolor="#666666"
     borderopacity="1.0"
     inkscape:pageopacity="0.0"
     inkscape:pageshadow="2"
     inkscape:zoom="2.113034"
     inkscape:cx="158.06655"
     inkscape:cy="34.784107"
     inkscape:document-units="px"
     inkscape:current-layer="layer1"
     inkscape:document-rotation="0"
     showgrid="false"
     inkscape:window-width="3840"
     inkscape:window-height="2054"
     inkscape:window-x="-11"
     inkscape:window-y="-11"
     inkscape:window-maximized="1"
     units="px"
     inkscape:snap-object-midpoints="false"
     inkscape:showpageshadow="2"
     inkscape:pagecheckerboard="0"
     inkscape:deskcolor="#d1d1d1"
     showguides="false" />
  <metadata
     id="metadata5">
    <rdf:RDF>
      <cc:Work
         rdf:about="">
        <dc:format>image/svg+xml</dc:format>
        <dc:type
           rdf:resource="http://purl.org/dc/dcmitype/StillImage" />
        <cc:license
           rdf:resource="http://creativecommons.org/publicdomain/zero/1.0/" />
        <dc:creator>
          <cc:Agent>
            <dc:title>Dexterux</dc:title>
          </cc:Agent>
        </dc:creator>
        <dc:publisher>
          <cc:Agent>
            <dc:title>Dexterux</dc:title>
          </cc:Agent>
        </dc:publisher>
      </cc:Work>
      <cc:License
         rdf:about="http://creativecommons.org/publicdomain/zero/1.0/">
        <cc:permits
           rdf:resource="http://creativecommons.org/ns#Reproduction" />
        <cc:permits
           rdf:resource="http://creativecommons.org/ns#Distribution" />
        <cc:permits
           rdf:resource="http://creativecommons.org/ns#DerivativeWorks" />
      </cc:License>
    </rdf:RDF>
  </metadata>
  <g
     inkscape:groupmode="layer"
     id="layer2"
     inkscape:label="Layer 2"
     sodipodi:insensitive="true"
     style="display:none">
    <path
       style="fill:none;stroke:#000000;stroke-width:0.264583px;stroke-linecap:butt;stroke-linejoin:miter;stroke-opacity:1"
       d="M 114.81026,9.8378651 C 114.58978,9.708378 114.3926,9.5264997 114.1488,9.4494044 c -0.18019,-0.056982 -0.37943,0.023442 -0.56696,0 -0.31874,-0.039842 -0.62923,-0.1297914 -0.94494,-0.1889882 -0.13896,-0.026053 -0.75804,-0.1088885 -0.94494,-0.1889882 -0.10439,-0.044736 -0.17804,-0.1468101 -0.28348,-0.1889879 -0.0585,-0.023397 -0.13265,0.028173 -0.18899,0 -0.0797,-0.039842 -0.11486,-0.13957 -0.18899,-0.1889881 -0.0262,-0.017473 -0.0683,0.017473 -0.0945,0 -0.0741,-0.049418 -0.11942,-0.1333341 -0.18899,-0.1889882 -0.17736,-0.1418902 -0.37798,-0.2519841 -0.56697,-0.377976 -0.37573,-0.2504898 -0.76584,-0.4930325 -1.13392,-0.7559524 -0.51231,-0.3659293 -1.00284,-0.7636981 -1.51191,-1.1339285 -0.0918,-0.066797 -0.1948,-0.118043 -0.28348,-0.1889881 -0.0696,-0.055654 -0.11942,-0.1333341 -0.18899,-0.1889882 -0.0887,-0.070945 -0.1861,-0.1305578 -0.28348,-0.1889881 -0.0604,-0.036237 -0.13399,-0.050496 -0.18899,-0.094494 -0.10435,-0.083481 -0.17229,-0.2093549 -0.28348,-0.2834822 -0.16576,-0.1105024 -0.39282,-0.092243 -0.56697,-0.1889882 -0.18898,-0.1259919 -0.37797,-0.2519841 -0.56696,-0.377976 -0.063,-0.062996 -0.11486,-0.1395701 -0.18899,-0.1889882 -0.37608,-0.2507178 -0.30868,-0.1322916 -0.66146,-0.283482 -0.88075,-0.3774654 0.11513,-0.034603 -0.75595,-0.2834822 -0.0958,-0.027364 -0.18523,-0.078119 -0.28348,-0.094494 -0.002,-2.646e-4 -0.41673,0.018579 -0.47247,0 -0.36751,-0.1225034 -0.006,-0.1328584 -0.56697,-0.1889881 -0.18805,-0.018804 -0.37797,0 -0.56696,0 -0.53547,0 -1.07093,0 -1.6064,0 -0.125989,0 -0.251984,0 -0.377976,0 -0.0315,0 -0.07222,-0.022273 -0.09449,0 -0.02228,0.022273 0,0.062996 0,0.094494 0,0.031498 0,0.062996 0,0.094494 0,0.031498 -0.02228,0.072222 0,0.094494 0.02228,0.022273 0.06632,-0.014086 0.09449,0 0.07968,0.039842 0.114861,0.1395698 0.188989,0.1889882 0.0586,0.039068 0.132647,0.052235 0.188987,0.094494 0.0713,0.053454 0.11486,0.1395699 0.18899,0.1889879 0.0524,0.034944 0.13264,-0.028173 0.18899,0 0.0722,0.036092 0.21949,0.2621534 0.28348,0.2834823 0.0598,0.01992 0.13264,-0.028173 0.18899,0 0.0282,0.014086 -0.0252,0.075595 0,0.094494 0.91397,0.4569835 -0.0102,-0.054914 0.56696,0.377976 0.23238,0.1742821 0.1851,-0.00584 0.37798,0.2834823 0.0781,0.1172053 0.11085,0.2607706 0.18899,0.377976 0.0494,0.074127 0.14914,0.1093039 0.18898,0.1889882 0.18899,0.377976 -0.0945,0.047247 0,0.283482 0.20308,0.5076861 0.18899,0.2144085 0.18899,0.4724704 0,0.031498 -0.0141,0.066321 0,0.094494 0.0788,0.1575351 0.18899,0.042696 0.18899,0.283482 0,0.031498 0.0223,0.072222 0,0.094494 -0.0223,0.022273 -0.063,0 -0.0945,0 -0.0635,0 -0.7222,0.013504 -0.75596,0 -0.0827,-0.033087 -0.12599,-0.1259919 -0.18898,-0.1889882 -0.0315,-0.031498 -0.063,-0.062996 -0.0945,-0.094494 -0.62596,-0.6259674 -0.01,-0.069461 -0.47247,-0.3779761 -0.0371,-0.024709 -0.0574,-0.069785 -0.0945,-0.094494 -0.0586,-0.039068 -0.13919,-0.044691 -0.18899,-0.094494 -0.0498,-0.049803 -0.0554,-0.1303853 -0.0945,-0.1889879 -0.0247,-0.037064 -0.063,-0.062996 -0.0945,-0.094494 -0.0315,-0.031498 -0.0574,-0.069785 -0.0945,-0.094494 -0.0586,-0.039069 -0.13265,-0.052235 -0.18899,-0.094494 -0.0713,-0.053454 -0.12599,-0.1259919 -0.18899,-0.1889882 -0.063,-0.062996 -0.125989,-0.1259919 -0.188987,-0.1889879 -0.0315,-0.031498 -0.05465,-0.074573 -0.09449,-0.094494 -0.08909,-0.044545 -0.194392,-0.049949 -0.283482,-0.094494 -0.03984,-0.01992 -0.05971,-0.066667 -0.09449,-0.094494 -0.160012,-0.1280081 -0.46963,-0.3573732 -0.661458,-0.4724701 -0.300273,-0.1801633 -0.06942,-0.043068 -0.377979,-0.094494 -0.24,0.080666 -0.3737,-0.1406724 -0.566962,-0.1889882 -0.06112,-0.01528 -0.132643,0.028173 -0.188989,0 -0.233251,-0.1166257 -0.113684,-0.2457259 -0.377976,-0.283482 -0.155908,-0.022273 -0.314981,0 -0.472469,0 -0.283482,0 -0.566965,0 -0.850448,0 -0.220485,0 -0.440973,0 -0.661458,0 -0.063,0 -0.126378,-0.00696 -0.188989,0 -0.221361,0.024596 -0.442325,0.054652 -0.661458,0.094494 -0.127773,0.023233 -0.258607,0.043336 -0.377976,0.094494 -0.104384,0.044737 -0.179097,0.1442517 -0.283483,0.1889882 -0.119366,0.051158 -0.257394,0.046262 -0.377975,0.094494 -0.04136,0.016544 -0.0563,0.071576 -0.09449,0.094494 -1.031615,0.5158073 -0.08427,-0.00767 -0.472469,0.2834819 -0.228057,0.1710426 -0.252621,0.173558 -0.472472,0.2834823 -0.125991,0.062996 -0.258524,0.1143307 -0.377975,0.1889881 -0.133551,0.083469 -0.241237,0.205345 -0.377976,0.283482 -0.08648,0.049418 -0.194392,0.049949 -0.283483,0.094494 -0.03984,0.01992 -0.063,0.062996 -0.09449,0.094494 -0.0945,0.062996 -0.181904,0.138199 -0.283482,0.1889881 -0.544931,0.2724653 -0.02535,-0.1227283 -0.566965,0.283482 -0.03564,0.026727 -0.063,0.062996 -0.09449,0.094494 -0.063,0.062996 -0.133334,0.1194207 -0.188989,0.1889882 -0.07095,0.088681 -0.108683,0.2031775 -0.188986,0.2834819 -0.0498,0.049803 -0.125992,0.062996 -0.18899,0.094494 -0.188986,0.094494 -0.385781,0.1747719 -0.566965,0.2834823 -0.214011,0.128407 -0.430688,0.3570853 -0.661458,0.4724701 -0.08909,0.044545 -0.185809,0.07496 -0.28348,0.094494 -0.06177,0.012353 -0.134972,-0.032411 -0.188989,0 -0.114591,0.068754 -0.176575,0.2033013 -0.283483,0.283482 -0.02519,0.018899 -0.06299,0 -0.09449,0 -0.063,0 -0.129225,-0.01992 -0.188989,0 -0.04226,0.014086 -0.05743,0.069785 -0.09449,0.094494 -0.0586,0.039069 -0.122172,0.072222 -0.18899,0.094494 -0.0521,0.017365 -0.357772,-0.020204 -0.377975,0 -0.02228,0.022273 0,0.062996 0,0.094494 0,0.1649256 -0.02817,0.080408 0.188989,0.1889882 0.125992,0.062996 0.251984,0.1259919 0.377976,0.1889879 0,0.031498 -0.02228,0.072222 0,0.094494 0.02228,0.022273 0.06394,-0.00764 0.09449,0 0.09663,0.024159 0.191003,0.057502 0.283482,0.094494 0.06539,0.026157 0.122172,0.072222 0.18899,0.094494 0.123203,0.041068 0.253103,0.058816 0.377975,0.094494 0.09577,0.027364 0.185812,0.07496 0.283483,0.094494 0.06177,0.012353 0.129225,-0.019921 0.188986,0 1.34859,0.4495294 0.185976,0.092987 0.944941,0.4724701 0.02817,0.014086 0.06632,-0.014086 0.09449,0 0.101578,0.050789 0.178038,0.1468104 0.283482,0.1889884 0.05849,0.0234 0.134969,-0.03241 0.188989,0 0.114591,0.06875 0.167455,0.21718 0.283483,0.283482 0.285543,0.07139 0.349001,0.05821 0.566962,0.188988 0.09738,0.05843 0.181907,0.138199 0.283483,0.188988 0.02817,0.01409 0.06632,-0.01409 0.0945,0 0.03984,0.01992 0.05743,0.06978 0.09449,0.09449 0.117205,0.07814 0.260771,0.110851 0.377976,0.188988 0.08602,0.05735 0.199728,0.241605 0.283482,0.283482 0.02817,0.01409 0.06632,-0.01409 0.09449,0 0.393261,0.196631 -0.101017,-0.0065 0.09449,0.188988 0.04454,0.04454 0.132643,-0.02817 0.188989,0 0.208931,0.104466 0.02932,0.05865 0.09449,0.188988 0.08864,0.177285 0.121222,0.04041 0.283483,0.09449 0.161311,0.05377 0.09449,0.278078 0.09449,0.377977 0,0.063 0,0.125992 0,0.188988 0,0.0315 0,0.063 0,0.09449 0,0.0315 0.02228,0.07222 0,0.09449 -0.02228,0.02227 -0.063,0 -0.09449,0 -0.063,0 -0.125992,0 -0.188987,0 -0.15749,0 -0.314981,0 -0.472472,0 -0.06299,0 -0.130497,-0.0234 -0.188986,0 -0.130789,0.05232 -0.251987,0.125992 -0.377979,0.188988 -0.06299,0.0315 -0.130384,0.05542 -0.188986,0.09449 -0.03706,0.02471 -0.05886,0.06777 -0.09449,0.09449 -0.09086,0.06814 -0.19263,0.120847 -0.283483,0.188988 -0.03564,0.02673 -0.05465,0.07457 -0.0945,0.09449 -0.02817,0.01409 -0.06828,-0.01747 -0.09449,0 -0.07413,0.04942 -0.125992,0.125992 -0.188987,0.188988 -0.0945,0.09449 -0.18202,0.196514 -0.283482,0.283482 -0.119576,0.102493 -0.258403,0.180989 -0.377976,0.283482 -0.101465,0.08697 -0.188989,0.188989 -0.283482,0.283482 -0.157491,0.157491 -0.329886,0.301369 -0.472472,0.472471 -0.173461,0.208154 -0.299008,0.453304 -0.472469,0.661458 -0.142584,0.171102 -0.338836,0.294291 -0.472472,0.47247 -0.367744,0.490328 -0.346707,0.638353 -0.566962,1.133929 -0.05721,0.128722 -0.125992,0.251984 -0.18899,0.377976 -0.0315,0.063 -0.07741,0.120659 -0.09449,0.188988 -0.01527,0.06112 0.0089,0.126625 0,0.188988 -0.05981,0.418687 -0.106606,0.555812 -0.283482,0.944941 -0.08743,0.192355 -0.174771,0.38578 -0.283483,0.566964 -0.162055,0.270093 -0.410689,0.482473 -0.566965,0.755952 -0.04942,0.08648 -0.05328,0.192805 -0.09449,0.283482 -0.116578,0.256475 -0.259916,0.500156 -0.377976,0.755953 -0.07108,0.15401 -0.125992,0.31498 -0.188989,0.47247 -0.09985,0.249624 -0.209415,0.496719 -0.28348,0.755952 -0.03568,0.124873 -0.05882,0.253104 -0.0945,0.377976 -0.05473,0.191546 -0.125992,0.377976 -0.188987,0.566965 -0.0315,0.09449 -0.05526,0.19193 -0.0945,0.283482 -0.108071,0.252172 -0.329104,0.635401 -0.472469,0.850446 -0.08736,0.13104 -0.202453,0.24293 -0.283482,0.377976 -0.108709,0.181184 -0.182303,0.381469 -0.283483,0.566965 -0.08795,0.161237 -0.194286,0.311919 -0.283482,0.47247 -0.102613,0.184705 -0.174771,0.38578 -0.28348,0.566964 -0.05843,0.09738 -0.125992,0.188987 -0.188989,0.283483 -0.125992,0.188987 -0.245957,0.382135 -0.377976,0.566963 -0.0259,0.03625 -0.06979,0.05743 -0.09449,0.0945 -0.232127,0.03369 -0.03924,0.200604 -0.0945,0.283479 -0.04942,0.07413 -0.125992,0.125992 -0.188987,0.18899 -0.063,0.063 -0.125992,0.125992 -0.188989,0.188989 -0.063,0.06299 -0.112593,0.14315 -0.188987,0.188986 -0.12437,0.07462 -0.303106,0.03925 -0.377978,0.18899 -0.01408,0.02817 0.02228,0.07222 0,0.09449 -0.02228,0.02228 -0.07222,-0.02228 -0.09449,0 -0.02228,0.02228 0,0.063 0,0.09449 0,0.0315 -0.01408,0.06632 0,0.0945 0.01992,0.03984 0.063,0.06299 0.09449,0.09449 0.0315,0.0315 0.05465,0.07457 0.0945,0.09449 0.02817,0.01408 0.063,0 0.09449,0 0.0315,0 0.063,0 0.09449,0 0.157491,0 0.314982,0 0.472472,0 0.0315,0 0.06361,-0.0062 0.09449,0 0.127346,0.02548 0.249872,0.07314 0.377975,0.09449 0.06214,0.01037 0.125992,0 0.18899,0 0.09449,0 0.188986,0 0.283482,0 0.188987,0 0.377976,0 0.566962,0 0.125992,0 0.253699,-0.02072 0.377976,0 0.128103,0.02135 0.249875,0.07314 0.377979,0.0945 0.118184,0.01969 0.55454,0 0.661458,0 0.207595,0 0.666332,0.02045 0.850445,0 0.159626,-0.01773 0.316656,-0.05554 0.472472,-0.0945 0.204943,-0.05123 0.412993,-0.129511 0.566962,-0.28348 0.02228,-0.02228 -0.01408,-0.06632 0,-0.0945 0.01992,-0.03984 0.063,-0.06299 0.0945,-0.09449 0.0315,-0.0315 0.05886,-0.06777 0.09449,-0.09449 0.09085,-0.06814 0.192627,-0.120849 0.283483,-0.18899 0.03563,-0.02672 0.05465,-0.07457 0.09449,-0.09449 0.02817,-0.01408 0.06461,0.0099 0.09449,0 0.06682,-0.02228 0.122172,-0.07222 0.188989,-0.09449 0.02988,-0.0099 0.07222,0.02228 0.09449,0 0.02228,-0.02228 0.0315,-0.0945 0,-0.0945 -0.0315,0 0,0.063 0,0.0945 0,0.0315 0,0.06299 0,0.09449 0,0.769697 0,0.364231 0,1.133927 0,0.125992 0,0.251984 0,0.377976 0,0.063 0.01527,0.127873 0,0.18899 -0.01709,0.06833 -0.063,0.125991 -0.09449,0.188989 -0.063,0.125992 -0.154823,0.241318 -0.188989,0.377976 -0.351562,1.406255 0.472869,-0.851639 -0.09449,0.850444 -0.07586,0.227574 -0.207624,0.433888 -0.283483,0.661459 -0.08214,0.246411 -0.130582,0.502864 -0.188986,0.755954 -0.03612,0.156496 -0.0381,0.322085 -0.0945,0.472469 -0.03987,0.106336 -0.138197,0.181904 -0.188987,0.283483 -0.04454,0.08909 -0.05952,0.190219 -0.0945,0.283482 -0.05956,0.158821 -0.118798,0.31805 -0.188986,0.472469 -0.08743,0.192357 -0.211275,0.36839 -0.283483,0.566965 -0.05489,0.15094 -0.04834,0.318635 -0.09449,0.472469 -0.04079,0.135975 -0.457745,1.107422 -0.472472,1.13393 -0.112138,0.201851 -0.249272,0.138507 -0.283482,0.377976 -0.02228,0.155906 0,0.314979 0,0.472469 0,0.125992 0.02471,0.254431 0,0.377976 -0.03907,0.195344 -0.13657,0.374774 -0.188987,0.566965 -0.04226,0.15495 -0.03961,0.321532 -0.09449,0.472472 -0.07221,0.198572 -0.20501,0.370781 -0.283483,0.566962 -0.09646,0.241162 -0.106852,0.509542 -0.188989,0.755954 -0.05364,0.160917 -0.140247,0.310002 -0.188986,0.472469 -0.04615,0.153837 -0.03961,0.321533 -0.0945,0.472469 -0.07221,0.198575 -0.188987,0.377979 -0.283483,0.566965 -0.0315,0.063 -0.07222,0.122172 -0.09449,0.18899 -0.0099,0.02988 0.01408,0.06632 0,0.09449 -0.05079,0.101579 -0.130559,0.186097 -0.188987,0.283482 -0.03624,0.06039 -0.05543,0.130384 -0.0945,0.188987 -0.02471,0.03706 -0.07457,0.05465 -0.09449,0.0945 -0.04454,0.08909 -0.0575,0.191 -0.09449,0.283482 -0.02617,0.06539 -0.07222,0.122169 -0.0945,0.188987 -0.138502,0.415507 -0.02574,0.369334 -0.28348,0.755952 -0.09884,0.148256 -0.279141,0.229721 -0.377978,0.377978 -0.01746,0.02622 0.01407,0.06632 0,0.09449 -0.144082,0.288166 -0.07491,-0.172826 -0.188987,0.283483 0,0.430162 0.04454,0.0054 -0.09449,0.283482 -0.01408,0.02817 0.01408,0.06632 0,0.09449 -0.01992,0.03984 -0.07457,0.05465 -0.0945,0.09449 -0.03292,0.06584 -0.134813,0.351507 -0.09449,0.472472 0.209986,0.629959 -0.0525,-0.220488 0.283482,0.283479 0.03494,0.05242 -0.02817,0.132644 0,0.18899 0.01408,0.02817 0.07222,-0.02228 0.09449,0 0.0498,0.0498 0.04469,0.139184 0.09449,0.188989 0.02228,0.02228 0.063,0 0.0945,0 0.06299,0.063 0.13957,0.114861 0.188986,0.188986 0.01746,0.02622 -0.02228,0.07222 0,0.09449 0.04454,0.04454 0.144444,-0.04454 0.188989,0 0.0498,0.0498 0.04469,0.139186 0.09449,0.188989 0.02228,0.02228 0.063,0 0.09449,0 0.0315,0 0.063,0 0.0945,0 0.05424,0 0.347009,0.01857 0.377976,0 0.680741,-0.408445 0.197342,-0.105632 0.472469,-0.472469 0.196318,-0.261758 0.36522,-0.260871 0.661458,-0.472472 0.0725,-0.05178 0.109305,-0.149145 0.188989,-0.188986 0.116158,-0.05808 0.261816,-0.03641 0.377976,-0.0945 0.913966,-0.685475 -0.06003,-0.01723 0.661458,-0.377976 0.101579,-0.05079 0.174284,-0.15779 0.283483,-0.188987 0.121145,-0.03461 0.252957,0.01564 0.377976,0 0.91114,-0.113892 -0.168254,-0.05243 0.755951,-0.283482 0.122232,-0.03056 0.251984,0 0.377976,0 0.283482,0 0.566965,0 0.850448,0 0.125991,0 0.251983,0 0.377975,0 0.0315,0 0.09449,0.0315 0.09449,0 0,-0.0315 -0.063,0 -0.09449,0 -0.0315,0 -0.07222,-0.02228 -0.09449,0 -0.0803,0.0803 -0.130559,0.186097 -0.188989,0.283482 -0.130654,0.217755 -0.286814,0.42444 -0.377976,0.661459 -0.07829,0.203549 -0.188185,1.492633 -0.188987,1.511903 -0.01836,0.440589 0.02201,0.882494 0,1.322916 -0.0474,0.948103 -0.08971,0.199771 -0.283482,1.039434 -0.0571,0.247444 -0.063,0.503968 -0.0945,0.755955 -0.0315,0.251984 -0.06645,0.50356 -0.09449,0.755951 -0.0035,0.03131 0.01408,0.06632 0,0.09449 -0.05079,0.101578 -0.125992,0.188989 -0.188987,0.283482 -0.176776,0.265163 -0.572601,0.808109 -0.661458,1.133927 -0.04144,0.151943 0.03416,0.318731 0,0.472472 -0.09621,0.432933 -0.173263,0.29401 -0.377979,0.566965 -0.07668,0.102238 -0.112307,0.275736 -0.188986,0.377976 -0.05345,0.07127 -0.135536,0.117716 -0.188989,0.188987 -0.04226,0.05635 -0.05223,0.132643 -0.09449,0.188989 -0.05345,0.07127 -0.13957,0.114861 -0.188989,0.188986 -0.685136,1.370275 0.199213,-0.298815 -0.377976,0.566965 -0.01746,0.02622 0,0.063 0,0.09449 -0.0315,0.063 -0.0505,0.13399 -0.09449,0.188989 -0.08348,0.104352 -0.203301,0.176575 -0.283483,0.283482 -0.01889,0.02519 0.01746,0.06829 0,0.09449 -0.04942,0.07413 -0.125991,0.125992 -0.188986,0.188989 -0.0315,0.0315 -0.05743,0.06978 -0.0945,0.09449 -0.0586,0.03907 -0.149918,0.03589 -0.188987,0.09449 -0.03494,0.05242 0.03494,0.136573 0,0.18899 -0.03907,0.0586 -0.14673,0.03815 -0.188989,0.09449 -0.536252,0.715002 0.511921,-0.195805 -0.377976,0.566965 -0.119575,0.102492 -0.254997,0.185097 -0.377975,0.283483 -0.03478,0.02783 -0.06979,0.05743 -0.09449,0.09449 -0.03907,0.0586 -0.04469,0.139184 -0.0945,0.188989 -0.281966,0.281966 -0.269975,0.05398 -0.377975,0.377976 -0.0099,0.02988 0,0.06299 0,0.09449 0,0.063 0,0.125992 0,0.188989 0,0.125992 -0.04963,0.262171 0,0.377976 0.06204,0.144756 0.185099,0.254998 0.283482,0.377976 0.0315,0.0315 0.063,0.063 0.09449,0.09449 0.0315,0 0.07222,-0.02228 0.0945,0 0.125992,0.125992 -0.200453,0.09067 0.09449,0.188989 0.05976,0.01992 0.125992,0 0.188986,0 0.063,0 0.125992,0 0.188989,0 0.399902,0 0.775629,-0.104333 1.133928,-0.283482 0.164274,-0.08214 0.301945,-0.215273 0.472472,-0.283483 0.149121,-0.05965 0.322087,-0.0381 0.472469,-0.09449 0.0049,-0.0019 0.552317,-0.369607 0.566965,-0.377976 0.122303,-0.06989 0.254838,-0.120581 0.377975,-0.188989 0.160552,-0.08919 0.311232,-0.195535 0.472472,-0.283482 1.20628,-0.657971 0.107553,-0.134904 0.850445,-0.283483 0.138128,-0.02763 0.244343,-0.144441 0.377976,-0.188986 0.123206,-0.04107 0.261818,-0.03641 0.377976,-0.0945 0.140864,-0.07043 0.237114,-0.213051 0.377978,-0.28348 0.178178,-0.08909 0.384921,-0.108083 0.566962,-0.18899 1.051642,-0.467394 -0.207354,0.06102 0.377976,-0.377975 0.07968,-0.05976 0.198073,-0.04325 0.283483,-0.09449 0.0764,-0.04584 0.125992,-0.125992 0.188989,-0.188989 0.063,-0.063 0.13957,-0.114861 0.188986,-0.188989 0.01746,-0.02622 -0.02228,-0.07222 0,-0.09449 0.02228,-0.02228 0.063,0 0.0945,0 0.220486,0 0.440971,0 0.661459,0 0.06299,0 0.129225,-0.01992 0.188986,0 0.175064,0.05836 0.05649,0.263967 0.0945,0.377975 0.01408,0.04226 0.08819,0.0504 0.09449,0.0945 0.02672,0.187087 -0.01881,0.378913 0,0.566963 0.02585,0.25845 0.152254,0.498824 0.188986,0.755954 0.01336,0.09354 0,0.188987 0,0.28348 0,0.376298 0,0.190669 0,0.566965 0,0.106593 0.01614,0.629195 0,0.661458 -0.19663,0.393261 0.0065,-0.101018 -0.188986,0.09449 -0.02228,0.02228 0,0.063 0,0.0945 0,0.0315 0,0.063 0,0.09449 0,0.0315 -0.02228,0.07222 0,0.09449 0.02228,0.02228 0.06299,0 0.09449,0 0.05436,0 0.539139,0.01855 0.566965,0 1.614037,-1.076026 -0.506934,0.114599 0.661458,-0.566962 0.280117,-0.163402 0.564917,-0.318725 0.850445,-0.472472 0.124026,-0.06678 0.267981,-0.100992 0.377978,-0.188987 0.055,-0.044 0.063,-0.125992 0.09449,-0.188989 0.15749,-0.125992 0.311121,-0.256966 0.472469,-0.377976 0.321566,-0.241175 0.688924,-0.435932 0.944941,-0.755951 0.07094,-0.08868 0.125992,-0.18899 0.188989,-0.283483 0.06299,-0.0945 0.130556,-0.1861 0.188986,-0.283482 0.03624,-0.06039 0.05224,-0.132644 0.0945,-0.18899 0.05345,-0.07127 0.139568,-0.11486 0.188987,-0.188986 0.03494,-0.05242 -0.02817,-0.132644 0,-0.188989 0.063,-0.09449 0.125992,-0.188987 0.188989,-0.283483 0,-0.0315 -0.01408,-0.06632 0,-0.09449 0.0567,-0.113393 0.226785,-0.17009 0.283483,-0.283483 0.0378,-0.07559 -0.0378,-0.207885 0,-0.283482 0.01992,-0.03984 0.055,-0.07388 0.09449,-0.09449 0.383196,-0.199996 0.778378,-0.376129 1.167569,-0.564195"
       id="path2449" />
  </g>
  <g
     inkscape:label="Layer 1"
     inkscape:groupmode="layer"
     id="layer1">
    <path
       style="font-variation-settings:normal;vector-effect:none;fill:none;fill-opacity:1;stroke:#4d4d4d;stroke-width:2.64584;stroke-linecap:butt;stroke-linejoin:miter;stroke-miterlimit:4;stroke-dasharray:none;stroke-dashoffset:0;stroke-opacity:1;-inkscape-stroke:none;stop-color:#000000"
       d="m 49.544155,22.847878 c 7.774566,-2.161982 9.209535,2.496387 9.209535,5.027899 0,2.531513 1.382502,8.733776 -7.527104,9.409184"
       id="path2-9"
       sodipodi:nodetypes="csc" />
    <path
       style="font-variation-settings:normal;vector-effect:none;fill:none;fill-opacity:1;stroke:#4d4d4d;stroke-width:2.64584;stroke-linecap:butt;stroke-linejoin:miter;stroke-miterlimit:4;stroke-dasharray:none;stroke-dashoffset:0;stroke-opacity:1;-inkscape-stroke:none;stop-color:#000000"
       d="m 18.189168,22.847878 c -7.774551,-2.161982 -9.2095285,2.496387 -9.2095285,5.027899 0,2.531513 -1.3825013,8.733776 7.5271045,9.409184"
       id="path2"
       sodipodi:nodetypes="csc" />
    <path
       id="path7"
       style="color:#000000;fill:#4d4d4d;fill-opacity:1;-inkscape-stroke:none"
       d="m 34.117296,11.099581 c -4.726924,-0.02609 -7.975079,0.633519 -10.412284,1.742012 -2.438762,1.109203 -4.006353,2.661236 -5.336108,4.136698 -2.894629,3.211812 -5.990351,9.942024 -4.632792,20.69176 0.508477,4.026355 2.047241,7.537492 4.208528,10.408666 -1.641046,1.556668 -2.287045,3.520536 -2.118733,4.887557 0.313037,2.542481 5.033818,2.926333 6.661609,2.561084 0.510211,-0.114482 1.350499,-0.715748 2.263427,-1.487248 2.986062,1.683127 6.248836,2.594674 9.366353,2.594674 3.403533,0 6.907228,-1.091644 10.016959,-3.088183 0.678615,0.874557 0.278059,1.548787 1.439189,1.707389 1.909521,0.260826 6.346081,1.203175 6.982519,-1.515153 0.764018,-3.263231 -0.601305,-5.038239 -2.39882,-6.004285 1.960813,-2.809893 3.351212,-6.201618 3.839042,-10.064501 1.35756,-10.749735 -1.73815,-17.479946 -4.632792,-20.69176 -1.30132,-1.443923 -2.730189,-3.003255 -5.056538,-4.124812 -2.324847,-1.120835 -5.462967,-1.77997 -10.189559,-1.753898 z m -7.385078,7.959203 c 2.594441,0.05382 4.83844,0.919841 7.134448,0.919841 2.825852,0 5.573105,-1.311681 8.991698,-0.806669 3.474804,0.51331 6.846803,3.921898 6.955131,10.563696 0.130759,8.017301 -5.626474,9.155889 -5.451863,12.748058 0.01114,0.229128 0.01244,0.459819 0.0078,0.690914 0.568774,1.229617 0.871311,2.474086 0.303341,3.420463 l -3.342432,5.282882 c -0.519046,0.814672 -5.798903,1.660101 -8.704378,-0.270785 -0.373818,-0.248428 -0.713474,-0.500585 -1.023193,-0.754476 -1.086928,-0.120928 -2.058073,-0.318616 -2.896464,-0.597379 0.227792,-0.237172 0.393775,-0.412378 0.393775,-0.412378 l -4.595585,-4.237468 c -0.248807,0.008 -0.489947,0.02489 -0.727088,0.04548 -0.342143,-1.02785 -0.456956,-2.111921 -0.40566,-3.167249 0.17461,-3.592169 -5.582627,-4.730757 -5.451863,-12.748058 0.10833,-6.641798 3.480325,-10.050386 6.955131,-10.563696 0.640985,-0.09469 1.25853,-0.125592 1.857251,-0.113172 z" />
    <path
       id="path951-0"
       style="color:#000000;fill:#4d4d4d;fill-opacity:1;stroke-linecap:round;stroke-linejoin:round;-inkscape-stroke:none"
       d="m 33.479092,33.399511 c -0.334649,0.0035 -0.633296,0.02991 -0.891418,0.07131 -0.802775,0.128759 -1.409684,0.470758 -1.949235,0.765328 -0.294317,0.160683 -0.348728,0.20261 -0.522966,0.310575 -0.959722,-0.190174 -1.889184,-0.130766 -2.611726,0.13901 -0.835678,0.312018 -1.599907,0.897963 -2.384351,1.716691 -0.784445,0.818727 -1.53035,1.868194 -1.902726,3.136759 -0.29346,0.999694 -0.633137,2.183591 -0.728638,3.398242 -0.0955,1.214652 0.05682,2.614787 1.096057,3.619418 a 1.32292,1.32292 0 0 0 1.871204,-0.03152 1.32292,1.32292 0 0 0 -0.03152,-1.871204 c -0.219593,-0.212279 -0.364402,-0.673678 -0.298689,-1.509468 0.06571,-0.835789 0.346024,-1.890635 0.630969,-2.861324 0.206013,-0.701818 0.70823,-1.461265 1.273307,-2.051038 0.565076,-0.589772 1.250448,-1.012152 1.400431,-1.068151 0.438561,-0.163745 1.028996,-0.216099 1.46451,-0.03307 a 1.3230523,1.3230523 0 0 0 1.240235,-0.113689 c 0,0 0.335572,-0.220874 0.771529,-0.458886 0.435956,-0.238012 1.023402,-0.464223 1.099674,-0.476457 0.190721,-0.03059 1.041235,-0.06299 1.875338,0.115239 0.834104,0.178225 1.68079,0.545188 2.253609,1.144632 0.337175,0.352848 0.532807,0.613221 0.655774,0.844393 0.358578,-0.0656 0.713109,-0.0765 1.031461,-0.04599 0.452849,0.0434 1.136275,0.273734 1.852084,0.661975 -0.01781,-0.131841 -0.03381,-0.260643 -0.06098,-0.407727 -0.157985,-0.855337 -0.605454,-1.87544 -1.566313,-2.880961 -1.072525,-1.122377 -2.431505,-1.651774 -3.613216,-1.904276 -0.73857,-0.157814 -1.396654,-0.215572 -1.954403,-0.209806 z m -4.436421,15.121557 a 1.32292,1.32292 0 0 0 -0.917774,0.428397 1.32292,1.32292 0 0 0 0.08217,1.869137 c 0.4255,0.389869 0.770676,0.443804 1.109493,0.509529 0.338817,0.06573 0.685643,0.08824 1.064534,0.08785 0.529324,-5.52e-4 1.121147,-0.05291 1.749247,-0.154512 -1.16845,-0.854376 -1.964954,-1.740784 -2.483569,-2.605009 a 1.32292,1.32292 0 0 0 -0.604097,-0.135392 z" />
    <path
       id="path835-3"
       style="fill:#4d4d4d;fill-opacity:1;stroke:none;stroke-width:1.01763;stroke-linecap:round;stroke-linejoin:round;stroke-miterlimit:4;stroke-dasharray:none;stroke-opacity:1"
       d="m 27.211775,22.676135 a 4.5534212,4.5516813 0.00127127 0 0 -4.290177,3.372403 4.5534212,4.5516813 0.00127127 0 0 3.219958,5.574853 4.5534212,4.5516813 0.00127127 0 0 5.57692,-3.218925 4.5534212,4.5516813 0.00127127 0 0 -3.219958,-5.574336 4.5534212,4.5516813 0.00127127 0 0 -1.286743,-0.153995 z m 0.06511,0.969966 a 1.8213683,1.8206724 8.6080489e-4 0 1 0.514696,0.0615 1.8213683,1.8206724 8.6080489e-4 0 1 1.287777,2.229838 1.8213683,1.8206724 8.6080489e-4 0 1 -2.230872,1.287777 1.8213683,1.8206724 8.6080489e-4 0 1 -1.287777,-2.229838 1.8213683,1.8206724 8.6080489e-4 0 1 1.716174,-1.349272 z" />
    <path
       id="path835-3-9"
       style="fill:#4d4d4d;fill-opacity:1;stroke:none;stroke-width:1.01763;stroke-linecap:round;stroke-linejoin:round;stroke-miterlimit:4;stroke-dasharray:none;stroke-opacity:1"
       d="m 40.305032,22.676134 a 4.5534212,4.5516813 0.00127127 0 0 -4.290178,3.372405 4.5534212,4.5516813 0.00127127 0 0 3.219959,5.574853 4.5534212,4.5516813 0.00127127 0 0 5.576921,-3.218925 4.5534212,4.5516813 0.00127127 0 0 -3.21996,-5.574337 4.5534212,4.5516813 0.00127127 0 0 -1.286742,-0.153996 z m 0.06511,0.969967 a 1.8213683,1.8206724 8.6080489e-4 0 1 0.514696,0.0615 1.8213683,1.8206724 8.6080489e-4 0 1 1.287777,2.229838 1.8213683,1.8206724 8.6080489e-4 0 1 -2.230872,1.287777 1.8213683,1.8206724 8.6080489e-4 0 1 -1.287777,-2.229838 1.8213683,1.8206724 8.6080489e-4 0 1 1.716175,-1.349272 z" />
    <path
       style="color:#000000;fill:#4d4d4d;fill-opacity:1;stroke-linecap:round;-inkscape-stroke:none"
       d="m 24.460937,44.283203 c -7.107408,0.22954 -10.388297,5.261696 -9.947265,8.84375 0.127047,1.031878 0.741899,1.8763 1.457031,2.417969 0.715132,0.541669 1.535738,0.858628 2.361328,1.072265 1.65118,0.427275 3.268165,0.465304 4.445313,0.201172 0.935497,-0.209908 1.500953,-0.703169 2.25,-1.294922 0.749046,-0.591752 1.545175,-1.311683 2.287109,-2.015625 1.483868,-1.407883 2.751953,-2.759765 2.751953,-2.759765 a 1.322915,1.322915 0 0 0 -0.0625,-1.871094 1.322915,1.322915 0 0 0 -1.86914,0.0625 c 0,0 -1.225228,1.305519 -2.640625,2.648438 -0.707699,0.671459 -1.464033,1.351093 -2.107422,1.859375 -0.643389,0.508282 -1.311055,0.816347 -1.189453,0.789062 -0.450645,0.101117 -2.006671,0.129413 -3.201172,-0.179687 -0.597251,-0.154551 -1.118779,-0.387079 -1.427735,-0.621094 -0.308955,-0.234015 -0.400216,-0.391496 -0.429687,-0.63086 -0.185043,-1.502918 1.528801,-5.687073 7.408203,-5.876953 A 1.322915,1.322915 0 0 0 25.826172,45.5625 1.322915,1.322915 0 0 0 24.460937,44.283203 Z"
       id="path9" />
    <path
       id="path951-0-0"
       style="font-variation-settings:normal;vector-effect:none;fill:none;fill-opacity:1;stroke:#4d4d4d;stroke-width:2.64584;stroke-linecap:round;stroke-linejoin:round;stroke-miterlimit:4;stroke-dasharray:none;stroke-dashoffset:0;stroke-opacity:1;-inkscape-stroke:none;stop-color:#000000"
       d="m 44.672939,46.594837 c 0.900985,-1.50126 -0.388001,-3.751564 -1.456667,-5.505111 -1.068655,-1.753551 -3.34684,-2.849044 -4.394167,-2.949413 -0.725065,-0.06949 -1.637258,0.05902 -2.359429,0.619079 0,0 -1.717432,-0.569573 -2.603019,-0.478246 -0.885586,0.09132 -3.542271,0.876734 -4.685915,2.965733 -1.143643,2.089003 -0.359033,2.905373 -0.355111,4.598485 0.004,1.693112 0.901644,3.830921 3.807124,5.76181 2.905481,1.93089 8.185609,1.085214 8.704657,0.27054"
       sodipodi:nodetypes="czsczzzzc" />
    <path
       style="color:#000000;fill:#4d4d4d;fill-opacity:1;stroke-linecap:round;-inkscape-stroke:none"
       d="m 44.615234,45.273437 a 1.322915,1.322915 0 0 0 -1.263672,1.378907 1.322915,1.322915 0 0 0 1.378907,1.263672 c 0,0 2.219488,-0.06124 4.074218,0.65039 0.927366,0.355814 1.700485,0.874685 2.152344,1.580078 0.45186,0.705394 0.692833,1.658214 0.310547,3.291016 -0.07747,0.330889 -0.162776,0.411959 -0.433594,0.558594 -0.270818,0.146635 -0.760791,0.266972 -1.357422,0.296875 -1.175097,0.05889 -2.639388,-0.201433 -3.667968,-0.34375 -0.01364,-0.06074 -0.01403,-0.09769 -0.154297,-0.416016 -0.395422,-0.897421 -1.454194,-2.043737 -3.882813,-2.902344 a 1.322915,1.322915 0 0 0 -1.6875,0.806641 1.322915,1.322915 0 0 0 0.804688,1.6875 c 2.053501,0.725989 2.19755,1.142806 2.34375,1.474609 0.0731,0.165902 0.0921,0.45649 0.425781,0.966797 0.33368,0.510308 1.064102,0.906226 1.736328,0.998047 0.879159,0.120086 2.551358,0.454368 4.212891,0.371094 0.830766,-0.04164 1.686612,-0.180273 2.486328,-0.613281 0.799716,-0.433009 1.50925,-1.252972 1.75,-2.28125 0.50274,-2.147282 0.202031,-3.979363 -0.658203,-5.322266 -0.860234,-1.342903 -2.168988,-2.135887 -3.433594,-2.621094 -2.529212,-0.970413 -5.136719,-0.824219 -5.136719,-0.824219 z"
       id="path11" />
  </g>
</svg>
