<?xml version="1.0" encoding="UTF-8" standalone="no"?>
<svg
   width="256"
   height="256"
   viewBox="0 0 67.733331 67.733331"
   version="1.1"
   id="svg8"
   inkscape:version="1.3.2 (091e20e, 2023-11-25, custom)"
   sodipodi:docname="1F640_plain.svg"
   xmlns:inkscape="http://www.inkscape.org/namespaces/inkscape"
   xmlns:sodipodi="http://sodipodi.sourceforge.net/DTD/sodipodi-0.dtd"
   xmlns="http://www.w3.org/2000/svg"
   xmlns:svg="http://www.w3.org/2000/svg"
   xmlns:rdf="http://www.w3.org/1999/02/22-rdf-syntax-ns#"
   xmlns:cc="http://creativecommons.org/ns#"
   xmlns:dc="http://purl.org/dc/elements/1.1/">
  <defs
     id="defs2" />
  <sodipodi:namedview
     id="base"
     pagecolor="#ffffff"
     bordercolor="#666666"
     borderopacity="1.0"
     inkscape:pageopacity="0.0"
     inkscape:pageshadow="2"
     inkscape:zoom="1.4941407"
     inkscape:cx="188.06796"
     inkscape:cy="153.93463"
     inkscape:document-units="px"
     inkscape:current-layer="g21896"
     inkscape:document-rotation="0"
     showgrid="false"
     inkscape:window-width="2108"
     inkscape:window-height="2041"
     inkscape:window-x="2017"
     inkscape:window-y="122"
     inkscape:window-maximized="0"
     units="px"
     inkscape:snap-object-midpoints="false"
     inkscape:showpageshadow="2"
     inkscape:pagecheckerboard="0"
     inkscape:deskcolor="#d1d1d1" />
  <metadata
     id="metadata5">
    <rdf:RDF>
      <cc:Work
         rdf:about="">
        <dc:format>image/svg+xml</dc:format>
        <dc:type
           rdf:resource="http://purl.org/dc/dcmitype/StillImage" />
        <cc:license
           rdf:resource="http://creativecommons.org/publicdomain/zero/1.0/" />
        <dc:creator>
          <cc:Agent>
            <dc:title>Dexterux</dc:title>
          </cc:Agent>
        </dc:creator>
        <dc:publisher>
          <cc:Agent>
            <dc:title>Dexterux</dc:title>
          </cc:Agent>
        </dc:publisher>
      </cc:Work>
      <cc:License
         rdf:about="http://creativecommons.org/publicdomain/zero/1.0/">
        <cc:permits
           rdf:resource="http://creativecommons.org/ns#Reproduction" />
        <cc:permits
           rdf:resource="http://creativecommons.org/ns#Distribution" />
        <cc:permits
           rdf:resource="http://creativecommons.org/ns#DerivativeWorks" />
      </cc:License>
    </rdf:RDF>
  </metadata>
  <g
     inkscape:groupmode="layer"
     id="layer2"
     inkscape:label="Layer 2"
     sodipodi:insensitive="true"
     style="display:none">
    <path
       style="fill:none;stroke:#000000;stroke-width:0.264583px;stroke-linecap:butt;stroke-linejoin:miter;stroke-opacity:1"
       d="M 114.81026,9.8378651 C 114.58978,9.708378 114.3926,9.5264997 114.1488,9.4494044 c -0.18019,-0.056982 -0.37943,0.023442 -0.56696,0 -0.31874,-0.039842 -0.62923,-0.1297914 -0.94494,-0.1889882 -0.13896,-0.026053 -0.75804,-0.1088885 -0.94494,-0.1889882 -0.10439,-0.044736 -0.17804,-0.1468101 -0.28348,-0.1889879 -0.0585,-0.023397 -0.13265,0.028173 -0.18899,0 -0.0797,-0.039842 -0.11486,-0.13957 -0.18899,-0.1889881 -0.0262,-0.017473 -0.0683,0.017473 -0.0945,0 -0.0741,-0.049418 -0.11942,-0.1333341 -0.18899,-0.1889882 -0.17736,-0.1418902 -0.37798,-0.2519841 -0.56697,-0.377976 -0.37573,-0.2504898 -0.76584,-0.4930325 -1.13392,-0.7559524 -0.51231,-0.3659293 -1.00284,-0.7636981 -1.51191,-1.1339285 -0.0918,-0.066797 -0.1948,-0.118043 -0.28348,-0.1889881 -0.0696,-0.055654 -0.11942,-0.1333341 -0.18899,-0.1889882 -0.0887,-0.070945 -0.1861,-0.1305578 -0.28348,-0.1889881 -0.0604,-0.036237 -0.13399,-0.050496 -0.18899,-0.094494 -0.10435,-0.083481 -0.17229,-0.2093549 -0.28348,-0.2834822 -0.16576,-0.1105024 -0.39282,-0.092243 -0.56697,-0.1889882 -0.18898,-0.1259919 -0.37797,-0.2519841 -0.56696,-0.377976 -0.063,-0.062996 -0.11486,-0.1395701 -0.18899,-0.1889882 -0.37608,-0.2507178 -0.30868,-0.1322916 -0.66146,-0.283482 -0.88075,-0.3774654 0.11513,-0.034603 -0.75595,-0.2834822 -0.0958,-0.027364 -0.18523,-0.078119 -0.28348,-0.094494 -0.002,-2.646e-4 -0.41673,0.018579 -0.47247,0 -0.36751,-0.1225034 -0.006,-0.1328584 -0.56697,-0.1889881 -0.18805,-0.018804 -0.37797,0 -0.56696,0 -0.53547,0 -1.07093,0 -1.6064,0 -0.125989,0 -0.251984,0 -0.377976,0 -0.0315,0 -0.07222,-0.022273 -0.09449,0 -0.02228,0.022273 0,0.062996 0,0.094494 0,0.031498 0,0.062996 0,0.094494 0,0.031498 -0.02228,0.072222 0,0.094494 0.02228,0.022273 0.06632,-0.014086 0.09449,0 0.07968,0.039842 0.114861,0.1395698 0.188989,0.1889882 0.0586,0.039068 0.132647,0.052235 0.188987,0.094494 0.0713,0.053454 0.11486,0.1395699 0.18899,0.1889879 0.0524,0.034944 0.13264,-0.028173 0.18899,0 0.0722,0.036092 0.21949,0.2621534 0.28348,0.2834823 0.0598,0.01992 0.13264,-0.028173 0.18899,0 0.0282,0.014086 -0.0252,0.075595 0,0.094494 0.91397,0.4569835 -0.0102,-0.054914 0.56696,0.377976 0.23238,0.1742821 0.1851,-0.00584 0.37798,0.2834823 0.0781,0.1172053 0.11085,0.2607706 0.18899,0.377976 0.0494,0.074127 0.14914,0.1093039 0.18898,0.1889882 0.18899,0.377976 -0.0945,0.047247 0,0.283482 0.20308,0.5076861 0.18899,0.2144085 0.18899,0.4724704 0,0.031498 -0.0141,0.066321 0,0.094494 0.0788,0.1575351 0.18899,0.042696 0.18899,0.283482 0,0.031498 0.0223,0.072222 0,0.094494 -0.0223,0.022273 -0.063,0 -0.0945,0 -0.0635,0 -0.7222,0.013504 -0.75596,0 -0.0827,-0.033087 -0.12599,-0.1259919 -0.18898,-0.1889882 -0.0315,-0.031498 -0.063,-0.062996 -0.0945,-0.094494 -0.62596,-0.6259674 -0.01,-0.069461 -0.47247,-0.3779761 -0.0371,-0.024709 -0.0574,-0.069785 -0.0945,-0.094494 -0.0586,-0.039068 -0.13919,-0.044691 -0.18899,-0.094494 -0.0498,-0.049803 -0.0554,-0.1303853 -0.0945,-0.1889879 -0.0247,-0.037064 -0.063,-0.062996 -0.0945,-0.094494 -0.0315,-0.031498 -0.0574,-0.069785 -0.0945,-0.094494 -0.0586,-0.039069 -0.13265,-0.052235 -0.18899,-0.094494 -0.0713,-0.053454 -0.12599,-0.1259919 -0.18899,-0.1889882 -0.063,-0.062996 -0.125989,-0.1259919 -0.188987,-0.1889879 -0.0315,-0.031498 -0.05465,-0.074573 -0.09449,-0.094494 -0.08909,-0.044545 -0.194392,-0.049949 -0.283482,-0.094494 -0.03984,-0.01992 -0.05971,-0.066667 -0.09449,-0.094494 -0.160012,-0.1280081 -0.46963,-0.3573732 -0.661458,-0.4724701 -0.300273,-0.1801633 -0.06942,-0.043068 -0.377979,-0.094494 -0.24,0.080666 -0.3737,-0.1406724 -0.566962,-0.1889882 -0.06112,-0.01528 -0.132643,0.028173 -0.188989,0 -0.233251,-0.1166257 -0.113684,-0.2457259 -0.377976,-0.283482 -0.155908,-0.022273 -0.314981,0 -0.472469,0 -0.283482,0 -0.566965,0 -0.850448,0 -0.220485,0 -0.440973,0 -0.661458,0 -0.063,0 -0.126378,-0.00696 -0.188989,0 -0.221361,0.024596 -0.442325,0.054652 -0.661458,0.094494 -0.127773,0.023233 -0.258607,0.043336 -0.377976,0.094494 -0.104384,0.044737 -0.179097,0.1442517 -0.283483,0.1889882 -0.119366,0.051158 -0.257394,0.046262 -0.377975,0.094494 -0.04136,0.016544 -0.0563,0.071576 -0.09449,0.094494 -1.031615,0.5158073 -0.08427,-0.00767 -0.472469,0.2834819 -0.228057,0.1710426 -0.252621,0.173558 -0.472472,0.2834823 -0.125991,0.062996 -0.258524,0.1143307 -0.377975,0.1889881 -0.133551,0.083469 -0.241237,0.205345 -0.377976,0.283482 -0.08648,0.049418 -0.194392,0.049949 -0.283483,0.094494 -0.03984,0.01992 -0.063,0.062996 -0.09449,0.094494 -0.0945,0.062996 -0.181904,0.138199 -0.283482,0.1889881 -0.544931,0.2724653 -0.02535,-0.1227283 -0.566965,0.283482 -0.03564,0.026727 -0.063,0.062996 -0.09449,0.094494 -0.063,0.062996 -0.133334,0.1194207 -0.188989,0.1889882 -0.07095,0.088681 -0.108683,0.2031775 -0.188986,0.2834819 -0.0498,0.049803 -0.125992,0.062996 -0.18899,0.094494 -0.188986,0.094494 -0.385781,0.1747719 -0.566965,0.2834823 -0.214011,0.128407 -0.430688,0.3570853 -0.661458,0.4724701 -0.08909,0.044545 -0.185809,0.07496 -0.28348,0.094494 -0.06177,0.012353 -0.134972,-0.032411 -0.188989,0 -0.114591,0.068754 -0.176575,0.2033013 -0.283483,0.283482 -0.02519,0.018899 -0.06299,0 -0.09449,0 -0.063,0 -0.129225,-0.01992 -0.188989,0 -0.04226,0.014086 -0.05743,0.069785 -0.09449,0.094494 -0.0586,0.039069 -0.122172,0.072222 -0.18899,0.094494 -0.0521,0.017365 -0.357772,-0.020204 -0.377975,0 -0.02228,0.022273 0,0.062996 0,0.094494 0,0.1649256 -0.02817,0.080408 0.188989,0.1889882 0.125992,0.062996 0.251984,0.1259919 0.377976,0.1889879 0,0.031498 -0.02228,0.072222 0,0.094494 0.02228,0.022273 0.06394,-0.00764 0.09449,0 0.09663,0.024159 0.191003,0.057502 0.283482,0.094494 0.06539,0.026157 0.122172,0.072222 0.18899,0.094494 0.123203,0.041068 0.253103,0.058816 0.377975,0.094494 0.09577,0.027364 0.185812,0.07496 0.283483,0.094494 0.06177,0.012353 0.129225,-0.019921 0.188986,0 1.34859,0.4495294 0.185976,0.092987 0.944941,0.4724701 0.02817,0.014086 0.06632,-0.014086 0.09449,0 0.101578,0.050789 0.178038,0.1468104 0.283482,0.1889884 0.05849,0.0234 0.134969,-0.03241 0.188989,0 0.114591,0.06875 0.167455,0.21718 0.283483,0.283482 0.285543,0.07139 0.349001,0.05821 0.566962,0.188988 0.09738,0.05843 0.181907,0.138199 0.283483,0.188988 0.02817,0.01409 0.06632,-0.01409 0.0945,0 0.03984,0.01992 0.05743,0.06978 0.09449,0.09449 0.117205,0.07814 0.260771,0.110851 0.377976,0.188988 0.08602,0.05735 0.199728,0.241605 0.283482,0.283482 0.02817,0.01409 0.06632,-0.01409 0.09449,0 0.393261,0.196631 -0.101017,-0.0065 0.09449,0.188988 0.04454,0.04454 0.132643,-0.02817 0.188989,0 0.208931,0.104466 0.02932,0.05865 0.09449,0.188988 0.08864,0.177285 0.121222,0.04041 0.283483,0.09449 0.161311,0.05377 0.09449,0.278078 0.09449,0.377977 0,0.063 0,0.125992 0,0.188988 0,0.0315 0,0.063 0,0.09449 0,0.0315 0.02228,0.07222 0,0.09449 -0.02228,0.02227 -0.063,0 -0.09449,0 -0.063,0 -0.125992,0 -0.188987,0 -0.15749,0 -0.314981,0 -0.472472,0 -0.06299,0 -0.130497,-0.0234 -0.188986,0 -0.130789,0.05232 -0.251987,0.125992 -0.377979,0.188988 -0.06299,0.0315 -0.130384,0.05542 -0.188986,0.09449 -0.03706,0.02471 -0.05886,0.06777 -0.09449,0.09449 -0.09086,0.06814 -0.19263,0.120847 -0.283483,0.188988 -0.03564,0.02673 -0.05465,0.07457 -0.0945,0.09449 -0.02817,0.01409 -0.06828,-0.01747 -0.09449,0 -0.07413,0.04942 -0.125992,0.125992 -0.188987,0.188988 -0.0945,0.09449 -0.18202,0.196514 -0.283482,0.283482 -0.119576,0.102493 -0.258403,0.180989 -0.377976,0.283482 -0.101465,0.08697 -0.188989,0.188989 -0.283482,0.283482 -0.157491,0.157491 -0.329886,0.301369 -0.472472,0.472471 -0.173461,0.208154 -0.299008,0.453304 -0.472469,0.661458 -0.142584,0.171102 -0.338836,0.294291 -0.472472,0.47247 -0.367744,0.490328 -0.346707,0.638353 -0.566962,1.133929 -0.05721,0.128722 -0.125992,0.251984 -0.18899,0.377976 -0.0315,0.063 -0.07741,0.120659 -0.09449,0.188988 -0.01527,0.06112 0.0089,0.126625 0,0.188988 -0.05981,0.418687 -0.106606,0.555812 -0.283482,0.944941 -0.08743,0.192355 -0.174771,0.38578 -0.283483,0.566964 -0.162055,0.270093 -0.410689,0.482473 -0.566965,0.755952 -0.04942,0.08648 -0.05328,0.192805 -0.09449,0.283482 -0.116578,0.256475 -0.259916,0.500156 -0.377976,0.755953 -0.07108,0.15401 -0.125992,0.31498 -0.188989,0.47247 -0.09985,0.249624 -0.209415,0.496719 -0.28348,0.755952 -0.03568,0.124873 -0.05882,0.253104 -0.0945,0.377976 -0.05473,0.191546 -0.125992,0.377976 -0.188987,0.566965 -0.0315,0.09449 -0.05526,0.19193 -0.0945,0.283482 -0.108071,0.252172 -0.329104,0.635401 -0.472469,0.850446 -0.08736,0.13104 -0.202453,0.24293 -0.283482,0.377976 -0.108709,0.181184 -0.182303,0.381469 -0.283483,0.566965 -0.08795,0.161237 -0.194286,0.311919 -0.283482,0.47247 -0.102613,0.184705 -0.174771,0.38578 -0.28348,0.566964 -0.05843,0.09738 -0.125992,0.188987 -0.188989,0.283483 -0.125992,0.188987 -0.245957,0.382135 -0.377976,0.566963 -0.0259,0.03625 -0.06979,0.05743 -0.09449,0.0945 -0.232127,0.03369 -0.03924,0.200604 -0.0945,0.283479 -0.04942,0.07413 -0.125992,0.125992 -0.188987,0.18899 -0.063,0.063 -0.125992,0.125992 -0.188989,0.188989 -0.063,0.06299 -0.112593,0.14315 -0.188987,0.188986 -0.12437,0.07462 -0.303106,0.03925 -0.377978,0.18899 -0.01408,0.02817 0.02228,0.07222 0,0.09449 -0.02228,0.02228 -0.07222,-0.02228 -0.09449,0 -0.02228,0.02228 0,0.063 0,0.09449 0,0.0315 -0.01408,0.06632 0,0.0945 0.01992,0.03984 0.063,0.06299 0.09449,0.09449 0.0315,0.0315 0.05465,0.07457 0.0945,0.09449 0.02817,0.01408 0.063,0 0.09449,0 0.0315,0 0.063,0 0.09449,0 0.157491,0 0.314982,0 0.472472,0 0.0315,0 0.06361,-0.0062 0.09449,0 0.127346,0.02548 0.249872,0.07314 0.377975,0.09449 0.06214,0.01037 0.125992,0 0.18899,0 0.09449,0 0.188986,0 0.283482,0 0.188987,0 0.377976,0 0.566962,0 0.125992,0 0.253699,-0.02072 0.377976,0 0.128103,0.02135 0.249875,0.07314 0.377979,0.0945 0.118184,0.01969 0.55454,0 0.661458,0 0.207595,0 0.666332,0.02045 0.850445,0 0.159626,-0.01773 0.316656,-0.05554 0.472472,-0.0945 0.204943,-0.05123 0.412993,-0.129511 0.566962,-0.28348 0.02228,-0.02228 -0.01408,-0.06632 0,-0.0945 0.01992,-0.03984 0.063,-0.06299 0.0945,-0.09449 0.0315,-0.0315 0.05886,-0.06777 0.09449,-0.09449 0.09085,-0.06814 0.192627,-0.120849 0.283483,-0.18899 0.03563,-0.02672 0.05465,-0.07457 0.09449,-0.09449 0.02817,-0.01408 0.06461,0.0099 0.09449,0 0.06682,-0.02228 0.122172,-0.07222 0.188989,-0.09449 0.02988,-0.0099 0.07222,0.02228 0.09449,0 0.02228,-0.02228 0.0315,-0.0945 0,-0.0945 -0.0315,0 0,0.063 0,0.0945 0,0.0315 0,0.06299 0,0.09449 0,0.769697 0,0.364231 0,1.133927 0,0.125992 0,0.251984 0,0.377976 0,0.063 0.01527,0.127873 0,0.18899 -0.01709,0.06833 -0.063,0.125991 -0.09449,0.188989 -0.063,0.125992 -0.154823,0.241318 -0.188989,0.377976 -0.351562,1.406255 0.472869,-0.851639 -0.09449,0.850444 -0.07586,0.227574 -0.207624,0.433888 -0.283483,0.661459 -0.08214,0.246411 -0.130582,0.502864 -0.188986,0.755954 -0.03612,0.156496 -0.0381,0.322085 -0.0945,0.472469 -0.03987,0.106336 -0.138197,0.181904 -0.188987,0.283483 -0.04454,0.08909 -0.05952,0.190219 -0.0945,0.283482 -0.05956,0.158821 -0.118798,0.31805 -0.188986,0.472469 -0.08743,0.192357 -0.211275,0.36839 -0.283483,0.566965 -0.05489,0.15094 -0.04834,0.318635 -0.09449,0.472469 -0.04079,0.135975 -0.457745,1.107422 -0.472472,1.13393 -0.112138,0.201851 -0.249272,0.138507 -0.283482,0.377976 -0.02228,0.155906 0,0.314979 0,0.472469 0,0.125992 0.02471,0.254431 0,0.377976 -0.03907,0.195344 -0.13657,0.374774 -0.188987,0.566965 -0.04226,0.15495 -0.03961,0.321532 -0.09449,0.472472 -0.07221,0.198572 -0.20501,0.370781 -0.283483,0.566962 -0.09646,0.241162 -0.106852,0.509542 -0.188989,0.755954 -0.05364,0.160917 -0.140247,0.310002 -0.188986,0.472469 -0.04615,0.153837 -0.03961,0.321533 -0.0945,0.472469 -0.07221,0.198575 -0.188987,0.377979 -0.283483,0.566965 -0.0315,0.063 -0.07222,0.122172 -0.09449,0.18899 -0.0099,0.02988 0.01408,0.06632 0,0.09449 -0.05079,0.101579 -0.130559,0.186097 -0.188987,0.283482 -0.03624,0.06039 -0.05543,0.130384 -0.0945,0.188987 -0.02471,0.03706 -0.07457,0.05465 -0.09449,0.0945 -0.04454,0.08909 -0.0575,0.191 -0.09449,0.283482 -0.02617,0.06539 -0.07222,0.122169 -0.0945,0.188987 -0.138502,0.415507 -0.02574,0.369334 -0.28348,0.755952 -0.09884,0.148256 -0.279141,0.229721 -0.377978,0.377978 -0.01746,0.02622 0.01407,0.06632 0,0.09449 -0.144082,0.288166 -0.07491,-0.172826 -0.188987,0.283483 0,0.430162 0.04454,0.0054 -0.09449,0.283482 -0.01408,0.02817 0.01408,0.06632 0,0.09449 -0.01992,0.03984 -0.07457,0.05465 -0.0945,0.09449 -0.03292,0.06584 -0.134813,0.351507 -0.09449,0.472472 0.209986,0.629959 -0.0525,-0.220488 0.283482,0.283479 0.03494,0.05242 -0.02817,0.132644 0,0.18899 0.01408,0.02817 0.07222,-0.02228 0.09449,0 0.0498,0.0498 0.04469,0.139184 0.09449,0.188989 0.02228,0.02228 0.063,0 0.0945,0 0.06299,0.063 0.13957,0.114861 0.188986,0.188986 0.01746,0.02622 -0.02228,0.07222 0,0.09449 0.04454,0.04454 0.144444,-0.04454 0.188989,0 0.0498,0.0498 0.04469,0.139186 0.09449,0.188989 0.02228,0.02228 0.063,0 0.09449,0 0.0315,0 0.063,0 0.0945,0 0.05424,0 0.347009,0.01857 0.377976,0 0.680741,-0.408445 0.197342,-0.105632 0.472469,-0.472469 0.196318,-0.261758 0.36522,-0.260871 0.661458,-0.472472 0.0725,-0.05178 0.109305,-0.149145 0.188989,-0.188986 0.116158,-0.05808 0.261816,-0.03641 0.377976,-0.0945 0.913966,-0.685475 -0.06003,-0.01723 0.661458,-0.377976 0.101579,-0.05079 0.174284,-0.15779 0.283483,-0.188987 0.121145,-0.03461 0.252957,0.01564 0.377976,0 0.91114,-0.113892 -0.168254,-0.05243 0.755951,-0.283482 0.122232,-0.03056 0.251984,0 0.377976,0 0.283482,0 0.566965,0 0.850448,0 0.125991,0 0.251983,0 0.377975,0 0.0315,0 0.09449,0.0315 0.09449,0 0,-0.0315 -0.063,0 -0.09449,0 -0.0315,0 -0.07222,-0.02228 -0.09449,0 -0.0803,0.0803 -0.130559,0.186097 -0.188989,0.283482 -0.130654,0.217755 -0.286814,0.42444 -0.377976,0.661459 -0.07829,0.203549 -0.188185,1.492633 -0.188987,1.511903 -0.01836,0.440589 0.02201,0.882494 0,1.322916 -0.0474,0.948103 -0.08971,0.199771 -0.283482,1.039434 -0.0571,0.247444 -0.063,0.503968 -0.0945,0.755955 -0.0315,0.251984 -0.06645,0.50356 -0.09449,0.755951 -0.0035,0.03131 0.01408,0.06632 0,0.09449 -0.05079,0.101578 -0.125992,0.188989 -0.188987,0.283482 -0.176776,0.265163 -0.572601,0.808109 -0.661458,1.133927 -0.04144,0.151943 0.03416,0.318731 0,0.472472 -0.09621,0.432933 -0.173263,0.29401 -0.377979,0.566965 -0.07668,0.102238 -0.112307,0.275736 -0.188986,0.377976 -0.05345,0.07127 -0.135536,0.117716 -0.188989,0.188987 -0.04226,0.05635 -0.05223,0.132643 -0.09449,0.188989 -0.05345,0.07127 -0.13957,0.114861 -0.188989,0.188986 -0.685136,1.370275 0.199213,-0.298815 -0.377976,0.566965 -0.01746,0.02622 0,0.063 0,0.09449 -0.0315,0.063 -0.0505,0.13399 -0.09449,0.188989 -0.08348,0.104352 -0.203301,0.176575 -0.283483,0.283482 -0.01889,0.02519 0.01746,0.06829 0,0.09449 -0.04942,0.07413 -0.125991,0.125992 -0.188986,0.188989 -0.0315,0.0315 -0.05743,0.06978 -0.0945,0.09449 -0.0586,0.03907 -0.149918,0.03589 -0.188987,0.09449 -0.03494,0.05242 0.03494,0.136573 0,0.18899 -0.03907,0.0586 -0.14673,0.03815 -0.188989,0.09449 -0.536252,0.715002 0.511921,-0.195805 -0.377976,0.566965 -0.119575,0.102492 -0.254997,0.185097 -0.377975,0.283483 -0.03478,0.02783 -0.06979,0.05743 -0.09449,0.09449 -0.03907,0.0586 -0.04469,0.139184 -0.0945,0.188989 -0.281966,0.281966 -0.269975,0.05398 -0.377975,0.377976 -0.0099,0.02988 0,0.06299 0,0.09449 0,0.063 0,0.125992 0,0.188989 0,0.125992 -0.04963,0.262171 0,0.377976 0.06204,0.144756 0.185099,0.254998 0.283482,0.377976 0.0315,0.0315 0.063,0.063 0.09449,0.09449 0.0315,0 0.07222,-0.02228 0.0945,0 0.125992,0.125992 -0.200453,0.09067 0.09449,0.188989 0.05976,0.01992 0.125992,0 0.188986,0 0.063,0 0.125992,0 0.188989,0 0.399902,0 0.775629,-0.104333 1.133928,-0.283482 0.164274,-0.08214 0.301945,-0.215273 0.472472,-0.283483 0.149121,-0.05965 0.322087,-0.0381 0.472469,-0.09449 0.0049,-0.0019 0.552317,-0.369607 0.566965,-0.377976 0.122303,-0.06989 0.254838,-0.120581 0.377975,-0.188989 0.160552,-0.08919 0.311232,-0.195535 0.472472,-0.283482 1.20628,-0.657971 0.107553,-0.134904 0.850445,-0.283483 0.138128,-0.02763 0.244343,-0.144441 0.377976,-0.188986 0.123206,-0.04107 0.261818,-0.03641 0.377976,-0.0945 0.140864,-0.07043 0.237114,-0.213051 0.377978,-0.28348 0.178178,-0.08909 0.384921,-0.108083 0.566962,-0.18899 1.051642,-0.467394 -0.207354,0.06102 0.377976,-0.377975 0.07968,-0.05976 0.198073,-0.04325 0.283483,-0.09449 0.0764,-0.04584 0.125992,-0.125992 0.188989,-0.188989 0.063,-0.063 0.13957,-0.114861 0.188986,-0.188989 0.01746,-0.02622 -0.02228,-0.07222 0,-0.09449 0.02228,-0.02228 0.063,0 0.0945,0 0.220486,0 0.440971,0 0.661459,0 0.06299,0 0.129225,-0.01992 0.188986,0 0.175064,0.05836 0.05649,0.263967 0.0945,0.377975 0.01408,0.04226 0.08819,0.0504 0.09449,0.0945 0.02672,0.187087 -0.01881,0.378913 0,0.566963 0.02585,0.25845 0.152254,0.498824 0.188986,0.755954 0.01336,0.09354 0,0.188987 0,0.28348 0,0.376298 0,0.190669 0,0.566965 0,0.106593 0.01614,0.629195 0,0.661458 -0.19663,0.393261 0.0065,-0.101018 -0.188986,0.09449 -0.02228,0.02228 0,0.063 0,0.0945 0,0.0315 0,0.063 0,0.09449 0,0.0315 -0.02228,0.07222 0,0.09449 0.02228,0.02228 0.06299,0 0.09449,0 0.05436,0 0.539139,0.01855 0.566965,0 1.614037,-1.076026 -0.506934,0.114599 0.661458,-0.566962 0.280117,-0.163402 0.564917,-0.318725 0.850445,-0.472472 0.124026,-0.06678 0.267981,-0.100992 0.377978,-0.188987 0.055,-0.044 0.063,-0.125992 0.09449,-0.188989 0.15749,-0.125992 0.311121,-0.256966 0.472469,-0.377976 0.321566,-0.241175 0.688924,-0.435932 0.944941,-0.755951 0.07094,-0.08868 0.125992,-0.18899 0.188989,-0.283483 0.06299,-0.0945 0.130556,-0.1861 0.188986,-0.283482 0.03624,-0.06039 0.05224,-0.132644 0.0945,-0.18899 0.05345,-0.07127 0.139568,-0.11486 0.188987,-0.188986 0.03494,-0.05242 -0.02817,-0.132644 0,-0.188989 0.063,-0.09449 0.125992,-0.188987 0.188989,-0.283483 0,-0.0315 -0.01408,-0.06632 0,-0.09449 0.0567,-0.113393 0.226785,-0.17009 0.283483,-0.283483 0.0378,-0.07559 -0.0378,-0.207885 0,-0.283482 0.01992,-0.03984 0.055,-0.07388 0.09449,-0.09449 0.383196,-0.199996 0.778378,-0.376129 1.167569,-0.564195"
       id="path2449" />
  </g>
  <g
     inkscape:label="Layer 1"
     inkscape:groupmode="layer"
     id="layer1">
    <g
       id="g21896"
       transform="matrix(1.0443201,0,0,1.0016724,-1.5011301,-0.0568618)"
       style="stroke-width:0.977733">
      <path
         id="path1035"
         style="color:#000000;fill:#4d4d4d;-inkscape-stroke:none"
         d="M 13.395069 7.7173884 C 13.082436 7.7201197 12.736966 7.7919859 12.377197 8.0331201 C 11.542573 8.5925241 11.60286 9.0987509 11.495899 9.6231286 C 11.388937 10.147506 11.333621 10.753182 11.306872 11.459222 C 11.253374 12.871305 11.330702 14.668163 11.552805 16.621333 C 11.988101 20.449265 12.929707 24.824319 14.802374 27.884494 C 15.217684 26.823041 15.690402 25.801185 16.214134 24.830357 C 15.182972 22.422206 14.451672 19.218868 14.122968 16.328301 C 13.913655 14.487618 13.84574 12.787675 13.892376 11.556727 C 13.909976 11.092122 13.955533 10.783046 13.99827 10.486232 C 14.04763 10.505532 14.059628 10.50232 14.113072 10.52544 C 14.688697 10.774495 15.480166 11.229571 16.269555 11.757929 C 17.058944 12.286288 17.855957 12.891224 18.498284 13.437704 C 19.140611 13.984186 19.647696 14.528712 19.748233 14.677932 C 20.349149 15.569831 21.076563 16.334282 21.542993 16.960796 C 21.776207 17.274052 21.937422 17.548498 22.000219 17.708853 C 22.031139 17.787805 22.039303 17.82461 22.041785 17.838344 C 21.996696 17.981305 21.88157 18.337681 21.733504 18.780896 C 22.59601 18.333086 23.546089 17.995317 24.613433 17.74445 C 24.597522 17.390893 24.521246 17.054761 24.408077 16.765785 C 24.20615 16.250134 23.921643 15.823828 23.619313 15.417734 C 23.014654 14.605547 22.315877 13.860992 21.892345 13.232376 C 21.48066 12.621336 20.905111 12.087471 20.175769 11.466961 C 19.446426 10.846449 18.584355 10.19508 17.709025 9.6091992 C 16.833695 9.0233187 15.956586 8.5052392 15.14084 8.1522934 C 14.732969 7.9758204 14.343821 7.8362615 13.918107 7.7653672 C 13.758466 7.7387821 13.582648 7.7157496 13.395069 7.7173884 z M 54.338561 7.7173884 C 54.151325 7.7157496 53.976155 7.738782 53.816512 7.7653672 C 53.3908 7.8362612 53.001652 7.9758204 52.593779 8.1522934 C 51.778034 8.5052392 50.900925 9.0233187 50.025595 9.6091992 C 49.150265 10.19508 48.287698 10.846449 47.558356 11.466961 C 46.829014 12.087471 46.251487 12.621337 45.8398 13.232376 C 45.41627 13.860993 44.719966 14.605547 44.115306 15.417734 C 43.812979 15.823828 43.526003 16.250134 43.324068 16.765785 C 43.210956 17.054622 43.134682 17.390566 43.118712 17.743934 C 44.186667 17.994838 45.137217 18.332877 46.000126 18.780896 C 45.85241 18.337686 45.737413 17.981305 45.69234 17.838344 C 45.694823 17.824611 45.703485 17.787804 45.734401 17.708853 C 45.797201 17.548498 45.956435 17.274051 46.189647 16.960796 C 46.656075 16.334283 47.38547 15.56983 47.986387 14.677932 C 48.086925 14.528711 48.592028 13.984186 49.234356 13.437704 C 49.876686 12.891224 50.675674 12.286288 51.465065 11.757929 C 52.254454 11.229571 53.045427 10.774495 53.621053 10.52544 C 53.674493 10.50232 53.686985 10.505532 53.736349 10.486232 C 53.779089 10.783046 53.82415 11.092122 53.841749 11.556727 C 53.888389 12.787675 53.820475 14.487618 53.611156 16.328301 C 53.282519 19.218294 52.550399 22.420857 51.519001 24.82881 C 52.043181 25.800322 52.515662 26.823247 52.931255 27.885526 C 54.80441 24.825296 55.746461 20.449762 56.181815 16.621333 C 56.403921 14.668163 56.481246 12.871305 56.427747 11.459222 C 56.401004 10.753182 56.343209 10.147506 56.236247 9.6231286 C 56.129286 9.0987509 56.190068 8.5925241 55.355444 8.0331201 C 54.995673 7.7919862 54.650622 7.7201198 54.338561 7.7173884 z " />
      <path
         style="fill:none;stroke:#4d4d4d;stroke-width:2.06953;stroke-linecap:round;stroke-linejoin:miter;stroke-dasharray:none;stroke-opacity:1"
         d="m 27.784926,17.251935 c 1.412441,3.26434 1.579607,7.537689 1.579607,7.537689"
         id="path1409" />
      <path
         style="fill:none;stroke:#4d4d4d;stroke-width:2.06953;stroke-linecap:round;stroke-linejoin:miter;stroke-dasharray:none;stroke-opacity:1"
         d="m 39.948704,17.251935 c -1.412442,3.26434 -1.579607,7.537689 -1.579607,7.537689"
         id="path1409-2" />
      <path
         style="font-variation-settings:normal;fill:none;fill-opacity:1;stroke:#4d4d4d;stroke-width:2.06953;stroke-linecap:round;stroke-linejoin:miter;stroke-miterlimit:4;stroke-dasharray:none;stroke-dashoffset:0;stroke-opacity:1;stop-color:#000000"
         d="m 33.866815,16.982579 v 8.871655"
         id="path1460" />
      <path
         id="path202-4-6"
         style="color:#000000;fill:#4d4d4d;-inkscape-stroke:none"
         d="M 33.86731 15.752039 C 29.151572 15.752039 25.732947 15.923811 22.900321 16.878767 C 20.067691 17.833723 17.92448 19.650202 16.078055 22.504158 C 12.510825 28.017886 10.821245 35.565934 11.411777 41.944874 C 10.548532 41.796705 10.03713 41.650294 10.03713 41.650294 A 1.03477 1.03477 0 0 0 8.7500691 42.347793 A 1.03477 1.03477 0 0 0 9.4472891 43.634968 C 9.4472891 43.634968 10.349723 43.899554 11.821004 44.099795 C 12.244967 45.347616 13.0012 46.582191 13.944828 47.813254 C 13.922445 45.777746 14.221441 43.852907 15.174489 42.665589 C 15.297944 42.511787 15.421285 42.370543 15.545119 42.234811 C 15.018298 42.247087 14.507821 42.246778 14.037362 42.225525 C 13.36868 36.428369 14.981231 28.960664 18.249878 23.908441 C 19.890707 21.37227 21.420194 20.107917 23.726692 19.330331 C 26.033191 18.552748 29.222504 18.339801 33.86731 18.339801 C 38.512113 18.339801 41.70143 18.552748 44.007928 19.330331 C 46.314424 20.107917 47.841433 21.37227 49.482268 23.908441 C 52.750905 28.960665 54.365431 36.42837 53.696762 42.225525 C 53.226207 42.246789 52.715436 42.247078 52.188511 42.234811 C 52.312345 42.370543 52.435686 42.511787 52.559141 42.665589 C 53.511868 43.852508 53.81096 45.776445 53.788801 47.81119 C 54.731804 46.580791 55.487905 45.346938 55.911636 44.099795 C 57.38274 43.899551 58.285351 43.634968 58.285351 43.634968 A 1.03477 1.03477 0 0 0 58.982571 42.347793 A 1.03477 1.03477 0 0 0 57.697489 41.650294 C 57.697489 41.650294 57.185206 41.797136 56.320863 41.94539 C 56.911537 35.566339 55.221405 28.018032 51.654091 22.504158 C 49.807663 19.650203 47.666431 17.833723 44.833804 16.878767 C 42.001178 15.923811 38.583048 15.752039 33.86731 15.752039 z M 24.336821 40.045325 A 1.03477 1.03477 0 0 0 23.949367 40.158307 C 23.27394 40.509273 22.598235 40.789488 21.925994 41.038435 C 22.744265 41.333268 23.623874 41.726339 24.556527 42.157942 C 24.672527 42.100549 24.788426 42.054145 24.904395 41.993885 A 1.03477 1.03477 0 0 0 25.345786 40.599403 A 1.03477 1.03477 0 0 0 24.738131 40.089692 A 1.03477 1.03477 0 0 0 24.336821 40.045325 z M 43.395324 40.045325 A 1.03477 1.03477 0 0 0 42.994014 40.089692 A 1.03477 1.03477 0 0 0 42.388833 40.599403 A 1.03477 1.03477 0 0 0 42.830224 41.993885 C 42.946063 42.054077 43.061729 42.100611 43.177597 42.157942 C 44.109699 41.726598 44.9888 41.333694 45.806646 41.038951 C 45.13438 40.790004 44.458694 40.509269 43.783273 40.158307 A 1.03477 1.03477 0 0 0 43.395324 40.045325 z M 25.457619 54.295556 C 24.986823 54.899682 24.391455 55.651275 23.814772 56.379798 C 27.290041 58.53297 30.871095 60.01742 33.86731 60.01742 C 36.863357 60.01742 40.444265 58.533291 43.919352 56.380314 C 43.342403 55.651452 42.746491 54.899916 42.275516 54.295556 C 39.064489 56.185081 35.856917 57.429658 33.86731 57.429658 C 31.877781 57.429658 28.669232 56.184952 25.457619 54.295556 z " />
      <path
         style="fill:#4d4d4d;fill-opacity:1;stroke:none;stroke-width:0.258691px;stroke-linecap:butt;stroke-linejoin:miter;stroke-opacity:1"
         d="m 37.406809,37.068256 c -0.03737,-0.58453 -1.083909,-0.857313 -3.539994,-0.857313 -2.456086,0 -3.502611,0.272783 -3.539985,0.857313 -0.03746,0.584529 2.034195,3.000584 3.539985,3.000584 1.505797,0 3.577406,-2.416055 3.539994,-3.000584 z"
         id="path5324-0"
         sodipodi:nodetypes="scscs" />
      <path
         style="font-variation-settings:normal;fill:none;fill-opacity:1;stroke:#4d4d4d;stroke-width:2.06954;stroke-linecap:round;stroke-linejoin:miter;stroke-miterlimit:4;stroke-dasharray:none;stroke-dashoffset:0;stroke-opacity:1;stop-color:#000000"
         d="m 24.611796,37.884858 c -7.355372,0 -13.321408,-2.854389 -13.321408,-2.854389"
         id="path2518"
         sodipodi:nodetypes="cc" />
      <path
         style="font-variation-settings:normal;fill:none;fill-opacity:1;stroke:#4d4d4d;stroke-width:2.06954;stroke-linecap:round;stroke-linejoin:miter;stroke-miterlimit:4;stroke-dasharray:none;stroke-dashoffset:0;stroke-opacity:1;stop-color:#000000"
         d="m 43.121834,37.884858 c 7.355372,0 13.321408,-2.854389 13.321408,-2.854389"
         id="path2518-2"
         sodipodi:nodetypes="cc" />
      <path
         style="font-variation-settings:normal;opacity:1;vector-effect:none;fill:none;fill-opacity:1;stroke:#4d4d4d;stroke-width:2.06955;stroke-linecap:round;stroke-linejoin:round;stroke-miterlimit:4;stroke-dasharray:none;stroke-dashoffset:0;stroke-opacity:1;-inkscape-stroke:none;stop-color:#000000;stop-opacity:1"
         d="m 32.382567,51.121648 c -1.291287,0.912233 -3.374896,-2.303421 -3.218067,-3.490452 0.192973,-1.4606 2.415387,-4.978694 4.702319,-4.978694 2.286932,0 4.509346,3.518094 4.702319,4.978694 0.156829,1.187031 -1.92678,4.402685 -3.218067,3.490452 -0.884744,-0.625029 -1.484252,-0.702316 -1.484252,-0.702316 0,0 -0.599508,0.07729 -1.484252,0.702316 z"
         id="path1"
         sodipodi:nodetypes="ssssscs" />
      <path
         style="font-variation-settings:normal;vector-effect:none;fill:none;fill-opacity:1;stroke:#4d4d4d;stroke-width:2.06953;stroke-linecap:round;stroke-linejoin:miter;stroke-miterlimit:4;stroke-dasharray:none;stroke-dashoffset:0;stroke-opacity:1;-inkscape-stroke:none;stop-color:#000000"
         d="m 42.543393,42.449334 c 2.670657,3.703544 3.162149,5.74762 3.162149,5.74762"
         id="path5"
         sodipodi:nodetypes="cc" />
      <path
         style="font-variation-settings:normal;vector-effect:none;fill:none;fill-opacity:1;stroke:#4d4d4d;stroke-width:2.06953;stroke-linecap:round;stroke-linejoin:miter;stroke-miterlimit:4;stroke-dasharray:none;stroke-dashoffset:0;stroke-opacity:1;-inkscape-stroke:none;stop-color:#000000"
         d="m 46.740306,40.735499 c 2.689452,2.511479 2.975594,5.615509 2.975594,5.615509"
         id="path6"
         sodipodi:nodetypes="cc" />
      <path
         style="font-variation-settings:normal;vector-effect:none;fill:none;fill-opacity:1;stroke:#4d4d4d;stroke-width:2.58692;stroke-linecap:round;stroke-linejoin:round;stroke-miterlimit:4;stroke-dasharray:none;stroke-dashoffset:0;stroke-opacity:1;-inkscape-stroke:none;stop-color:#000000"
         d="m 44.747746,57.430097 c -3.676685,-4.671969 -5.55327,-6.804823 -5.595662,-8.836113 -0.04239,-2.031289 -0.847825,-4.169099 3.391309,-6.144651 4.239137,-1.975551 7.164634,-3.335864 10.015963,0.216358 2.851329,3.552222 -0.138776,13.69798 -0.138776,13.69798 z"
         id="path4-1"
         sodipodi:nodetypes="csszcc" />
      <path
         style="font-variation-settings:normal;vector-effect:none;fill:none;fill-opacity:1;stroke:#4d4d4d;stroke-width:2.06953;stroke-linecap:round;stroke-linejoin:miter;stroke-miterlimit:4;stroke-dasharray:none;stroke-dashoffset:0;stroke-opacity:1;-inkscape-stroke:none;stop-color:#000000"
         d="m 25.190237,42.449334 c -2.670657,3.703544 -3.162148,5.74762 -3.162148,5.74762"
         id="path5-9"
         sodipodi:nodetypes="cc" />
      <path
         style="font-variation-settings:normal;vector-effect:none;fill:none;fill-opacity:1;stroke:#4d4d4d;stroke-width:2.06953;stroke-linecap:round;stroke-linejoin:miter;stroke-miterlimit:4;stroke-dasharray:none;stroke-dashoffset:0;stroke-opacity:1;-inkscape-stroke:none;stop-color:#000000"
         d="m 20.993324,40.735499 c -2.689452,2.511479 -2.975594,5.615509 -2.975594,5.615509"
         id="path6-3"
         sodipodi:nodetypes="cc" />
      <path
         style="font-variation-settings:normal;vector-effect:none;fill:none;fill-opacity:1;stroke:#4d4d4d;stroke-width:2.58692;stroke-linecap:round;stroke-linejoin:round;stroke-miterlimit:4;stroke-dasharray:none;stroke-dashoffset:0;stroke-opacity:1;-inkscape-stroke:none;stop-color:#000000"
         d="m 22.985884,57.430097 c 3.676685,-4.671969 5.55327,-6.804823 5.595662,-8.836113 0.04239,-2.031289 0.847825,-4.169099 -3.391309,-6.144651 -4.239137,-1.975551 -7.164633,-3.335864 -10.015962,0.216358 -2.851329,3.552222 0.138775,13.69798 0.138775,13.69798 z"
         id="path4-1-8"
         sodipodi:nodetypes="csszcc" />
      <path
         id="rect979-3"
         style="fill:none;fill-opacity:1;stroke:#4d4d4d;stroke-width:2.58692;stroke-linecap:round;stroke-linejoin:round;stroke-opacity:1;stop-color:#000000;font-variation-settings:normal;opacity:1;vector-effect:none;stroke-miterlimit:4;stroke-dasharray:none;stroke-dashoffset:0;-inkscape-stroke:none;stop-opacity:1"
         d="m 30.78092,29.646944 -0.870993,3.467135 c -0.633128,2.520276 -3.067153,3.999266 -5.457453,3.31612 -2.390302,-0.683147 -3.80492,-3.262078 -3.171792,-5.782354 l 0.870992,-3.467135 c 0.633128,-2.520276 3.067153,-3.999266 5.457455,-3.316119 2.3903,0.683146 3.804919,3.262077 3.171791,5.782353 z" />
      <path
         id="rect979-5-5"
         style="fill:none;fill-opacity:1;stroke:#4d4d4d;stroke-width:2.58692;stroke-linecap:round;stroke-linejoin:round;stroke-opacity:1;stop-color:#000000;font-variation-settings:normal;opacity:1;vector-effect:none;stroke-miterlimit:4;stroke-dasharray:none;stroke-dashoffset:0;-inkscape-stroke:none;stop-opacity:1"
         d="m 36.952707,29.646945 0.870993,3.467136 c 0.633128,2.520276 3.067153,3.999265 5.457453,3.316119 2.390302,-0.683147 3.80492,-3.262077 3.171792,-5.782353 l -0.870992,-3.467136 c -0.633128,-2.520276 -3.067153,-3.999265 -5.457454,-3.316119 -2.390301,0.683147 -3.80492,3.262077 -3.171792,5.782353 z" />
    </g>
  </g>
</svg>
