<?xml version="1.0" encoding="UTF-8" standalone="no"?>
<svg
   width="256"
   height="256"
   viewBox="0 0 67.733331 67.733331"
   version="1.1"
   id="svg8"
   inkscape:version="1.3.2 (091e20e, 2023-11-25, custom)"
   sodipodi:docname="1F642_200D_2194_FE0F.svg"
   inkscape:export-filename="1F642_200D_2194_FE0F.png"
   inkscape:export-xdpi="96"
   inkscape:export-ydpi="96"
   xmlns:inkscape="http://www.inkscape.org/namespaces/inkscape"
   xmlns:sodipodi="http://sodipodi.sourceforge.net/DTD/sodipodi-0.dtd"
   xmlns="http://www.w3.org/2000/svg"
   xmlns:svg="http://www.w3.org/2000/svg"
   xmlns:rdf="http://www.w3.org/1999/02/22-rdf-syntax-ns#"
   xmlns:cc="http://creativecommons.org/ns#"
   xmlns:dc="http://purl.org/dc/elements/1.1/">
  <defs
     id="defs2">
    <inkscape:path-effect
       effect="taper_stroke"
       start_shape="center | center"
       end_shape="center | center"
       id="path-effect3"
       is_visible="true"
       lpeversion="1"
       stroke_width="3.16"
       subpath="1"
       attach_start="0.6"
       end_offset="0.42648894"
       start_smoothing="0.8"
       end_smoothing="0.9"
       jointype="extrapolated"
       miter_limit="100" />
    <inkscape:path-effect
       effect="powerstroke"
       id="path-effect2"
       is_visible="true"
       lpeversion="1.3"
       scale_width="2.1"
       interpolator_type="CentripetalCatmullRom"
       interpolator_beta="0.2"
       start_linecap_type="zerowidth"
       end_linecap_type="zerowidth"
       offset_points="0.2,0.1322915 | 0.5,0.1322915 | 0.8,0.1322915"
       linejoin_type="round"
       miter_limit="4"
       not_jump="false"
       sort_points="true"
       message="&lt;b&gt;Ctrl + click&lt;/b&gt; on existing node and move it" />
    <inkscape:path-effect
       effect="taper_stroke"
       start_shape="center | center"
       end_shape="left | center"
       id="path-effect1"
       is_visible="true"
       lpeversion="1"
       stroke_width="3.37"
       subpath="1"
       attach_start="0.065511831"
       end_offset="0.35195386"
       start_smoothing="1"
       end_smoothing="0.3"
       jointype="extrapolated"
       miter_limit="100.1" />
    <inkscape:path-effect
       effect="taper_stroke"
       start_shape="center | center"
       end_shape="left | center"
       id="path-effect1-7"
       is_visible="true"
       lpeversion="1"
       stroke_width="3.37"
       subpath="1"
       attach_start="0.1"
       end_offset="0.45980789"
       start_smoothing="1"
       end_smoothing="0.3"
       jointype="extrapolated"
       miter_limit="100.1" />
    <inkscape:path-effect
       effect="fill_between_many"
       method="bsplinespiro"
       autoreverse="false"
       close="false"
       join="false"
       linkedpaths="#path2,0,1"
       id="path-effect4" />
  </defs>
  <sodipodi:namedview
     id="base"
     pagecolor="#ffffff"
     bordercolor="#666666"
     borderopacity="1.0"
     inkscape:pageopacity="0.0"
     inkscape:pageshadow="2"
     inkscape:zoom="2.8"
     inkscape:cx="136.78571"
     inkscape:cy="84.821429"
     inkscape:document-units="px"
     inkscape:current-layer="layer1"
     inkscape:document-rotation="0"
     showgrid="false"
     inkscape:window-width="1920"
     inkscape:window-height="991"
     inkscape:window-x="-9"
     inkscape:window-y="-9"
     inkscape:window-maximized="1"
     units="px"
     inkscape:snap-object-midpoints="false"
     inkscape:showpageshadow="2"
     inkscape:pagecheckerboard="0"
     inkscape:deskcolor="#d1d1d1" />
  <metadata
     id="metadata5">
    <rdf:RDF>
      <cc:Work
         rdf:about="">
        <dc:format>image/svg+xml</dc:format>
        <dc:type
           rdf:resource="http://purl.org/dc/dcmitype/StillImage" />
        <cc:license
           rdf:resource="http://creativecommons.org/publicdomain/zero/1.0/" />
        <dc:creator>
          <cc:Agent>
            <dc:title>Dexterux</dc:title>
          </cc:Agent>
        </dc:creator>
        <dc:publisher>
          <cc:Agent>
            <dc:title>Dexterux</dc:title>
          </cc:Agent>
        </dc:publisher>
      </cc:Work>
      <cc:License
         rdf:about="http://creativecommons.org/publicdomain/zero/1.0/">
        <cc:permits
           rdf:resource="http://creativecommons.org/ns#Reproduction" />
        <cc:permits
           rdf:resource="http://creativecommons.org/ns#Distribution" />
        <cc:permits
           rdf:resource="http://creativecommons.org/ns#DerivativeWorks" />
      </cc:License>
    </rdf:RDF>
  </metadata>
  <g
     inkscape:label="Layer 1"
     inkscape:groupmode="layer"
     id="layer1">
    <ellipse
       style="fill:none;fill-opacity:1;stroke:#4d4d4d;stroke-width:2.64583;stroke-linecap:round;stroke-linejoin:round;stroke-miterlimit:4;stroke-dasharray:none;stroke-opacity:1"
       id="path833"
       cx="33.027416"
       cy="33.866665"
       rx="22.442337"
       ry="22.442339" />
    <path
       d="m 34.651586,41.998056 c 0,0 -2.641324,2.648806 -7.090646,2.648806 -4.449323,0 -7.090927,-2.648806 -7.090927,-2.648806"
       style="fill:none;fill-opacity:1;stroke:#4d4d4d;stroke-width:2.64583;stroke-linecap:round;stroke-linejoin:round;stroke-miterlimit:4;stroke-dasharray:none;stroke-opacity:1"
       id="path902-3-0-1"
       sodipodi:nodetypes="czc" />
    <path
       sodipodi:nodetypes="cc"
       id="path1442"
       d="m 15.521116,31.448615 c 4.01646,3.265106 7.781892,1.432064 9.204387,-1.031086"
       style="font-variation-settings:normal;vector-effect:none;fill:none;fill-opacity:1;stroke:#4d4d4d;stroke-width:2.60074;stroke-linecap:round;stroke-linejoin:miter;stroke-miterlimit:4;stroke-dasharray:none;stroke-dashoffset:0;stroke-opacity:1;stop-color:#000000" />
    <path
       style="font-variation-settings:normal;vector-effect:none;fill:none;fill-opacity:1;stroke:#4d4d4d;stroke-width:2.60074;stroke-linecap:round;stroke-linejoin:miter;stroke-miterlimit:4;stroke-dasharray:none;stroke-dashoffset:0;stroke-opacity:1;stop-color:#000000"
       d="m 38.806473,31.448615 c -4.016462,3.265106 -7.781892,1.432064 -9.204388,-1.031086"
       id="path1442-4"
       sodipodi:nodetypes="cc" />
    <path
       style="font-variation-settings:normal;vector-effect:none;fill:#4d4d4d;fill-opacity:1;fill-rule:nonzero;stroke:none;stroke-width:0.82868557;stroke-linecap:round;stroke-linejoin:miter;stroke-miterlimit:4;stroke-dasharray:none;stroke-dashoffset:0;stroke-opacity:1;-inkscape-stroke:none;stop-color:#000000"
       d="m 45.899179,35.573875 c -3.42823,-0.487444 -3.750424,1.074736 -3.750424,1.074736 0,0 -0.349883,1.745597 3.275773,2.26167 10.07774,1.433701 15.746629,-0.147389 17.987955,-3.347782 0.532444,-0.839302 0.579561,-4.790851 -2.913926,-4.439506 0.527651,0.747958 0.675327,1.954593 0.15354,2.50633 -1.055177,1.506688 -5.137639,3.312461 -14.752918,1.944552 z"
       id="path1"
       sodipodi:nodetypes="cc"
       transform="matrix(1.1234286,0,0,1.0305278,-10.718171,-0.42767796)" />
    <path
       style="font-variation-settings:normal;vector-effect:none;fill:#4d4d4d;fill-opacity:1;fill-rule:nonzero;stroke:none;stroke-width:0.82868557;stroke-linecap:round;stroke-linejoin:miter;stroke-miterlimit:4;stroke-dasharray:none;stroke-dashoffset:0;stroke-opacity:1;-inkscape-stroke:none;stop-color:#000000"
       d="m 48.414223,35.989526 c -2.672477,-0.489833 -3.151637,0.973236 -3.151637,0.973236 0,0 -0.542338,1.774439 2.543301,2.341403 4.269844,0.783645 8.035096,0.415872 10.646554,-0.746246 0.695556,-0.27952 2.063728,-1.536825 2.060674,-3.371254 -7.6e-4,-1.001658 -0.687289,-2.025886 -1.660481,-2.073042 0.149059,0.322307 0.132515,0.797651 -0.05598,1.057726 -0.233865,0.508282 -0.927187,0.906499 -1.714349,1.307669 -1.851885,0.824102 -4.86051,1.209313 -8.668084,0.510508 z"
       id="path1-6"
       sodipodi:nodetypes="cc"
       transform="matrix(1.1234286,0,0,1.0305278,-10.20953,7.5787224)" />
    <path
       style="fill:#4d4d4d;fill-opacity:1;fill-rule:nonzero;stroke:none;stroke-width:0.8360833;stroke-linecap:butt;stroke-linejoin:miter;stroke-opacity:1"
       d="m 11.803206,39.681048 c -1.261466,-0.213828 -2.0153899,-0.3854 -2.6719619,-0.721521 0,0 -2e-7,0 -2e-7,0 C 8.2922287,38.639202 7.5735588,37.744619 7.2747331,37.37083 6.8989328,36.900758 6.6932019,36.653673 6.6932019,36.653673 c 0,0 -0.273439,0.197679 -0.4321921,0.903902 -0.1254475,0.558061 -0.2411106,2.150719 1.2551437,3.582952 3e-7,0 6e-7,0 6e-7,0 0.9203394,0.824289 2.22697,1.471269 3.8401939,1.668766 0.974512,0.138593 1.660443,-0.07374 2.077695,-0.334945 l 0,0 c 0.294748,-0.184147 0.48163,-0.401326 0.598747,-0.595062 l 0,0 c 0.07634,-0.122649 0.122874,-0.234044 0.151925,-0.325063 l 0,0 0,-10e-7 0,0 0,0 c 0,0 0,0 0,0 0.02185,-0.247501 0.0422,-0.216921 0.04671,-0.218361 0,0 0,0 0,0 8e-4,-2.56e-4 6.77e-4,-2.21e-4 6.77e-4,-2.21e-4 0,0 1.27e-4,1.2e-5 -7.04e-4,-9e-5 0,0 0,0 0,0 -0.0047,-5.72e-4 -0.02011,0.03346 -0.08291,-0.207648 0,0 0,0 0,0 l 0,0 0,0 0,0 0,0 c -0.0401,-0.08416 -0.09782,-0.191455 -0.173404,-0.304138 l 0,0 c -0.124122,-0.17932 -0.302797,-0.382569 -0.552355,-0.562055 l 0,0 c -0.376869,-0.271234 -0.87038,-0.473029 -1.619521,-0.580661 z"
       id="path2"
       inkscape:linked-fill="path4"
       sodipodi:nodetypes="cc"
       transform="translate(0.71990213,-1.3701618)" />
  </g>
</svg>
