<?xml version="1.0" encoding="UTF-8" standalone="no"?>
<svg
   xmlns:dc="http://purl.org/dc/elements/1.1/"
   xmlns:cc="http://creativecommons.org/ns#"
   xmlns:rdf="http://www.w3.org/1999/02/22-rdf-syntax-ns#"
   xmlns:svg="http://www.w3.org/2000/svg"
   xmlns="http://www.w3.org/2000/svg"
   xmlns:sodipodi="http://sodipodi.sourceforge.net/DTD/sodipodi-0.dtd"
   xmlns:inkscape="http://www.inkscape.org/namespaces/inkscape"
   width="256"
   height="256"
   viewBox="0 0 67.733331 67.733331"
   version="1.1"
   id="svg8"
   inkscape:version="1.0 (4035a4fb49, 2020-05-01)"
   sodipodi:docname="1F923_plain.svg">
  <defs
     id="defs2" />
  <sodipodi:namedview
     id="base"
     pagecolor="#ffffff"
     bordercolor="#666666"
     borderopacity="1.0"
     inkscape:pageopacity="0.0"
     inkscape:pageshadow="2"
     inkscape:zoom="0.98994949"
     inkscape:cx="-22.306279"
     inkscape:cy="96.061214"
     inkscape:document-units="px"
     inkscape:current-layer="layer1"
     inkscape:document-rotation="0"
     showgrid="false"
     inkscape:window-width="1920"
     inkscape:window-height="1001"
     inkscape:window-x="-9"
     inkscape:window-y="-9"
     inkscape:window-maximized="1"
     units="px"
     inkscape:snap-object-midpoints="false" />
  <metadata
     id="metadata5">
    <rdf:RDF>
      <cc:Work
         rdf:about="">
        <dc:format>image/svg+xml</dc:format>
        <dc:type
           rdf:resource="http://purl.org/dc/dcmitype/StillImage" />
        <dc:title />
        <cc:license
           rdf:resource="http://creativecommons.org/publicdomain/zero/1.0/" />
        <dc:creator>
          <cc:Agent>
            <dc:title>Dexterux</dc:title>
          </cc:Agent>
        </dc:creator>
        <dc:publisher>
          <cc:Agent>
            <dc:title>Dexterux</dc:title>
          </cc:Agent>
        </dc:publisher>
      </cc:Work>
      <cc:License
         rdf:about="http://creativecommons.org/publicdomain/zero/1.0/">
        <cc:permits
           rdf:resource="http://creativecommons.org/ns#Reproduction" />
        <cc:permits
           rdf:resource="http://creativecommons.org/ns#Distribution" />
        <cc:permits
           rdf:resource="http://creativecommons.org/ns#DerivativeWorks" />
      </cc:License>
    </rdf:RDF>
  </metadata>
  <g
     inkscape:label="Layer 1"
     inkscape:groupmode="layer"
     id="layer1">
    <g
       style="fill:none;stroke-width:2.11666659;stroke-miterlimit:4;stroke-dasharray:none"
       transform="rotate(-45,32.217602,35.305537)"
       id="g1009">
      <path
         id="path902-3"
         style="fill:none;fill-opacity:1;stroke:#4d4d4d;stroke-width:2.11666659;stroke-linecap:round;stroke-linejoin:round;stroke-miterlimit:4;stroke-dasharray:none;stroke-opacity:1"
         d="m 21.052915,40.792427 c 0,0 1.752868,10.502154 13.348288,10.502154 11.595421,0 13.348291,-10.502154 13.348291,-10.502154 0,0 -7.5784,1.09058 -13.348291,1.09058 -5.769897,0 -13.348288,-1.09058 -13.348288,-1.09058 z"
         sodipodi:nodetypes="czczc" />
      <path
         id="path902-3-0"
         style="fill:none;fill-opacity:1;stroke:#4d4d4d;stroke-width:2.11666659;stroke-linecap:round;stroke-linejoin:round;stroke-miterlimit:4;stroke-dasharray:none;stroke-opacity:1"
         d="m 21.052824,40.792598 c 0,0 0.352462,2.091853 1.769401,4.408 2.506934,0.315259 7.605857,0.885735 11.789462,0.885735 3.953622,0 8.701772,-0.507553 11.333672,-0.829924 1.44565,-2.338263 1.80402,-4.463811 1.80402,-4.463811 0,0 -7.57813,1.090374 -13.348015,1.090374 -5.769895,0 -13.34854,-1.090374 -13.34854,-1.090374 z" />
      <path
         id="path963"
         style="fill:none;fill-opacity:1;stroke:none;stroke-width:2.11666659;stroke-linecap:round;stroke-linejoin:round;stroke-miterlimit:4;stroke-dasharray:none;stroke-opacity:1"
         d="m 34.34418,48.415273 a 11.158503,11.158503 0 0 0 -5.236373,1.305864 c 1.456301,0.564849 3.19932,0.911572 5.293216,0.911572 2.062181,0 3.783542,-0.337005 5.226037,-0.886767 a 11.158503,11.158503 0 0 0 -5.28288,-1.330669 z" />
    </g>
    <g
       style="fill:none"
       transform="matrix(0.74569812,-0.74569812,0.80824052,0.80824052,-17.039895,32.260891)"
       id="g3081">
      <path
         style="fill:none;stroke:#4d4d4d;stroke-width:2.0733;stroke-linecap:round;stroke-linejoin:round;stroke-miterlimit:4;stroke-dasharray:none;stroke-opacity:1"
         d="m 21.062224,23.597842 c 5.192603,1.705587 8.710444,6.153342 8.710444,6.153342 0,0 -5.586093,0.730404 -9.942102,2.243033"
         id="path2999"
         sodipodi:nodetypes="ccc" />
      <path
         sodipodi:nodetypes="ccc"
         id="path2999-4"
         d="m 45.051374,23.597842 c -5.192604,1.705587 -8.710444,6.153342 -8.710444,6.153342 0,0 5.586093,0.730404 9.942102,2.243033"
         style="fill:none;stroke:#4d4d4d;stroke-width:2.0733;stroke-linecap:round;stroke-linejoin:round;stroke-miterlimit:4;stroke-dasharray:none;stroke-opacity:1" />
    </g>
    <g
       style="fill:none"
       transform="rotate(-45,37.600452,35.460497)"
       id="g3733">
      <path
         id="path1709"
         style="fill:none;fill-opacity:1;stroke:#4d4d4d;stroke-width:9.99999;stroke-linecap:round;stroke-linejoin:round;stroke-miterlimit:4;stroke-dasharray:none;stroke-opacity:1"
         d="M 127.9707 33 A 95.000007 95 45 0 0 60.824219 60.824219 A 95.000007 95 45 0 0 60.824219 195.17578 A 95.000007 95 45 0 0 68.744141 202.25586 C 69.287999 191.80989 73.683044 177.79412 83.244141 160.25 C 106.71503 189.68295 110.01123 209.9952 101.51172 219.23242 A 95.000007 95 45 0 0 195.17578 195.17578 A 95.000007 95 45 0 0 219.12305 101.13672 C 209.95065 109.79603 189.57518 106.5796 159.99609 82.992188 C 177.56552 73.417302 191.59815 69.023707 202.04883 68.490234 A 95.000007 95 45 0 0 195.17578 60.824219 A 95.000007 95 45 0 0 127.9707 33 z "
         transform="matrix(0.18708866,0.18708866,-0.18708866,0.18708866,36.087275,-16.201395)" />
      <path
         style="fill:none;fill-opacity:1;stroke:#4d4d4d;stroke-width:2.64583;stroke-linecap:round;stroke-linejoin:round;stroke-miterlimit:4;stroke-dasharray:none;stroke-opacity:1"
         d="M 61.509549,42.382315 C 57.232035,45.972798 51.993682,42.566046 50.494026,29.258982 63.339779,33.042311 65.787065,38.79184 61.509549,42.38232 Z"
         id="path1707" />
      <path
         style="fill:none;fill-opacity:1;stroke:#4d4d4d;stroke-width:2.64583;stroke-linecap:round;stroke-linejoin:round;stroke-miterlimit:4;stroke-dasharray:none;stroke-opacity:1"
         d="m 10.665001,42.476815 c 4.277515,3.590478 9.515868,0.183726 11.015524,-13.123338 C 8.8347709,33.136806 6.3874849,38.886335 10.665001,42.476815 Z"
         id="path3668-1-4" />
    </g>
  </g>
</svg>
