<?xml version="1.0" encoding="UTF-8" standalone="no"?>
<svg
   xmlns:dc="http://purl.org/dc/elements/1.1/"
   xmlns:cc="http://creativecommons.org/ns#"
   xmlns:rdf="http://www.w3.org/1999/02/22-rdf-syntax-ns#"
   xmlns:svg="http://www.w3.org/2000/svg"
   xmlns="http://www.w3.org/2000/svg"
   xmlns:sodipodi="http://sodipodi.sourceforge.net/DTD/sodipodi-0.dtd"
   xmlns:inkscape="http://www.inkscape.org/namespaces/inkscape"
   sodipodi:docname="1F929.svg"
   inkscape:version="1.0 (4035a4fb49, 2020-05-01)"
   id="svg8"
   version="1.1"
   viewBox="0 0 67.733331 67.733331"
   height="256"
   width="256">
  <defs
     id="defs2" />
  <sodipodi:namedview
     inkscape:snap-object-midpoints="false"
     units="px"
     inkscape:window-maximized="1"
     inkscape:window-y="-9"
     inkscape:window-x="-9"
     inkscape:window-height="1001"
     inkscape:window-width="1920"
     showgrid="false"
     inkscape:document-rotation="0"
     inkscape:current-layer="g1009"
     inkscape:document-units="px"
     inkscape:cy="143.67539"
     inkscape:cx="106.65012"
     inkscape:zoom="5.6568544"
     inkscape:pageshadow="2"
     inkscape:pageopacity="0.0"
     borderopacity="1.0"
     bordercolor="#666666"
     pagecolor="#ffffff"
     id="base" />
  <metadata
     id="metadata5">
    <rdf:RDF>
      <cc:Work
         rdf:about="">
        <dc:format>image/svg+xml</dc:format>
        <dc:type
           rdf:resource="http://purl.org/dc/dcmitype/StillImage" />
        <dc:title />
        <cc:license
           rdf:resource="http://creativecommons.org/publicdomain/zero/1.0/" />
        <dc:creator>
          <cc:Agent>
            <dc:title>Dexterux</dc:title>
          </cc:Agent>
        </dc:creator>
        <dc:publisher>
          <cc:Agent>
            <dc:title>Dexterux</dc:title>
          </cc:Agent>
        </dc:publisher>
      </cc:Work>
      <cc:License
         rdf:about="http://creativecommons.org/publicdomain/zero/1.0/">
        <cc:permits
           rdf:resource="http://creativecommons.org/ns#Reproduction" />
        <cc:permits
           rdf:resource="http://creativecommons.org/ns#Distribution" />
        <cc:permits
           rdf:resource="http://creativecommons.org/ns#DerivativeWorks" />
      </cc:License>
    </rdf:RDF>
  </metadata>
  <g
     id="layer1"
     inkscape:groupmode="layer"
     inkscape:label="Layer 1">
    <ellipse
       ry="25.135418"
       rx="25.135416"
       cy="33.866665"
       cx="33.866665"
       id="path833"
       style="fill:#ffe666;fill-opacity:1;stroke:#4d4d4d;stroke-width:2.64583;stroke-linecap:round;stroke-linejoin:round;stroke-miterlimit:4;stroke-dasharray:none;stroke-opacity:1" />
    <g
       style="stroke-width:2.11667;stroke-miterlimit:4;stroke-dasharray:none"
       transform="translate(-0.53443436,-1.5875014)"
       id="g1009">
      <path
         id="path902-3"
         style="fill:#795353;fill-opacity:1;stroke:#4d4d4d;stroke-width:2.11667;stroke-linecap:round;stroke-linejoin:round;stroke-miterlimit:4;stroke-dasharray:none;stroke-opacity:1"
         d="m 21.052915,40.792427 c 0,0 1.752868,10.502154 13.348288,10.502154 11.595421,0 13.348291,-10.502154 13.348291,-10.502154 0,0 -7.5784,1.09058 -13.348291,1.09058 -5.769897,0 -13.348288,-1.09058 -13.348288,-1.09058 z"
         sodipodi:nodetypes="czczc" />
      <path
         id="path902-3-0"
         style="fill:#ffffff;fill-opacity:1;stroke:#4d4d4d;stroke-width:2.11667;stroke-linecap:round;stroke-linejoin:round;stroke-miterlimit:4;stroke-dasharray:none;stroke-opacity:1"
         d="m 21.052824,40.792598 c 0,0 0.352462,2.091853 1.769401,4.408 2.506934,0.315259 7.605857,0.885735 11.789462,0.885735 3.953622,0 8.701772,-0.507553 11.333672,-0.829924 1.44565,-2.338263 1.80402,-4.463811 1.80402,-4.463811 0,0 -7.57813,1.090374 -13.348015,1.090374 -5.769895,0 -13.34854,-1.090374 -13.34854,-1.090374 z" />
      <path
         id="path963"
         style="fill:#eb4747;fill-opacity:1;stroke:none;stroke-width:2.11667;stroke-linecap:round;stroke-linejoin:round;stroke-miterlimit:4;stroke-dasharray:none;stroke-opacity:1"
         d="m 34.344257,48.248218 a 11.158503,11.158503 0 0 0 -4.949571,1.158586 c 1.380948,0.513432 3.025923,0.829406 5.005898,0.829406 1.948653,0 3.571959,-0.306602 4.93975,-0.805635 a 11.158503,11.158503 0 0 0 -4.996077,-1.182357 z" />
    </g>
    <path
       d="m 111.57686,43.072275 c -1.547,2.679494 -15.334953,-2.443181 -18.161475,-1.184733 -2.826522,1.258449 -8.24557,14.93263 -11.271972,14.289349 C 79.117011,55.533609 79.728255,40.837497 77.657956,38.538197 75.587657,36.238897 60.90816,35.31063 60.584747,32.233566 60.261335,29.156503 74.427052,25.196481 75.974059,22.516987 77.521066,19.837493 73.867686,5.5896111 76.694208,4.3311625 79.520729,3.072714 87.664381,15.321398 90.690782,15.96468 c 3.026402,0.643281 15.447988,-7.2341269 17.518288,-4.934827 2.0703,2.2993 -7.06237,13.829424 -6.73896,16.906488 0.32342,3.077064 11.65376,12.45644 10.10675,15.135934 z"
       sodipodi:type="star"
       style="font-variation-settings:normal;vector-effect:none;fill:#b2f86d;fill-opacity:1;stroke:#4d9108;stroke-width:4.65217;stroke-linecap:round;stroke-linejoin:round;stroke-miterlimit:4;stroke-dasharray:none;stroke-dashoffset:0;stroke-opacity:1;stop-color:#000000"
       id="path1549"
       sodipodi:sides="5"
       sodipodi:cx="87.84166"
       sodipodi:cy="29.36875"
       sodipodi:r1="27.407051"
       sodipodi:r2="13.703525"
       sodipodi:arg1="0.52359878"
       sodipodi:arg2="1.1519173"
       inkscape:flatsided="false"
       inkscape:rounded="0.17"
       inkscape:randomized="0"
       inkscape:transform-center-x="0.80086389"
       inkscape:transform-center-y="0.40293944"
       transform="matrix(0.45481557,0,0,0.45515606,-18.943273,11.172804)" />
    <path
       d="m 111.57686,43.072275 c -1.547,2.679494 -15.334953,-2.443181 -18.161475,-1.184733 -2.826522,1.258449 -8.24557,14.93263 -11.271972,14.289349 C 79.117011,55.533609 79.728255,40.837497 77.657956,38.538197 75.587657,36.238897 60.90816,35.31063 60.584747,32.233566 60.261335,29.156503 74.427052,25.196481 75.974059,22.516987 77.521066,19.837493 73.867686,5.5896111 76.694208,4.3311625 79.520729,3.072714 87.664381,15.321398 90.690782,15.96468 c 3.026402,0.643281 15.447988,-7.2341269 17.518288,-4.934827 2.0703,2.2993 -7.06237,13.829424 -6.73896,16.906488 0.32342,3.077064 11.65376,12.45644 10.10675,15.135934 z"
       sodipodi:type="star"
       style="font-variation-settings:normal;vector-effect:none;fill:#b2f76e;fill-opacity:1;stroke:#4d9108;stroke-width:4.65217;stroke-linecap:round;stroke-linejoin:round;stroke-miterlimit:4;stroke-dasharray:none;stroke-dashoffset:0;stroke-opacity:1;stop-color:#000000"
       id="path1549-5"
       sodipodi:sides="5"
       sodipodi:cx="87.84166"
       sodipodi:cy="29.36875"
       sodipodi:r1="27.407051"
       sodipodi:r2="13.703525"
       sodipodi:arg1="0.52359878"
       sodipodi:arg2="1.1519173"
       inkscape:flatsided="false"
       inkscape:rounded="0.17"
       inkscape:randomized="0"
       inkscape:transform-center-x="-0.8008638"
       inkscape:transform-center-y="0.40293944"
       transform="matrix(-0.45481556,0,0,0.45515605,86.676602,11.305095)" />
  </g>
</svg>
