<?xml version="1.0" encoding="UTF-8" standalone="no"?>
<svg
   sodipodi:docname="1F920_plain.svg"
   inkscape:version="1.1 (c68e22c387, 2021-05-23)"
   id="svg8"
   version="1.1"
   viewBox="0 0 67.733331 67.733331"
   height="256"
   width="256"
   xmlns:inkscape="http://www.inkscape.org/namespaces/inkscape"
   xmlns:sodipodi="http://sodipodi.sourceforge.net/DTD/sodipodi-0.dtd"
   xmlns="http://www.w3.org/2000/svg"
   xmlns:svg="http://www.w3.org/2000/svg"
   xmlns:rdf="http://www.w3.org/1999/02/22-rdf-syntax-ns#"
   xmlns:cc="http://creativecommons.org/ns#"
   xmlns:dc="http://purl.org/dc/elements/1.1/">
  <defs
     id="defs2" />
  <sodipodi:namedview
     inkscape:snap-object-midpoints="false"
     units="px"
     inkscape:window-maximized="1"
     inkscape:window-y="-9"
     inkscape:window-x="-9"
     inkscape:window-height="991"
     inkscape:window-width="1920"
     showgrid="false"
     inkscape:document-rotation="0"
     inkscape:current-layer="g19064"
     inkscape:document-units="px"
     inkscape:cy="32.229816"
     inkscape:cx="-108.06468"
     inkscape:zoom="0.79119284"
     inkscape:pageshadow="2"
     inkscape:pageopacity="0.0"
     borderopacity="1.0"
     bordercolor="#666666"
     pagecolor="#ffffff"
     id="base"
     inkscape:pagecheckerboard="0" />
  <metadata
     id="metadata5">
    <rdf:RDF>
      <cc:Work
         rdf:about="">
        <dc:format>image/svg+xml</dc:format>
        <dc:type
           rdf:resource="http://purl.org/dc/dcmitype/StillImage" />
        <cc:license
           rdf:resource="http://creativecommons.org/publicdomain/zero/1.0/" />
        <dc:creator>
          <cc:Agent>
            <dc:title>Dexterux</dc:title>
          </cc:Agent>
        </dc:creator>
        <dc:publisher>
          <cc:Agent>
            <dc:title>Dexterux</dc:title>
          </cc:Agent>
        </dc:publisher>
      </cc:Work>
      <cc:License
         rdf:about="http://creativecommons.org/publicdomain/zero/1.0/">
        <cc:permits
           rdf:resource="http://creativecommons.org/ns#Reproduction" />
        <cc:permits
           rdf:resource="http://creativecommons.org/ns#Distribution" />
        <cc:permits
           rdf:resource="http://creativecommons.org/ns#DerivativeWorks" />
      </cc:License>
    </rdf:RDF>
  </metadata>
  <g
     id="layer1"
     inkscape:groupmode="layer"
     inkscape:label="Layer 1">
    <g
       id="g18621"
       transform="translate(0,3.244367)">
      <g
         id="g19064"
         transform="translate(0,0.26458255)">
        <path
           id="path28256"
           style="fill:none;stroke:#4d4d4d;stroke-width:10.00000016;stroke-linecap:butt;stroke-linejoin:round;stroke-miterlimit:4;stroke-dasharray:none"
           d="M 59.030856 87.087394 C 47.71975 102.04614 41.585794 120.28435 41.571429 139.04692 C 41.571429 186.72287 80.26682 225.37185 128 225.37185 C 175.73318 225.37185 214.42857 186.72287 214.42857 139.04692 C 214.41927 120.28845 208.29281 102.05244 196.99034 87.092459 "
           transform="matrix(0.26458332,0,0,0.26458332,0,-3.5089495)" />
        <path
           id="path835"
           style="fill:#4d4d4d;fill-opacity:1;stroke:none;stroke-width:1.01763;stroke-linecap:round;stroke-linejoin:round;stroke-miterlimit:4;stroke-dasharray:none;stroke-opacity:1"
           d="m 25.630992,23.938469 a 4.2984127,4.2932586 0 0 0 -4.298445,4.293277 4.2984127,4.2932586 0 0 0 4.298445,4.29328 4.2984127,4.2932586 0 0 0 4.298446,-4.29328 4.2984127,4.2932586 0 0 0 -4.298446,-4.293277 z m 0,1.373561 a 1.719365,1.7173031 0 0 1 1.719274,1.717725 1.719365,1.7173031 0 0 1 -1.719274,1.717206 1.719365,1.7173031 0 0 1 -1.719274,-1.717206 1.719365,1.7173031 0 0 1 1.719274,-1.717725 z" />
        <path
           id="path835-3"
           style="fill:#4d4d4d;fill-opacity:1;stroke:none;stroke-width:1.01763;stroke-linecap:round;stroke-linejoin:round;stroke-miterlimit:4;stroke-dasharray:none;stroke-opacity:1"
           d="m 42.102337,23.938469 a 4.2984127,4.2932586 0 0 0 -4.298445,4.293277 4.2984127,4.2932586 0 0 0 4.298445,4.29328 4.2984127,4.2932586 0 0 0 4.298447,-4.29328 4.2984127,4.2932586 0 0 0 -4.298447,-4.293277 z m 0,1.373561 a 1.719365,1.7173031 0 0 1 1.719275,1.717725 1.719365,1.7173031 0 0 1 -1.719275,1.717206 1.719365,1.7173031 0 0 1 -1.719273,-1.717206 1.719365,1.7173031 0 0 1 1.719273,-1.717725 z" />
        <path
           id="path902-3"
           style="fill:none;fill-opacity:1;stroke:#4d4d4d;stroke-width:2.11667;stroke-linecap:round;stroke-linejoin:round;stroke-miterlimit:4;stroke-dasharray:none;stroke-opacity:1"
           d="m 21.722827,38.131338 c 0,0 1.594714,9.543134 12.143931,9.543134 10.549217,0 12.143933,-9.543134 12.143933,-9.543134 0,0 -6.894634,0.990992 -12.143933,0.990992 -5.249305,0 -12.143931,-0.990992 -12.143931,-0.990992 z"
           sodipodi:nodetypes="czczc" />
        <path
           id="path902-3-0"
           style="fill:none;fill-opacity:1;stroke:#4d4d4d;stroke-width:2.11667;stroke-linecap:round;stroke-linejoin:round;stroke-miterlimit:4;stroke-dasharray:none;stroke-opacity:1"
           d="m 21.722744,38.131494 c 0,0 0.320661,1.900832 1.609756,4.005476 2.280744,0.286471 6.919614,0.804853 10.725751,0.804853 3.596904,0 7.916649,-0.461205 10.311085,-0.754138 1.315215,-2.124741 1.641251,-4.056191 1.641251,-4.056191 0,0 -6.894389,0.990805 -12.143683,0.990805 -5.249303,0 -12.14416,-0.990805 -12.14416,-0.990805 z" />
        <path
           id="path33448"
           style="color:#000000;fill:#4d4d4d;stroke-width:8.00001;stroke-linecap:round;stroke-linejoin:round;-inkscape-stroke:none"
           d="M 94.726562 28.025391 A 4.0004062 4.0004062 0 0 0 92.472656 28.853516 C 92.472656 28.853516 77.519116 40.22997 69.943359 58.701172 C 67.23445 57.125076 64.468722 55.097235 61.845703 52.96875 C 56.930333 48.980107 53.003432 44.808338 48.351562 42.871094 A 4.0004062 4.0004062 0 0 0 48.269531 42.841797 C 45.997956 41.955082 44.003548 41.397604 41.980469 41.328125 C 39.957386 41.258646 37.754115 41.847512 36.164062 43.21875 C 32.983959 45.961227 32.737474 49.708713 32.525391 53.802734 A 4.0004062 4.0004062 0 0 0 32.517578 53.876953 C 32.389826 57.758536 30.793473 79.715116 49.703125 92.75 A 4.0004062 4.0004062 0 0 0 53.458984 93.171875 C 73.252155 85.236859 110.57527 85.037109 128.00195 85.037109 C 145.42863 85.037109 182.74394 85.236855 202.53711 93.171875 A 4.0004062 4.0004062 0 0 0 206.29492 92.75 C 225.20461 79.715116 223.60628 57.758566 223.47852 53.876953 A 4.0004062 4.0004062 0 0 0 223.47852 53.875 A 4.0004062 4.0004062 0 0 0 223.47852 53.873047 A 4.0004062 4.0004062 0 0 0 223.47852 53.871094 A 4.0004062 4.0004062 0 0 0 223.47852 53.869141 A 4.0004062 4.0004062 0 0 0 223.47852 53.867188 A 4.0004062 4.0004062 0 0 0 223.48047 53.833984 A 4.0004062 4.0004062 0 0 0 223.47852 53.802734 C 223.26642 49.7087 223.01995 45.961226 219.83984 43.21875 C 218.24979 41.847512 216.0387 41.258644 214.01562 41.328125 C 211.99256 41.397607 209.99816 41.955092 207.72656 42.841797 A 4.0004062 4.0004062 0 0 0 207.64453 42.871094 C 202.99266 44.808338 199.06576 48.980105 194.15039 52.96875 C 191.52933 55.095643 188.76556 57.121667 186.05859 58.697266 C 178.48143 40.228337 163.52344 28.853516 163.52344 28.853516 A 4.0004062 4.0004062 0 0 0 160.4668 28.070312 C 160.4668 28.070312 139.73113 31.251953 128.00195 31.251953 C 116.27275 31.251953 95.537109 28.070312 95.537109 28.070312 A 4.0004062 4.0004062 0 0 0 94.726562 28.025391 z M 126.60156 50.228516 C 128.72814 50.234792 130.82994 50.267312 132.9043 50.326172 C 148.56875 50.770624 162.71674 52.634613 175.21484 54.693359 C 176.45306 56.851029 177.61276 59.174542 178.62891 61.648438 C 173.68451 62.524677 165.96743 62.160879 157.24219 61.400391 C 148.18073 60.610613 137.9907 59.494141 128.00195 59.494141 C 118.01321 59.494141 107.81732 60.610613 98.755859 61.400391 C 90.035151 62.16047 82.319736 62.524861 77.375 61.650391 C 78.405753 59.139337 79.58311 56.78278 80.841797 54.597656 C 97.155255 51.376988 112.45344 50.186744 126.60156 50.228516 z "
           transform="matrix(0.26458332,0,0,0.26458332,0,-3.5089495)" />
      </g>
    </g>
  </g>
</svg>
