<?xml version="1.0" encoding="UTF-8" standalone="no"?>
<svg
   xmlns:dc="http://purl.org/dc/elements/1.1/"
   xmlns:cc="http://creativecommons.org/ns#"
   xmlns:rdf="http://www.w3.org/1999/02/22-rdf-syntax-ns#"
   xmlns:svg="http://www.w3.org/2000/svg"
   xmlns="http://www.w3.org/2000/svg"
   xmlns:sodipodi="http://sodipodi.sourceforge.net/DTD/sodipodi-0.dtd"
   xmlns:inkscape="http://www.inkscape.org/namespaces/inkscape"
   sodipodi:docname="1F92B_plain.svg"
   inkscape:version="1.0.2 (e86c870879, 2021-01-15, custom)"
   id="svg8"
   version="1.1"
   viewBox="0 0 67.733331 67.733331"
   height="256"
   width="256">
  <defs
     id="defs2" />
  <sodipodi:namedview
     inkscape:snap-object-midpoints="false"
     units="px"
     inkscape:window-maximized="1"
     inkscape:window-y="-9"
     inkscape:window-x="-9"
     inkscape:window-height="1001"
     inkscape:window-width="1920"
     showgrid="false"
     inkscape:document-rotation="0"
     inkscape:current-layer="layer1"
     inkscape:document-units="px"
     inkscape:cy="116.077"
     inkscape:cx="103.93332"
     inkscape:zoom="2.8"
     inkscape:pageshadow="2"
     inkscape:pageopacity="0.0"
     borderopacity="1.0"
     bordercolor="#666666"
     pagecolor="#ffffff"
     id="base" />
  <metadata
     id="metadata5">
    <rdf:RDF>
      <cc:Work
         rdf:about="">
        <dc:format>image/svg+xml</dc:format>
        <dc:type
           rdf:resource="http://purl.org/dc/dcmitype/StillImage" />
        <dc:title></dc:title>
        <cc:license
           rdf:resource="http://creativecommons.org/publicdomain/zero/1.0/" />
        <dc:creator>
          <cc:Agent>
            <dc:title>Dexterux</dc:title>
          </cc:Agent>
        </dc:creator>
        <dc:publisher>
          <cc:Agent>
            <dc:title>Dexterux</dc:title>
          </cc:Agent>
        </dc:publisher>
      </cc:Work>
      <cc:License
         rdf:about="http://creativecommons.org/publicdomain/zero/1.0/">
        <cc:permits
           rdf:resource="http://creativecommons.org/ns#Reproduction" />
        <cc:permits
           rdf:resource="http://creativecommons.org/ns#Distribution" />
        <cc:permits
           rdf:resource="http://creativecommons.org/ns#DerivativeWorks" />
      </cc:License>
    </rdf:RDF>
  </metadata>
  <g
     id="layer1"
     inkscape:groupmode="layer"
     inkscape:label="Layer 1">
    <path
       id="path833"
       style="color:#000000;font-style:normal;font-variant:normal;font-weight:normal;font-stretch:normal;font-size:medium;line-height:normal;font-family:sans-serif;font-variant-ligatures:normal;font-variant-position:normal;font-variant-caps:normal;font-variant-numeric:normal;font-variant-alternates:normal;font-variant-east-asian:normal;font-feature-settings:normal;font-variation-settings:normal;text-indent:0;text-align:start;text-decoration:none;text-decoration-line:none;text-decoration-style:solid;text-decoration-color:#000000;letter-spacing:normal;word-spacing:normal;text-transform:none;writing-mode:lr-tb;direction:ltr;text-orientation:mixed;dominant-baseline:auto;baseline-shift:baseline;text-anchor:start;white-space:normal;shape-padding:0;shape-margin:0;inline-size:0;clip-rule:nonzero;display:inline;overflow:visible;visibility:visible;opacity:1;isolation:auto;mix-blend-mode:normal;color-interpolation:sRGB;color-interpolation-filters:linearRGB;solid-color:#000000;solid-opacity:1;vector-effect:none;fill:#4d4d4d;fill-opacity:1;fill-rule:nonzero;stroke:none;stroke-width:3.77953;stroke-linecap:round;stroke-linejoin:round;stroke-miterlimit:4;stroke-dasharray:none;stroke-dashoffset:0;stroke-opacity:1;color-rendering:auto;image-rendering:auto;shape-rendering:auto;text-rendering:auto;enable-background:accumulate;stop-color:#000000;stop-opacity:1"
       d="M 128.00195 28 C 72.832705 28 28 72.832702 28 128.00195 C 28 171.25578 55.560911 208.14684 94.052734 222.06641 C 93.761116 221.5877 93.46668 221.1202 93.181641 220.62305 C 91.085024 216.96626 89.090534 212.87228 88.013672 208.6543 C 58.35994 193.94683 38.001953 163.39239 38.001953 128.00195 C 38.001953 78.237097 78.237101 38.001953 128.00195 38.001953 C 177.76681 38.001953 218.00195 78.237097 218.00195 128.00195 C 218.00195 165.86329 194.70687 198.19683 161.65039 211.50391 C 161.30275 212.18394 160.95452 212.83188 160.60742 213.39648 C 158.13814 217.41311 154.89719 221.58074 151.71094 225.13086 C 195.45499 214.46413 227.99609 175.00035 227.99609 128.00195 C 227.99609 72.832702 183.1712 28 128.00195 28 z "
       transform="scale(0.26458332)" />
    <g
       transform="translate(-1.1150295,-3.0897166)"
       id="g900">
      <path
         id="path835"
         style="fill:#4d4d4d;fill-opacity:1;stroke:none;stroke-width:3.84616;stroke-linecap:round;stroke-linejoin:round;stroke-miterlimit:4;stroke-dasharray:none;stroke-opacity:1"
         d="M 93.785156 73.464844 A 17.857142 17.857142 0 0 0 75.927734 91.322266 A 17.857142 17.857142 0 0 0 93.785156 109.17969 A 17.857142 17.857142 0 0 0 111.64258 91.322266 A 17.857142 17.857142 0 0 0 93.785156 73.464844 z M 162.21484 73.464844 A 17.857142 17.857142 0 0 0 144.35742 91.322266 A 17.857142 17.857142 0 0 0 162.21484 109.17969 A 17.857142 17.857142 0 0 0 180.07227 91.322266 A 17.857142 17.857142 0 0 0 162.21484 73.464844 z M 93.785156 79.179688 A 7.1428557 7.1428557 0 0 1 100.92773 86.322266 A 7.1428557 7.1428557 0 0 1 93.785156 93.464844 A 7.1428557 7.1428557 0 0 1 86.642578 86.322266 A 7.1428557 7.1428557 0 0 1 93.785156 79.179688 z M 162.21484 79.179688 A 7.1428558 7.1428558 0 0 1 169.35742 86.322266 A 7.1428558 7.1428558 0 0 1 162.21484 93.464844 A 7.1428558 7.1428558 0 0 1 155.07227 86.322266 A 7.1428558 7.1428558 0 0 1 162.21484 79.179688 z "
         transform="matrix(0.26458332,0,0,0.26458332,1.1150295,3.0897166)" />
    </g>
    <path
       id="path3633"
       style="color:#000000;font-style:normal;font-variant:normal;font-weight:normal;font-stretch:normal;font-size:medium;line-height:normal;font-family:sans-serif;font-variant-ligatures:normal;font-variant-position:normal;font-variant-caps:normal;font-variant-numeric:normal;font-variant-alternates:normal;font-variant-east-asian:normal;font-feature-settings:normal;font-variation-settings:normal;text-indent:0;text-align:start;text-decoration:none;text-decoration-line:none;text-decoration-style:solid;text-decoration-color:#000000;letter-spacing:normal;word-spacing:normal;text-transform:none;writing-mode:lr-tb;direction:ltr;text-orientation:mixed;dominant-baseline:auto;baseline-shift:baseline;text-anchor:start;white-space:normal;shape-padding:0;shape-margin:0;inline-size:0;clip-rule:nonzero;display:inline;overflow:visible;visibility:visible;isolation:auto;mix-blend-mode:normal;color-interpolation:sRGB;color-interpolation-filters:linearRGB;solid-color:#000000;solid-opacity:1;vector-effect:none;fill:#4d4d4d;fill-opacity:1;fill-rule:nonzero;stroke:none;stroke-width:9.99999;stroke-linecap:round;stroke-linejoin:round;stroke-miterlimit:4;stroke-dasharray:none;stroke-dashoffset:0;stroke-opacity:1;color-rendering:auto;image-rendering:auto;shape-rendering:auto;text-rendering:auto;enable-background:accumulate;stop-color:#000000"
       d="M 136.5957 128.17773 C 136.67745 129.10319 136.6596 129.96563 136.6543 131.3457 C 136.64795 133.01743 136.608 135.15399 136.55078 137.61328 C 136.43721 142.49351 136.2411 148.61873 136.0293 154.64258 C 147.95526 150.50435 154.16992 138.93359 154.16992 138.93359 A 5.0004934 5.0004934 0 0 0 152.23633 132.07617 C 152.23633 132.07617 149.78234 130.78425 145.71875 129.74414 C 143.35934 129.14023 140.31698 128.562 136.5957 128.17773 z M 112.64453 128.97852 C 111.35669 129.22013 110.19587 129.48004 109.16406 129.74414 C 105.10047 130.78425 102.64453 132.07617 102.64453 132.07617 A 5.0004934 5.0004934 0 0 0 100.70312 138.93359 C 100.70312 138.93359 103.62679 144.37534 109.30859 149.13086 L 112.47852 129.88477 C 112.52922 129.57702 112.58691 129.27738 112.64453 128.97852 z "
       transform="scale(0.26458332)" />
    <path
       id="path846"
       style="color:#000000;font-style:normal;font-variant:normal;font-weight:normal;font-stretch:normal;font-size:medium;line-height:normal;font-family:sans-serif;font-variant-ligatures:normal;font-variant-position:normal;font-variant-caps:normal;font-variant-numeric:normal;font-variant-alternates:normal;font-variant-east-asian:normal;font-feature-settings:normal;font-variation-settings:normal;text-indent:0;text-align:start;text-decoration:none;text-decoration-line:none;text-decoration-style:solid;text-decoration-color:#000000;letter-spacing:normal;word-spacing:normal;text-transform:none;writing-mode:lr-tb;direction:ltr;text-orientation:mixed;dominant-baseline:auto;baseline-shift:baseline;text-anchor:start;white-space:normal;shape-padding:0;shape-margin:0;inline-size:0;clip-rule:nonzero;display:inline;overflow:visible;visibility:visible;opacity:1;isolation:auto;mix-blend-mode:normal;color-interpolation:sRGB;color-interpolation-filters:linearRGB;solid-color:#000000;solid-opacity:1;vector-effect:none;fill:#4d4d4d;fill-opacity:1;fill-rule:nonzero;stroke:none;stroke-width:3.77953;stroke-linecap:round;stroke-linejoin:miter;stroke-miterlimit:4;stroke-dasharray:none;stroke-dashoffset:0;stroke-opacity:1;color-rendering:auto;image-rendering:auto;shape-rendering:auto;text-rendering:auto;enable-background:accumulate;stop-color:#000000;stop-opacity:1"
       d="M 124.49219 118.13672 C 124.09893 118.14879 123.70342 118.17982 123.30664 118.22852 C 120.5565 118.56607 117.76972 119.59203 115.83008 121.75 C 113.89044 123.90797 113.01083 126.65393 112.47852 129.88477 L 106.75 164.66992 C 109.24214 163.8984 112.14037 163.20621 115.19141 162.63867 L 120.37695 131.19141 C 120.78629 128.70698 121.37562 127.55068 121.7793 127.10156 C 122.18298 126.65245 122.6176 126.36826 124.28125 126.16406 C 126.7604 125.85978 128.44807 127.47058 128.60742 128.65234 C 128.57061 128.37939 128.65835 129.72792 128.65234 131.30859 C 128.64634 132.88926 128.61123 134.99802 128.55469 137.42773 C 128.4416 142.28715 128.24436 148.45148 128.03125 154.50391 C 127.94478 156.95957 127.86829 158.84077 127.78125 161.16602 C 128.31107 161.14535 128.85554 161.11116 129.36914 161.10547 C 130.04932 161.09793 130.71535 161.10377 131.36133 161.125 C 132.94098 161.17692 134.38342 161.27065 135.77148 161.57422 C 135.86 159.20787 135.93721 157.28749 136.02539 154.7832 C 136.23911 148.71368 136.43632 142.53186 136.55078 137.61328 C 136.60801 135.15399 136.64794 133.01743 136.6543 131.3457 C 136.66065 129.67398 136.6954 128.77037 136.53516 127.58203 C 135.75878 121.82456 130.39102 117.95561 124.49219 118.13672 z "
       transform="scale(0.26458332)" />
    <path
       style="fill:none;fill-opacity:1;stroke:#4d4d4d;stroke-width:2.11667;stroke-linecap:round;stroke-linejoin:round;stroke-miterlimit:4;stroke-dasharray:none;stroke-opacity:1;stop-color:#000000"
       d="m 30.385481,54.156968 c 0,0 0.312288,0.434003 0.914551,0.938826 0.486675,0.407935 1.162701,0.862118 2.016303,1.170906 2.619613,0.947642 6.599543,-6.075496 6.734524,-7.653452 0.148697,-1.738317 -2.624098,-4.068548 -3.895271,-4.676175 -1.267122,-0.605691 -5.536868,-0.03335 -7.76883,0.693545 -1.646644,0.536276 -3.3038,4.889025 -4.130449,7.949808 -0.82015,3.036713 3.042699,8.25373 3.863392,8.258592 0.673968,0.004 8.066594,0.03239 8.840208,0 0.773613,-0.03239 3.265482,-2.709064 4.632614,-4.932891 0.437484,-0.711624 1.136396,-2.532439 1.438468,-3.517148 0.302071,-0.98471 1.22481,-4.181483 -0.218941,-5.223746 -1.603508,-1.157597 -3.023848,0.07423 -3.023848,0.07423"
       id="path842"
       sodipodi:nodetypes="cssssssszscsc" />
    <path
       style="font-variation-settings:normal;vector-effect:none;fill:none;fill-opacity:1;stroke:#4d4d4d;stroke-width:2.11666;stroke-linecap:round;stroke-linejoin:round;stroke-miterlimit:4;stroke-dasharray:none;stroke-dashoffset:0;stroke-opacity:1;stop-color:#000000"
       d="m 34.180973,51.626005 c 2.361463,2.080144 2.361463,2.080144 2.361463,2.080144"
       id="path2194" />
    <path
       style="font-variation-settings:normal;vector-effect:none;fill:none;fill-opacity:1;stroke:#4d4d4d;stroke-width:2.11666;stroke-linecap:round;stroke-linejoin:round;stroke-miterlimit:4;stroke-dasharray:none;stroke-dashoffset:0;stroke-opacity:1;stop-color:#000000"
       d="m 36.14257,48.444609 2.525496,2.209175"
       id="path2194-6"
       sodipodi:nodetypes="cc" />
  </g>
</svg>
