<?xml version="1.0" encoding="UTF-8" standalone="no"?>
<svg
   sodipodi:docname="1F92F_plain.svg"
   inkscape:version="1.1 (c68e22c387, 2021-05-23)"
   id="svg8"
   version="1.1"
   viewBox="0 0 67.733331 67.733331"
   height="256"
   width="256"
   xmlns:inkscape="http://www.inkscape.org/namespaces/inkscape"
   xmlns:sodipodi="http://sodipodi.sourceforge.net/DTD/sodipodi-0.dtd"
   xmlns="http://www.w3.org/2000/svg"
   xmlns:svg="http://www.w3.org/2000/svg"
   xmlns:rdf="http://www.w3.org/1999/02/22-rdf-syntax-ns#"
   xmlns:cc="http://creativecommons.org/ns#"
   xmlns:dc="http://purl.org/dc/elements/1.1/">
  <defs
     id="defs2" />
  <sodipodi:namedview
     inkscape:snap-object-midpoints="false"
     units="px"
     inkscape:window-maximized="1"
     inkscape:window-y="-9"
     inkscape:window-x="-9"
     inkscape:window-height="991"
     inkscape:window-width="1920"
     showgrid="false"
     inkscape:document-rotation="0"
     inkscape:current-layer="layer1"
     inkscape:document-units="px"
     inkscape:cy="140.15867"
     inkscape:cx="188.14091"
     inkscape:zoom="1.979899"
     inkscape:pageshadow="2"
     inkscape:pageopacity="0.0"
     borderopacity="1.0"
     bordercolor="#666666"
     pagecolor="#ffffff"
     id="base"
     inkscape:pagecheckerboard="0" />
  <metadata
     id="metadata5">
    <rdf:RDF>
      <cc:Work
         rdf:about="">
        <dc:format>image/svg+xml</dc:format>
        <dc:type
           rdf:resource="http://purl.org/dc/dcmitype/StillImage" />
        <cc:license
           rdf:resource="http://creativecommons.org/publicdomain/zero/1.0/" />
        <dc:creator>
          <cc:Agent>
            <dc:title>Dexterux</dc:title>
          </cc:Agent>
        </dc:creator>
        <dc:publisher>
          <cc:Agent>
            <dc:title>Dexterux</dc:title>
          </cc:Agent>
        </dc:publisher>
      </cc:Work>
      <cc:License
         rdf:about="http://creativecommons.org/publicdomain/zero/1.0/">
        <cc:permits
           rdf:resource="http://creativecommons.org/ns#Reproduction" />
        <cc:permits
           rdf:resource="http://creativecommons.org/ns#Distribution" />
        <cc:permits
           rdf:resource="http://creativecommons.org/ns#DerivativeWorks" />
      </cc:License>
    </rdf:RDF>
  </metadata>
  <g
     id="layer1"
     inkscape:groupmode="layer"
     inkscape:label="Layer 1">
    <path
       id="path17541"
       style="color:#000000;fill:#4d4d4d;stroke-width:9.99999;stroke-linecap:round;stroke-linejoin:round;-inkscape-stroke:none"
       d="M 127.99414 22.080078 C 112.91053 21.910789 92.459554 24.751515 77.228516 33.609375 C 69.60299 38.044125 63.161927 44.197906 60.214844 52.507812 C 57.468949 60.250419 58.041425 69.464168 62.521484 79.630859 C 55.433798 80.740913 49.509882 82.020489 45.007812 83.570312 C 42.50861 84.430658 40.422672 85.332004 38.591797 86.634766 C 36.760918 87.937527 34.695313 90.091419 34.695312 93.298828 C 34.695312 93.610908 34.730578 93.904914 34.767578 94.197266 L 34.755859 94.197266 C 34.759759 94.228406 34.769128 94.256189 34.773438 94.287109 C 34.801957 94.491828 34.847678 94.685772 34.892578 94.880859 C 34.925358 95.023513 34.955268 95.167111 34.996094 95.304688 C 35.052214 95.493482 35.119428 95.674195 35.189453 95.853516 C 35.239393 95.981731 35.289333 96.108982 35.345703 96.232422 C 35.424853 96.405354 35.509086 96.572681 35.599609 96.736328 C 35.667519 96.85942 35.736961 96.979743 35.810547 97.097656 C 35.901497 97.243037 35.993293 97.385851 36.091797 97.523438 C 36.150307 97.605377 36.212595 97.680552 36.273438 97.759766 C 36.588724 98.169328 36.926298 98.544537 37.283203 98.882812 C 37.712965 99.291053 38.157227 99.655626 38.591797 99.964844 C 40.422672 101.26761 42.508609 102.17676 45.007812 103.03711 C 50.006223 104.7578 56.672639 106.15038 64.841797 107.33984 C 67.357677 107.70617 70.05735 108.04146 72.839844 108.36133 C 73.498257 108.43663 74.175134 108.50749 74.847656 108.58008 C 77.321138 108.8485 79.880708 109.09813 82.533203 109.32812 C 82.908049 109.36042 83.268268 109.39623 83.646484 109.42773 C 90.24448 109.98097 97.350349 110.40666 104.8418 110.69922 C 104.8619 110.7 104.88224 110.70213 104.90234 110.70312 C 112.28238 110.99052 119.99463 111.15625 127.99414 111.15625 C 135.99575 111.15625 143.71085 110.99067 151.09375 110.70312 C 151.11975 110.70213 151.14598 110.70022 151.17188 110.69922 C 158.6467 110.40703 165.73679 109.98138 172.32227 109.42969 C 172.72774 109.39599 173.11403 109.35889 173.51562 109.32422 C 176.14483 109.09589 178.68368 108.84812 181.13672 108.58203 C 181.81457 108.50893 182.49665 108.43726 183.16016 108.36133 C 185.94143 108.0416 188.63969 107.70598 191.1543 107.33984 C 199.32345 106.15038 205.98987 104.7578 210.98828 103.03711 C 213.48749 102.17676 215.57342 101.26761 217.4043 99.964844 C 217.83887 99.655626 218.28313 99.291053 218.71289 98.882812 C 219.0698 98.544537 219.40737 98.169328 219.72266 97.759766 C 219.78346 97.680556 219.84579 97.605381 219.9043 97.523438 C 220.0028 97.385851 220.0946 97.243037 220.18555 97.097656 C 220.25915 96.979743 220.32857 96.85942 220.39648 96.736328 C 220.48698 96.572681 220.57124 96.405354 220.65039 96.232422 C 220.70679 96.108982 220.7567 95.981731 220.80664 95.853516 C 220.87664 95.674195 220.94388 95.493482 221 95.304688 C 221.0408 95.167111 221.0707 95.023513 221.10352 94.880859 C 221.14842 94.685772 221.19412 94.491828 221.22266 94.287109 C 221.22666 94.256189 221.23633 94.228406 221.24023 94.197266 L 221.22852 94.197266 C 221.26552 93.904914 221.30078 93.610908 221.30078 93.298828 C 221.30078 90.091419 219.23518 87.937527 217.4043 86.634766 C 215.57342 85.332004 213.48749 84.430658 210.98828 83.570312 C 206.65625 82.079023 200.99978 80.839129 194.26953 79.757812 C 198.02714 70.294059 198.358 61.630382 195.80469 54.234375 C 192.88501 45.777138 186.4952 39.371513 178.88477 34.671875 C 163.67938 25.282186 143.19484 21.90869 127.99414 22.080078 z M 127.94336 32.074219 A 5.0004999 5.0004999 0 0 0 128.06055 32.074219 C 141.56045 31.91546 161.04013 35.40971 173.62891 43.183594 C 179.92329 47.070536 184.39214 51.833646 186.34766 57.498047 C 188.22188 62.926968 188.05974 69.55448 184.00195 78.332031 C 183.99395 78.331069 183.98662 78.329125 183.97852 78.328125 C 183.79938 78.7161 183.65746 79.083983 183.46289 79.480469 C 183.18762 80.041405 182.9062 80.549133 182.61914 81.007812 C 182.33208 81.466493 182.03848 81.875355 181.73828 82.242188 C 181.43809 82.609019 181.13108 82.93336 180.81641 83.21875 C 180.50174 83.50414 180.1801 83.750489 179.84961 83.964844 C 179.51912 84.179199 179.17968 84.361899 178.83203 84.515625 C 178.48438 84.669351 178.12787 84.794933 177.76172 84.898438 C 177.39557 85.001941 177.02076 85.082795 176.63477 85.146484 C 176.24877 85.210174 175.85249 85.256735 175.44531 85.291016 C 175.03813 85.325296 174.62012 85.336282 174.19531 85.326172 C 173.79754 85.316672 173.39383 85.285917 172.98828 85.242188 C 172.93038 85.235988 172.87246 85.229546 172.81445 85.222656 C 172.41134 85.174736 172.00595 85.113733 171.60352 85.037109 C 171.1706 84.954679 170.7398 84.856442 170.31641 84.746094 C 169.4764 84.527165 168.66536 84.257509 167.91602 83.960938 C 167.91002 83.958738 167.90394 83.957278 167.89844 83.955078 C 167.89844 83.955078 167.89648 83.955078 167.89648 83.955078 C 167.88848 83.951978 167.8829 83.948512 167.875 83.945312 C 167.12989 83.648446 166.44661 83.324848 165.86328 82.994141 C 165.52331 82.801401 165.13438 82.637761 164.7168 82.507812 C 164.29921 82.377865 163.85256 82.282691 163.39648 82.228516 C 162.94041 82.174336 162.47498 82.160733 162.01953 82.195312 C 161.56408 82.229892 161.11883 82.312906 160.70312 82.449219 C 160.28743 82.585531 159.91278 82.750028 159.57227 82.935547 C 159.23175 83.121065 158.9263 83.32654 158.65039 83.542969 C 158.38536 83.750864 158.1486 83.969584 157.93359 84.189453 C 157.92459 84.198353 157.91485 84.207917 157.90625 84.216797 C 157.89405 84.229347 157.88505 84.241346 157.87305 84.253906 C 157.66541 84.470897 157.47756 84.686974 157.30859 84.898438 C 156.95851 85.336562 156.65813 85.776052 156.39258 86.216797 C 156.38758 86.224897 156.3798 86.232174 156.375 86.240234 C 156.375 86.240234 156.375 86.242188 156.375 86.242188 C 156.37 86.250887 156.36457 86.258888 156.35938 86.267578 C 156.09664 86.708607 155.86942 87.152898 155.66602 87.605469 C 155.45862 88.066921 155.27664 88.537066 155.10547 89.019531 C 154.93421 89.502099 154.77393 89.997185 154.61328 90.509766 C 154.29198 91.534926 153.99622 92.625616 153.72266 93.769531 C 153.72266 93.769531 153.72266 93.771484 153.72266 93.771484 C 153.44926 94.914848 153.19826 96.111481 152.96484 97.34375 C 152.76124 98.418639 152.5732 99.525108 152.39453 100.64648 C 146.91406 100.87911 141.15811 101.00938 135.29297 101.08398 C 134.8929 90.521051 134.55655 75.420248 135.95703 76.242188 C 138.09765 77.49851 146.42365 78.987279 148.39062 74.837891 C 155.21018 60.451855 137.76357 56.082302 128 56.201172 C 118.23643 56.082344 100.78982 60.451855 107.60938 74.837891 C 109.57634 78.987279 117.90234 77.49851 120.04297 76.242188 C 121.44345 75.420248 121.1071 90.521051 120.70703 101.08398 C 114.84074 101.00941 109.0837 100.87921 103.60156 100.64648 C 103.42289 99.525109 103.23485 98.418639 103.03125 97.34375 C 102.79784 96.111482 102.54683 94.914848 102.27344 93.771484 C 102.27344 93.771484 102.27344 93.769531 102.27344 93.769531 C 101.99988 92.625616 101.70411 91.534927 101.38281 90.509766 C 101.21374 89.97031 101.04465 89.451788 100.86328 88.945312 C 100.6998 88.489114 100.52672 88.04299 100.33008 87.605469 C 100.13322 87.167463 99.912222 86.737612 99.660156 86.310547 C 99.634376 86.266837 99.606558 86.223326 99.580078 86.179688 C 99.319964 85.751435 99.029761 85.324328 98.689453 84.898438 C 98.522098 84.688993 98.335482 84.474705 98.130859 84.259766 C 98.117259 84.245476 98.105577 84.231077 98.091797 84.216797 C 98.082597 84.207297 98.07181 84.19704 98.0625 84.1875 C 97.857439 83.977273 97.631306 83.76792 97.380859 83.568359 C 97.370549 83.560159 97.361962 83.551149 97.351562 83.542969 C 97.351562 83.542969 97.349609 83.542969 97.349609 83.542969 C 97.342809 83.537569 97.334955 83.532684 97.328125 83.527344 C 97.058501 83.316796 96.76306 83.116478 96.431641 82.935547 C 96.091819 82.750028 95.716485 82.585531 95.300781 82.449219 C 94.885077 82.312907 94.439823 82.22989 93.984375 82.195312 C 93.528927 82.160733 93.063495 82.174346 92.607422 82.228516 C 92.151348 82.282696 91.704691 82.377866 91.287109 82.507812 C 90.869527 82.63776 90.480598 82.801403 90.140625 82.994141 C 89.638278 83.278936 89.02847 83.546226 88.34375 83.777344 C 87.31667 84.124021 86.121111 84.389355 84.873047 84.507812 C 83.624983 84.626271 82.323854 84.598072 81.082031 84.359375 C 80.692377 84.284475 80.307284 84.195012 79.927734 84.087891 C 77.270887 83.338044 74.876669 81.725405 72.953125 78.224609 C 72.945725 78.225462 72.939081 78.225663 72.931641 78.226562 C 72.799945 77.985851 72.66815 77.739537 72.541016 77.480469 C 67.942967 68.110759 67.704695 61.288288 69.632812 55.851562 C 71.560931 50.414838 75.976563 45.905731 82.255859 42.253906 C 94.814451 34.950249 114.32736 31.914106 127.94336 32.074219 z "
       transform="scale(0.26458332)" />
    <path
       id="path36895"
       style="color:#000000;fill:none;stroke-width:2.64583;stroke-linecap:round;stroke-linejoin:round;-inkscape-stroke:none"
       d="m 57.789752,26.172045 c -0.11008,0.103663 -0.223864,0.196169 -0.334864,0.275435 -0.483299,0.345127 -1.033614,0.584574 -1.692918,0.812354 -1.318612,0.455557 -3.076668,0.825738 -5.230688,1.140497 -4.308052,0.629523 -10.17148,1.009759 -16.652213,1.009759 -6.480738,0 -12.34468,-0.380236 -16.652731,-1.009759 -2.154025,-0.314759 -3.91156,-0.68494 -5.230171,-1.140497 C 11.336861,27.032054 10.78603,26.792607 10.30273,26.44748 10.19619,26.3714 10.08711,26.282465 9.9813028,26.18393 9.1682179,28.664396 8.7464779,31.256381 8.7312501,33.866665 8.7312512,47.748571 19.98476,59.00208 33.866666,59.00208 c 13.881906,0 25.135415,-11.253509 25.135415,-25.135415 -0.0019,-2.612287 -0.410829,-5.208328 -1.212329,-7.69462 z"
       sodipodi:nodetypes="csssssssccscc" />
    <path
       id="path36897"
       style="color:#000000;fill:#4d4d4d;stroke-width:3.77953;stroke-linecap:round;stroke-linejoin:round;-inkscape-stroke:none"
       d="m 221.04102,91.40625 c -5.08079,5.719953 -5.36512,6.755336 -6.91407,10.39648 2.51238,8.28906 3.875,17.08155 3.875,26.19922 0,49.76481 -40.23519,90 -90,90 -49.7648,0 -89.999997,-40.23519 -89.999997,-90 0,-9.11635 1.363324,-17.90731 3.875,-26.19531 C 39.370099,97.557105 37.370507,93.30782 34.949219,91.423828 30.480855,102.76015 28,115.09146 28,128.00195 c 0,55.1692 44.832762,99.99414 100.00195,99.99414 55.1692,0 99.99414,-44.82494 99.99414,-99.99414 0,-12.91728 -2.48286,-25.25448 -6.95507,-36.5957 z"
       sodipodi:nodetypes="ccsssccsssc"
       transform="scale(0.26458332)" />
    <path
       id="path835"
       style="fill:#4d4d4d;fill-opacity:1;stroke:none;stroke-width:3.84616;stroke-linecap:round;stroke-linejoin:round;stroke-miterlimit:4;stroke-dasharray:none;stroke-opacity:1"
       d="M 93.785156 121.28516 A 17.857142 17.857142 0 0 0 75.927734 139.14258 A 17.857142 17.857142 0 0 0 93.785156 157 A 17.857142 17.857142 0 0 0 111.64258 139.14258 A 17.857142 17.857142 0 0 0 93.785156 121.28516 z M 93.785156 127 A 7.1428558 7.1428558 0 0 1 100.92773 134.14258 A 7.1428558 7.1428558 0 0 1 93.785156 141.28516 A 7.1428558 7.1428558 0 0 1 86.642578 134.14258 A 7.1428558 7.1428558 0 0 1 93.785156 127 z "
       transform="scale(0.26458332)" />
    <path
       id="path835-3"
       style="fill:#4d4d4d;fill-opacity:1;stroke:none;stroke-width:3.84616;stroke-linecap:round;stroke-linejoin:round;stroke-miterlimit:4;stroke-dasharray:none;stroke-opacity:1"
       d="M 162.21484 121.28516 A 17.857142 17.857142 0 0 0 144.35742 139.14258 A 17.857142 17.857142 0 0 0 162.21484 157 A 17.857142 17.857142 0 0 0 180.07227 139.14258 A 17.857142 17.857142 0 0 0 162.21484 121.28516 z M 162.21484 127 A 7.1428558 7.1428558 0 0 1 169.35742 134.14258 A 7.1428558 7.1428558 0 0 1 162.21484 141.28516 A 7.1428558 7.1428558 0 0 1 155.07227 134.14258 A 7.1428558 7.1428558 0 0 1 162.21484 127 z "
       transform="scale(0.26458332)" />
    <path
       id="path902-3-2"
       style="fill:none;fill-opacity:1;stroke:#4d4d4d;stroke-width:2.11667;stroke-linecap:round;stroke-linejoin:round;stroke-miterlimit:4;stroke-dasharray:none;stroke-opacity:1"
       d="m 38.620549,50.857802 c 1.654543,-0.908499 2.223027,-5.440277 -4.484649,-5.440277 -6.707676,0 -6.139192,4.531778 -4.484649,5.440277 1.654543,0.908499 3.001525,1.188836 4.484649,1.188836 1.483124,0 2.830106,-0.280337 4.484649,-1.188836 z"
       sodipodi:nodetypes="zzzzz" />
  </g>
</svg>
