<?xml version="1.0" encoding="UTF-8" standalone="no"?>
<svg
   sodipodi:docname="1F92F_plain.svg"
   inkscape:version="1.1 (c68e22c387, 2021-05-23)"
   id="svg8"
   version="1.1"
   viewBox="0 0 67.733331 67.733331"
   height="256"
   width="256"
   xmlns:inkscape="http://www.inkscape.org/namespaces/inkscape"
   xmlns:sodipodi="http://sodipodi.sourceforge.net/DTD/sodipodi-0.dtd"
   xmlns="http://www.w3.org/2000/svg"
   xmlns:svg="http://www.w3.org/2000/svg"
   xmlns:rdf="http://www.w3.org/1999/02/22-rdf-syntax-ns#"
   xmlns:cc="http://creativecommons.org/ns#"
   xmlns:dc="http://purl.org/dc/elements/1.1/">
  <defs
     id="defs2" />
  <sodipodi:namedview
     inkscape:snap-object-midpoints="false"
     units="px"
     inkscape:window-maximized="1"
     inkscape:window-y="-9"
     inkscape:window-x="-9"
     inkscape:window-height="991"
     inkscape:window-width="1920"
     showgrid="false"
     inkscape:document-rotation="0"
     inkscape:current-layer="layer1"
     inkscape:document-units="px"
     inkscape:cy="-100.71429"
     inkscape:cx="82.142857"
     inkscape:zoom="0.7"
     inkscape:pageshadow="2"
     inkscape:pageopacity="0.0"
     borderopacity="1.0"
     bordercolor="#666666"
     pagecolor="#ffffff"
     id="base"
     inkscape:pagecheckerboard="0" />
  <metadata
     id="metadata5">
    <rdf:RDF>
      <cc:Work
         rdf:about="">
        <dc:format>image/svg+xml</dc:format>
        <dc:type
           rdf:resource="http://purl.org/dc/dcmitype/StillImage" />
        <cc:license
           rdf:resource="http://creativecommons.org/publicdomain/zero/1.0/" />
        <dc:creator>
          <cc:Agent>
            <dc:title>Dexterux</dc:title>
          </cc:Agent>
        </dc:creator>
        <dc:publisher>
          <cc:Agent>
            <dc:title>Dexterux</dc:title>
          </cc:Agent>
        </dc:publisher>
      </cc:Work>
      <cc:License
         rdf:about="http://creativecommons.org/publicdomain/zero/1.0/">
        <cc:permits
           rdf:resource="http://creativecommons.org/ns#Reproduction" />
        <cc:permits
           rdf:resource="http://creativecommons.org/ns#Distribution" />
        <cc:permits
           rdf:resource="http://creativecommons.org/ns#DerivativeWorks" />
      </cc:License>
    </rdf:RDF>
  </metadata>
  <g
     id="layer1"
     inkscape:groupmode="layer"
     inkscape:label="Layer 1">
    <g
       id="g61551">
      <path
         id="path36895"
         style="color:#000000;fill:none;stroke-width:9.99999;stroke-linecap:round;stroke-linejoin:round;-inkscape-stroke:none"
         d="m 218.41797,98.917969 c -0.41605,0.391797 -0.8461,0.741429 -1.26563,1.041015 -1.82664,1.304416 -3.90657,2.209416 -6.39843,3.070316 -4.98373,1.72179 -11.62835,3.1209 -19.76953,4.31054 -16.2824,2.3793 -38.44339,3.81641 -62.9375,3.81641 -24.49413,0 -46.65706,-1.43711 -62.939458,-3.81641 -8.141197,-1.18964 -14.783851,-2.58875 -19.767578,-4.31054 -2.491866,-0.8609 -4.573745,-1.7659 -6.400391,-3.070316 C 38.53678,99.671433 38.124512,99.335307 37.724609,98.962891 34.651532,108.33788 33.057554,118.13436 33,128 c 4e-6,52.46705 42.532952,95 95,95 52.46705,0 95,-42.53295 95,-95 -0.007,-9.87321 -1.55274,-19.68502 -4.58203,-29.082031 z"
         sodipodi:nodetypes="csssssssccscc"
         transform="scale(0.26458332)" />
      <path
         id="path36897"
         style="color:#000000;fill:#4d4d4d;stroke-width:3.77953;stroke-linecap:round;stroke-linejoin:round;-inkscape-stroke:none"
         d="m 221.04102,91.40625 c -5.08079,5.719953 -5.36512,6.755336 -6.91407,10.39648 2.51238,8.28906 3.875,17.08155 3.875,26.19922 0,49.76481 -40.23519,90 -90,90 -49.7648,0 -89.999997,-40.23519 -89.999997,-90 0,-9.11635 1.363324,-17.90731 3.875,-26.19531 C 39.370099,97.557105 37.370507,93.30782 34.949219,91.423828 30.480855,102.76015 28,115.09146 28,128.00195 c 0,55.1692 44.832762,99.99414 100.00195,99.99414 55.1692,0 99.99414,-44.82494 99.99414,-99.99414 0,-12.91728 -2.48286,-25.25448 -6.95507,-36.5957 z"
         sodipodi:nodetypes="ccsssccsssc"
         transform="scale(0.26458332)" />
      <path
         id="path835"
         style="fill:#4d4d4d;fill-opacity:1;stroke:none;stroke-width:3.84616;stroke-linecap:round;stroke-linejoin:round;stroke-miterlimit:4;stroke-dasharray:none;stroke-opacity:1"
         d="M 93.785156,121.28516 A 17.857142,17.857142 0 0 0 75.927734,139.14258 17.857142,17.857142 0 0 0 93.785156,157 17.857142,17.857142 0 0 0 111.64258,139.14258 17.857142,17.857142 0 0 0 93.785156,121.28516 Z m 0,5.71484 a 7.1428558,7.1428558 0 0 1 7.142574,7.14258 7.1428558,7.1428558 0 0 1 -7.142574,7.14258 7.1428558,7.1428558 0 0 1 -7.142578,-7.14258 A 7.1428558,7.1428558 0 0 1 93.785156,127 Z"
         transform="scale(0.26458332)" />
      <path
         id="path835-3"
         style="fill:#4d4d4d;fill-opacity:1;stroke:none;stroke-width:3.84616;stroke-linecap:round;stroke-linejoin:round;stroke-miterlimit:4;stroke-dasharray:none;stroke-opacity:1"
         d="M 162.21484,121.28516 A 17.857142,17.857142 0 0 0 144.35742,139.14258 17.857142,17.857142 0 0 0 162.21484,157 17.857142,17.857142 0 0 0 180.07227,139.14258 17.857142,17.857142 0 0 0 162.21484,121.28516 Z m 0,5.71484 a 7.1428558,7.1428558 0 0 1 7.14258,7.14258 7.1428558,7.1428558 0 0 1 -7.14258,7.14258 7.1428558,7.1428558 0 0 1 -7.14257,-7.14258 A 7.1428558,7.1428558 0 0 1 162.21484,127 Z"
         transform="scale(0.26458332)" />
      <path
         id="path902-3-2"
         style="fill:#4d4d4d;fill-opacity:1;stroke:#4d4d4d;stroke-width:2.11667;stroke-linecap:round;stroke-linejoin:round;stroke-miterlimit:4;stroke-dasharray:none;stroke-opacity:1"
         d="m 38.620549,50.857802 c 1.654543,-0.908499 2.223027,-5.440277 -4.484649,-5.440277 -6.707676,0 -6.139192,4.531778 -4.484649,5.440277 1.654543,0.908499 3.001525,1.188836 4.484649,1.188836 1.483124,0 2.830106,-0.280337 4.484649,-1.188836 z"
         sodipodi:nodetypes="zzzzz" />
      <path
         id="path58716"
         style="color:#000000;fill:#4d4d4d;stroke-width:9.99999;stroke-linecap:round;stroke-linejoin:round;-inkscape-stroke:none"
         d="m 96.417969,76.292969 c -4.220423,0.234268 -8.311355,0.508681 -12.210938,0.830078 L 94.671875,100.19727 C 89.331817,99.875682 84.263732,99.480797 79.537109,99.021484 L 65.490234,79.173828 c -0.208924,0.02984 -0.441402,0.05579 -0.648437,0.08594 -8.169158,1.189466 -14.835574,2.589859 -19.833985,4.310546 -2.499202,0.860346 -4.58514,1.761692 -6.416015,3.064454 -1.830879,1.302761 -3.896484,3.456653 -3.896485,6.664062 0,3.207406 2.065606,5.363254 3.896485,6.666016 1.830875,1.302766 3.916813,2.211916 6.416015,3.072266 4.998411,1.72069 11.664827,3.11327 19.833985,4.30273 16.338316,2.37893 38.571753,3.81641 63.152343,3.81641 24.58059,0 46.82184,-1.43748 63.16016,-3.81641 8.16915,-1.18946 14.83557,-2.58204 19.83398,-4.30273 2.49921,-0.86035 4.58514,-1.7695 6.41602,-3.072266 1.83088,-1.302762 3.89648,-3.45861 3.89648,-6.666016 0,-3.207409 -2.0656,-5.361301 -3.89648,-6.664062 -1.83088,-1.302762 -3.91681,-2.204108 -6.41602,-3.064454 -4.99841,-1.720687 -11.66483,-3.12108 -19.83398,-4.310546 -0.20581,-0.02997 -0.43686,-0.05627 -0.64453,-0.08594 l -14.04688,19.847656 c -4.72689,0.459462 -9.79435,0.854117 -15.13477,1.175786 l 10.46485,-23.074223 c -3.90011,-0.321501 -7.99164,-0.595766 -12.21289,-0.830078 -1.40023,0.994268 -3.66508,2.019673 -6.32422,2.501953 -1.98287,0.359622 -4.03775,0.471881 -5.64844,0.382812 -1.61068,-0.08908 -2.89058,-0.589038 -2.53906,-0.390625 -1.02533,-0.57874 -2.79724,-1.065447 -4.51758,-0.560547 -1.72033,0.504904 -2.78758,1.706338 -3.33594,2.589844 -1.09671,1.76702 -1.14454,2.959488 -1.29296,4.267578 -0.29692,2.616178 -0.18025,5.554349 0.0234,8.583985 0.18085,2.691803 0.44778,5.300011 0.69336,7.429691 -2.84256,0.0409 -5.72081,0.0644 -8.63672,0.0644 -2.91788,0 -5.79796,-0.0234 -8.64257,-0.0644 0.24504,-2.129684 0.51056,-4.737953 0.6914,-7.429691 0.20353,-3.029636 0.32021,-5.967803 0.0234,-8.583985 -0.14846,-1.30809 -0.20212,-2.500558 -1.29883,-4.267578 -0.54836,-0.883506 -1.60974,-2.084944 -3.33008,-2.589844 -1.72033,-0.5049 -3.49224,-0.01824 -4.51758,0.560547 0.35154,-0.198425 -0.92837,0.301557 -2.53906,0.390625 -1.61068,0.08908 -3.66556,-0.02314 -5.64844,-0.382812 -2.65913,-0.48228 -4.922613,-1.507685 -6.322261,-2.501953 z m 13.689451,12.585937 c 0.008,1.337896 0.0756,2.441859 -0.0371,4.117188 -0.18823,2.801885 -0.49743,5.673079 -0.75976,7.863286 -1.09378,-0.0348 -2.2,-0.0647 -3.27735,-0.10547 l -2.78515,-11.78516 c 1.97955,0.228321 3.90352,0.288439 5.69336,0.189453 0.41824,-0.02305 0.76596,-0.246415 1.16601,-0.279297 z m 35.78125,0 c 0.40005,0.03288 0.74778,0.256242 1.16602,0.279297 1.79101,0.09902 3.71633,0.03925 5.69726,-0.189453 l -2.78515,11.78516 c -1.07861,0.0409 -2.18617,0.0707 -3.28125,0.10547 -0.26233,-2.190204 -0.57155,-5.061401 -0.75977,-7.863286 -0.11244,-1.675329 -0.0451,-2.779292 -0.0371,-4.117188 z"
         transform="scale(0.26458332)" />
      <path
         id="path40978-0-2-0-9"
         style="fill:#4d4d4d;fill-opacity:1;stroke:none;stroke-width:9.99999;stroke-linecap:round;stroke-linejoin:round;stroke-miterlimit:4;stroke-dasharray:none;stroke-opacity:1;stop-color:#000000"
         d="m 27.087891,24.910156 38.40039,54.259766 c 5.607181,-0.800625 11.893376,-1.490798 18.714844,-2.052734 L 60.525391,24.910156 Z m 168.386719,0 -23.67773,52.207032 c 6.82152,0.562053 13.10696,1.251906 18.71484,2.052734 l 38.40039,-54.259766 z"
         transform="scale(0.26458332)" />
      <path
         id="path40978-0"
         style="fill:#4d4d4d;fill-opacity:1;stroke:none;stroke-width:9.99999;stroke-linecap:round;stroke-linejoin:round;stroke-miterlimit:4;stroke-dasharray:none;stroke-opacity:1;stop-color:#000000"
         d="m 88.107422,24.910156 5.101562,21.582032 c 6.047022,-4.374433 13.901326,-7.312519 20.160156,-9.13086 L 112.4082,24.910156 Z m 55.484378,0 -0.96289,12.451172 c 7.50369,2.499323 14.49554,4.859349 20.16211,9.134766 l 5.10156,-21.585938 z"
         sodipodi:nodetypes="cccccccccc"
         transform="scale(0.26458332)" />
      <path
         id="path40978-0-2-0-2"
         style="fill:none;fill-opacity:1;stroke:none;stroke-width:2.64584;stroke-linecap:round;stroke-linejoin:round;stroke-miterlimit:4;stroke-dasharray:none;stroke-opacity:1;stop-color:#000000"
         d="M 46.445761,27.509833 61.095628,6.5906972 H 33.871329 6.6377021 L 21.287555,27.509833"
         sodipodi:nodetypes="ccccc" />
      <path
         style="color:#000000;fill:none;stroke-width:2.64583;stroke-linecap:round;stroke-linejoin:round;-inkscape-stroke:none"
         d="m 37.624481,27.830716 c 0,0 -0.93173,-6.420114 0.108533,-5.832946 1.040272,0.587173 5.08605,0.348453 6.041931,-1.590859 3.314079,-6.723646 -5.164028,-9.700144 -9.908798,-9.64459 -4.744769,-0.05555 -13.222876,2.920944 -9.908798,9.64459 0.955881,1.939312 5.001658,2.178032 6.041932,1.590859 1.040266,-0.587168 0.108532,5.832946 0.108532,5.832946"
         id="path58030" />
      <path
         style="color:#000000;fill:#4d4d4d;stroke-linecap:round;stroke-linejoin:round;-inkscape-stroke:none"
         d="m 33.867187,9.4414063 c -2.656501,-0.028669 -6.101386,0.7078007 -8.726562,2.5097657 -1.314643,0.902393 -2.438636,2.117 -2.957031,3.691406 -0.518395,1.574406 -0.356631,3.433352 0.58789,5.349609 0.795645,1.614221 2.466799,2.191894 3.939453,2.458985 0.736328,0.133545 1.458412,0.174885 2.113282,0.138672 0.110659,-0.0061 0.202747,-0.06555 0.308593,-0.07422 0.0021,0.353985 0.02001,0.64658 -0.0098,1.089844 -0.09809,1.460079 -0.324219,3.035156 -0.324219,3.035156 a 1.322915,1.322915 0 0 0 1.119141,1.5 1.322915,1.322915 0 0 0 1.5,-1.119141 c 0,0 0.237996,-1.635099 0.345703,-3.238281 0.05385,-0.801591 0.08442,-1.579286 0.0059,-2.271484 -0.03928,-0.346099 -0.05358,-0.661383 -0.34375,-1.128907 -0.145086,-0.233761 -0.425687,-0.551958 -0.880859,-0.685546 -0.455172,-0.133589 -0.924027,-0.0047 -1.195313,0.148437 0.09301,-0.0525 -0.245714,0.07995 -0.671875,0.103516 -0.42616,0.02357 -0.969505,-0.0064 -1.49414,-0.101563 -1.049271,-0.190303 -1.878827,-0.700301 -2.039063,-1.02539 -0.712516,-1.445563 -0.734704,-2.480542 -0.447265,-3.353516 0.287438,-0.872974 0.957688,-1.660697 1.941406,-2.335937 1.967436,-1.350482 5.126305,-2.071304 7.21289,-2.046875 a 1.3230472,1.3230472 0 0 0 0.0293,0 c 2.086585,-0.02443 5.245455,0.696392 7.212891,2.046875 0.983718,0.675241 1.653967,1.462963 1.941406,2.335937 0.287439,0.872974 0.265251,1.907953 -0.447265,3.353516 -0.160236,0.325089 -0.989792,0.835087 -2.039063,1.02539 -0.524635,0.09515 -1.06798,0.125129 -1.494141,0.101563 -0.42616,-0.02357 -0.764882,-0.156013 -0.671875,-0.103516 -0.271286,-0.153125 -0.74014,-0.282026 -1.195312,-0.148437 -0.455172,0.133589 -0.737726,0.451785 -0.882813,0.685546 -0.290172,0.467524 -0.302517,0.782808 -0.341796,1.128907 -0.07856,0.692197 -0.04799,1.469893 0.0059,2.271484 0.107707,1.603182 0.345703,3.238281 0.345703,3.238281 a 1.322915,1.322915 0 0 0 1.5,1.119141 1.322915,1.322915 0 0 0 1.119141,-1.5 c 0,0 -0.226126,-1.575076 -0.324219,-3.035156 -0.02978,-0.443264 -0.01189,-0.735859 -0.0098,-1.089844 0.105847,0.0087 0.197935,0.0681 0.308594,0.07422 0.65487,0.03621 1.376954,-0.0051 2.113281,-0.138672 1.472654,-0.267091 3.143809,-0.844763 3.939453,-2.458985 0.944522,-1.916257 1.106286,-3.775203 0.587891,-5.349609 -0.518395,-1.574406 -1.642388,-2.789013 -2.957031,-3.691406 -2.624599,-1.80157 -6.068343,-2.5380939 -8.72461,-2.5097657 z"
         id="path58032" />
    </g>
  </g>
</svg>
