<?xml version="1.0" encoding="UTF-8" standalone="no"?>
<svg
   xmlns:dc="http://purl.org/dc/elements/1.1/"
   xmlns:cc="http://creativecommons.org/ns#"
   xmlns:rdf="http://www.w3.org/1999/02/22-rdf-syntax-ns#"
   xmlns:svg="http://www.w3.org/2000/svg"
   xmlns="http://www.w3.org/2000/svg"
   xmlns:sodipodi="http://sodipodi.sourceforge.net/DTD/sodipodi-0.dtd"
   xmlns:inkscape="http://www.inkscape.org/namespaces/inkscape"
   width="256"
   height="256"
   viewBox="0 0 67.733331 67.733331"
   version="1.1"
   id="svg8"
   inkscape:version="1.0.2 (e86c870879, 2021-01-15, custom)"
   sodipodi:docname="1F927_plain.svg">
  <defs
     id="defs2" />
  <sodipodi:namedview
     id="base"
     pagecolor="#ffffff"
     bordercolor="#666666"
     borderopacity="1.0"
     inkscape:pageopacity="0.0"
     inkscape:pageshadow="2"
     inkscape:zoom="0.70000001"
     inkscape:cx="-120.59051"
     inkscape:cy="-149.29309"
     inkscape:document-units="px"
     inkscape:current-layer="layer1"
     inkscape:document-rotation="0"
     showgrid="false"
     inkscape:window-width="1920"
     inkscape:window-height="1001"
     inkscape:window-x="-9"
     inkscape:window-y="-9"
     inkscape:window-maximized="1"
     units="px"
     inkscape:snap-object-midpoints="false" />
  <metadata
     id="metadata5">
    <rdf:RDF>
      <cc:Work
         rdf:about="">
        <dc:format>image/svg+xml</dc:format>
        <dc:type
           rdf:resource="http://purl.org/dc/dcmitype/StillImage" />
        <dc:title></dc:title>
        <cc:license
           rdf:resource="http://creativecommons.org/publicdomain/zero/1.0/" />
        <dc:creator>
          <cc:Agent>
            <dc:title>Dexterux</dc:title>
          </cc:Agent>
        </dc:creator>
        <dc:publisher>
          <cc:Agent>
            <dc:title>Dexterux</dc:title>
          </cc:Agent>
        </dc:publisher>
      </cc:Work>
      <cc:License
         rdf:about="http://creativecommons.org/publicdomain/zero/1.0/">
        <cc:permits
           rdf:resource="http://creativecommons.org/ns#Reproduction" />
        <cc:permits
           rdf:resource="http://creativecommons.org/ns#Distribution" />
        <cc:permits
           rdf:resource="http://creativecommons.org/ns#DerivativeWorks" />
      </cc:License>
    </rdf:RDF>
  </metadata>
  <g
     inkscape:label="Layer 1"
     inkscape:groupmode="layer"
     id="layer1">
    <path
       sodipodi:nodetypes="cc"
       id="path1442-3-3"
       d="m 37.522899,17.375486 c 2.758984,2.764075 7.38447,4.200126 10.931638,4.57773"
       style="font-variation-settings:normal;vector-effect:none;fill:none;fill-opacity:1;stroke:#4d4d4d;stroke-width:1.66663;stroke-linecap:round;stroke-linejoin:miter;stroke-miterlimit:4;stroke-dasharray:none;stroke-dashoffset:0;stroke-opacity:1;stop-color:#000000" />
    <path
       sodipodi:nodetypes="cc"
       id="path1442-3-3-6"
       d="m 30.210431,17.375486 c -2.758984,2.764075 -7.38447,4.200126 -10.931638,4.57773"
       style="font-variation-settings:normal;vector-effect:none;fill:none;fill-opacity:1;stroke:#4d4d4d;stroke-width:1.66663;stroke-linecap:round;stroke-linejoin:miter;stroke-miterlimit:4;stroke-dasharray:none;stroke-dashoffset:0;stroke-opacity:1;stop-color:#000000" />
    <path
       id="path833-1"
       style="color:#000000;font-style:normal;font-variant:normal;font-weight:normal;font-stretch:normal;font-size:medium;line-height:normal;font-family:sans-serif;font-variant-ligatures:normal;font-variant-position:normal;font-variant-caps:normal;font-variant-numeric:normal;font-variant-alternates:normal;font-variant-east-asian:normal;font-feature-settings:normal;font-variation-settings:normal;text-indent:0;text-align:start;text-decoration:none;text-decoration-line:none;text-decoration-style:solid;text-decoration-color:#000000;letter-spacing:normal;word-spacing:normal;text-transform:none;writing-mode:lr-tb;direction:ltr;text-orientation:mixed;dominant-baseline:auto;baseline-shift:baseline;text-anchor:start;white-space:normal;shape-padding:0;shape-margin:0;inline-size:0;clip-rule:nonzero;display:inline;overflow:visible;visibility:visible;opacity:1;isolation:auto;mix-blend-mode:normal;color-interpolation:sRGB;color-interpolation-filters:linearRGB;solid-color:#000000;solid-opacity:1;vector-effect:none;fill:#4d4d4d;fill-opacity:1;fill-rule:nonzero;stroke:none;stroke-width:3.77953;stroke-linecap:round;stroke-linejoin:round;stroke-miterlimit:4;stroke-dasharray:none;stroke-dashoffset:0;stroke-opacity:1;color-rendering:auto;image-rendering:auto;shape-rendering:auto;text-rendering:auto;enable-background:accumulate;stop-color:#000000;stop-opacity:1"
       d="M 128.00195 28 C 72.832701 28 28 72.832698 28 128.00195 C 28 147.36571 33.52936 165.45109 43.083984 180.77539 C 46.528353 178.46195 49.603581 177.43374 52.283203 176.7168 C 43.244415 162.68197 38.001953 145.96316 38.001953 128.00195 C 38.001953 78.237093 78.237097 38.001953 128.00195 38.001953 C 177.76681 38.001953 218.00195 78.237093 218.00195 128.00195 C 218.00195 177.76681 177.76681 218.00195 128.00195 218.00195 C 120.28776 218.00195 112.80395 217.03214 105.66211 215.21289 C 105.28913 218.99558 105.42051 221.34873 105.56836 222.84375 C 105.66782 223.8493 106.03276 224.10791 105.88281 225.53125 C 113.00034 227.14245 120.40194 227.99609 128.00195 227.99609 C 183.1712 227.99609 227.99609 183.1712 227.99609 128.00195 C 227.99609 72.832698 183.1712 28 128.00195 28 z "
       transform="scale(0.26458332)" />
    <path
       style="fill:none;stroke:#4d4d4d;stroke-width:2.2763;stroke-linecap:round;stroke-linejoin:round;stroke-miterlimit:4;stroke-dasharray:none;stroke-opacity:1"
       d="m 20.109862,25.421064 c 5.793981,0.465808 10.693212,4.416297 10.693212,4.416297 0,0 -5.474151,2.331115 -9.463877,5.190123"
       id="path2999"
       sodipodi:nodetypes="ccc" />
    <path
       sodipodi:nodetypes="ccc"
       id="path2999-4"
       d="m 47.623469,25.421064 c -5.793982,0.465807 -10.693212,4.416297 -10.693212,4.416297 0,0 5.474151,2.331115 9.463877,5.190123"
       style="fill:none;stroke:#4d4d4d;stroke-width:2.2763;stroke-linecap:round;stroke-linejoin:round;stroke-miterlimit:4;stroke-dasharray:none;stroke-opacity:1" />
    <path
       id="path1661"
       style="color:#000000;font-style:normal;font-variant:normal;font-weight:normal;font-stretch:normal;font-size:medium;line-height:normal;font-family:sans-serif;font-variant-ligatures:normal;font-variant-position:normal;font-variant-caps:normal;font-variant-numeric:normal;font-variant-alternates:normal;font-variant-east-asian:normal;font-feature-settings:normal;font-variation-settings:normal;text-indent:0;text-align:start;text-decoration:none;text-decoration-line:none;text-decoration-style:solid;text-decoration-color:#000000;letter-spacing:normal;word-spacing:normal;text-transform:none;writing-mode:lr-tb;direction:ltr;text-orientation:mixed;dominant-baseline:auto;baseline-shift:baseline;text-anchor:start;white-space:normal;shape-padding:0;shape-margin:0;inline-size:0;clip-rule:nonzero;display:inline;overflow:visible;visibility:visible;isolation:auto;mix-blend-mode:normal;color-interpolation:sRGB;color-interpolation-filters:linearRGB;solid-color:#000000;solid-opacity:1;vector-effect:none;fill:#4d4d4d;fill-opacity:1;fill-rule:nonzero;stroke:none;stroke-width:8.00001;stroke-linecap:round;stroke-linejoin:round;stroke-miterlimit:4;stroke-dasharray:none;stroke-dashoffset:0;stroke-opacity:1;color-rendering:auto;image-rendering:auto;shape-rendering:auto;text-rendering:auto;enable-background:accumulate;stop-color:#000000"
       d="M 129.02148 153.74219 C 124.41471 153.74219 120.41469 153.96678 116.93164 154.39844 C 121.8366 155.78637 127.19356 157.68075 133.26562 160.09766 A 4.0004063 4.0004063 0 0 1 133.78906 167.28125 C 133.78906 167.28125 130.963 168.9108 127.92773 170.75781 C 126.4101 171.68132 124.83931 172.66 123.58008 173.48828 C 122.32084 174.31656 121.19739 175.22711 121.36523 175.06055 C 120.30138 176.11621 119.24044 177.38975 118.19922 178.8418 C 121.70454 178.36378 124.63443 177.66797 129.02148 177.66797 C 133.44981 177.66797 136.38217 178.37718 139.93164 178.85547 C 143.48111 179.33375 147.59635 179.42823 152.86328 177.9043 C 155.7423 177.07129 158.15773 175.17762 159.58203 172.5 C 161.00633 169.82238 161.14899 166.08021 159.27148 163.02148 C 155.51647 156.90405 146.57827 153.74219 129.02148 153.74219 z "
       transform="scale(0.26458332)" />
    <path
       style="fill:none;fill-opacity:1;stroke:#4d4d4d;stroke-width:2.11667;stroke-linecap:round;stroke-linejoin:round;stroke-miterlimit:4;stroke-dasharray:none;stroke-opacity:1;stop-color:#000000"
       d="m 34.868311,43.343592 c -8.247642,-3.282863 -11.172584,-2.822876 -16.027368,1.824474 -3.937021,3.768801 -5.036145,1.37515 -8.253169,4.741257 -1.1406574,1.193516 -1.2284234,4.018005 -1.7973385,5.665387 -0.568915,1.647377 -1.9886015,4.42571 -0.8507713,4.33419 1.13783,-0.09151 4.7409588,-4.39301 9.7663748,-3.935404 5.025416,0.457604 8.059631,3.75236 8.913003,3.843882 0.853373,0.09152 -0.382889,-0.297847 0.663734,-5.39974 0.762455,-3.716684 2.286065,-7.067288 4.083402,-8.850785 0.480219,-0.47652 3.502133,-2.223261 3.502133,-2.223261 z"
       id="path1644"
       sodipodi:nodetypes="cssssssssc" />
    <path
       style="fill:none;fill-opacity:1;stroke:#4d4d4d;stroke-width:1.5875;stroke-linecap:round;stroke-linejoin:round;stroke-miterlimit:4;stroke-dasharray:none;stroke-opacity:1;stop-color:#000000"
       d="m 14.881422,52.776313 c 4.535714,-2.456846 6.291546,-4.23003 7.617657,-5.765528 1.795386,-2.078868 3.685269,-1.74814 3.685269,-1.74814"
       id="path1646"
       sodipodi:nodetypes="csc" />
  </g>
</svg>
