<?xml version="1.0" encoding="UTF-8" standalone="no"?>
<svg
   xmlns:dc="http://purl.org/dc/elements/1.1/"
   xmlns:cc="http://creativecommons.org/ns#"
   xmlns:rdf="http://www.w3.org/1999/02/22-rdf-syntax-ns#"
   xmlns:svg="http://www.w3.org/2000/svg"
   xmlns="http://www.w3.org/2000/svg"
   xmlns:sodipodi="http://sodipodi.sourceforge.net/DTD/sodipodi-0.dtd"
   xmlns:inkscape="http://www.inkscape.org/namespaces/inkscape"
   width="256"
   height="256"
   viewBox="0 0 67.733331 67.733331"
   version="1.1"
   id="svg8"
   inkscape:version="1.0.2 (e86c870879, 2021-01-15, custom)"
   sodipodi:docname="1F92D.svg">
  <defs
     id="defs2" />
  <sodipodi:namedview
     id="base"
     pagecolor="#ffffff"
     bordercolor="#666666"
     borderopacity="1.0"
     inkscape:pageopacity="0.0"
     inkscape:pageshadow="2"
     inkscape:zoom="1.979899"
     inkscape:cx="87.099558"
     inkscape:cy="71.153103"
     inkscape:document-units="px"
     inkscape:current-layer="layer1"
     inkscape:document-rotation="0"
     showgrid="false"
     inkscape:window-width="1920"
     inkscape:window-height="1001"
     inkscape:window-x="-9"
     inkscape:window-y="-9"
     inkscape:window-maximized="1"
     units="px"
     inkscape:snap-object-midpoints="false" />
  <metadata
     id="metadata5">
    <rdf:RDF>
      <cc:Work
         rdf:about="">
        <dc:format>image/svg+xml</dc:format>
        <dc:type
           rdf:resource="http://purl.org/dc/dcmitype/StillImage" />
        <dc:title></dc:title>
        <cc:license
           rdf:resource="http://creativecommons.org/publicdomain/zero/1.0/" />
        <dc:creator>
          <cc:Agent>
            <dc:title>Dexterux</dc:title>
          </cc:Agent>
        </dc:creator>
        <dc:publisher>
          <cc:Agent>
            <dc:title>Dexterux</dc:title>
          </cc:Agent>
        </dc:publisher>
      </cc:Work>
      <cc:License
         rdf:about="http://creativecommons.org/publicdomain/zero/1.0/">
        <cc:permits
           rdf:resource="http://creativecommons.org/ns#Reproduction" />
        <cc:permits
           rdf:resource="http://creativecommons.org/ns#Distribution" />
        <cc:permits
           rdf:resource="http://creativecommons.org/ns#DerivativeWorks" />
      </cc:License>
    </rdf:RDF>
  </metadata>
  <g
     inkscape:label="Layer 1"
     inkscape:groupmode="layer"
     id="layer1">
    <ellipse
       style="fill:#ffe666;fill-opacity:1;stroke:#4d4d4d;stroke-width:2.64583;stroke-linecap:round;stroke-linejoin:round;stroke-miterlimit:4;stroke-dasharray:none;stroke-opacity:1"
       id="path833"
       cx="33.866665"
       cy="33.866665"
       rx="25.135416"
       ry="25.135418" />
    <g
       id="g900"
       transform="matrix(1,0,0,1.6929647,-2.186794,-18.427754)">
      <path
         sodipodi:nodetypes="cc"
         id="path1442"
         d="m 19.763142,28.363568 c 5.61979,-3.731832 10.888345,-1.636769 12.878685,1.178473"
         style="font-variation-settings:normal;vector-effect:none;fill:none;fill-opacity:1;stroke:#4d4d4d;stroke-width:1.99882;stroke-linecap:round;stroke-linejoin:miter;stroke-miterlimit:4;stroke-dasharray:none;stroke-dashoffset:0;stroke-opacity:1;stop-color:#000000" />
      <path
         style="font-variation-settings:normal;vector-effect:none;fill:none;fill-opacity:1;stroke:#4d4d4d;stroke-width:1.99882;stroke-linecap:round;stroke-linejoin:miter;stroke-miterlimit:4;stroke-dasharray:none;stroke-dashoffset:0;stroke-opacity:1;stop-color:#000000"
         d="M 52.343777,28.363568 C 46.723987,24.631736 41.455434,26.726799 39.465092,29.542041"
         id="path1442-4"
         sodipodi:nodetypes="cc" />
    </g>
    <path
       transform="scale(0.26458332)"
       d="M 60.464844 128.35742 A 25.178571 25.178571 0 0 0 38.876953 140.57617 C 40.76042 154.09045 45.63526 166.63465 52.814453 177.52344 A 25.178571 25.178571 0 0 0 60.464844 178.71484 A 25.178571 25.178571 0 0 0 85.642578 153.53516 A 25.178571 25.178571 0 0 0 60.464844 128.35742 z "
       style="fill:#ffb266;fill-opacity:1;stroke:#4d4d4d;stroke-width:0;stroke-linecap:round;stroke-linejoin:round;stroke-miterlimit:4;stroke-dasharray:none"
       id="path879" />
    <circle
       style="fill:#ff8066;fill-opacity:1;stroke:#4d4d4d;stroke-width:0;stroke-linecap:round;stroke-linejoin:round;stroke-miterlimit:4;stroke-dasharray:none"
       id="path879-0"
       cx="15.997839"
       cy="40.622986"
       r="3.8372135" />
    <path
       d="m 43.740665,41.488693 c 0,0 -3.678076,5.343092 -9.873809,5.343092 -6.195734,0 -9.874199,-5.343092 -9.874199,-5.343092"
       style="fill:none;fill-opacity:1;stroke:#4d4d4d;stroke-width:2.64583;stroke-linecap:round;stroke-linejoin:round;stroke-miterlimit:4;stroke-dasharray:none;stroke-opacity:1"
       id="path902-3-0-1"
       sodipodi:nodetypes="czc" />
    <path
       id="path879-8"
       style="fill:#ffb266;fill-opacity:1;stroke:#4d4d4d;stroke-width:0;stroke-linecap:round;stroke-linejoin:round;stroke-miterlimit:4;stroke-dasharray:none"
       d="m 51.73534,33.961233 a -6.66183,6.66183 0 0 1 5.711796,3.232877 c -0.498334,3.575653 -1.788136,6.89464 -3.68763,9.775632 a -6.66183,6.66183 0 0 1 -2.024166,0.315224 -6.66183,6.66183 0 0 1 -6.661609,-6.662123 -6.66183,6.66183 0 0 1 6.661609,-6.66161 z" />
    <circle
       transform="scale(-1,1)"
       r="3.8372135"
       cy="40.62299"
       cx="-51.735489"
       id="path879-0-8"
       style="fill:#ff8066;fill-opacity:1;stroke:#4d4d4d;stroke-width:0;stroke-linecap:round;stroke-linejoin:round;stroke-miterlimit:4;stroke-dasharray:none" />
    <path
       id="path951-0"
       style="fill:#ffffff;fill-opacity:1;stroke:#808080;stroke-width:2.11667;stroke-linecap:round;stroke-linejoin:round;stroke-miterlimit:4;stroke-dasharray:none;stroke-opacity:1;stop-color:#000000"
       d="m 31.057807,49.799267 c 0.663802,-0.658116 1.548285,-0.997453 2.320257,-0.89023 0.771985,0.107187 1.314167,0.644772 1.422294,1.410154 0.108177,0.765341 -0.23411,1.642227 -0.897904,2.300335 l -7e-6,7e-6 -4.375949,4.337821 c -2.224265,2.204922 -9.095624,4.201417 -10.167963,3.137351 -1.072341,-1.064066 -2.822799,-2.7614 -6.271364,-6.216308 -1.269173,-1.259376 -0.420415,-5.42809 0.491698,-8.045491 0.912111,-2.6174 3.908327,-6.069237 4.553193,-6.407082 0.884081,-0.463175 2.016759,-0.344392 2.656922,0.549909 0.640163,0.894299 0.242149,1.69022 -0.09784,2.394331 -0.450447,0.932851 -2.039033,2.806877 -2.039033,2.806877 2.542346,-2.521424 4.406829,-4.369054 6.949535,-6.89011 v 0 c 0.663807,-0.658103 1.548285,-0.997454 2.320255,-0.890221 0.771979,0.107237 1.314168,0.644762 1.422295,1.41015 0.108176,0.765342 -0.234109,1.642227 -0.897908,2.300337 l -4.252796,4.215615 5.50208,-5.453804 c 0.663801,-0.658113 1.548277,-0.997463 2.320256,-0.890223 0.771972,0.107235 1.314169,0.644764 1.422293,1.410152 0.108178,0.765342 -0.234107,1.642224 -0.897915,2.300332 l -5.502083,5.453808 3.896072,-3.861641 c 0.663808,-0.658105 1.548285,-0.997453 2.320255,-0.89022 0.77199,0.107199 1.31417,0.644763 1.422296,1.410146 0.10818,0.765351 -0.234109,1.642225 -0.89791,2.300343 l -5.502082,5.453806 z"
       sodipodi:nodetypes="cssccszczszscccsscccsscccssccc" />
  </g>
</svg>
