<?xml version="1.0" encoding="UTF-8" standalone="no"?>
<svg
   sodipodi:docname="1F978_plain.svg"
   inkscape:version="1.1 (c68e22c387, 2021-05-23)"
   id="svg8"
   version="1.1"
   viewBox="0 0 67.733331 67.733331"
   height="256"
   width="256"
   xmlns:inkscape="http://www.inkscape.org/namespaces/inkscape"
   xmlns:sodipodi="http://sodipodi.sourceforge.net/DTD/sodipodi-0.dtd"
   xmlns="http://www.w3.org/2000/svg"
   xmlns:svg="http://www.w3.org/2000/svg"
   xmlns:rdf="http://www.w3.org/1999/02/22-rdf-syntax-ns#"
   xmlns:cc="http://creativecommons.org/ns#"
   xmlns:dc="http://purl.org/dc/elements/1.1/">
  <defs
     id="defs2" />
  <sodipodi:namedview
     inkscape:snap-object-midpoints="false"
     units="px"
     inkscape:window-maximized="0"
     inkscape:window-y="24"
     inkscape:window-x="479"
     inkscape:window-height="1020"
     inkscape:window-width="1499"
     showgrid="false"
     inkscape:document-rotation="0"
     inkscape:current-layer="layer1"
     inkscape:document-units="px"
     inkscape:cy="80.559666"
     inkscape:cx="154.3008"
     inkscape:zoom="1.979899"
     inkscape:pageshadow="2"
     inkscape:pageopacity="0.0"
     borderopacity="1.0"
     bordercolor="#666666"
     pagecolor="#ffffff"
     id="base"
     inkscape:pagecheckerboard="0" />
  <metadata
     id="metadata5">
    <rdf:RDF>
      <cc:Work
         rdf:about="">
        <dc:format>image/svg+xml</dc:format>
        <dc:type
           rdf:resource="http://purl.org/dc/dcmitype/StillImage" />
        <cc:license
           rdf:resource="http://creativecommons.org/publicdomain/zero/1.0/" />
        <dc:creator>
          <cc:Agent>
            <dc:title>Dexterux</dc:title>
          </cc:Agent>
        </dc:creator>
        <dc:publisher>
          <cc:Agent>
            <dc:title>Dexterux</dc:title>
          </cc:Agent>
        </dc:publisher>
      </cc:Work>
      <cc:License
         rdf:about="http://creativecommons.org/publicdomain/zero/1.0/">
        <cc:permits
           rdf:resource="http://creativecommons.org/ns#Reproduction" />
        <cc:permits
           rdf:resource="http://creativecommons.org/ns#Distribution" />
        <cc:permits
           rdf:resource="http://creativecommons.org/ns#DerivativeWorks" />
      </cc:License>
    </rdf:RDF>
  </metadata>
  <g
     id="layer1"
     inkscape:groupmode="layer"
     inkscape:label="Layer 1">
    <ellipse
       ry="25.135418"
       rx="25.135416"
       cy="33.866665"
       cx="-33.866665"
       id="path833"
       style="fill:none;fill-opacity:1;stroke:#4d4d4d;stroke-width:2.64583;stroke-linecap:round;stroke-linejoin:round;stroke-miterlimit:4;stroke-dasharray:none;stroke-opacity:1"
       transform="scale(-1,1)" />
    <path
       id="path835"
       style="fill:#4d4d4d;fill-opacity:1;stroke:none;stroke-width:3.84616;stroke-linecap:round;stroke-linejoin:round;stroke-miterlimit:4;stroke-dasharray:none;stroke-opacity:1"
       d="M 93.785156 89.142578 A 17.857142 17.857142 0 0 0 75.927734 107 A 17.857142 17.857142 0 0 0 93.785156 124.85742 A 17.857142 17.857142 0 0 0 111.64258 107 A 17.857142 17.857142 0 0 0 93.785156 89.142578 z M 93.785156 94.857422 A 7.1428558 7.1428558 0 0 1 100.92773 102 A 7.1428558 7.1428558 0 0 1 93.785156 109.14258 A 7.1428558 7.1428558 0 0 1 86.642578 102 A 7.1428558 7.1428558 0 0 1 93.785156 94.857422 z "
       transform="scale(0.26458332)" />
    <path
       id="path835-3"
       style="fill:#4d4d4d;fill-opacity:1;stroke:none;stroke-width:3.84616;stroke-linecap:round;stroke-linejoin:round;stroke-miterlimit:4;stroke-dasharray:none;stroke-opacity:1"
       d="M 162.21484 89.142578 A 17.857142 17.857142 0 0 0 144.35742 107 A 17.857142 17.857142 0 0 0 162.21484 124.85742 A 17.857142 17.857142 0 0 0 180.07227 107 A 17.857142 17.857142 0 0 0 162.21484 89.142578 z M 162.21484 94.857422 A 7.1428558 7.1428558 0 0 1 169.35742 102 A 7.1428558 7.1428558 0 0 1 162.21484 109.14258 A 7.1428558 7.1428558 0 0 1 155.07227 102 A 7.1428558 7.1428558 0 0 1 162.21484 94.857422 z "
       transform="scale(0.26458332)" />
    <path
       style="fill:none;stroke:#4d4d4d;stroke-width:3.17499989;stroke-linecap:round;stroke-linejoin:miter;stroke-miterlimit:4;stroke-dasharray:none;stroke-opacity:1"
       d="M 13.921925,26.451823 C 12.470938,26.13198 9.3378129,24.433174 9.3378129,24.433174"
       id="path1785"
       sodipodi:nodetypes="cc" />
    <path
       style="fill:none;stroke:#4d4d4d;stroke-width:3.175;stroke-linecap:round;stroke-linejoin:miter;stroke-miterlimit:4;stroke-dasharray:none;stroke-opacity:1"
       d="m 53.811405,26.451823 c 1.450987,-0.319843 4.584112,-2.018649 4.584112,-2.018649"
       id="path1785-4"
       sodipodi:nodetypes="cc" />
    <path
       style="fill:none;stroke:#4d4d4d;stroke-width:3.175;stroke-linecap:butt;stroke-linejoin:miter;stroke-miterlimit:4;stroke-dasharray:none;stroke-opacity:1"
       d="m 36.872468,27.507166 c -0.626386,-0.11649 -1.405836,-0.192508 -3.005805,-0.192508 -1.599969,0 -2.379421,0.07602 -3.005807,0.192508"
       id="path6274"
       sodipodi:nodetypes="ccc" />
    <path
       style="fill:none;stroke:#4d4d4d;stroke-width:5.29167;stroke-linecap:round;stroke-linejoin:miter;stroke-miterlimit:4;stroke-dasharray:none;stroke-opacity:1"
       d="m 28.926642,19.585569 c -4.151296,-1.32495 -5.681243,-1.072141 -8.713429,-0.940191 -1.465556,0.06377 -3.174641,-0.744488 -3.174641,-0.744488"
       id="path8660"
       sodipodi:nodetypes="csc" />
    <path
       style="fill:none;stroke:#4d4d4d;stroke-width:5.29167;stroke-linecap:round;stroke-linejoin:miter;stroke-miterlimit:4;stroke-dasharray:none;stroke-opacity:1"
       d="m 38.806688,19.585569 c 4.151296,-1.32495 5.681243,-1.072141 8.713429,-0.940191 1.465556,0.06377 3.174641,-0.744488 3.174641,-0.744488"
       id="path8660-3"
       sodipodi:nodetypes="csc" />
    <path
       id="path19097"
       style="color:#000000;fill:#4d4d4d;stroke-width:3.77953;stroke-linecap:round;-inkscape-stroke:none"
       d="M 114.34375 164.83984 C 109.49803 165.58686 105.74579 166.38223 101.08008 166.18945 C 93.354232 165.87114 86.83334 171.87569 86.515625 179.60156 C 86.515625 194.22353 92.198936 193.84435 99.921875 194.16602 C 113.18674 194.71408 119.31687 191.8643 128.00195 191.70117 C 136.68704 191.8643 142.81131 194.71408 156.07617 194.16602 C 163.80204 193.84831 169.49408 194.24707 169.48828 179.60156 C 169.17061 171.87269 162.64469 165.86696 154.91602 166.18945 C 150.24932 166.38226 146.49944 165.58699 141.6543 164.83984 C 140.94696 166.07417 139.89722 166.8994 138.47656 167.50195 C 135.30206 168.84839 133.47629 169.34766 128.00195 169.34766 C 122.52764 169.34766 120.69406 168.84837 117.51953 167.50195 C 116.09887 166.8994 115.05077 166.07417 114.34375 164.83984 z "
       transform="scale(0.26458332)" />
    <path
       id="path9429-2"
       style="fill:none;fill-opacity:1;stroke:#4d4d4d;stroke-width:1.5875;stroke-linecap:butt;stroke-linejoin:miter;stroke-miterlimit:4;stroke-dasharray:none;stroke-opacity:1"
       d="m 33.866664,30.06484 c -1.65089,0 -2.554671,1.617324 -2.920912,3.039943 -0.366241,1.422615 -0.500703,3.813893 -1.157954,4.497974 -0.657254,0.684078 -2.243228,2.2099 -2.243228,4.043754 0,1.695897 0.961356,1.936862 1.93238,2.193931 0.276892,0.583538 0.749475,0.972723 1.307238,1.209289 0.893958,0.379156 1.573933,0.550572 3.082476,0.550572 1.508544,0 2.188519,-0.171408 3.082477,-0.550572 0.557762,-0.236566 1.030346,-0.625751 1.307238,-1.209289 0.971023,-0.257069 1.932379,-0.498034 1.932379,-2.193931 0,-1.833854 -1.585973,-3.359676 -2.243227,-4.043754 C 37.28828,36.918676 37.153817,34.527398 36.787577,33.104783 36.421336,31.682164 35.517555,30.06484 33.866664,30.06484 Z" />
    <circle
       style="fill:none;fill-opacity:0.3;stroke:#4d4d4d;stroke-width:2.11667;stroke-linecap:round;stroke-linejoin:round;stroke-miterlimit:4;stroke-dasharray:none;stroke-opacity:1"
       id="path936"
       cx="23.103794"
       cy="29.623884"
       r="8.6462049" />
    <circle
       style="fill:none;fill-opacity:0.3;stroke:#4d4d4d;stroke-width:2.11667;stroke-linecap:round;stroke-linejoin:round;stroke-miterlimit:4;stroke-dasharray:none;stroke-opacity:1"
       id="path936-2"
       cx="-44.629536"
       cy="29.623884"
       r="8.6462049"
       transform="scale(-1,1)" />
  </g>
</svg>
