<?xml version="1.0" encoding="UTF-8" standalone="no"?>
<svg
   width="256"
   height="256"
   viewBox="0 0 67.733331 67.733331"
   version="1.1"
   id="svg8"
   inkscape:version="1.1 (c68e22c387, 2021-05-23)"
   sodipodi:docname="1F971_plain.svg"
   xmlns:inkscape="http://www.inkscape.org/namespaces/inkscape"
   xmlns:sodipodi="http://sodipodi.sourceforge.net/DTD/sodipodi-0.dtd"
   xmlns="http://www.w3.org/2000/svg"
   xmlns:svg="http://www.w3.org/2000/svg"
   xmlns:rdf="http://www.w3.org/1999/02/22-rdf-syntax-ns#"
   xmlns:cc="http://creativecommons.org/ns#"
   xmlns:dc="http://purl.org/dc/elements/1.1/">
  <defs
     id="defs2" />
  <sodipodi:namedview
     id="base"
     pagecolor="#ffffff"
     bordercolor="#666666"
     borderopacity="1.0"
     inkscape:pageopacity="0.0"
     inkscape:pageshadow="2"
     inkscape:zoom="0.9899495"
     inkscape:cx="263.64981"
     inkscape:cy="-20.708127"
     inkscape:document-units="px"
     inkscape:current-layer="layer1"
     inkscape:document-rotation="0"
     showgrid="false"
     inkscape:window-width="1470"
     inkscape:window-height="1020"
     inkscape:window-x="91"
     inkscape:window-y="30"
     inkscape:window-maximized="0"
     units="px"
     inkscape:snap-object-midpoints="false"
     inkscape:pagecheckerboard="0" />
  <metadata
     id="metadata5">
    <rdf:RDF>
      <cc:Work
         rdf:about="">
        <dc:format>image/svg+xml</dc:format>
        <dc:type
           rdf:resource="http://purl.org/dc/dcmitype/StillImage" />
        <cc:license
           rdf:resource="http://creativecommons.org/publicdomain/zero/1.0/" />
        <dc:creator>
          <cc:Agent>
            <dc:title>Dexterux</dc:title>
          </cc:Agent>
        </dc:creator>
        <dc:publisher>
          <cc:Agent>
            <dc:title>Dexterux</dc:title>
          </cc:Agent>
        </dc:publisher>
      </cc:Work>
      <cc:License
         rdf:about="http://creativecommons.org/publicdomain/zero/1.0/">
        <cc:permits
           rdf:resource="http://creativecommons.org/ns#Reproduction" />
        <cc:permits
           rdf:resource="http://creativecommons.org/ns#Distribution" />
        <cc:permits
           rdf:resource="http://creativecommons.org/ns#DerivativeWorks" />
      </cc:License>
    </rdf:RDF>
  </metadata>
  <g
     inkscape:label="Layer 1"
     inkscape:groupmode="layer"
     id="layer1">
    <path
       id="path833"
       style="color:#000000;fill:#4d4d4d;stroke-width:3.77953;stroke-linecap:round;stroke-linejoin:round;-inkscape-stroke:none"
       d="M 128.00195 28 C 72.832766 28 28 72.832762 28 128.00195 C 28 148.80124 34.377202 168.12554 45.273438 184.13672 C 45.299698 183.97919 45.34438 183.8182 45.373047 183.66016 C 44.591107 187.96506 44.667838 192.08354 47.207031 195.61914 C 58.302999 211.22624 63.999651 218.97355 67.425781 223.74414 C 68.662961 225.46681 70.255566 226.1542 71.810547 226.6543 C 73.365528 227.15439 75.033459 227.4136 76.867188 227.56055 C 80.534644 227.85444 84.859574 227.65744 89.394531 227.08203 C 93.729098 226.53205 98.19305 225.68763 102.35938 224.48828 C 102.26383 224.51578 102.17398 224.54905 102.07812 224.57617 C 110.34996 226.796 119.03608 227.99609 128.00195 227.99609 C 183.17115 227.99609 227.99609 183.17115 227.99609 128.00195 C 227.99609 72.832762 183.17115 28 128.00195 28 z M 128.00195 38.001953 C 177.76676 38.001953 218.00195 78.23715 218.00195 128.00195 C 218.00195 177.76676 177.76676 218.00195 128.00195 218.00195 C 124.26127 218.00195 120.58284 217.74827 116.96289 217.30664 L 134.08398 205.2168 C 136.76846 203.32099 138.8608 200.77034 139.9375 197.84961 C 146.37709 195.85917 152.8964 192.04051 159.84766 185.67578 C 163.67348 182.17277 165.90221 176.65875 167.18555 170.13086 C 168.46888 163.60296 168.58833 156.03426 166.8457 148.63477 C 165.10303 141.23527 161.4292 133.95338 155.04102 128.54102 C 148.65284 123.12865 139.65201 119.76367 128.00195 119.76367 C 116.35189 119.76367 107.34326 123.12865 100.95508 128.54102 C 94.566896 133.95338 90.893033 141.23527 89.150391 148.63477 C 89.006182 149.2471 88.878842 149.86065 88.759766 150.47461 C 87.300485 151.50508 85.70486 152.63175 84.226562 153.67578 C 84.666745 151.62113 87.595414 143.79417 81.998047 137.8418 C 80.49175 136.23997 78.626717 135.30852 76.75 134.89648 C 74.873279 134.48445 72.980286 134.59638 71.441406 135.06641 C 68.363642 136.00647 66.195192 137.79112 64.769531 139.23047 C 61.768382 142.26044 60.290219 145.6875 58.996094 149.10742 C 57.701968 152.52734 56.505242 156.1038 54.064453 160.55664 C 52.12454 164.09569 50.129369 168.36708 48.494141 172.75781 C 48.679975 172.25874 48.849961 171.75458 49.044922 171.25977 C 42.00936 158.42743 38.001953 143.69058 38.001953 128.00195 C 38.001953 78.23715 78.237154 38.001953 128.00195 38.001953 z M 116.36328 134.76953 C 116.3822 134.77032 116.40101 134.77453 116.41992 134.77539 C 116.38018 134.77358 116.34053 134.77294 116.30078 134.77148 C 116.32162 134.77225 116.34244 134.76867 116.36328 134.76953 z M 74.744141 142.46094 C 75.170999 142.42575 75.503287 142.62141 76.166016 143.32617 C 78.587068 145.90077 77.056125 148.33156 76.298828 152.54688 C 75.649853 156.15925 73.8125 162.02539 73.8125 162.02539 A 4.0004062 4.0004062 0 0 0 79.931641 166.50586 C 91.399248 158.40439 99.805561 152.46776 111.27539 144.36719 C 113.37968 142.88115 115.89874 142.53357 117.32031 142.98047 C 118.74195 143.42739 119.14461 144.00554 119.10742 145.44531 C 119.07038 146.88257 117.94126 149.10382 115.84375 150.58984 C 115.84024 150.59233 115.83972 150.59501 115.83594 150.59766 L 96.650391 164.13672 A 4.002098 4.002098 0 0 0 101.26367 170.67773 L 120.44922 157.13086 C 120.45215 157.12879 120.45401 157.12531 120.45703 157.12305 L 126.08203 153.15234 C 128.1863 151.66629 130.70727 151.31675 132.12891 151.76367 C 133.5505 152.21058 133.95126 152.79073 133.91406 154.23047 C 133.87702 155.67006 132.74102 157.88895 130.63672 159.375 L 123.39648 164.49023 L 105.82617 176.90039 A 4.0004062 4.0004062 0 0 0 110.44141 183.43164 L 128.00977 171.03125 C 130.11406 169.54521 132.63311 169.19568 134.05469 169.64258 C 135.47615 170.08936 135.87899 170.66176 135.8418 172.10156 C 135.80476 173.5412 134.67661 175.76779 132.57227 177.25391 L 120.30273 185.91992 L 120.29492 185.91992 L 107.75391 194.7793 A 4.0004062 4.0004062 0 0 0 112.36719 201.31055 L 124.9082 192.45312 L 124.91602 192.45312 C 127.01878 190.97145 129.53506 190.62002 130.95508 191.06641 C 132.37642 191.51313 132.77742 192.09146 132.74023 193.53125 C 132.7032 194.97083 131.57496 197.19754 129.4707 198.68359 L 109.73242 212.62109 C 105.90576 215.32315 96.6284 218.10125 88.390625 219.14648 C 84.271734 219.6691 80.353853 219.81776 77.509766 219.58984 C 76.087726 219.47589 74.931806 219.25848 74.261719 219.04297 C 73.93853 218.93903 73.767875 218.82682 73.712891 218.79297 C 70.215218 213.92802 64.635764 206.33546 53.710938 190.96875 A 4.0004062 4.0004062 0 0 0 53.703125 190.95508 C 53.203951 190.26003 52.847972 185.78999 54.367188 180.41406 C 55.886398 175.03813 58.605071 168.92828 61.085938 164.40234 C 63.870628 159.32211 65.272116 155.12684 66.480469 151.93359 C 67.688822 148.74035 68.612072 146.7142 70.453125 144.85547 C 71.141755 144.16023 72.670726 143.05404 73.78125 142.71484 C 74.197698 142.58764 74.488026 142.48205 74.744141 142.46094 z M 47.904297 174.35938 C 47.822016 174.5958 47.739872 174.8317 47.660156 175.06836 C 47.740088 174.83104 47.821787 174.59645 47.904297 174.35938 z M 45.960938 180.90625 C 45.900246 181.15077 45.847999 181.39294 45.791016 181.63672 C 45.847807 181.39296 45.900438 181.15076 45.960938 180.90625 z M 111.76367 220.75391 C 111.49179 220.90365 111.19255 221.03556 110.91211 221.17969 C 111.19222 221.03552 111.49209 220.90366 111.76367 220.75391 z M 108.84961 222.18359 C 108.54849 222.31556 108.22809 222.43201 107.91992 222.55859 C 108.22788 222.43188 108.54869 222.31569 108.84961 222.18359 z M 105.70898 223.41992 C 105.36186 223.54284 105.0018 223.65051 104.64844 223.76758 C 105.00126 223.65056 105.36242 223.54281 105.70898 223.41992 z "
       transform="scale(0.26458332)" />
    <path
       sodipodi:nodetypes="cc"
       id="path1442"
       d="m 17.863883,25.834025 c 4.817374,-3.734516 10.249384,-3.818114 12.632779,-2.613246"
       style="font-variation-settings:normal;vector-effect:none;fill:none;fill-opacity:1;stroke:#4d4d4d;stroke-width:2.60074;stroke-linecap:round;stroke-linejoin:miter;stroke-miterlimit:4;stroke-dasharray:none;stroke-dashoffset:0;stroke-opacity:1;stop-color:#000000" />
    <path
       style="font-variation-settings:normal;vector-effect:none;fill:none;fill-opacity:1;stroke:#4d4d4d;stroke-width:2.60074;stroke-linecap:round;stroke-linejoin:miter;stroke-miterlimit:4;stroke-dasharray:none;stroke-dashoffset:0;stroke-opacity:1;stop-color:#000000"
       d="M 49.869449,25.834025 C 45.052073,22.099508 39.620066,22.015911 37.236669,23.220779"
       id="path1442-4"
       sodipodi:nodetypes="cc" />
  </g>
</svg>
