<?xml version="1.0" encoding="UTF-8" standalone="no"?>
<svg
   width="256"
   height="256"
   viewBox="0 0 67.733331 67.733331"
   version="1.1"
   id="svg8"
   inkscape:version="1.1 (c68e22c387, 2021-05-23)"
   sodipodi:docname="1F971.svg"
   xmlns:inkscape="http://www.inkscape.org/namespaces/inkscape"
   xmlns:sodipodi="http://sodipodi.sourceforge.net/DTD/sodipodi-0.dtd"
   xmlns="http://www.w3.org/2000/svg"
   xmlns:svg="http://www.w3.org/2000/svg"
   xmlns:rdf="http://www.w3.org/1999/02/22-rdf-syntax-ns#"
   xmlns:cc="http://creativecommons.org/ns#"
   xmlns:dc="http://purl.org/dc/elements/1.1/">
  <defs
     id="defs2" />
  <sodipodi:namedview
     id="base"
     pagecolor="#ffffff"
     bordercolor="#666666"
     borderopacity="1.0"
     inkscape:pageopacity="0.0"
     inkscape:pageshadow="2"
     inkscape:zoom="0.70000001"
     inkscape:cx="-3.5714285"
     inkscape:cy="-49.285714"
     inkscape:document-units="px"
     inkscape:current-layer="layer1"
     inkscape:document-rotation="0"
     showgrid="false"
     inkscape:window-width="1470"
     inkscape:window-height="1020"
     inkscape:window-x="91"
     inkscape:window-y="30"
     inkscape:window-maximized="0"
     units="px"
     inkscape:snap-object-midpoints="false"
     inkscape:pagecheckerboard="0" />
  <metadata
     id="metadata5">
    <rdf:RDF>
      <cc:Work
         rdf:about="">
        <dc:format>image/svg+xml</dc:format>
        <dc:type
           rdf:resource="http://purl.org/dc/dcmitype/StillImage" />
        <cc:license
           rdf:resource="http://creativecommons.org/publicdomain/zero/1.0/" />
        <dc:creator>
          <cc:Agent>
            <dc:title>Dexterux</dc:title>
          </cc:Agent>
        </dc:creator>
        <dc:publisher>
          <cc:Agent>
            <dc:title>Dexterux</dc:title>
          </cc:Agent>
        </dc:publisher>
      </cc:Work>
      <cc:License
         rdf:about="http://creativecommons.org/publicdomain/zero/1.0/">
        <cc:permits
           rdf:resource="http://creativecommons.org/ns#Reproduction" />
        <cc:permits
           rdf:resource="http://creativecommons.org/ns#Distribution" />
        <cc:permits
           rdf:resource="http://creativecommons.org/ns#DerivativeWorks" />
      </cc:License>
    </rdf:RDF>
  </metadata>
  <g
     inkscape:label="Layer 1"
     inkscape:groupmode="layer"
     id="layer1">
    <ellipse
       style="fill:#ffe666;fill-opacity:1;stroke:#4d4d4d;stroke-width:2.64583;stroke-linecap:round;stroke-linejoin:round;stroke-miterlimit:4;stroke-dasharray:none;stroke-opacity:1"
       id="path833"
       cx="33.866665"
       cy="33.866665"
       rx="25.135416"
       ry="25.135418" />
    <path
       sodipodi:nodetypes="cc"
       id="path1442"
       d="m 17.863883,25.834025 c 4.817374,-3.734516 10.249384,-3.818114 12.632779,-2.613246"
       style="font-variation-settings:normal;vector-effect:none;fill:none;fill-opacity:1;stroke:#4d4d4d;stroke-width:2.60074;stroke-linecap:round;stroke-linejoin:miter;stroke-miterlimit:4;stroke-dasharray:none;stroke-dashoffset:0;stroke-opacity:1;stop-color:#000000" />
    <path
       style="font-variation-settings:normal;vector-effect:none;fill:none;fill-opacity:1;stroke:#4d4d4d;stroke-width:2.60074;stroke-linecap:round;stroke-linejoin:miter;stroke-miterlimit:4;stroke-dasharray:none;stroke-dashoffset:0;stroke-opacity:1;stop-color:#000000"
       d="M 49.869449,25.834025 C 45.052073,22.099508 39.620066,22.015911 37.236669,23.220779"
       id="path1442-4"
       sodipodi:nodetypes="cc" />
    <path
       id="path902-3-2"
       style="fill:#795353;fill-opacity:1;stroke:#4d4d4d;stroke-width:2.11666;stroke-linecap:round;stroke-linejoin:round;stroke-miterlimit:4;stroke-dasharray:none;stroke-opacity:1"
       d="m 41.578648,48.346364 c 2.845219,-2.605148 3.822806,-15.600159 -7.711982,-15.600159 -11.53479,0 -10.557202,12.995011 -7.711983,15.600159 2.845217,2.605148 5.161543,3.409024 7.711983,3.409024 2.550439,0 4.866765,-0.803876 7.711982,-3.409024 z"
       sodipodi:nodetypes="zzzzz" />
    <path
       id="path951-0"
       style="fill:#ffffff;fill-opacity:1;stroke:#808080;stroke-width:2.11667;stroke-linecap:round;stroke-linejoin:round;stroke-miterlimit:4;stroke-dasharray:none;stroke-opacity:1;stop-color:#000000"
       d="m 32.438595,50.056149 c 0.792216,-0.559472 1.755538,-0.754685 2.527091,-0.512143 0.77157,0.242503 1.234115,0.886036 1.213399,1.688081 -0.02065,0.802014 -0.521417,1.640723 -1.313622,2.200188 l -8e-6,5e-6 -5.222371,3.68752 c -2.654502,1.874379 -10.028567,2.73608 -10.943259,1.462449 -0.914695,-1.273632 -2.414613,-3.312121 -5.35054,-7.441753 -1.08259,-1.507409 0.50141,-5.62853 1.88399,-8.150821 1.382577,-2.522294 1.374935,-4.113882 2.656102,-5.407352 0.559407,-0.564778 1.957189,-1.532326 3.034828,-0.386339 1.077639,1.145987 0.448755,2.55369 0.305285,3.352267 -0.195821,1.09 -0.692226,2.642605 -0.692226,2.642605 3.034313,-2.143639 5.259331,-3.714177 8.293949,-5.857377 v 0 c 0.792217,-0.559458 1.755539,-0.754686 2.527087,-0.512135 0.771554,0.242554 1.234117,0.886028 1.2134,1.688079 -0.02066,0.802015 -0.521416,1.640723 -1.313626,2.200188 l -5.075375,3.583611 6.566266,-4.63614 c 0.792215,-0.55947 1.755533,-0.754694 2.527089,-0.512139 0.771547,0.242552 1.234119,0.88603 1.213398,1.688082 -0.02065,0.802014 -0.521413,1.64072 -1.313633,2.200182 l -6.566269,4.636146 4.649589,-3.282642 c 0.792218,-0.559459 1.755538,-0.754685 2.527086,-0.512134 0.771573,0.242516 1.23412,0.886028 1.213404,1.688076 -0.02065,0.802023 -0.521416,1.640718 -1.313631,2.200193 l -6.566269,4.636144 z"
       sodipodi:nodetypes="cssccszczszscccsscccsscccssccc" />
  </g>
</svg>
