<?xml version="1.0" encoding="UTF-8" standalone="no"?>
<svg
   width="256"
   height="256"
   viewBox="0 0 67.733331 67.733331"
   version="1.1"
   id="svg8"
   inkscape:version="1.1 (c68e22c387, 2021-05-23)"
   sodipodi:docname="1F979_plain.svg"
   xmlns:inkscape="http://www.inkscape.org/namespaces/inkscape"
   xmlns:sodipodi="http://sodipodi.sourceforge.net/DTD/sodipodi-0.dtd"
   xmlns="http://www.w3.org/2000/svg"
   xmlns:svg="http://www.w3.org/2000/svg"
   xmlns:rdf="http://www.w3.org/1999/02/22-rdf-syntax-ns#"
   xmlns:cc="http://creativecommons.org/ns#"
   xmlns:dc="http://purl.org/dc/elements/1.1/">
  <defs
     id="defs2" />
  <sodipodi:namedview
     id="base"
     pagecolor="#ffffff"
     bordercolor="#666666"
     borderopacity="1.0"
     inkscape:pageopacity="0.0"
     inkscape:pageshadow="2"
     inkscape:zoom="0.98994949"
     inkscape:cx="20.708127"
     inkscape:cy="134.35029"
     inkscape:document-units="px"
     inkscape:current-layer="layer1"
     inkscape:document-rotation="0"
     showgrid="false"
     inkscape:window-width="1470"
     inkscape:window-height="981"
     inkscape:window-x="304"
     inkscape:window-y="144"
     inkscape:window-maximized="0"
     units="px"
     inkscape:snap-object-midpoints="false"
     inkscape:pagecheckerboard="0" />
  <metadata
     id="metadata5">
    <rdf:RDF>
      <cc:Work
         rdf:about="">
        <dc:format>image/svg+xml</dc:format>
        <dc:type
           rdf:resource="http://purl.org/dc/dcmitype/StillImage" />
        <cc:license
           rdf:resource="http://creativecommons.org/publicdomain/zero/1.0/" />
        <dc:creator>
          <cc:Agent>
            <dc:title>Dexterux</dc:title>
          </cc:Agent>
        </dc:creator>
        <dc:publisher>
          <cc:Agent>
            <dc:title>Dexterux</dc:title>
          </cc:Agent>
        </dc:publisher>
      </cc:Work>
      <cc:License
         rdf:about="http://creativecommons.org/publicdomain/zero/1.0/">
        <cc:permits
           rdf:resource="http://creativecommons.org/ns#Reproduction" />
        <cc:permits
           rdf:resource="http://creativecommons.org/ns#Distribution" />
        <cc:permits
           rdf:resource="http://creativecommons.org/ns#DerivativeWorks" />
      </cc:License>
    </rdf:RDF>
  </metadata>
  <g
     inkscape:label="Layer 1"
     inkscape:groupmode="layer"
     id="layer1">
    <ellipse
       style="fill:none;fill-opacity:1;stroke:#4d4d4d;stroke-width:2.64583;stroke-linecap:round;stroke-linejoin:round;stroke-miterlimit:4;stroke-dasharray:none;stroke-opacity:1"
       id="path833"
       cx="33.866665"
       cy="33.866665"
       rx="25.135416"
       ry="25.135418" />
    <path
       d="m 41.661796,44.8158 c 0,0 -2.903695,1.548595 -7.794981,1.548595 -4.891287,0 -7.795289,-1.548595 -7.795289,-1.548595"
       style="fill:none;fill-opacity:1;stroke:#4d4d4d;stroke-width:2.64583;stroke-linecap:round;stroke-linejoin:round;stroke-miterlimit:4;stroke-dasharray:none;stroke-opacity:1"
       id="path902-3-0-1"
       sodipodi:nodetypes="czc" />
    <path
       sodipodi:nodetypes="cc"
       id="path1442-3-3"
       d="m 37.522899,15.905503 c 2.758984,2.764075 7.38447,4.200126 10.931638,4.57773"
       style="font-variation-settings:normal;vector-effect:none;fill:none;fill-opacity:1;stroke:#4d4d4d;stroke-width:1.66663;stroke-linecap:round;stroke-linejoin:miter;stroke-miterlimit:4;stroke-dasharray:none;stroke-dashoffset:0;stroke-opacity:1;stop-color:#000000" />
    <path
       sodipodi:nodetypes="cc"
       id="path1442-3-3-6"
       d="m 30.210431,15.905503 c -2.758984,2.764075 -7.38447,4.200126 -10.931638,4.57773"
       style="font-variation-settings:normal;vector-effect:none;fill:none;fill-opacity:1;stroke:#4d4d4d;stroke-width:1.66663;stroke-linecap:round;stroke-linejoin:miter;stroke-miterlimit:4;stroke-dasharray:none;stroke-dashoffset:0;stroke-opacity:1;stop-color:#000000" />
    <path
       id="path835"
       style="fill:#4d4d4d;fill-opacity:1;stroke:none;stroke-width:3.84616;stroke-linecap:round;stroke-linejoin:round;stroke-miterlimit:4;stroke-dasharray:none;stroke-opacity:1"
       d="M 93.785156 85.542969 A 22.943603 22.943603 0 0 0 70.841797 108.48633 A 22.943603 22.943603 0 0 0 83.628906 129.04883 C 85.048445 125.0254 88.873313 122.1582 93.394531 122.1582 L 94.175781 122.1582 C 98.697 122.1582 102.52382 125.0254 103.94336 129.04883 A 22.943603 22.943603 0 0 0 116.72852 108.48633 A 22.943603 22.943603 0 0 0 93.785156 85.542969 z M 93.785156 89.011719 A 11.115266 11.115266 0 0 1 104.90039 100.12695 A 11.115266 11.115266 0 0 1 93.785156 111.24219 A 11.115266 11.115266 0 0 1 82.669922 100.12695 A 11.115266 11.115266 0 0 1 93.785156 89.011719 z M 104.0293 112.3418 A 4.5455452 4.5455452 0 0 1 108.57422 116.88867 A 4.5455452 4.5455452 0 0 1 104.0293 121.43359 A 4.5455452 4.5455452 0 0 1 99.482422 116.88867 A 4.5455452 4.5455452 0 0 1 104.0293 112.3418 z "
       transform="scale(0.26458332)" />
    <path
       id="path835-8"
       style="fill:#4d4d4d;fill-opacity:1;stroke:none;stroke-width:3.84616;stroke-linecap:round;stroke-linejoin:round;stroke-miterlimit:4;stroke-dasharray:none;stroke-opacity:1"
       d="M 162.21484 85.542969 A 22.943603 22.943603 0 0 0 139.27148 108.48633 A 22.943603 22.943603 0 0 0 152.05664 129.04883 C 153.47618 125.0254 157.303 122.1582 161.82422 122.1582 L 162.60547 122.1582 C 167.12669 122.1582 170.95155 125.0254 172.37109 129.04883 A 22.943603 22.943603 0 0 0 185.1582 108.48633 A 22.943603 22.943603 0 0 0 162.21484 85.542969 z M 162.21484 89.011719 A 11.115266 11.115266 0 0 1 173.33008 100.12695 A 11.115266 11.115266 0 0 1 162.21484 111.24219 A 11.115266 11.115266 0 0 1 151.09961 100.12695 A 11.115266 11.115266 0 0 1 162.21484 89.011719 z M 172.45703 112.3418 A 4.5455452 4.5455452 0 0 1 177.00391 116.88867 A 4.5455452 4.5455452 0 0 1 172.45703 121.43359 A 4.5455452 4.5455452 0 0 1 167.91211 116.88867 A 4.5455452 4.5455452 0 0 1 172.45703 112.3418 z "
       transform="scale(0.26458332)" />
    <rect
       style="fill:none;fill-opacity:1;stroke:#4d4d4d;stroke-width:1.5875;stroke-linecap:round;stroke-linejoin:round;stroke-miterlimit:4;stroke-dasharray:none;stroke-opacity:1"
       id="rect25152"
       width="6.7112169"
       height="5.6875696"
       x="32.320793"
       y="21.97035"
       rx="2.7403278"
       ry="2.7403278"
       transform="matrix(0,1,1,0,0,0)"
       inkscape:transform-center-x="-3.4362393"
       inkscape:transform-center-y="-1.6078962" />
    <rect
       style="fill:none;fill-opacity:1;stroke:#4d4d4d;stroke-width:1.5875;stroke-linecap:round;stroke-linejoin:round;stroke-miterlimit:4;stroke-dasharray:none;stroke-opacity:1"
       id="rect25152-0"
       width="6.7112169"
       height="5.6875696"
       x="32.320793"
       y="40.075409"
       rx="2.7403278"
       ry="2.7403278"
       transform="matrix(0,1,1,0,0,0)"
       inkscape:transform-center-x="-3.4362393"
       inkscape:transform-center-y="-1.6078962" />
    <rect
       style="fill:#ffffff;fill-opacity:1;stroke:#4d4d4d;stroke-width:0;stroke-linecap:round;stroke-linejoin:round;stroke-miterlimit:4;stroke-dasharray:none;stroke-opacity:1"
       id="rect25152-9"
       width="9.5911417"
       height="0"
       x="21.780874"
       y="33.450893"
       rx="2.7403278"
       ry="nan" />
  </g>
</svg>
