<?xml version="1.0" encoding="UTF-8" standalone="no"?>
<svg
   sodipodi:docname="1FAE0_plain.svg"
   inkscape:version="1.1 (c68e22c387, 2021-05-23)"
   id="svg8"
   version="1.1"
   viewBox="0 0 67.733331 67.733331"
   height="256"
   width="256"
   xmlns:inkscape="http://www.inkscape.org/namespaces/inkscape"
   xmlns:sodipodi="http://sodipodi.sourceforge.net/DTD/sodipodi-0.dtd"
   xmlns="http://www.w3.org/2000/svg"
   xmlns:svg="http://www.w3.org/2000/svg"
   xmlns:rdf="http://www.w3.org/1999/02/22-rdf-syntax-ns#"
   xmlns:cc="http://creativecommons.org/ns#"
   xmlns:dc="http://purl.org/dc/elements/1.1/">
  <defs
     id="defs2" />
  <sodipodi:namedview
     inkscape:snap-object-midpoints="false"
     units="px"
     inkscape:window-maximized="1"
     inkscape:window-y="-9"
     inkscape:window-x="-9"
     inkscape:window-height="991"
     inkscape:window-width="1920"
     showgrid="false"
     inkscape:document-rotation="0"
     inkscape:current-layer="g67222"
     inkscape:document-units="px"
     inkscape:cy="138.75"
     inkscape:cx="87.678571"
     inkscape:zoom="2.8"
     inkscape:pageshadow="2"
     inkscape:pageopacity="0.0"
     borderopacity="1.0"
     bordercolor="#666666"
     pagecolor="#ffffff"
     id="base"
     inkscape:pagecheckerboard="0" />
  <metadata
     id="metadata5">
    <rdf:RDF>
      <cc:Work
         rdf:about="">
        <dc:format>image/svg+xml</dc:format>
        <dc:type
           rdf:resource="http://purl.org/dc/dcmitype/StillImage" />
        <cc:license
           rdf:resource="http://creativecommons.org/publicdomain/zero/1.0/" />
        <dc:creator>
          <cc:Agent>
            <dc:title>Dexterux</dc:title>
          </cc:Agent>
        </dc:creator>
        <dc:publisher>
          <cc:Agent>
            <dc:title>Dexterux</dc:title>
          </cc:Agent>
        </dc:publisher>
      </cc:Work>
      <cc:License
         rdf:about="http://creativecommons.org/publicdomain/zero/1.0/">
        <cc:permits
           rdf:resource="http://creativecommons.org/ns#Reproduction" />
        <cc:permits
           rdf:resource="http://creativecommons.org/ns#Distribution" />
        <cc:permits
           rdf:resource="http://creativecommons.org/ns#DerivativeWorks" />
      </cc:License>
    </rdf:RDF>
  </metadata>
  <g
     id="layer1"
     inkscape:groupmode="layer"
     inkscape:label="Layer 1">
    <g
       style="stroke-width:2.11667;stroke-miterlimit:4;stroke-dasharray:none"
       transform="translate(-0.20231606,-4.8271594)"
       id="g1009">
      <g
         id="g67222"
         transform="translate(0.4541619)">
        <path
           style="fill:none;fill-opacity:1;stroke:#4d4d4d;stroke-width:2.64583;stroke-linecap:round;stroke-linejoin:round;stroke-miterlimit:4;stroke-dasharray:none;stop-color:#000000"
           d="m 13.694587,51.412681 c -3.723886,0.529292 -3.091177,1.707792 -4.4418417,3.130481 -1.1136139,1.172998 -5.7277883,0.791692 -4.0860848,4.817624 0.9466108,2.321364 5.9852075,4.710499 12.6667575,4.056745 7.999184,-0.782676 7.473118,-2.883622 14.385427,-2.333014 6.91231,0.550609 5.992255,4.345637 15.770717,4.680345 7.165719,0.245277 12.423085,-2.455609 9.280692,-5.368175 -0.40275,-0.373294 -0.01486,-2.641758 1.439777,-2.891812 2.133436,-0.366742 4.222876,-0.590913 3.406319,-3.235133 -0.485233,-1.571307 -6.390305,-2.836321 -6.390305,-2.836321"
           id="path51797"
           sodipodi:nodetypes="cssszssssc" />
        <path
           id="path833"
           style="fill:none;stroke:#4d4d4d;stroke-width:2.64583;stroke-linecap:round;stroke-linejoin:round;stroke-miterlimit:4;stroke-dasharray:none"
           d="M 13.743748,50.742796 C 15.934241,47.018949 11.414105,43.885463 11.377082,32.35476 11.327837,17.017606 22.775047,6.4929197 38.874849,8.6367529 56.893128,11.036048 59.468279,26.266742 59.096575,33.299701 58.410097,46.288451 53.281301,47.804476 53.73655,50.744096"
           sodipodi:nodetypes="csssc"
           transform="translate(0.20231606,4.8271594)" />
        <path
           id="path835"
           style="fill:#4d4d4d;fill-opacity:1;stroke:none;stroke-width:3.84616;stroke-linecap:round;stroke-linejoin:round;stroke-miterlimit:4;stroke-dasharray:none;stroke-opacity:1"
           d="M 101.51172 70.173828 A 17.857142 17.857142 0 0 0 83.654297 88.03125 A 17.857142 17.857142 0 0 0 101.51172 105.88867 A 17.857142 17.857142 0 0 0 119.36914 88.03125 A 17.857142 17.857142 0 0 0 101.51172 70.173828 z M 101.51172 75.888672 A 7.1428558 7.1428558 0 0 1 108.6543 83.03125 A 7.1428558 7.1428558 0 0 1 101.51172 90.173828 A 7.1428558 7.1428558 0 0 1 94.369141 83.03125 A 7.1428558 7.1428558 0 0 1 101.51172 75.888672 z "
           transform="matrix(0.26458332,0,0,0.26458332,-0.25184584,4.8271594)" />
        <path
           id="path835-3"
           style="fill:#4d4d4d;fill-opacity:1;stroke:none;stroke-width:3.84616;stroke-linecap:round;stroke-linejoin:round;stroke-miterlimit:4;stroke-dasharray:none;stroke-opacity:1"
           d="M 160.84961 81.791016 A 17.857142 17.857142 0 0 0 142.99219 99.648438 A 17.857142 17.857142 0 0 0 160.84961 117.50586 A 17.857142 17.857142 0 0 0 178.70703 99.648438 A 17.857142 17.857142 0 0 0 160.84961 81.791016 z M 160.84961 87.505859 A 7.1428558 7.1428558 0 0 1 167.99219 94.648438 A 7.1428558 7.1428558 0 0 1 160.84961 101.79102 A 7.1428558 7.1428558 0 0 1 153.70703 94.648438 A 7.1428558 7.1428558 0 0 1 160.84961 87.505859 z "
           transform="matrix(0.26458332,0,0,0.26458332,-0.25184584,4.8271594)" />
        <path
           sodipodi:nodetypes="czc"
           id="path902-3-0"
           style="fill:none;fill-opacity:1;stroke:#4d4d4d;stroke-width:2.64583;stroke-linecap:round;stroke-linejoin:round;stroke-miterlimit:4;stroke-dasharray:none;stroke-opacity:1"
           d="m 43.473296,46.113427 c 0,0 -2.745304,1.941306 -8.270213,1.941306 -5.524909,0 -9.339638,-4.614001 -9.339638,-4.614001" />
        <path
           style="fill:#4d4d4d;fill-opacity:1;stroke:#4d4d4d;stroke-width:1.66687;stroke-linecap:round;stroke-linejoin:round;stroke-miterlimit:4;stroke-dasharray:none;stroke-opacity:1;stop-color:#000000"
           d="m 16.652951,60.075975 c 2.138156,0.115214 5.545842,-0.806492 5.545842,-0.806492"
           id="path69972"
           sodipodi:nodetypes="cc" />
        <path
           style="fill:#4d4d4d;fill-opacity:1;stroke:#4d4d4d;stroke-width:1.66686;stroke-linecap:round;stroke-linejoin:round;stroke-miterlimit:4;stroke-dasharray:none;stroke-opacity:1;stop-color:#000000"
           d="m 53.041467,59.433283 c 1.809287,1.951484 0.86307,2.668448 0.73293,2.723797"
           id="path69976"
           sodipodi:nodetypes="cc" />
      </g>
    </g>
  </g>
</svg>
