<?xml version="1.0" encoding="UTF-8" standalone="no"?>
<svg
   width="256"
   height="256"
   viewBox="0 0 67.733331 67.733331"
   version="1.1"
   id="svg8"
   inkscape:version="1.1 (c68e22c387, 2021-05-23)"
   sodipodi:docname="1FAE2_plain.svg"
   xmlns:inkscape="http://www.inkscape.org/namespaces/inkscape"
   xmlns:sodipodi="http://sodipodi.sourceforge.net/DTD/sodipodi-0.dtd"
   xmlns="http://www.w3.org/2000/svg"
   xmlns:svg="http://www.w3.org/2000/svg"
   xmlns:rdf="http://www.w3.org/1999/02/22-rdf-syntax-ns#"
   xmlns:cc="http://creativecommons.org/ns#"
   xmlns:dc="http://purl.org/dc/elements/1.1/">
  <defs
     id="defs2" />
  <sodipodi:namedview
     id="base"
     pagecolor="#ffffff"
     bordercolor="#666666"
     borderopacity="1.0"
     inkscape:pageopacity="0.0"
     inkscape:pageshadow="2"
     inkscape:zoom="1.979899"
     inkscape:cx="85.610428"
     inkscape:cy="61.366767"
     inkscape:document-units="px"
     inkscape:current-layer="layer1"
     inkscape:document-rotation="0"
     showgrid="false"
     inkscape:window-width="1920"
     inkscape:window-height="991"
     inkscape:window-x="-9"
     inkscape:window-y="-9"
     inkscape:window-maximized="1"
     units="px"
     inkscape:snap-object-midpoints="false"
     inkscape:pagecheckerboard="0" />
  <metadata
     id="metadata5">
    <rdf:RDF>
      <cc:Work
         rdf:about="">
        <dc:format>image/svg+xml</dc:format>
        <dc:type
           rdf:resource="http://purl.org/dc/dcmitype/StillImage" />
        <cc:license
           rdf:resource="http://creativecommons.org/publicdomain/zero/1.0/" />
        <dc:creator>
          <cc:Agent>
            <dc:title>Dexterux</dc:title>
          </cc:Agent>
        </dc:creator>
        <dc:publisher>
          <cc:Agent>
            <dc:title>Dexterux</dc:title>
          </cc:Agent>
        </dc:publisher>
      </cc:Work>
      <cc:License
         rdf:about="http://creativecommons.org/publicdomain/zero/1.0/">
        <cc:permits
           rdf:resource="http://creativecommons.org/ns#Reproduction" />
        <cc:permits
           rdf:resource="http://creativecommons.org/ns#Distribution" />
        <cc:permits
           rdf:resource="http://creativecommons.org/ns#DerivativeWorks" />
      </cc:License>
    </rdf:RDF>
  </metadata>
  <g
     inkscape:label="Layer 1"
     inkscape:groupmode="layer"
     id="layer1">
    <path
       id="path833"
       style="color:#000000;fill:#4d4d4d;stroke-width:3.77953;stroke-linecap:round;stroke-linejoin:round;-inkscape-stroke:none"
       d="M 128.00195 28 C 72.832762 28 28 72.832758 28 128.00195 C 28 164.68608 47.834586 196.77787 77.337891 214.17773 C 75.40375 211.47818 73.351322 208.60924 70.939453 205.2168 C 70.937956 205.21453 70.94095 205.21107 70.939453 205.20898 C 70.936052 205.20416 70.934944 205.20571 70.931641 205.20117 C 68.896541 202.3589 68.441665 199.14166 68.748047 195.75391 C 49.905109 179.26626 38.001953 155.05099 38.001953 128.00195 C 38.001953 78.237146 78.23715 38.001953 128.00195 38.001953 C 177.76676 38.001953 218.00195 78.237146 218.00195 128.00195 C 218.00195 166.02245 194.50409 198.45576 161.22656 211.6582 C 160.25625 212.83831 159.10691 213.90251 157.81836 214.8125 L 140.25 227.2207 C 189.65085 221.16562 227.99609 179.02198 227.99609 128.00195 C 227.99609 72.832758 183.17115 28 128.00195 28 z "
       transform="scale(0.26458332)" />
    <path
       id="path951-0"
       style="fill:#ffffff;fill-opacity:1;stroke:#4d4d4d;stroke-width:2.11667;stroke-linecap:round;stroke-linejoin:round;stroke-miterlimit:4;stroke-dasharray:none;stroke-opacity:1;stop-color:#000000"
       d="m 38.719429,52.595209 c 0.792216,-0.559472 1.755538,-0.754685 2.527091,-0.512143 0.77157,0.242503 1.234115,0.886036 1.213399,1.688081 -0.02065,0.802014 -0.521417,1.640723 -1.313622,2.200188 l -8e-6,5e-6 -5.222371,3.68752 c -2.654502,1.874379 -10.028567,2.73608 -10.943259,1.462449 -0.914695,-1.273632 -2.414613,-3.312121 -5.35054,-7.441753 -1.08259,-1.507409 0.50141,-5.62853 1.88399,-8.150821 1.382577,-2.522294 5.041017,-5.540238 5.758888,-5.775136 0.984169,-0.322034 2.122842,-0.0056 2.624427,1.019896 0.501587,1.025521 -0.0423,1.771768 -0.511055,2.43402 -0.621044,0.877388 -2.568269,2.522401 -2.568269,2.522401 3.034313,-2.143639 5.259331,-3.714177 8.293949,-5.857377 v 0 c 0.792217,-0.559458 1.755539,-0.754686 2.527087,-0.512135 0.771554,0.242554 1.234117,0.886028 1.2134,1.688079 -0.02066,0.802015 -0.521416,1.640723 -1.313626,2.200188 l -5.075375,3.583611 6.566266,-4.63614 c 0.792215,-0.55947 1.755533,-0.754694 2.527089,-0.512139 0.771547,0.242552 1.234119,0.88603 1.213398,1.688082 -0.02065,0.802014 -0.521413,1.64072 -1.313633,2.200182 l -6.566269,4.636146 4.649589,-3.282642 c 0.792218,-0.559459 1.755538,-0.754685 2.527086,-0.512134 0.771573,0.242516 1.23412,0.886028 1.213404,1.688076 -0.02065,0.802023 -0.521416,1.640718 -1.313631,2.200193 l -6.566269,4.636144 z"
       sodipodi:nodetypes="cssccszczszscccsscccsscccssccc" />
    <path
       id="path835"
       style="fill:#4d4d4d;fill-opacity:1;stroke:none;stroke-width:3.84616;stroke-linecap:round;stroke-linejoin:round;stroke-miterlimit:4;stroke-dasharray:none;stroke-opacity:1"
       d="M 93.785156 89.142578 A 17.857142 17.857142 0 0 0 75.927734 107 A 17.857142 17.857142 0 0 0 93.785156 124.85742 A 17.857142 17.857142 0 0 0 111.64258 107 A 17.857142 17.857142 0 0 0 93.785156 89.142578 z M 93.785156 94.857422 A 7.1428558 7.1428558 0 0 1 100.92773 102 A 7.1428558 7.1428558 0 0 1 93.785156 109.14258 A 7.1428558 7.1428558 0 0 1 86.642578 102 A 7.1428558 7.1428558 0 0 1 93.785156 94.857422 z "
       transform="scale(0.26458332)" />
    <path
       id="path835-3"
       style="fill:#4d4d4d;fill-opacity:1;stroke:none;stroke-width:3.84616;stroke-linecap:round;stroke-linejoin:round;stroke-miterlimit:4;stroke-dasharray:none;stroke-opacity:1"
       d="M 162.21484 89.142578 A 17.857142 17.857142 0 0 0 144.35742 107 A 17.857142 17.857142 0 0 0 162.21484 124.85742 A 17.857142 17.857142 0 0 0 180.07227 107 A 17.857142 17.857142 0 0 0 162.21484 89.142578 z M 162.21484 94.857422 A 7.1428558 7.1428558 0 0 1 169.35742 102 A 7.1428558 7.1428558 0 0 1 162.21484 109.14258 A 7.1428558 7.1428558 0 0 1 155.07227 102 A 7.1428558 7.1428558 0 0 1 162.21484 94.857422 z "
       transform="scale(0.26458332)" />
  </g>
</svg>
