<?xml version="1.0" encoding="UTF-8" standalone="no"?>
<svg
   width="256"
   height="256"
   viewBox="0 0 67.733331 67.733331"
   version="1.1"
   id="svg8"
   inkscape:version="1.1 (c68e22c387, 2021-05-23)"
   sodipodi:docname="1FAE3.svg.2021_10_14_23_42_33.0.svg"
   xmlns:inkscape="http://www.inkscape.org/namespaces/inkscape"
   xmlns:sodipodi="http://sodipodi.sourceforge.net/DTD/sodipodi-0.dtd"
   xmlns="http://www.w3.org/2000/svg"
   xmlns:svg="http://www.w3.org/2000/svg"
   xmlns:rdf="http://www.w3.org/1999/02/22-rdf-syntax-ns#"
   xmlns:cc="http://creativecommons.org/ns#"
   xmlns:dc="http://purl.org/dc/elements/1.1/">
  <defs
     id="defs2" />
  <sodipodi:namedview
     id="base"
     pagecolor="#ffffff"
     bordercolor="#666666"
     borderopacity="1.0"
     inkscape:pageopacity="0.0"
     inkscape:pageshadow="2"
     inkscape:zoom="8"
     inkscape:cx="189.4375"
     inkscape:cy="125.9375"
     inkscape:document-units="px"
     inkscape:current-layer="layer1"
     inkscape:document-rotation="0"
     showgrid="false"
     inkscape:window-width="1920"
     inkscape:window-height="991"
     inkscape:window-x="-9"
     inkscape:window-y="-9"
     inkscape:window-maximized="1"
     units="px"
     inkscape:snap-object-midpoints="false"
     inkscape:pagecheckerboard="0" />
  <metadata
     id="metadata5">
    <rdf:RDF>
      <cc:Work
         rdf:about="">
        <dc:format>image/svg+xml</dc:format>
        <dc:type
           rdf:resource="http://purl.org/dc/dcmitype/StillImage" />
        <cc:license
           rdf:resource="http://creativecommons.org/publicdomain/zero/1.0/" />
        <dc:creator>
          <cc:Agent>
            <dc:title>Dexterux</dc:title>
          </cc:Agent>
        </dc:creator>
        <dc:publisher>
          <cc:Agent>
            <dc:title>Dexterux</dc:title>
          </cc:Agent>
        </dc:publisher>
      </cc:Work>
      <cc:License
         rdf:about="http://creativecommons.org/publicdomain/zero/1.0/">
        <cc:permits
           rdf:resource="http://creativecommons.org/ns#Reproduction" />
        <cc:permits
           rdf:resource="http://creativecommons.org/ns#Distribution" />
        <cc:permits
           rdf:resource="http://creativecommons.org/ns#DerivativeWorks" />
      </cc:License>
    </rdf:RDF>
  </metadata>
  <g
     inkscape:label="Layer 1"
     inkscape:groupmode="layer"
     id="layer1">
    <path
       style="color:#000000;fill:none;stroke-width:2.64583;stroke-linecap:round;stroke-linejoin:round;-inkscape-stroke:none"
       d="M 59.002081,33.866665 A 25.135416,25.135418 0 0 1 33.866665,59.002083 25.135416,25.135418 0 0 1 8.7312489,33.866665 25.135416,25.135418 0 0 1 33.866665,8.7312469 25.135416,25.135418 0 0 1 59.002081,33.866665 Z"
       id="path23178" />
    <path
       id="path23180"
       style="color:#000000;fill:#4d4d4d;stroke-width:3.77953;stroke-linecap:round;stroke-linejoin:round;-inkscape-stroke:none"
       d="M 128.00195 28 C 81.301885 28 42.018329 60.127438 31.054688 103.45312 C 32.513335 101.34193 34.004639 99.356462 35.433594 97.595703 C 38.770057 93.484505 43.4732 89.729976 48.076172 86.59375 C 63.046626 57.714042 93.180424 38.001953 128.00195 38.001953 C 166.27228 38.001953 198.8841 61.808451 211.91797 95.433594 C 216.03079 99.265797 220.06218 104.27466 221.88477 110.26367 C 223.67712 112.45553 225.41154 113.78256 227.10938 114.875 C 220.66472 65.898154 178.71895 28 128.00195 28 z M 227.05078 141.58984 C 223.07852 149.96373 220.46532 155.36885 218.75586 158.97656 C 218.21868 160.11024 217.32879 161.35165 215.92773 162.0625 C 214.52668 162.77333 213.13494 162.70211 212.32617 162.59375 C 211.77754 162.52023 211.50343 162.46728 211.19141 162.41406 C 197.69565 195.06447 165.57078 218.00195 128.00195 218.00195 C 92.60305 218.00195 62.04366 197.63385 47.339844 167.96875 C 46.831355 167.85373 46.332226 167.73401 45.849609 167.60547 C 44.071973 167.13201 42.475228 166.57556 41.035156 165.80469 C 39.595084 165.03381 38.150337 164.07483 37.242188 162.1582 C 35.650032 158.79801 33.233081 153.78905 29.720703 146.39453 C 38.375505 192.79373 79.117951 227.99609 128.00195 227.99609 C 178.56002 227.99609 220.40459 190.34264 227.05078 141.58984 z "
       transform="scale(0.26458332)" />
    <path
       id="path835-3"
       style="fill:#4d4d4d;fill-opacity:1;stroke:none;stroke-width:3.84616;stroke-linecap:round;stroke-linejoin:round;stroke-miterlimit:4;stroke-dasharray:none;stroke-opacity:1"
       d="M 162.21484 89.142578 A 17.857142 17.857142 0 0 0 144.35742 107 A 17.857142 17.857142 0 0 0 162.21484 124.85742 A 17.857142 17.857142 0 0 0 180.07227 107 A 17.857142 17.857142 0 0 0 162.21484 89.142578 z M 162.21484 94.857422 A 7.1428558 7.1428558 0 0 1 169.35742 102 A 7.1428558 7.1428558 0 0 1 162.21484 109.14258 A 7.1428558 7.1428558 0 0 1 155.07227 102 A 7.1428558 7.1428558 0 0 1 162.21484 94.857422 z "
       transform="scale(0.26458332)" />
    <path
       id="path951-0"
       style="fill:none;fill-opacity:1;stroke:#4d4d4d;stroke-width:2.11667;stroke-linecap:round;stroke-linejoin:round;stroke-miterlimit:4;stroke-dasharray:none;stroke-opacity:1;stop-color:#000000"
       d="m 25.855753,36.527706 c 0.879714,-0.408312 1.862428,-0.427582 2.577968,-0.05059 0.715564,0.376956 1.055188,1.093013 0.890957,1.878337 -0.164161,0.785305 -0.807235,1.520599 -1.686936,1.928906 l -9e-6,3e-6 -5.799063,2.691065 C 18.891032,44.343311 11.481992,43.868461 10.810564,42.451428 10.139135,41.034394 9.0291538,38.759942 6.8815071,34.1707 6.0868338,32.493567 8.3842933,28.723371 10.196838,26.489954 c 1.812545,-2.233421 5.952945,-4.546267 6.701305,-4.648602 1.025969,-0.140296 2.089424,0.375234 2.398947,1.474063 0.309521,1.098854 -0.35939,1.735451 -0.939323,2.30289 -0.768337,0.751774 -2.979028,2.020866 -2.979028,2.020866 3.369582,-1.564658 5.840205,-2.71066 9.210009,-4.274832 v 0 c 0.879712,-0.408297 1.862428,-0.427583 2.577962,-0.05058 0.71554,0.377003 1.055192,1.093006 0.890958,1.878335 -0.16417,0.785304 -0.807233,1.520599 -1.68694,1.928905 l -5.635814,2.615205 7.291306,-3.383268 c 0.879713,-0.408309 1.862425,-0.427591 2.577966,-0.05059 0.715533,0.377 1.055192,1.093008 0.890955,1.878338 -0.16416,0.785305 -0.80723,1.520597 -1.686946,1.928898 l -7.29131,3.383272 5.162952,-2.395483 c 0.879714,-0.408299 1.862428,-0.427582 2.577962,-0.05058 0.715565,0.376969 1.055194,1.093006 0.890962,1.878333 -0.164162,0.785314 -0.807232,1.520594 -1.686946,1.928909 l -7.29131,3.38327 z"
       sodipodi:nodetypes="cssccszczszscccsscccsscccssccc" />
    <g
       id="g14564"
       transform="translate(-0.52916665)"
       style="fill:none">
      <path
         id="rect12686"
         style="fill:none;fill-opacity:1;stroke:none;stroke-width:2.11667;stroke-linecap:round;stroke-linejoin:round;stroke-miterlimit:4;stroke-dasharray:none;stroke-opacity:1;stop-color:#000000"
         d="m 45.65252,21.408723 c 0.353277,-0.264958 -0.900653,0.239274 -1.043072,0.677868 -0.187243,0.469167 -0.14785,1.027901 0.164607,1.435258 0.524373,0.689206 0.208949,0.151311 0.761412,0.818109 0.870048,1.026796 1.752219,2.04373 2.619293,3.072874 0.508957,0.694275 1.02735,1.435579 1.179364,2.30033 0.06983,0.51354 -0.259705,0.963639 -0.540097,1.360257 -0.41231,0.560742 -0.251848,0.486066 -0.951054,0.512247 -1.400503,0.03532 -2.80008,0.127341 -4.200189,0.186605 -1.191477,0.05714 -2.382954,0.114284 -3.574431,0.171423 -0.04583,0.003 -0.272563,0.02395 -0.387154,0.05331 -0.731202,0.153811 -1.495242,0.604391 -1.710391,1.363657 -0.146087,0.577456 0.301366,1.112401 0.782897,1.367875 0.570725,0.31964 1.245216,0.359431 1.882121,0.282858 2.56399,-0.175514 5.127204,-0.367972 7.691456,-0.536072 0.481867,-0.01516 0.653359,0.704948 0.282151,0.96325 -0.280516,0.156699 -0.621966,0.09012 -0.929534,0.138184 -1.740548,0.127539 -3.482937,0.235807 -5.222335,0.375393 -0.765534,0.1133 -1.577736,0.532559 -1.860044,1.29613 -0.203198,0.529945 0.155059,1.085027 0.592643,1.368058 0.588168,0.397179 1.32824,0.469307 2.017032,0.383087 2.572689,-0.177551 3.673059,-0.28651 6.246116,-0.455099 0.481867,-0.01516 0.65336,0.704945 0.282152,0.963247 -0.280514,0.156723 -0.621972,0.09006 -0.929542,0.138078 -1.207442,0.09117 -2.417371,0.157419 -3.623252,0.264311 -0.754938,0.118258 -0.07995,0.452554 -0.3606,1.204749 -0.207312,0.530722 0.151556,1.088564 0.590058,1.372708 0.598024,0.402254 1.350787,0.472652 2.049301,0.376931 1.599125,-0.136001 3.200614,-0.248195 4.798237,-0.39932 1.143346,-0.152159 2.298832,-0.175501 3.443909,-0.306972 0.464735,-0.06546 1.010909,-0.205663 1.219618,-0.676921 1.365144,-2.83787 2.720086,-5.681416 4.049074,-8.536328 0.183597,-0.370607 0.08931,-0.814562 -0.165142,-1.126929 -0.482349,-0.625343 -1.912496,-0.691362 -2.435458,-1.281499 -0.27795,-0.325461 -0.599962,-0.62394 -0.82195,-0.99123 -0.13181,-0.504055 -0.318457,-0.996082 -0.593481,-1.441344 -0.985795,-1.625211 -2.477339,-2.867845 -4.030483,-3.927863 -0.398282,-0.259671 -0.825947,-0.55102 -1.311872,-0.579396 -0.135364,0.07115 -0.361485,0.03722 -0.427977,0.188127 -0.05355,0.157417 -0.213186,0.310557 -0.09558,0.474875 0.08701,0.312177 0.370938,0.509209 0.55693,0.763307 0.727519,0.853906 1.461291,1.697248 2.169083,2.564844 0.09767,0.294084 -0.167627,0.577842 -0.409636,0.708022 -0.146002,0.09694 -0.349099,0.07861 -0.437192,-0.08389 -2.090761,-2.406118 -3.395219,-3.529376 -5.485184,-5.936207 -0.466466,-0.503106 -2.392408,-0.446448 -1.831808,-0.866899 z"
         sodipodi:nodetypes="sccccccccccccccccccccccccccccccccccccccccccccss" />
      <path
         id="path6448"
         style="fill:none;stroke:#4d4d4d;stroke-width:2.11667;stroke-linecap:round;stroke-linejoin:round;stroke-miterlimit:4;stroke-dasharray:none;stroke-opacity:1;stop-color:#000000"
         d="m 48.560162,28.702977 c 0,0 0.03641,-0.02065 0.08521,0.176099 0.02426,0.09781 0.05158,0.249337 0.07902,0.483836 0.162293,1.387111 -0.822882,1.568888 -1.308033,1.698716 m 10.984944,-1.23321 c -0.602771,-2.872837 -4.503565,-5.420715 -5.145185,-5.819262 -0.879633,-0.54639 -1.612024,-0.60371 -2.366267,-0.246258 -0.754242,0.357451 0.697579,2.050764 1.515504,2.994326 0.704098,0.812251 1.3627,1.629951 1.3627,1.629951 -2.438922,-2.802481 -5.424192,-5.991211 -5.424192,-5.991211 v 0 c 0,0 -1.104613,-1.282029 -2.333362,-1.097209 -0.799785,0.120298 -1.409128,0.567846 -1.579339,1.351901 -0.167299,0.796986 0.148223,1.43246 0.71651,2.089331 1.213968,1.403199 2.515232,2.932522 3.41249,3.96299 m -1.143803,2.358651 -7.39627,0.355748 c -0.967466,0.06799 -1.836973,0.526304 -2.280997,1.2023 -0.444018,0.675992 -0.395099,1.466967 0.128408,2.074962 0.523428,0.60801 1.441869,0.940663 2.409333,0.872666 l 8.018185,-0.564301 -5.677553,0.399756 c -0.96746,0.068 -1.83697,0.526313 -2.280988,1.202306 -0.444061,0.675981 -0.395101,1.466966 0.1284,2.074961 0.523435,0.608016 1.44187,0.940659 2.409339,0.872677 l 6.568248,-0.564302 -2.602498,0.285574 c -0.967468,0.06798 -1.836971,0.526312 -2.280998,1.2023 -0.444067,0.675968 -0.395093,1.466969 0.128406,2.074961 0.523428,0.608009 1.441875,0.940664 2.409328,0.87268 l 10e-6,-3e-6 c 0,0 4.055694,-0.248876 4.959868,-0.401373 0.904174,-0.152497 2.111812,-0.700575 3.806946,-1.131591 0.844298,-0.121888 1.252694,0.427086 1.588408,-0.28142 0.671437,-1.41703 1.781411,-3.691486 3.929058,-8.280728 0.794673,-1.677133 -1.167143,-1.266966 -2.979689,-3.500383"
         sodipodi:nodetypes="cssccssscszscscccscccccccccccsczcscc" />
    </g>
    <g
       id="g1691"
       transform="translate(-0.52916665)"
       style="fill:none" />
    <path
       id="rect12686-0"
       style="fill:none;fill-opacity:1;stroke:none;stroke-width:2.11667;stroke-linecap:round;stroke-linejoin:round;stroke-miterlimit:4;stroke-dasharray:none;stroke-opacity:1;stop-color:#000000"
       d="m 45.123353,21.408723 c 0.353277,-0.264958 -0.900653,0.239274 -1.043072,0.677868 -0.187243,0.469167 -0.14785,1.027901 0.164607,1.435258 0.524373,0.689206 0.208949,0.151311 0.761412,0.818109 0.870048,1.026796 1.752219,2.04373 2.619293,3.072874 0.508957,0.694275 1.02735,1.435579 1.179364,2.30033 0.06983,0.51354 -0.259705,0.963639 -0.540097,1.360257 -0.41231,0.560742 -0.251848,0.486066 -0.951054,0.512247 -1.400503,0.03532 -2.80008,0.127341 -4.200189,0.186605 -1.191477,0.05714 -2.382954,0.114284 -3.574431,0.171423 -0.04583,0.003 -0.272563,0.02395 -0.387154,0.05331 -0.731202,0.153811 -1.495242,0.604391 -1.710391,1.363657 -0.146087,0.577456 0.301366,1.112401 0.782897,1.367875 0.570725,0.31964 1.245216,0.359431 1.882121,0.282858 2.56399,-0.175514 5.127204,-0.367972 7.691456,-0.536072 0.481867,-0.01516 0.653359,0.704948 0.282151,0.96325 -0.280516,0.156699 -0.621966,0.09012 -0.929534,0.138184 -1.740548,0.127539 -3.482937,0.235807 -5.222335,0.375393 -0.765534,0.1133 -1.577736,0.532559 -1.860044,1.29613 -0.203198,0.529945 0.155059,1.085027 0.592643,1.368058 0.588168,0.397179 1.32824,0.469307 2.017032,0.383087 2.572689,-0.177551 3.673059,-0.28651 6.246116,-0.455099 0.481867,-0.01516 0.65336,0.704945 0.282152,0.963247 -0.280514,0.156723 -0.621972,0.09006 -0.929542,0.138078 -1.207442,0.09117 -2.417371,0.157419 -3.623252,0.264311 -0.754938,0.118258 -0.07995,0.452554 -0.3606,1.204749 -0.207312,0.530722 0.151556,1.088564 0.590058,1.372708 0.598024,0.402254 1.350787,0.472652 2.049301,0.376931 1.599125,-0.136001 3.200614,-0.248195 4.798237,-0.39932 1.143346,-0.152159 2.298832,-0.175501 3.443909,-0.306972 0.464735,-0.06546 1.010909,-0.205663 1.219618,-0.676921 1.365144,-2.83787 2.720086,-5.681416 4.049074,-8.536328 0.183597,-0.370607 0.08931,-0.814562 -0.165142,-1.126929 -0.482349,-0.625343 -1.912496,-0.691362 -2.435458,-1.281499 -0.27795,-0.325461 -0.599962,-0.62394 -0.82195,-0.99123 -0.13181,-0.504055 -0.318457,-0.996082 -0.593481,-1.441344 -0.985795,-1.625211 -2.477339,-2.867845 -4.030483,-3.927863 -0.398282,-0.259671 -0.825947,-0.55102 -1.311872,-0.579396 -0.135364,0.07115 -0.361485,0.03722 -0.427977,0.188127 -0.05355,0.157417 -0.213186,0.310557 -0.09558,0.474875 0.08701,0.312177 0.370938,0.509209 0.55693,0.763307 0.727519,0.853906 1.461291,1.697248 2.169083,2.564844 0.09767,0.294084 -0.167627,0.577842 -0.409636,0.708022 -0.146002,0.09694 -0.349099,0.07861 -0.437192,-0.08389 -2.090761,-2.406118 -3.395219,-3.529376 -5.485184,-5.936207 -0.466466,-0.503106 -2.392408,-0.446448 -1.831808,-0.866899 z"
       sodipodi:nodetypes="sccccccccccccccccccccccccccccccccccccccccccccss" />
    <path
       style="fill:none;stroke:#4d4d4d;stroke-width:2.11667;stroke-linecap:round;stroke-linejoin:round;stroke-miterlimit:4;stroke-dasharray:none;stroke-opacity:1;stop-color:#000000"
       d="m 48.030995,28.702977 c 0,0 0.03641,-0.02065 0.08521,0.176099 0.02426,0.09781 0.05158,0.249337 0.07902,0.483836 0.162293,1.387111 -0.822882,1.568888 -1.308033,1.698716 m 10.984944,-1.23321 c -0.602771,-2.872837 -4.503565,-5.420715 -5.145185,-5.819262 -0.879633,-0.54639 -1.612024,-0.60371 -2.366267,-0.246258 -0.754242,0.357451 0.697579,2.050764 1.515504,2.994326 0.704098,0.812251 1.3627,1.629951 1.3627,1.629951 -2.438922,-2.802481 -5.424192,-5.991211 -5.424192,-5.991211 v 0 c 0,0 -1.104613,-1.282029 -2.333362,-1.097209 -0.799785,0.120298 -1.409128,0.567846 -1.579339,1.351901 -0.167299,0.796986 0.148223,1.43246 0.71651,2.089331 1.213968,1.403199 2.515232,2.932522 3.41249,3.96299 m -1.143803,2.358651 -7.39627,0.355748 c -0.967466,0.06799 -1.836973,0.526304 -2.280997,1.2023 -0.444018,0.675992 -0.395099,1.466967 0.128408,2.074962 0.523428,0.60801 1.441869,0.940663 2.409333,0.872666 l 8.018185,-0.564301 -5.677553,0.399756 c -0.96746,0.068 -1.83697,0.526313 -2.280988,1.202306 -0.444061,0.675981 -0.395101,1.466966 0.1284,2.074961 0.523435,0.608016 1.44187,0.940659 2.409339,0.872677 l 6.568248,-0.564302 -2.602498,0.285574 c -0.967468,0.06798 -1.836971,0.526312 -2.280998,1.2023 -0.444067,0.675968 -0.395093,1.466969 0.128406,2.074961 0.523428,0.608009 1.441875,0.940664 2.409328,0.87268 l 1e-5,-3e-6 c 0,0 4.055694,-0.248876 4.959868,-0.401373 0.904174,-0.152497 2.111812,-0.700575 3.806946,-1.131591 0.844298,-0.121888 1.252694,0.427086 1.588408,-0.28142 0.671437,-1.41703 1.781411,-3.691486 3.929058,-8.280728 0.794673,-1.677133 -1.167143,-1.266966 -2.979689,-3.500383"
       sodipodi:nodetypes="cssccssscszscscccscccccccccccsczcscc"
       id="path6448-1" />
    <path
       id="rect12686-9"
       style="fill:none;fill-opacity:1;stroke:none;stroke-width:2.11667;stroke-linecap:round;stroke-linejoin:round;stroke-miterlimit:4;stroke-dasharray:none;stroke-opacity:1;stop-color:#000000"
       d="m 45.123353,21.408723 c 0.353277,-0.264958 -0.900653,0.239274 -1.043072,0.677868 -0.187243,0.469167 -0.14785,1.027901 0.164607,1.435258 0.524373,0.689206 0.208949,0.151311 0.761412,0.818109 0.870048,1.026796 1.752219,2.04373 2.619293,3.072874 0.508957,0.694275 1.02735,1.435579 1.179364,2.30033 0.06983,0.51354 -0.259705,0.963639 -0.540097,1.360257 -0.41231,0.560742 -0.251848,0.486066 -0.951054,0.512247 -1.400503,0.03532 -2.80008,0.127341 -4.200189,0.186605 -1.191477,0.05714 -2.382954,0.114284 -3.574431,0.171423 -0.04583,0.003 -0.272563,0.02395 -0.387154,0.05331 -0.731202,0.153811 -1.495242,0.604391 -1.710391,1.363657 -0.146087,0.577456 0.301366,1.112401 0.782897,1.367875 0.570725,0.31964 1.245216,0.359431 1.882121,0.282858 2.56399,-0.175514 5.127204,-0.367972 7.691456,-0.536072 0.481867,-0.01516 0.653359,0.704948 0.282151,0.96325 -0.280516,0.156699 -0.621966,0.09012 -0.929534,0.138184 -1.740548,0.127539 -3.482937,0.235807 -5.222335,0.375393 -0.765534,0.1133 -1.577736,0.532559 -1.860044,1.29613 -0.203198,0.529945 0.155059,1.085027 0.592643,1.368058 0.588168,0.397179 1.32824,0.469307 2.017032,0.383087 2.572689,-0.177551 3.673059,-0.28651 6.246116,-0.455099 0.481867,-0.01516 0.65336,0.704945 0.282152,0.963247 -0.280514,0.156723 -0.621972,0.09006 -0.929542,0.138078 -1.207442,0.09117 -2.417371,0.157419 -3.623252,0.264311 -0.754938,0.118258 -0.07995,0.452554 -0.3606,1.204749 -0.207312,0.530722 0.151556,1.088564 0.590058,1.372708 0.598024,0.402254 1.350787,0.472652 2.049301,0.376931 1.599125,-0.136001 3.200614,-0.248195 4.798237,-0.39932 1.143346,-0.152159 2.298832,-0.175501 3.443909,-0.306972 0.464735,-0.06546 1.010909,-0.205663 1.219618,-0.676921 1.365144,-2.83787 2.720086,-5.681416 4.049074,-8.536328 0.183597,-0.370607 0.08931,-0.814562 -0.165142,-1.126929 -0.482349,-0.625343 -1.912496,-0.691362 -2.435458,-1.281499 -0.27795,-0.325461 -0.599962,-0.62394 -0.82195,-0.99123 -0.13181,-0.504055 -0.318457,-0.996082 -0.593481,-1.441344 -0.985795,-1.625211 -2.477339,-2.867845 -4.030483,-3.927863 -0.398282,-0.259671 -0.825947,-0.55102 -1.311872,-0.579396 -0.135364,0.07115 -0.361485,0.03722 -0.427977,0.188127 -0.05355,0.157417 -0.213186,0.310557 -0.09558,0.474875 0.08701,0.312177 0.370938,0.509209 0.55693,0.763307 0.727519,0.853906 1.461291,1.697248 2.169083,2.564844 0.09767,0.294084 -0.167627,0.577842 -0.409636,0.708022 -0.146002,0.09694 -0.349099,0.07861 -0.437192,-0.08389 -2.090761,-2.406118 -3.395219,-3.529376 -5.485184,-5.936207 -0.466466,-0.503106 -2.392408,-0.446448 -1.831808,-0.866899 z"
       sodipodi:nodetypes="sccccccccccccccccccccccccccccccccccccccccccccss" />
    <path
       id="path902-3-2"
       style="fill:#4d4d4d;fill-opacity:1;stroke:#4d4d4d;stroke-width:2.11667;stroke-linecap:round;stroke-linejoin:round;stroke-miterlimit:4;stroke-dasharray:none;stroke-opacity:1"
       d="m 39.983089,47.456016 c 1.871032,-0.787969 2.898435,-6.108451 -5.847189,-6.108451 -8.745624,0 -7.718221,5.320482 -5.847189,6.108451 2.44343,1.029028 3.34719,-0.147512 5.847189,-0.147512 2.499999,0 3.403759,1.17654 5.847189,0.147512 z"
       sodipodi:nodetypes="scszs" />
  </g>
</svg>
