<?xml version="1.0" encoding="UTF-8" standalone="no"?>
<svg
   sodipodi:docname="2620.svg"
   inkscape:version="1.2 (dc2aedaf03, 2022-05-15)"
   id="svg8"
   version="1.1"
   viewBox="0 0 67.733331 67.733331"
   height="256"
   width="256"
   xmlns:inkscape="http://www.inkscape.org/namespaces/inkscape"
   xmlns:sodipodi="http://sodipodi.sourceforge.net/DTD/sodipodi-0.dtd"
   xmlns="http://www.w3.org/2000/svg"
   xmlns:svg="http://www.w3.org/2000/svg"
   xmlns:rdf="http://www.w3.org/1999/02/22-rdf-syntax-ns#"
   xmlns:cc="http://creativecommons.org/ns#"
   xmlns:dc="http://purl.org/dc/elements/1.1/">
  <defs
     id="defs2" />
  <sodipodi:namedview
     inkscape:snap-object-midpoints="false"
     units="px"
     inkscape:window-maximized="0"
     inkscape:window-y="72"
     inkscape:window-x="472"
     inkscape:window-height="981"
     inkscape:window-width="1470"
     showgrid="false"
     inkscape:document-rotation="0"
     inkscape:current-layer="layer1"
     inkscape:document-units="px"
     inkscape:cy="139.10715"
     inkscape:cx="121.07143"
     inkscape:zoom="2.8"
     inkscape:pageshadow="2"
     inkscape:pageopacity="0.0"
     borderopacity="1.0"
     bordercolor="#666666"
     pagecolor="#ffffff"
     id="base"
     inkscape:pagecheckerboard="0"
     inkscape:showpageshadow="2"
     inkscape:deskcolor="#d1d1d1" />
  <metadata
     id="metadata5">
    <rdf:RDF>
      <cc:Work
         rdf:about="">
        <dc:format>image/svg+xml</dc:format>
        <dc:type
           rdf:resource="http://purl.org/dc/dcmitype/StillImage" />
        <cc:license
           rdf:resource="http://creativecommons.org/publicdomain/zero/1.0/" />
        <dc:creator>
          <cc:Agent>
            <dc:title>Dexterux</dc:title>
          </cc:Agent>
        </dc:creator>
        <dc:publisher>
          <cc:Agent>
            <dc:title>Dexterux</dc:title>
          </cc:Agent>
        </dc:publisher>
      </cc:Work>
      <cc:License
         rdf:about="http://creativecommons.org/publicdomain/zero/1.0/">
        <cc:permits
           rdf:resource="http://creativecommons.org/ns#Reproduction" />
        <cc:permits
           rdf:resource="http://creativecommons.org/ns#Distribution" />
        <cc:permits
           rdf:resource="http://creativecommons.org/ns#DerivativeWorks" />
      </cc:License>
    </rdf:RDF>
  </metadata>
  <g
     id="layer1"
     inkscape:groupmode="layer"
     inkscape:label="Layer 1">
    <g
       id="g2774"
       transform="matrix(1.063506,0,0,1.089075,-58.793491,-2.9192855)"
       style="stroke-width:0.929183" />
    <path
       style="fill:#d9d9d9;fill-opacity:1;stroke:#595959;stroke-width:2.11667;stroke-linecap:butt;stroke-linejoin:miter;stroke-dasharray:none;stroke-opacity:1"
       d="m 42.591366,22.01965 c 0,0 4.648178,-4.800654 4.865075,-6.237301 0.2169,-1.436644 -1.153172,-1.743724 -0.953457,-3.315666 0.199725,-1.57193 1.218694,-3.505723 2.367584,-3.8922671 1.148891,-0.3865437 3.694114,0.4225427 6.133613,2.8620411 l 1.292693,1.292692 c 2.439497,2.439498 3.248585,4.984723 2.862042,6.133615 -0.386545,1.14889 -2.320337,2.167859 -3.892269,2.367582 -1.571941,0.199717 -1.879021,-1.170355 -3.315666,-0.953457 -1.436653,0.216892 -6.237301,4.865075 -6.237301,4.865075"
       id="path12465"
       sodipodi:nodetypes="csssscsssc" />
    <path
       style="fill:#d9d9d9;fill-opacity:1;stroke:#595959;stroke-width:2.11667;stroke-linecap:butt;stroke-linejoin:miter;stroke-dasharray:none;stroke-opacity:1"
       d="m 25.141965,22.01965 c 0,0 -4.648178,-4.800654 -4.865075,-6.237301 -0.2169,-1.436644 1.153172,-1.743724 0.953458,-3.315666 C 21.030622,10.894753 20.011653,8.96096 18.862763,8.5744159 17.713872,8.1878722 15.168649,8.9969586 12.72915,11.436457 l -1.292693,1.292692 c -2.4394975,2.439498 -3.2485852,4.984723 -2.8620418,6.133615 0.3865444,1.14889 2.3203368,2.167859 3.8922688,2.367582 1.571941,0.199717 1.879021,-1.170355 3.315666,-0.953457 1.436653,0.216892 6.237301,4.865075 6.237301,4.865075"
       id="path12465-0"
       sodipodi:nodetypes="csssscsssc" />
    <path
       style="fill:#d9d9d9;fill-opacity:1;stroke:#595959;stroke-width:2.11667;stroke-linecap:butt;stroke-linejoin:miter;stroke-dasharray:none;stroke-opacity:1"
       d="m 45.713681,42.591366 c 0,0 4.800654,4.648177 6.237301,4.865075 1.436644,0.2169 1.743724,-1.153172 3.315667,-0.953458 1.57193,0.199726 3.505722,1.218694 3.892267,2.367585 0.386543,1.148891 -0.422543,3.694114 -2.862041,6.133613 l -1.292693,1.292692 c -2.439498,2.439498 -4.984723,3.248586 -6.133614,2.862042 -1.14889,-0.386544 -2.167859,-2.320337 -2.367583,-3.892269 -0.199716,-1.57194 1.170356,-1.87902 0.953457,-3.315665 -0.216892,-1.436654 -4.865075,-6.237302 -4.865075,-6.237302"
       id="path12465-1"
       sodipodi:nodetypes="csssscsssc" />
    <path
       style="fill:#d9d9d9;fill-opacity:1;stroke:#595959;stroke-width:2.11667;stroke-linecap:butt;stroke-linejoin:miter;stroke-dasharray:none;stroke-opacity:1"
       d="m 22.01965,42.591366 c 0,0 -4.800654,4.648177 -6.237301,4.865075 -1.436644,0.2169 -1.743724,-1.153172 -3.315666,-0.953458 -1.571931,0.199726 -3.5057233,1.218694 -3.8922677,2.367585 -0.3865434,1.148891 0.4225425,3.694114 2.8620417,6.133613 l 1.292692,1.292692 c 2.439498,2.439498 4.984723,3.248586 6.133614,2.862042 1.14889,-0.386544 2.167859,-2.320337 2.367583,-3.892269 0.199716,-1.57194 -1.170356,-1.87902 -0.953457,-3.315665 0.216892,-1.436654 4.865075,-6.237302 4.865075,-6.237302"
       id="path12465-1-4"
       sodipodi:nodetypes="csssscsssc" />
    <g
       id="g12461"
       transform="matrix(0.81957479,0,0,0.819836,5.7373906,9.4630584)"
       style="stroke-width:1.21995">
      <path
         style="font-variation-settings:normal;fill:#ffffff;fill-opacity:1;stroke:#798486;stroke-width:1.93668;stroke-linecap:butt;stroke-linejoin:miter;stroke-miterlimit:4;stroke-dasharray:none;stroke-dashoffset:0;stroke-opacity:1;stop-color:#000000"
         d="m 25.665123,47.463337 c 0.132118,3.587495 0.354272,6.222773 1.425614,6.547561 1.071339,0.324787 3.62129,0.568018 5.153858,0.568018 h 1.62207 1.622073 c 1.532567,0 4.082519,-0.243231 5.153855,-0.568018 1.071343,-0.324788 1.293496,-2.960066 1.425615,-6.547561"
         id="path5120"
         sodipodi:nodetypes="csscssc" />
      <g
         id="g5284"
         transform="matrix(0.90812354,0,0,1.0133333,2.9742498,-0.79349841)"
         style="fill:#ffffff;fill-opacity:1;stroke-width:2.01886;stroke-dasharray:none">
        <path
           style="font-variation-settings:normal;opacity:1;fill:#ffffff;fill-opacity:1;stroke:#798486;stroke-width:2.01886;stroke-linecap:butt;stroke-linejoin:miter;stroke-miterlimit:4;stroke-dasharray:none;stroke-dashoffset:0;stroke-opacity:1;stop-color:#000000;stop-opacity:1"
           d="m 34.017856,48.947914 v 5.669642"
           id="path5216" />
        <path
           style="font-variation-settings:normal;fill:#ffffff;fill-opacity:1;stroke:#798486;stroke-width:2.01886;stroke-linecap:butt;stroke-linejoin:miter;stroke-miterlimit:4;stroke-dasharray:none;stroke-dashoffset:0;stroke-opacity:1;stop-color:#000000"
           d="m 38.317335,48.947914 v 5.669642"
           id="path5216-6" />
        <path
           style="font-variation-settings:normal;fill:#ffffff;fill-opacity:1;stroke:#798486;stroke-width:2.01886;stroke-linecap:butt;stroke-linejoin:miter;stroke-miterlimit:4;stroke-dasharray:none;stroke-dashoffset:0;stroke-opacity:1;stop-color:#000000"
           d="m 29.718377,48.947914 v 5.669642"
           id="path5216-6-8" />
      </g>
      <path
         style="fill:#ffffff;fill-opacity:1;stroke:#8c8c8c;stroke-width:3.22779;stroke-linecap:butt;stroke-linejoin:miter;stroke-dasharray:none;stroke-opacity:1"
         d="m 39.010555,48.319729 c 4.176847,0 4.194005,-1.282119 5.63723,-2.148649 1.443226,-0.866537 4.329684,-1.191483 4.906973,-2.707916 0.57729,-1.516431 1.774516,-2.057513 2.544232,-7.040072 0.769727,-4.982565 4.115793,-1.154295 3.15365,-13.610697 C 54.764625,16.4944 47.675512,8.7312476 33.866667,8.7312476 c -13.808844,0 -20.897961,7.7631524 -21.385974,14.0811474 -0.962151,12.456402 2.383922,8.628132 3.153644,13.610697 0.769722,4.982559 1.966945,5.523641 2.544236,7.040072 0.577293,1.516433 3.463748,1.841379 4.906974,2.707916 1.443227,0.86653 1.460389,2.148649 5.637238,2.148649 h 5.143881 z"
         id="path1586-3"
         sodipodi:nodetypes="ssssszssssscs" />
      <path
         style="fill:#262626;fill-opacity:1;stroke:none;stroke-width:0.322779px;stroke-linecap:butt;stroke-linejoin:miter;stroke-opacity:1"
         d="m 28.03617,25.565093 c -2.887012,0.159858 -6.664324,-0.695742 -8.1085,3.794231 -0.638143,1.983997 -0.996795,5.423437 -0.478254,6.547671 0.90097,1.953357 0.88045,1.907085 3.152147,2.415642 2.271689,0.508554 5.322295,-0.401908 7.115737,-2.944695 1.79344,-2.542778 2.644885,-5.617258 2.166633,-7.270064 -0.478251,-1.65281 -0.96075,-2.702644 -3.847763,-2.542785 z"
         id="path2770"
         sodipodi:nodetypes="zsssssz" />
      <path
         style="fill:#262626;fill-opacity:1;stroke:none;stroke-width:0.322779px;stroke-linecap:butt;stroke-linejoin:miter;stroke-opacity:1"
         d="m 39.697152,25.565093 c 2.887013,0.159858 6.664324,-0.695742 8.1085,3.794231 0.638144,1.983997 0.996795,5.423437 0.478253,6.547671 -0.900967,1.953357 -0.880449,1.907085 -3.152146,2.415642 -2.271688,0.508554 -5.322295,-0.401908 -7.115736,-2.944695 -1.793439,-2.542778 -2.644884,-5.617258 -2.166634,-7.270064 0.478253,-1.65281 0.960749,-2.702644 3.847763,-2.542785 z"
         id="path2770-5-1"
         sodipodi:nodetypes="zsssssz" />
      <path
         style="fill:#333333;fill-opacity:1;stroke:none;stroke-width:0.322779px;stroke-linecap:butt;stroke-linejoin:miter;stroke-opacity:1"
         d="m 33.454821,45.514183 c -1.803532,0 -2.366813,-1.398489 -2.127136,-3.37372 0.239673,-1.975232 1.557884,-4.674712 2.538976,-4.674712 0.981092,0 2.299303,2.69948 2.538975,4.674712 0.239677,1.975231 -0.323603,3.37372 -2.127134,3.37372 z"
         id="path2855"
         sodipodi:nodetypes="cscscc" />
    </g>
  </g>
</svg>
