<?xml version="1.0" encoding="UTF-8" standalone="no"?>
<svg
   sodipodi:docname="2620_plain.svg"
   inkscape:version="1.2 (dc2aedaf03, 2022-05-15)"
   id="svg8"
   version="1.1"
   viewBox="0 0 67.733331 67.733331"
   height="256"
   width="256"
   xmlns:inkscape="http://www.inkscape.org/namespaces/inkscape"
   xmlns:sodipodi="http://sodipodi.sourceforge.net/DTD/sodipodi-0.dtd"
   xmlns="http://www.w3.org/2000/svg"
   xmlns:svg="http://www.w3.org/2000/svg"
   xmlns:rdf="http://www.w3.org/1999/02/22-rdf-syntax-ns#"
   xmlns:cc="http://creativecommons.org/ns#"
   xmlns:dc="http://purl.org/dc/elements/1.1/">
  <defs
     id="defs2" />
  <sodipodi:namedview
     inkscape:snap-object-midpoints="false"
     units="px"
     inkscape:window-maximized="1"
     inkscape:window-y="-9"
     inkscape:window-x="-9"
     inkscape:window-height="991"
     inkscape:window-width="1920"
     showgrid="false"
     inkscape:document-rotation="0"
     inkscape:current-layer="layer1"
     inkscape:document-units="px"
     inkscape:cy="33.840111"
     inkscape:cx="-59.599001"
     inkscape:zoom="0.98994948"
     inkscape:pageshadow="2"
     inkscape:pageopacity="0.0"
     borderopacity="1.0"
     bordercolor="#666666"
     pagecolor="#ffffff"
     id="base"
     inkscape:pagecheckerboard="0"
     inkscape:showpageshadow="2"
     inkscape:deskcolor="#d1d1d1" />
  <metadata
     id="metadata5">
    <rdf:RDF>
      <cc:Work
         rdf:about="">
        <dc:format>image/svg+xml</dc:format>
        <dc:type
           rdf:resource="http://purl.org/dc/dcmitype/StillImage" />
        <cc:license
           rdf:resource="http://creativecommons.org/publicdomain/zero/1.0/" />
        <dc:creator>
          <cc:Agent>
            <dc:title>Dexterux</dc:title>
          </cc:Agent>
        </dc:creator>
        <dc:publisher>
          <cc:Agent>
            <dc:title>Dexterux</dc:title>
          </cc:Agent>
        </dc:publisher>
      </cc:Work>
      <cc:License
         rdf:about="http://creativecommons.org/publicdomain/zero/1.0/">
        <cc:permits
           rdf:resource="http://creativecommons.org/ns#Reproduction" />
        <cc:permits
           rdf:resource="http://creativecommons.org/ns#Distribution" />
        <cc:permits
           rdf:resource="http://creativecommons.org/ns#DerivativeWorks" />
      </cc:License>
    </rdf:RDF>
  </metadata>
  <g
     id="layer1"
     inkscape:groupmode="layer"
     inkscape:label="Layer 1">
    <g
       id="g2774"
       transform="matrix(1.063506,0,0,1.089075,-58.793491,-2.9192855)"
       style="stroke-width:0.929183" />
    <path
       id="path12465"
       style="fill:none;fill-opacity:1;stroke:#4d4d4d;stroke-width:2.11667;stroke-linecap:butt;stroke-linejoin:miter;stroke-dasharray:none;stroke-opacity:1"
       d="M 49.505504 8.4826861 C 49.263539 8.4830446 49.049914 8.5142727 48.8704 8.5746701 C 47.721511 8.9612138 46.702828 10.89501 46.503103 12.466939 C 46.303388 14.038879 47.673433 14.345856 47.456533 15.782499 C 47.347229 16.506492 46.112609 18.083966 44.91457 19.471679 C 46.402682 20.372056 47.618257 21.430067 48.563442 22.56193 C 49.872043 21.450456 51.278746 20.378263 51.950832 20.276798 C 53.387476 20.0599 53.694453 21.429945 55.266392 21.230228 C 56.838323 21.030505 58.772116 20.01182 59.158661 18.862931 C 59.545203 17.71404 58.736315 15.168434 56.29682 12.728938 L 55.004393 11.436511 C 52.946067 9.3781861 50.812111 8.4807501 49.505504 8.4826861 z " />
    <path
       id="path12465-0"
       style="fill:none;fill-opacity:1;stroke:#4d4d4d;stroke-width:2.11667;stroke-linecap:butt;stroke-linejoin:miter;stroke-dasharray:none;stroke-opacity:1"
       d="M 18.227827 8.4826861 C 16.92122 8.4807501 14.787264 9.3781861 12.728938 11.436511 L 11.436511 12.728938 C 8.9970158 15.168434 8.1881271 17.71404 8.5746701 18.862931 C 8.9612141 20.01182 10.895008 21.030505 12.466939 21.230228 C 14.038878 21.429945 14.345855 20.0599 15.782499 20.276798 C 16.380754 20.367117 17.562509 21.227638 18.737874 22.199161 C 19.743241 21.082039 21.021161 20.048799 22.571748 19.182291 C 21.456619 17.870289 20.378577 16.456648 20.276798 15.782499 C 20.059898 14.345856 21.429942 14.038879 21.230228 12.466939 C 21.030502 10.89501 20.01182 8.9612138 18.862931 8.5746701 C 18.683417 8.5142727 18.469792 8.4830446 18.227827 8.4826861 z " />
    <path
       id="path12465-1"
       style="fill:none;fill-opacity:1;stroke:#4d4d4d;stroke-width:2.11667;stroke-linecap:butt;stroke-linejoin:miter;stroke-dasharray:none;stroke-opacity:1"
       d="M 47.037437 43.825747 C 46.768435 44.288119 46.525319 44.638364 46.351174 45.095954 C 46.015324 45.978452 44.728534 46.368626 43.585452 46.774921 C 44.960923 48.269484 47.303394 50.936463 47.456533 51.950832 C 47.673432 53.387476 46.303387 53.694454 46.503103 55.266392 C 46.702827 56.838323 47.721511 58.772117 48.8704 59.158661 C 50.01929 59.545204 52.564897 58.736316 55.004393 56.29682 L 56.29682 55.004393 C 58.736316 52.564896 59.545203 50.01929 59.158661 48.8704 C 58.772116 47.72151 56.838321 46.702829 55.266392 46.503103 C 53.694451 46.303389 53.387475 47.673433 51.950832 47.456533 C 50.993814 47.312047 48.566516 45.219085 47.037437 43.825747 z " />
    <path
       id="path12465-1-4"
       style="fill:none;fill-opacity:1;stroke:#4d4d4d;stroke-width:2.11667;stroke-linecap:butt;stroke-linejoin:miter;stroke-dasharray:none;stroke-opacity:1"
       d="M 20.211169 44.263963 C 18.692763 45.620327 16.640272 47.327031 15.782499 47.456533 C 14.345856 47.673433 14.038879 46.303389 12.466939 46.503103 C 10.895009 46.702829 8.9612141 47.72151 8.5746701 48.8704 C 8.1881271 50.01929 8.9970141 52.564896 11.436511 55.004393 L 12.728938 56.29682 C 15.168434 58.736316 17.714041 59.545204 18.862931 59.158661 C 20.01182 58.772117 21.030504 56.838323 21.230228 55.266392 C 21.429944 53.694454 20.059899 53.387476 20.276798 51.950832 C 20.423095 50.981789 22.566067 48.507138 23.958227 46.98266 C 22.717116 46.48576 21.027877 46.125798 20.635949 45.095954 C 20.520532 44.792679 20.374594 44.536537 20.211169 44.263963 z " />
    <path
       style="font-variation-settings:normal;fill:none;fill-opacity:1;stroke:#4d4d4d;stroke-width:1.58751;stroke-linecap:butt;stroke-linejoin:miter;stroke-miterlimit:4;stroke-dasharray:none;stroke-dashoffset:0;stroke-opacity:1;stop-color:#000000"
       d="m 26.771878,48.375211 c 0.108281,2.941157 0.290353,5.101653 1.168398,5.367926 0.878042,0.266272 2.967918,0.465682 4.223972,0.465682 h 1.329407 1.329411 c 1.256053,0 3.345929,-0.19941 4.223969,-0.465682 0.878046,-0.266273 1.060117,-2.426769 1.168398,-5.367926"
       id="path5120"
       sodipodi:nodetypes="csscssc" />
    <g
       id="g5284"
       transform="matrix(0.74427516,0,0,0.83076712,8.1750108,8.8125198)"
       style="fill:none;fill-opacity:1;stroke-width:2.01886;stroke-dasharray:none;stroke:#4d4d4d;stroke-opacity:1">
      <path
         style="font-variation-settings:normal;opacity:1;fill:none;fill-opacity:1;stroke:#4d4d4d;stroke-width:2.01886;stroke-linecap:butt;stroke-linejoin:miter;stroke-miterlimit:4;stroke-dasharray:none;stroke-dashoffset:0;stroke-opacity:1;stop-color:#000000;stop-opacity:1"
         d="m 34.017856,48.947914 v 5.669642"
         id="path5216" />
      <path
         style="font-variation-settings:normal;fill:none;fill-opacity:1;stroke:#4d4d4d;stroke-width:2.01886;stroke-linecap:butt;stroke-linejoin:miter;stroke-miterlimit:4;stroke-dasharray:none;stroke-dashoffset:0;stroke-opacity:1;stop-color:#000000"
         d="m 38.317335,48.947914 v 5.669642"
         id="path5216-6" />
      <path
         style="font-variation-settings:normal;fill:none;fill-opacity:1;stroke:#4d4d4d;stroke-width:2.01886;stroke-linecap:butt;stroke-linejoin:miter;stroke-miterlimit:4;stroke-dasharray:none;stroke-dashoffset:0;stroke-opacity:1;stop-color:#000000"
         d="m 29.718377,48.947914 v 5.669642"
         id="path5216-6-8" />
    </g>
    <path
       style="fill:none;fill-opacity:1;stroke:#4d4d4d;stroke-width:2.64584;stroke-linecap:butt;stroke-linejoin:miter;stroke-dasharray:none;stroke-opacity:1"
       d="m 37.709458,49.077312 c 3.423239,0 3.437301,-1.051128 4.620132,-1.76154 1.182831,-0.710418 3.548499,-0.976821 4.021631,-2.220047 0.473132,-1.243225 1.454349,-1.686823 2.085188,-5.771705 0.630849,-4.084886 3.373201,-0.946332 2.584652,-11.158539 -0.399964,-5.17972 -6.210023,-11.544231 -17.527404,-11.544231 -11.31738,0 -17.127442,6.364511 -17.527405,11.544231 -0.788555,10.212207 1.953802,7.073653 2.584647,11.158539 0.630845,4.084882 1.612059,4.52848 2.085192,5.771705 0.473135,1.243226 2.8388,1.509629 4.021632,2.220047 1.182832,0.710412 1.196898,1.76154 4.620138,1.76154 h 4.215795 z"
       id="path1586-3"
       sodipodi:nodetypes="ssssszssssscs" />
    <path
       style="fill:#4d4d4d;fill-opacity:1;stroke:none;stroke-width:0.264584px;stroke-linecap:butt;stroke-linejoin:miter;stroke-opacity:1"
       d="m 28.715129,30.422242 c -2.366123,0.131057 -5.461912,-0.570394 -6.645522,3.110647 -0.523006,1.626552 -0.816948,4.446329 -0.391965,5.368017 0.738412,1.601432 0.721594,1.563496 2.58342,1.98043 1.861819,0.416931 4.362019,-0.329499 5.831879,-2.414167 1.469858,-2.084661 2.167681,-4.60523 1.775717,-5.96026 -0.391962,-1.355033 -0.787406,-2.215725 -3.153529,-2.084667 z"
       id="path2770"
       sodipodi:nodetypes="zsssssz" />
    <path
       style="fill:#4d4d4d;fill-opacity:1;stroke:none;stroke-width:0.264584px;stroke-linecap:butt;stroke-linejoin:miter;stroke-opacity:1"
       d="m 38.272176,30.422242 c 2.366123,0.131057 5.461912,-0.570394 6.645522,3.110647 0.523007,1.626552 0.816948,4.446329 0.391964,5.368017 -0.73841,1.601432 -0.721594,1.563496 -2.583419,1.98043 -1.861819,0.416931 -4.362019,-0.329499 -5.831878,-2.414167 -1.469858,-2.084661 -2.167681,-4.60523 -1.775719,-5.96026 0.391964,-1.355033 0.787406,-2.215725 3.15353,-2.084667 z"
       id="path2770-5-1"
       sodipodi:nodetypes="zsssssz" />
    <path
       style="fill:#4d4d4d;fill-opacity:1;stroke:none;stroke-width:0.264584px;stroke-linecap:butt;stroke-linejoin:miter;stroke-opacity:1"
       d="m 33.156118,46.777224 c -1.478129,0 -1.93978,-1.146531 -1.743347,-2.765897 0.19643,-1.619366 1.276803,-3.832497 2.080881,-3.832497 0.804078,0 1.884451,2.213131 2.08088,3.832497 0.196433,1.619366 -0.265217,2.765897 -1.743345,2.765897 z"
       id="path2855"
       sodipodi:nodetypes="cscscc" />
  </g>
</svg>
